<mxfile host="app.diagrams.net" modified="2022-08-18T11:10:59.870Z" agent="5.0 (Windows NT 10.0; Win64; x64) AppleWebKit/537.36 (KHTML, like Gecko) Chrome/104.0.0.0 Safari/537.36" etag="BL9tBiW-A86TQ-LwoClC" version="20.2.3" type="github">
  <diagram name="Page-1" id="dd472eb7-4b8b-5cd9-a60b-b15522922e76">
    <mxGraphModel dx="2138" dy="546" grid="1" gridSize="10" guides="1" tooltips="1" connect="1" arrows="1" fold="1" page="1" pageScale="1" pageWidth="1100" pageHeight="850" background="none" math="0" shadow="0">
      <root>
        <mxCell id="0" />
        <mxCell id="1" parent="0" />
        <mxCell id="DfSMUIsA-n774COe4CC7-1" value="" style="shape=image;verticalLabelPosition=bottom;labelBackgroundColor=default;verticalAlign=top;aspect=fixed;imageAspect=0;image=data:image/png,iVBORw0KGgoAAAANSUhEUgAAAggAAAC9CAYAAADWZIWMAAAAAXNSR0IArs4c6QAAIABJREFUeF7snQeYFVXSht8Ot2+YnBgYkhIEJQkqCiq6oIigmBEUc845re6q+5vTGtaIOecsKkEQMayiIllyGmYYJs/c2Ol/zul7YVRYUGHVtdsHgaHD6erTXd+p+uorpbm52eWXbooDrvqjo7WNnM0BfvllfunwNn/cxsYqjvq9jnfzd+Tv4Vvgz2CBH391Mvcs3lx/8y3w21rABaWFv3MVQPz6423KbwIQhPGk0X7rzQcIv/UT8K/vW+CXWMAHCL/Eav4x/x0L+ADBs/MvjSBs9Lj/zqP74VV8gPBbWN2/pm+BX2sBHyD8Wgv6x287C/gAwQcI2252+Wf2LeBbYDMW8AGCP0V+vxbwAYIPEH6/s9MfmW+B/3kLbCpB+XtkOv3PPwz/Bn9kAR8g+ADBfyl8C/gW8C3gW8C3wE8s4AMEHyD4r4VvAd8CvgV8C/gW8AHCJuaAT1L0Xw7fAr4FfAv4FvAt0MICfgTBjyD4L4RvAd8CvgV8C/gW8CMIfgTBfwt8C/gW8C3gW8C3wOYt4EcQ/AjC5meJv4dvAd8CvgV8C/zpLOADBB8g/OkmvX/DvgV8C/gW8C2weQv4AMEHCJufJf4evgV8C/gW8C3wp7OADxB8gPCnm/T+DfsW8C3gW8C3wOYt4AMEHyBsfpb4e/gW8C3gW8C3wJ/OAj5A8AHCn27S+zf8R7WAaJzasvvsT+9DQcH9SUN28VOvTXvm95ZN28XPMx0RMgLHLfaVh2y+Y2tmF298meN//Oc/quX9cf85LeADBB8g/Dlnvn/XfwgLZFy7i5tGBoorfuY5ejcDBxQ3DRx0HAEDlCSKq62HA6obRFFMwAZXxUXDVqwWaEOVP1cU29tH+nVt/TU9YLEBJPwYpLioEkMo8uo2ivjlBuTPMnBFcTfVlukP8SD8Qf4pLeADBB8g/Cknvn/TfwwLKHJtL5ysqzgeJHA14Y5RXRdbAUfRcBQHVSzapVNXUF0TVTh8HBzVxnaz5e3qJFFdDQexXwJHOnABN1RUR0UV4EAx5frfQRdX8VrB/wgg/MB2rrhKUB4hgYkAHq6C5oTkmB3xdznuH4KMP4b9/VH+uS3gAwQfIPy53wD/7n/PFlAEEBDuVazwRURAkU5XJYXumhIcJCVAUFFdA9W1ULHSa30LlwA2BrYEFyoBV0WTEQgBAVI4BHBkOEAcI64lwIDqgQ7vqmlgokmQ4EUGROBB7OM5f0fxogUCjqiuiD6IM4n9dS+akAYMAoj4m2+BP5YFfIDgA4Q/1oz1R/snsoDnUr0gvXCwquKlFhRX/M3GVVRM18FVg+hKCNdJ4RKXrll3k6iKiusqpGwdNaCguY24sZUobg2Wq+AGu+MY7VDsJG5qDqpZIc9jaa1Rg92lk9epB7cZRRfhigCuk4vjGtiqhamBpagojk5QjknGEcTIQBVgwUVzAukIhPd3f/Mt8MexgA8QfIDwx5mt/kj/ZBYQa/E0JJCO2FU0DJE2sE1QdXADBJwUmmZh4ZB0NFQ3SZjVuI3zSTWUUxt1yGk3jKy8dijN37Bu8bPo9rdEnWyMNieR1W4MEbOOWOUjmOumY6ccrKx+lOxwPipZJBNfUbNiEoobw9HLyGs9lGDujrhqDNWpwggoOE4+MbVQRjIEjyGgKTi2iyMCEul78CIg/uZb4I9kAR8g+ADhjzRf/bH+z1vgB/UGafKhxycQwXsBElxc10ZT6rGjy7GSS0jGmmg2i2nTaSCaopGq/5Smqk+JGHkooV6oBQOxQxohJ4FmmSjiHECSQmJKGE2xiChRNFvEHlQcwyTphNDMEIa+FCW1CCtWQ9LORo/0QzPaoSmraVz+JmZsFY5eiFE8hHBRPxzHQbdrCShhHMKkNFdyHZBphw1VFP/zD9K/wf8BC/gAIQ0QRKLzx/h+Y6xjuSTYsImE5BaUQG37mSI+PhvbxHj9sOa2t79/hS2zQIaol87PY0qf6boa4j9cUxILZdxAUVBUFdu2CVCDYq/EjNcTSxWQV9wX1YkRrZlMIv4dRjgfNbAnRu5OKLqB4iZQXFG1oOESIukouJoAGRqCLaA64rUVMQfBUfA+gpobQLEdXCWFoipiZKhKANVtlGdREBUSgrcQwXF1NLcZw1yLbS4nkWxAUTth5PRC0WLE103Eaq5E03IxcneEgu64bhauuD/NxRQ8CEFkdMW1BdFS0C6RfAuZplC8P/tv7pbNKn+vbWWB9ITMnF5OyD9mHExpbm7+E79PPkDYVq+If96taQHxcckAb0H0E0RCUYEg4YHM4AseQcgFR8shriSI2CupXTWe5rplhMMRclsf7DliEVWQpEA8IKEqWHLVLoiM6VJF8W+yykBcxwMd4uqCy+ARFdOAJa1dIMbi+WzvX9eXVrbYT/yLuIbYvIJJE9fRUZUmLDcHV23GsGdhxxdgR1dQvXY7WvUcjaMYGO4qND2IYxVjouGoSXCCArJIIC+Aga1sGJmo1PA33wK+BX69BXyA4EcQfv0s8s/wX7CAqDgQjlDFUnRZBaAJYqGjY9CMbq0kGV2KrXbAyt6JXGUFJJeCmg96G2ylSK78LVl9IEiIouxROHNR6SALIlHVH0b/RNhfkQRHb2v5519yw664Ttp5y5SHHEEqDX5UGWFQVIcQTehmjKTeioCWonnV65hrPySnsBNayUHY2d1IWlkYXvxEghhLRhS8SKVXVSE2Hyj8kufkH+NbYP0770cQNjYZ/BSD/4r8niywIaQuif7SJYqwvoWRqsVe9zpK83LigbYoBQMJ5e+CShjLTUjHKVIEGacpEhEiNeDpC6QBgXCs4seSLPjzQ6HC6W/JcQJwtNwyWUYxtgxXwit3FGMxZSWFKK9UndWosW+INsyjyW1LVrsjUdQIipOQCYyAItIQBra0iZds8bbM9X6U4vw9PVp/LL4FfscW8CMIG304PkD4Hc/ZP93QhM92lBSuZhOwFfR4DTgubrgtuhXFav4aXY9ghTtj6kUgV9BiVe2BAF06YJE++DE/KAMGPJcqxY9aAITMan9LDP7j6EPLaMHmj8+oHWTGs74GQyRSZORDVEsaRDFdE1ONoKsp7MqJJNbOJliyG3r+HqhaPooWEMkLGalQ0hGF9SqPmx+Iv4dvAd8CLSzgAwQfIPgvxB/AAkHFRrcXYa18htrK5YTbHkFo+8OJx1wcLURA0zDclJQ+TqoxHFUQ+jICR5u/QQ8g/PrtlwKMjV1Z8hYk8VCoM7roBGRawlHiMi0SdlaiRKdTtfgjompX2vU8XVZYKJonzOQpOno8BX/zLeBb4OdbwAcIPkD4+bPGP2KrWUDk4r1+A+nSqPXdixRvFSz+c10Mdw31S14mx4iiF/fBCvfFVNug2Da2o6OpKgGtGdcVPAPhRNPEQnnuzacNtg5ASLO3t1qFkqfoIMo1hbqjo3qyzJpr4bohSXoMBupR7eVgWphKe9CzSMTrZBAlGC7AVQwJJkT6JF384CUfZAMrz75/PPiwte281aazf6L/MQv4AMEHCP9jU/r3fjuZBkppDoAI/7sauuhooFqShKg5CgG1lkR0HrV1Fq3bDgDXwk7WoRo5uLLqwNM4SBf4pZ1cpsOiWDlnmif92mZHHtDY0GjJk1X+IegQDsu7XgZoCC7A1ihlznATxP2KKgvR90ECKlG1INMhCq6TubZNSDExq14mVbUQN7c9Sslg9OB2qGoERzVRHNFvAkxF0BsddNGH4vcOElp0udoAZgRw/L3PdX98f3QL+ADBBwh/9Dn8hxu/bK0sOAVkSWeliV+OQUpzsLVmtMQ8qHqL5nXfk9XmUIzWB2I64fX32ZJHKBznRretpjWSBgg/IP4J558RMJLr8TRAyHSKzKzKNx+5+DkPr2Xb6pachw18BxGNEeWeTSjxL2lYN4Gk05v8LmOIk4suej+41WhCr8HVJYFTlm8KtcbfXdfIDAgTtm0R35GpEw8Y/RFjHz/nefv7/vYW8AGCDxB++1n4pxqBi+56vQhsxZMRFqWKqitohA5Buwa36T3izcuJlI3ECuyAJSSSlcD6REHLPP8mAcKvtukGwqAQJPrp1nL5mlE6TFMdZQR82y5vfwoQvDLMgKZiCQKnYqHbTehOGEtTUDWTVM0ygrnbEyMbR02huUa6o+Vv2xJqA4zK2MzFdSzMZLOXHtHCGMGQ150zGcOxRMMtCEbyZCRJRFIkXFifQ5EqWusVKDOUzwwXYz3ATOvVeXwNb8tEpby/e9EuMTd/+jQz5/cCRbIZ1xayPTxoI6WtNkyr9Dm8Vt9bUfAqbVxRtWOaJnpAiI3525ZawAcIPkDY0rni77cVLOBl011SroGlOhi2iqHUk4quxNFaYwSyUUTIXIekFsBydQJSJjlTivjDVfm2Awgt3UX6q512AHIELb1MxrVIPYWMp9k6rIZNmfzHVROeP1NQhPqjqpKS6RqNgBNAI4qWmEvT4scJRrrglg6D7M6ologgeK2pW4x8Kzzln3eKHz5RYTeHZPUcvv7gKZrr6snqchD7HHAYGpUsmPgsKxctwinekcFHn0FKzyEgUlKOQ0qzJfcEVySsEqgYuLJ6JcO1EOkUr3OmIH7KwITUoxCloZk/p1NIImUk01/Cprqnl5Hu3umdLdPO22u05VFCBalUqGuKVJCChQDAAgjbWEqAkGOiuy4JRUTDxMUF8BUpIwPdFdU2MWwlKN8LVYBmuVfCUw2V5ateO3GRhgu4yfQoxD2JrqLinrz7QhHKnQL8uQRt0Ta8mdXzP6O80qX/fiOQjcR9Ma0tmqQ+QPABwhZNFH+nrWMB+Sm1XTRdkOfqCdpLaFr9Ns2NMQo6jkHJ6SbbIGtuUK6zTDUpVQIza64fj2JrAgTRa8FbebbcxIc5LarkpDUUBLHSQwkbuAgy5eBFGqRks+d91nMS1scU5OL216ceNg4QxNVFWaSLrYqKjqDkGFiqRchpJJCYRaJhEnX1YQo6jcENdMJ1UxtkqrfOI/7VZxEWN1dMYcqj57GuuhKt48mMOvdvZAeX8cK1h5CoiaO0H85h1/wTTc0iYNZi2EliWhGWnkXAsQjblThSH0JwFQLYqkrSCKOmgjIFg9MonbOthEnphaQ0yKIRLRn1CJxKBJwEppKNpYUIE0VJ1WMpWaCGcLWMk/cYHEklgKal0MwmDFOcw8DUsnGNPBzLRqcBw2zGdQSJNgfXCJFy4kTsahRK0OwEiroWU+mIpYcIOBqa1YxLXboNeISkkY+iiwhcI2qi0QMBWo7cX3ejBMwacLNBjePaAZqdXIJhBb3hUz56/Doa7e4cetltJJ3sFgD3Vz+u/+kT+ADBBwj/0xP8t7w5yTVIr4PWB2CFg7R1dF3DSs2natFd5GohinY4C1tpi20JYOB1NxT+V5DpPActVkk/Ffz52QDhx3HgdGMnT1JZlBN6rZ7TzR5QMYk4zWknmgA1Bor4JcYSkGWV6Uy+XLmKVXxcyceVjaLE6s4AVXRyEP+UXqkLqeeWDLv1gGFLg9T8RPXRAyaefonjZnmrUFchQFKufE07TkAvQU2uImAtgHAfkuQj4IHXDjvpFZKsl4uWIYlMOOS/SwgUkZgVE/j08QuIJYKkIn0YePwVFKe+5JF7LqVjYSkN2QMZfe2drJ39IS89cDsLFy6n9047MWDMVfTcpS8Lxl3C5999RfvW21G9bDZNxQPY7+yb6NqhhDnTnuODFx+mvrySrt36sf+Z/6SsexeiSyfz1j2nUp3U6dN7CNM+mUjfg67m4NGjWDbtGT5+7jrqrWK67HIkQ074G3pWtlyJa65DTA2gN37H1BdvYu4n4wnnlNF9yIX0OmAMpVqcWVPv57O3x2ElHNr2HM5eR19Lq3aFfPvMtcz//gvCeh5VK7+koXQPDj/9Hrpsp/PpC4/xzhuvYLtVbN9pMEdf/iD5JcXE5rzCi3ddQZPpktt1MIedezN5oVqmP3UZS5bXUVAcYtXsrzE6HcHo866k/IsH+PaNx4ibOTTl9eacu9+TqRl/27wFfICw1QHCjxp1tDz/Vlg5/XS4P24M8utXZ5ufNv4eW2IBz90ZUqRIdB+wsDGwUG0bRxPh1xpsczXBUBmmXSodruIm0+R/z1V5gVsvAL7xTPCWPO9MFtoLP0vwIQPDInxreb7erJK/NKsKx6xDtVajmg24lo0iVnKpGJbdhG014rrNYFuyTFBWE0g/qqFq2ahqEDNQihEIoQZE/j8HN9QW12iFo+WhB0tR9RJQcnEVHYWQdw4ZbrZkK2qvL8Tmg/4/UG9cH/jwAIt3tAApAozYUlhK8D7Ef0FHQbeFXHUlzU3T0NQgwdwhWKohHZ5MjqwXWfIiJZkce+a5b1OGhevgrBjPp49fREOkE3qoPR13HoK96HlWVBu0LwywqK6Q4/56C58/dxtWKJc9h/bj1VtOI1Y6nENOvpDa127ho08n063fEIpzHb6YNIG2I25g8JBePPCPGxl08L7s3COfl266AmPnazhk9Eg+vHcsSyua2WPQAcSXz2fl/JlkDzyTgQM78MFD19G2y67kFxcxb8Ykcne+lP1Gn7K+nsV1Kvn+nRuZ8vGXDNprd+KNFXw7v4pRF4/DaPiCV++/lfY9B9KxbS5zv5iGkz+Eg08/j/L3bmDilIns0H9/ynKTTJk8je5H3sS+/bJ44ppT6LPfmXTp04nxz7xC24Fj6du7Ha/fcCyF7fvTuWcbZn7+Lo2hIZxxyWnMeOpyPvuunp57DSU3Po8vPv+anQ+/n506p5j67N+pd7rRa/AZ9Bo8PF0BsyVv8Z97Hx8gbBOAsInPxy9gSv9kwfcTIlDL1qJeaVnGZWzTj9h/eG+2fB24ZS/f1j7fll311+21nhiWriaQgMCJEojPobJmJcVtBqC6rUATDkxIJRreql06ph8+uZ+dzW9hMK9Jkmi05JH4RL7WcFKoTg2OaIzU+DVEF6MkVqKadWA34thRVLtJaixI9yhElzRBnPPOI3PCVprQJn7QUmAgYzZH+mQs2UAqC0eEpPUIaqAQ9HYoRmfUrK6o2QNQIx2wNVsUMOIq2TKCIkzgCGCVnsy/bC5v6u0JoDk6ulJFsvFD4hWfoxt9yepwECm9OG19r721d7MtxZY2kPN+3QzZ9NEynbRyPFMeupDaVgPp0rkDtStXk1z3HW36jEKpnsvCtRHGXnEn0XWzWPz9l1Ss+JrqGRMwdhjNAadcQOXrN/D53EUccM4/adMqxKPnDKVs2DUMHTGC6NIvWb5kDjWr57J27hS0Xa5h2NA9eOdfZxDuMZbho89HWzOeJ265hLKBJ9KxyGXW+CewS3bDCGg0l39DrOhwTvn7zbgBwTFIkR2fx9SHrqFS78uoM6/FMtdQX1VNq7IuzH/pFL5bnsuQU26kTRuDJRPu5P0PZzD2qruonnwfU+dWc9DZt1GaW8MTl42l/YgrGbzXjrx43fEojkpBh84EcjrTc/8zcGo+Z+Kjf8fK3x0jyyC+7ktq3B6cc83FzHrjH/x7USFn3fAc5vJnePmBG+k4+GH+sm8bPnz4AprDgzninH9Ifoq/bZkFfICwzQHChg+KIPy05EvL1rTr+V/pj9n68jTvOJkPbFGHLkhIYhev0a34oP6QYCXCqhmAkFG4925xA5AQq1K5+vuPm7eCFUQfbwW1QZzFu0Im3O15jA2rXEmBksd519j4B/U/rXs98SBxb+mugpIg5anjSSut/3B7f14vNLRlc/6/slfGpXidFyEiVrDNb1K9+j30kgMpKh1KKlUk6dpCxEc6IXlfP/14bQ4grC//S88dsW72jlFxVdFi2SFIHcSW4sZnYNbMIFY/i5BSRdCpQXXMNCHNWy1L+wpOpLC3GvBmjy3OmiVLMwVxUoIFzUDTA56ksZvAdaNAHNtKoGqaXJl7dYRJMFMgAIfoTi2aQsnGUAam2pkUraB4DwJFg9DCO+Cohbi6yIE7OLLzZAYobI3aCDGXBelO3hSa20DA+YLmlV+QytqPnNK9pC4FRCX3Q75v0gJi4GJCeiS/raHxsKmJKO5SW/EBU8ddRH2HQ9l7YBemPXUDNYlSjjjvWpZ9+hIrl4cY9Y9reemvR+Jm5bLH7v2Z99krVOcO5uCTL6byrWuY8n2Cg8+/gfbFKvedegCdh1/C3v178uwtp9Ghe2/69+7G1NefxO19JQcN7cMbD56N0eMsDh17PKyaxGM3X0WrPcayfWGKL94bz5irHyZQbKAobSRvQA8GSDri2RiEk58x9aGrWavvzugzLsd1m2hs1skN51D++nH8e2WE/U+5lcIiixXTHuOdt75m7DV3UDXxTj5danLQWbdRbKzl4StH0nHY1ew//Cis+CoqPnuW+V9NYs2SZUT6Hc3Avh1459F72P/462i7cz/UkOBEtCOQms+0Fy7j20XdueDmcSRWPM6z9/8f7Qf9i/33bcVHj15Mo7EvR5x9PSk/u7DF30AfIGx1gNBSVcZjAGtuEl3RSSqewxUfIE2WYSk4aoCkYOQK/7ChkM1zhi4YomRLc0gI9rsrWNkeAcxWQrIZr2xzmyaMid8E6MhsHhgRHzuRCxYhXM+pC0jhXcuT481sGyhlHvFIfEhNRSHLtUmpNpYEH0K+V9yLhu6m5BhcTUV3BCiwJYtYp5GAncIkD1sXQjbe6tX70HoD9P684f8bhi1y4KJ0S6xyHVRFUJFMLCeCrerYqosqHJAsExQZcuGpPCe4wX5bPP+32Y4Z2OSVMqpkmUtpXHwH4dYD0ApGYDl5srOiZ/OWpVcbWi5veI4bFwten7GS+X6vhZMQW3KUJLprE7brUFLV2PWfo9RNRmtcCMkVmJgYmoajq8StXKL1Lg31FsmEiqrl4JhJagWeiOfKFEBOdgmFxWXkFRRihEW5pbgnMXcNNAESVA3HTkhSW8pKEo030VBXx+oVq6ivrSQcrKNV6yxyCwK4zjpyCgMU5kNeQICMlBRAsiyXlNMWJ9IRtbA7RuFhqOFuECjEVPI8xyzeHxG6SPPyf9nDy0BTL90irB90a9HVOmyKROcKXLMBUwtha7lyfimqjWaLOw6s13vwogrbZhNcE3XFBD5+9Eqq2h/NYQftzLQHL2ZhczdOve4q5r/zELOWJjj5qmt5/LKRdBt8ETv168jUB04lVjKcg0++jJVvXcsX80xGXHIzbUpSPHzCENoffC6792jL0/fcxKCjr6VdWSPjH7yO0I5XMurEw5g27hRmzqtk/9EnU/39F8ye8Rnt9jyHPXZpz9THriOy3YH0HjCQ6R++Savex7DniEMIqIIUGkRzF7Nw/B1MmfgJww4/jWjDCia/9xGHn/NPWuVV8MLtl9Jjl0PZrk8fpr9wI4EdTmDYyaez7Pl/MHNpgoPOvpmc7DWMu/wIugy5gu479OLFp/7OniPOpFv7IN+8cg1V2cMZNmwQrzx0Dnr2zgwZcSQT3nqZaOEunH/GcKY+dzkzlrbnklueonnROF6872baDLmPwfu25rNHzqQuVsbuR19NUed+KJrXKN3f/rMFfICwLQBC+pxiJSYYxW7jYr6cOpmyXQ6ltF0HdEzqlk9i5ZIEPQcchpvlrZDlYkuU/Uh1OI2glaRi/keU1yVp338fStRm5n/+Ht/OXc2u+xxKpx59ZNGcTCsIxylyl2K1le6uJ1eR0ql70QlvZenJ8Gb8sygLW7/KTwuyyKC0DEkbJGrns+CzSZTuuCel2/eWTijkuDhOE2vnTKOqyabrXkNRxGpRsdCsAFjLWPTv13FzdqfbLvtiWo4Up5HOUJZOpaMiwnmm67U3tP+10VWTeO0ilq+16dalI07FfL6etZhOu46guEhn9VevMWfJWiJt+7DrXvsj1HQVe+MAYUu6DG6bj4SwtIbtxNDVbAy1GcVcS0otxVEjXsRFSv22BIYbj+psKoIgHKuAe5qjoToBbM1EVVLYiQW4Td+i105EbZwH5hp0JYZiqzhqmFgyRXV9Ft8ucvluSYi5i5MsW62Rilp0Lg3Ro3MpBbmFoIVwXA3bVcktKKB1aTGd27eiMGIQ1lRkByVVrMYNYs0JauqbqK2vpSnWTCJlUVvXwOo1a1i5ZjVVNQ3EkjbRpEV+sUuHdia7bF/E7t1jtGtvUpznEjaCuE4zpuJiKoUoWTuj5u2FG9kXLacdSqQDKRncMNMA+j/FobbkqXoRAtHMKoAQrhJQrYZk1TTiSZtgm4NJaSKaYUveSEAAMVWoVYhXZlsCBBdt7Vd8+84DxMoOZp9BXZg5/mFWxNpx6LFjWTjtMRZVBhg+5jQWjL+J1eWLCed3w0g2ETfas/Ow41k74ykWLIwxcPS5FOXHmXj7ZeT2P5p+u/Tm2/EP0tiwCj23C0rzYpoj+7H/qOOwKz5i3uSnqK4zKWndms+mj6fLXpcz/MgxLPrkVZbPex2rMUhO50H0OuhsQtmF8v01FdAEeKudw8KPH2Xpgi9JGqV07Hog/YaMQQ8mWPrl06yYMZW6Neso6nEAOww5ibK22VR88DjzKhT2POwkIpFqpj58DSV9TqJnv11Z8Ok4qld+RUiLsC5VRue/nEqnrt2omPEIC75+g/rqZopbD6DPiAspKG5m1ocPMGd1O0afeRWpijeY+srzFPW7iF36d2PpJ/cxb+ZEzMjuDDv1JlRRReRvm7WADxC2IUCQFDW3CbP8PZ666Up6HvciO+/xFwJaOasn3cyESWs48uJHySmOoCum/NiLiIAgq7l2iBCrWDZhHJ99X8/Qky8nv+ETnrjrOroMPpMeuw6nsE07HNES11HRhbNQLUxHx3bEqkeEcQVAsAloIrKgyrJjsTqXbXFFCFjklU1LdsDznJCABiKsq2EQw9KyaF72Nq/ecx29h11Kv/1Plf+uu0lIlbNg/NOUN8HeY65EMTR0LYFuBrDi3/Pe/WdD2eEMO/ZCDCcuX0iZXXeSMqLgqCKKIoCNRDHpUiYhIVxLILmM568+hexex3HwcWN9rn41AAAgAElEQVRIzpnCa6++wR7HXE3H4gaeuO5oCnYezZ4HnkRx6y4oegjTNrFVA0XUYMuw9H9ra5nw92rKRYtiWzEIxWZQ37CYnNLBQCmOpuC4ppQG9vLbP+2vuLFR/xAgCIN5ySOvYl0nqDSjWvXYsVkkq95Ca/gM3apGsRtRHTDdbCxHo3yNwaOv1/PNihRrmzVqGiAZ00CLENDDBBWTXp0K2b5dMdF4nKTlYITDuKpCIBQiNyubXcuK6do+n9KiCKomoleqTDmsWlvP90sqWVsbxbY1UpYl+QdNsShLV66kORGT6bLyimYZiYqaSfJVlXB2nGAEuhS4HLaHzoGDQ+TkC4fTJCNdrpJFSssnHuiCkTeMUOuRKKHtSYjW1DKa4MXD1iPenynQJKJQ4sUIuzEcN0eCdzU6nUTVB5hOR4LbH4UVKpX8SQ9Mp6Q9xHu0LTfDbsJsbsaN5GMEFMxoPSZZaMEwrhUX2RdysnKw7HJSsTimXkhuwCWWcCArD6w64nENI5KFKsB5QwVaKI9AKBvTbCIZqyUUKMYiiWkGiITjfPjoDTTXVLDnIcfhVH7Oqy+9yaAxd9Fv6MHYlk2ysZKAEJfKLkAzhL6EbDOKJWWrXVTFwrHqiMXXobphwuEyUHNk625ViRKLNhBPNJIdKUUPRggFXVJNtcSTAXLy83Bsm3iyEdfIwUjrJlixNaTEEwqWSLEoEfMJOHESsXoSlo0RKpEVEEnNxIrWYlka4cJsAmaceGMTZJWgGwYBt4lkfTWuloeak/8LSIo/5rNsy6f/+zm3DxC2KUBQMERKYPXLPHPLlXQ74XV67zEIXVlC9cRbmPhxBQde9DBGfCbvvfwK/XftxwfvvUdJ+17sc+TFtGnlsnzqi0z+dgmHn3gizH2dN155l72OvZqKRZ8yf1WS0Wf/jfyIxto543n/4+8YOvpiSkpbS2GdQMDEbljAp++/x8L5s8kp7sR+h19IbpHCt5+8zMyvZ3PQIUN5+/nnadd1d/Y+6AQiefmoDSv44p0H+XxOOfvs1p6509+gz9Dr6TPsdByR8lDFR6WceW8/zdJmheHHX07IrmDO5Of4eMJUBu21K2tmTcbtPpbhR55OqmYun7z7CN/PX8HAg8bQc48DCDkJbrjkbLr36Uxpq1xmf7uIXQcdQ49BO/P5cxfQ8MVkqgN92XXoMWzfzeCt8QsYdvhojKavePO+S+l55JUYkVZMeO0DRl18N21aF0LVDB4Y9wR7HX4ePXr2Xv9kt2UUQVQniE1UBiiOJ36kOk2ErZWkltxJKmcPwm1GkSKC+I5m0i0/TLJscG+b+jSsjy0opmxUJMiGovwxyDKM5Gxi5S+jrhmPriTQJXEwSDLZjtqoyviPq3j81UbKGwyKS8qIuTZJM4muuqyrrkHVg+TkRcBM0rNze3LCglug0q93T9q1KZV8Alekw1JJ8vQEWUac4oIAwUAeqqpjui7l65qoj4mFtYGhhwgaBqFghLrmKFOmfcqCJd/LdNqqmgRN0SSa6pBlRLAdm2giIVfkaqqB1iGFjq1srrkwi45ts4hkxdACMU88KBXE0nYm3OpI7HYHYAbbYSoRdFeIAom0VIZU+DMiC4oA2KJTpC1gAqarkKWmUM2ZNKyZALkDUAv2QHOzCSkWppuQqa0tg3a/7EMvG1RhI1ywo6nYkogkyjY9+WVHkZ07ZIovptmojoLthlGdBhRxJyJCFxDHG6hmEtXIknLetkgVptOSAjhqMssSRreSGFYNcyfczYzJz1O+tpFQQS7ZBbsx+pJxaLk6lpqFllRlOlGILYlFB1ZKElhtmcJUMMXcF5UiAhCIJ+aInwvsIH4XPxcwwiIgFkGWJ+CUUjV0cW+ksJyAnD9eNFUAfY2ASCOqmgSbuhOT4F+IJTmKV+0iUk9hyyEpblDcsUzbiXMHZIQulYrKVuimSLnJBYkm/+w1OP/htvH4XSbamhaQ2iR3qyWA2PZE1l82s37+UT5A2KYAQcVwo6hLn2HcndfTY+zL7LLXvugsp3LSbbw7YRmHXT6O7Pj7PHPb34lEOtChrJTalTNxdziBg8eeyJrx9/Px90sZdMgYPnnkdpJWjFTZzhw7ohtvP/cCPY94mF36d+Ht2wYTNw7mgNOvIpKdjWO7BJQo3zx7JavX1rPv8IF88vYrNCl/YewVZzDvvb8y/b0JGKU7UpKrUr5sOSUD/o8RR+zPZy9ezNI531CyXW+cmnmsWL6SgUc/QJ8DxmC7grSWQFeWMeO5O1lc7TDqnOtZOuV2Pnn/Dcq69oHqctasWE7p0L8xcvQJTLr9cCoSKVpl57Fm9Xxa7Xoh+w3vzatXjiIZziZcsj15dgXlFSa7nHQD1qrJLP/wLayiLuwy7FyKAkt49Y0pDB17DTPGj8NZ/C7rivrSe8BfWD7pcbL2+iuHHH4Yc166jI9n1DLmuifIySvAEZGUlo0Lfv77sdkjPDaHWEt5inC2mpTPt2nBYwTzdiSneC9SWkcSmuB7mAREtYJYeMmP2A83L92wsU2U/wU9roISlQRO3S7Hjc7BrX8Da+1UDKtCfgitlEbVWo258wqYuSjGZ7OirIvmYIucugopoWSXTHnpDVVjbVUlWVlZMlKgWBYDenYhP6TRrct2tG1VKPUaQqEwuUYQzUlhkySRqCU7K0BeXgFBI0SsOUZdXRyMfJptlaTpogtQISV8LVZVVjJj5kxWVa5lnaURj7skmhqxHIesUIiALrgPqgQ20eY4Ed2l0GikV1eDvXfVKCu16dxJoTArjqq4WE4u8XAvAsUjUQr2xsnuJFteu1JBUKzu00TCzT69dKor3a4pQ7QVYS0RRXPdegKCW6OLkkxLKDpIGWevhv5ngJAtGMdP58KGXguKsoGj4jkxT8XQowZ7/xfkVgnehStO2168qcJhe6Wy3iajMnI/j9wsBKc0VUeXFI8EzSs/o75xNWqwlIJ2+6BFvNJPMefs9C2LtKVkvKwvBRU8BBFJEEA5A5klMtgA0jMWk0RPLxqTcaOOPI/380xBrwTdaT0OeVlXAGL50zQQ3CClsT5+JDqYishSOhoqInW2Y6GIVKas4PnPLKWfqoyI66XpxrIEV7y74veNPftMRCmt8bGNI0y/YEr9okN8gLANAYJ4jQziaKtfZtxNf6X7MS+wy977YqgrqJx8B+99uIxDLn+E7Oa3eObWO/jL8XfQfbcd+fKBi1nS3IHDzj+fyg8eYcrcCg495wZCK1/jmacnM/Ssf7B95yLeumEMdDiKwYN78dDfRjNg7KvsNmSw54BEGN9O0bT8A1wnl7UrpjNv6mtUJ/tz/j9vZ/a7f2XaO19xxGWPUFhQyaRHbma1MYLRJ+zNW/dfSlmvMQw65HhqZ73A64/czm4jb6TPAcdgCYU/kc82FzPrhbtZWuVy1IVX8OYNw1E6HMDQY69EXzeFDx68kWCPk9n/wIE8f9WhULQ3enY+rJ2M1nYwQ8ceyUs3HE+4wx4cfMqthGq+5Pk7/0qnY+5mUP/OPHvRPuTveRsHjTmKhhn389Kr0xhyyv+xXWAhr9x5EaVH38/e++7Odw+PYmZlT44640w+vOc8tM6HMvzUK7yPwTYGB97UEfKuwiZCcichAZSm1WI3V2KI8j0li4StyHSOIJAKZT/Jjt+I6NGmAYL4mAdk2sh1Kwk2TMda9S5a9CMUqwZVNUg5WVSszefDD6tYstRmeU0JDRakFIeELRyb0KK3SFkO8WQSRwjcaBrJZAIjGMR0BJfBYa8+3ehYmk9xcSGWYrC8oo5wVgGt8oK0yobORdkk4/UEDCgra0UwFKKuuoZoTGFdMsJ3S6tZWbeOWDKB41i0yQqyfXEOTbE4s79fyOxV1TQ0JggFAqQcW/4uFuSxVIpW+bmkEiJ8nsIIBOjSJpdWEQ07UU1WMMqgXV32GRSiIN8DODYC+HSgqfAvhNsci5LTQ4oyubZQUdyyVVyGTPpjGqgAATZBVOIEnTqq135KVm4v1Mj20jNta0Ksp+TgCWSJPhzp+h0vNL7e73olshnQkGla5flgkeoSYX8v2iEraeU59XSqRAhIaV4tquZV2lquKlfsui2OEyJdKrYrdSk9zoWIFoj9xblltMYryc1ENgTp1qu6SrvydLfNjJvdoDvlkaM3wJsNAKGlk5Yyz+upzR63ynvjMvcsUlAbgIJMWa5/7wUQcmTURJ4j3U8kw8/6KTQXkGljaYQMGNggLZ2BPvJfWmYY03e0qcqtX+Shf+ODfICwrQGCm0CvfZ1xf7uYHY58QTrwMItZ+dH9TJi2gpEXP0JWwws8f8dDDD3vBdp2KeK7py5m7toIR517PpXvP8LU2fUccu4thCtf56kn3mHw6XfStUcnyj+4hc+nfkqnDm358NPvOOnuLyguzMYRpUcir2+tY9qTV/DJ5Cn03KEdYa2Z5cm+XHjzDcx+9zomvbWaM+58gwCfMfGh66kIDuWIY/ryyh3XsdvI++my226oq97llfuuosfQ6+hz4NEgddmTWO4S5j5zF4uqDUZfcAHP/3U/CvtfwKCDTyRkz2PSfZejtjmUfQZ04KV7LmLP/S6gXcdeUtEuFg6R36ojj14/lMh2+zH6vIcI1X3FQ9ePoduY+9mnbw+evKgfWfvcxVHHHEr8u4d55qkp/OXMO9lOn82L91xBm1GPs/u+Awh9/wYv3H0X3fY7iO+nfcmBFzxBznbt/mva+jIc7GiEAimSDd9gGh1xAtnouiCACFs5ckWrSkKmEAbyvqsbaw/0Y4CQqTARZERdFXK1i4mvGEdwzWuoTi1KIIDtlFJTncf4j+J88q1DNBkiYYrqkiAxkdNNCS6BhStyxbYjCaOxeALLtjEMUbImwItGLJEkP5JFnx3a0q5VITVNcWZ9v5JmS0MJ5lBSmE3EsNmnWzu6tM3D0Jrp0rEt4VCImuoaapMBvpxXyZzyGO98Pp2C3BySZoIcJ8keXdvSbfu2VFTV8/WSCmrrYhi6TjSVICDLIRVqGxuJ6CqtWhUTjzYR1nXysrLJz9LIDRhoqSaKc5N0215l5z5RduqZSyjUAHZSOvJGfU/09qMJtz0cUzRjsuNy5egpWW562xRAEE5VWNxSY4TcKty1b1JbtYrSbqeTNDpt0zJHr0GShuHEuO3WW+my2xCG77+3vB9DVTEtG1d1CVg6lTXlhMIB/u+GG7nx5tvkClf4UUN10ZSwlPW2ve4DqI7NWx9NY/8DRhAxo+hqCM0wiEYbUAMWluCaqHmYThwFIVNtSSsIBCFX85Jv4qCKHiFWHMNQZaTScoUcmOgbIvIWIpUhgKxwzGIc4hgxFoFCHKyUScAIygSKbVnoolopvaDRgx53RaSiBP9V6HC4ouTUFdwdW/7SFYWUSOdpOiKkIdQzRdRCvF8IeWbB83FSsrLG4+k4YkCoagBT8H8EVUsTEQ8wBMFSqG0aBo6TxBL8KBkh9Xo1CECuqS6WbaEKJrQ4n+tgGAFSpommBtDEeDVN2uPVl19ixKHHkh0R6Y2NxyN+Y3//sy/vA4RtChAE4z+OmprM838/BYoPYMABo8nS65j19jjq8vdi8EmXEKx8jufue5ihZz1Lm66FLHjmImZW5XLUuddQ+dY/+Hi+xcjzbyV7xYs8+/RE9jr9Xjp07YRdMZlJd59LfbNL0e5nMeyEi2ViUeR1XdtErf6cl+69lKzOwzh41JFMeOpSvltRzDV3PMicdy5n4vjVnHPXRNT4B7z78HXUhvbnuFNG8vnDl1JldmXAIUdSt/BNpr75MgNG3Uf34cfJiS8iCKq9nLnP38nSqhBHXvZ/fPbwkXy/RmOf4aeix5cw5cX7KNv9Mg44chDPX30EeTuPouceu9Gwohq9oDtduxXx3NUHonXen4POu5P8tV/y5PWn0mHUv9h71948e35vsvqfx9DDRqMtfYXnXvmMIWc9wHaBmbxw87m0PeE5+u6zPwXWasb/fQgVCZdI20M48pJ/YQpd90zY8me/Ej/3AJUQ1Ti1E1i9cg6te5yIq3VCE6t9Ear+kdiPAAxeZFZ8dH+6jtmwXhHrGc0jzZkrURrfwFn9LFrTIu+DquezYlUO731h8813ASxKiSZSBGQ0wKWpOUpNfT1xMyVLuoTWgq7pMkSuabr8wEWjUTRNJRKJEI/FKS0opGe7Itq1CmNEQtTHbCprori62N+me9euFARMdmgTQkk10rljB/Jyc2lsapK6+3OWrqFZzWZVbRNmsomQahPWLUpyQySb4yxetpZpc1dSU5fECBqoAY1kIkEyGSeVShAMBCjIz6ehbh2RkEF2KERJXg7FuWGc5mYKwzbFeWGMLItQVhX9+zh06WyRn6vgWiZxrYBk1n5kbXcaWvYu2GpIlhX/p0/1pgCCcIiWKpyrgeFohK1VNNc8R3ldFe27/R1XjfxE0OrnzpxN7S8Aguj4Ga0r56QTTiCrXW9uv/UOivIcrESS8sp1GLkFFATD3HTTtZx5+hlCn5Oi0lJq6+po17Yt5UtXU1ScR7RJNEASEhQO7Qqyueqf93HxVVcSW75aPr+lK1dTUlZKyBCe3Wbh0mVkhQ1sI4JhOSLxTyAYpiA3j6rKdTLSZIQjFBdks3L1QoKBLBoao/To2gfFraWispqUEsDIzqUgy6CyQvSEcAnqBrnZOYRCAZavqCQYyaagVRs5v4PC4Ytfts2SVavQQ4UUFgRQnCBryteQk5NPq9bF1NZUU19Xi6U4ZBV1oNBwaKirlWPKzs7zuo4rCnl5IWpqGmTnxqq11YSzswnI8mgLKxghEMmmNEundl0VVbXNFJcUk5cfZtHipRQUtCI3N4tQ2MCxHdasWS2BtO0EKCoqZl31WglIotFGCgvLaB0JUpeIU1NbxYljz+WVtydQUmTjOBvSOltrXvwW5/EBwi8GCJlP+capLV70SVQxWOjuMhZPeYqZk9+ivKqWiKJS3H5Xeh/6N9r06Ym1+DGeuftpRpz7MO26lfDN039jflWQo865glXj72X6nBoOu+Af6Cvf4plnP2DoaXdT1m1HgrFZzHnmIj76chmH//1jitu1JyA6uolugMIRNC/j05euZfaCtWzXvROxyq9ZVgnn3fk2iz6+nbffWc6ld7+FHv2U1x+6iqackZx48knUzHqKqa/+i3WNKh3alrF8TTl9D7mJPsPHSIKQ4QgNh6V88ew9rKxKcuylt9G4eAKTX7ie8jXVtCnuRDSaoKjfGYw8+TDmvHM70ye9RqqhgVCb3gw48EJ26t2eBy4bSVbnoRx5/r3kVH/BvdefTJ8xDzJoQH+m3z6Mr1evY+e9T6NLe4fn3viYQ06/k3aBRTx1y9l0H/ssuw7elxy1jlXvX8rrr0xh9xPvZqc9j0CXJY/ex2JbbZk0pOpYWI1vEV83gcK2R2GHdgM3F10JSjKbJ2QlxGTEKs4bz3r9qMzg1vfbTednRY5XSaI5zWiNH+FWvYRT/ymqJRrUiFVtV5pT+3LXvz5i8dosDMFsF4x+x9MTaGyO0hRLSHCQsExsEU0SIXnLoSkal45Z5J7F6jI7O4uAHsAyU3QsLqBvh0I6t/IcQHZRifyYCp5BUAsQDBmSyBiP1hCL1tOhfXuysyIkEilUI0DMciUHwXRsHKFVYZkYtoOdMqmqamDFumbe/2YxC1dXy1WZ2E/kiQO6KAe1JECIhMPU19UQNFQihkFpfi5lhbk48SiGa5OfHSScFyInVwczSmFBM712TtKnh/Bl9bJSJKrshNpqFEbxKNxwexxVrEAzMOGHqogbBwjipwLcadK5qa4rkw2aWkF9/SrC2TvhqmFP5OwHqYxNfwu2fB5611PVKI8++SL5eTmSCOpqJYw6oBe33vMiO/buxPffL+CAA0dw3z9v5bzTL+Dv/7iOq66/galTpnDOmScydP+jufOWa/jk838zYOBAFi5cRM+uHXhv+r856ZRTuO+2u7n571cxcuxYnnz8CUoK8lBpYuCeI7jh2qt4f9rH7LLHvoTsOFYqxW679ee9996nd79d+OTzz7j0vJM5/rRzOGb0KL78fBZHHX400aZqKirX0aZ9ARM+/pyDhw7mi2/n0LlDa2Z/+wVD9x/JhIkf0rFTd6qq6ujeux8D9uhLiBS608Qttz7ILnvuwezZMzn00CN48fmX6LtzP+bNncd+Bwxh8aJFLFq0kF5d2zFjcZL+vUqIxy0Ki4rIzcujpnoV9XVxRh4yhCeffJ2+fXtw2V9v5uq/ns/EDyYxZN/9iUbrSDgOf+mzI0+/9jY7dN+JhYsWcNZZYzjrrJs58cTj6duvJ/kF2SSa6xn32OPs1n8P1qypobR1GbNnzyAcEe+cqAwLcsTwfXjw8ZfYaadOXHbxtYyf9BWlJZ60+v/C5gOETQKEzD9s6qX/sfzqxqeDJ1+TxEg101i/lljSRBVliVmFZBW0x9E1dLuKuopqsgvKCAZV4nWVJOwARa2KSNSvo8lUyS4qxjBrqK1LklXUETUnm0jT98x46hK+rYhwzFWPgCFCcyLE5tXgaySJ1a+iti5OKBgkpLtEEzb5rbbHTpVT0+jSuv0OUnO/sXYNCbVAomTDbiRaU040oZKdEyGeiKHntCWUk4fuiE+ljak0YFavI+Fq5BS2J6hEaapfTTIZRQtkSSKUFiqVaNyyG2laV4FrO6iRfHLyymTIfN2K70mGcikp7UKWGaOqajFGQSeycoIkaxfR1JQgnF1IKGBT22CSU9yBsNtEbeVytJId0UTpXXgd5d/czjvPzOSAcx+ndduuMgXSctsWQCEjTiUY8E5yProax4r0ImkJOR0RuvdcjEfnEo2WxDxKpx28YGU6Y+kFQkWLWhHSFlEH0fo25FTgrn0SZfXjUj9BrLDipoqWN4oKpz8vv/493y8p5+ADD+bzKVMoX75MRg4SqRRNTVFiphCqckmaJrFEXIKSpOAgpARpywNPknyYm4NliX4MFp2Kctm9UwndWuVSUpRPUVkH8kqKPZ6W6B/hOMRjzdTVrZOlgWWtWxMU4daUhRZQCYWzcHSR9nBwUjYBBQzbpamxidUVtSyqrGPCd8v499wlnsiXcMGqSiCgEY9Fyc3Ols7RNJM4tknY0CnJzaF9cR6qa9LcWEe2qtCpY0cKBRfCiRE1IZTnMubIHSmN/BvdWuIJRpFPY3gIesdLiJT0IGWlBcXSIWTBlN+Q6PnxO54mwsmwuldG6WmUCE0IQYJMYjgbVBaFGJaXMvq1YWVPHU2IfiUT1Yw+6RzGjj2WJTO/pTppcMsVJ9N3n7P56uu3aKpcgt6qC/+6/QbOP+1kDjr4WF588w3ee/91Bg0YwOU33MeFo0fw0qQvGfaXXZj59QwZOSKSy2Xnn88zL73Grjt157ZHHuOJB+/BUJO4xOix48EsmjuRM8+5kFOvvJ1I3Sq+mDSZ0WeexrvvjuejLz7j6zmz+GT8uxx70sk8eP8dTJ+1lLqVdew5cCemT/+WBTPfZ+b8tQzaey8GHHA4e/bajnffeJqyDtszcuRo7h/3CBWrK1i0vIabb76WXK0Bq66Co89/gOefvZe6dWtQAwZjRh3DhA8n8NWXnzLzu5nSQQuewchBPTnmkse44qwR3HjrPRx/4sn06rMjixd9zbqqeo44YiTjxr3OwN5duPbp8bxy39Wcf/Y1XHnH7TQs/YYJkyfTpqiQf3+7jBEj9uP2O+/kyadu5LJLXuCRR+4lElEwnShhzeGLr2bw9DOvEQrn0mfnXjTUrGGv/Q+hTUmQN557it4792bWIouzT9iPm268hTEnXUz7toXpXh6bqJTYyLpl88q2vw3c8AHCZu3+U21875CWTOYMYWfjJ/M+MJ6UrgzRryfZeDNFfGB0kR/LlDJlusqlY9DeelikAD1ylNAhUBsXcteFhxPRDQaeeAvd9xiGI8JoYtWzntwjPYHX+U6IvKRLnaRzyrQQloBCrmtlvbTnulSZrxRjFSskVRX5Q5mA8whJImybThxKZUhFMJ0FYUqUOW2wgaepL/n90gGJ3J/wk2JFK34XJCrBfBa8YxECF2VXgjwniFGizE6ADEF0E+Q+eS4pSeypAogWvq65lvtOHI6evY7ue57PoKOuIBgKYrup9STzbQIOpMqkgS5LPj0ymbBnShG6eykJzTytwbSW9vp0h/h7Zt60FEkSuVShTGjJkjvDnUNq1f2kyl8jm4TonoAZ7Ey47FQaE315c/I3LF21mpEjDiReW88Ljz9FU3U1McsmGk/Q0NhEUjhpEVpGIZ4ShEFhS/E8FZn7FX8WIVhdF6RKr9SsS0k+++zUlh2KsylrU0JJu07kFhWjiJo4xyKRSFBRUU59TQ3hiEFpaQnhcIhYLC7zzNnZ2UTCWTKlIZ6dePaG65CKxli2spwFq+uYNHc1Ez7/lkAoiBEKSi6EmDuJaBN5OTky1J1IxLHNpOQpFGVn06VdMYqTIhWP0Tovh84d28oIg6UGSClBmk1o16UTu+9eQFidRoE6XbY/FoC0RutEpMOlBEsOJKW3adFd0xOZ2uSWkTxf/7uXURDPWpSS1pWPR4nVUdrhcGy9iJTqCS39quqGtFCZ5lp89tl0Fq6u5ZTjD6epqopxz7/F2AP3ZNiY85j+2cckGmtJGFk8fs+tnH36qRx40BG8P/VzvvtsIu+9PZXjLryEuoWfsKQ2wSljx9JUtw7FTHDDA09z9V//ztefTuKFZ1/j+LPPpW+vLgREh061kR47HM+SeW9w+lnnc9Y/7iOwZgmff/IxsaYo7bp3Z+9h+zH2pJN54/nnOeHkExn30B18Mm8pMyZPplPHtvTuM4ieO0Q4+IizGbTXnvTdbwT79enI2889SZsde3Pnbffy/Msv0hRNYFo6+YVeu+rmqtWce81HPPjgWUQbVhKN6xx//AlMnPAhs2d9w4yvv6ZVSWsCus7wAd3Y//IHePm2yyksKiMaS3DKKSdw2qnHU72umcMO33ya8dQAACAASURBVI+77n2ckYN6c8ML3/H0LWdwwdlXcfm9d1M3/0smTp5EwNDpv/tQ9t13L9atE4C3ktNOu4Onn36CYFCQH5MsnTebKZ9M58xzLuLNN8dLAbA1yxdz2Amnkx1I8Oi/7mTMAUN5e3YjF598EJdefDnnX3Y9ZW2KPXnwjZVSbiKomelEull39F/e4VcDhA2B9pYM0I2xQX/5nW3ds7Ucx4+d/Mae3sZFd7zPvwgjZQDEloUXZbnNf+iDkLnXH9+zlCpOH6u5MQKJBcwY/wKB/K5st/thGNnFHoNXrFvlUDKlUBlw0fLe0ixjSUgW4/GAgOdMN/CzM2RHCRDk1qJsSZaCpc+jilptwU3w6qA3AKj0EekQt1gtyv56aRJlRn5Z2iPNQM68VMLh/lBp0HOomYiukHXWlbWsfOcVqs0U2/U/gvyyHXCcOK4Ubknf91ZOM3jPxURPfk+8oRyjeDApXXRsTHlyz24aGmQY3C1LomTPAs8+nqXFJroiRqTAk+5WojR/glN+H2rDN1JVM6q0xSw4kFDxkdhaZxqabd544zV27LYDvXbaiS8/+YQ3XnxVlg0KgNDQFCWRSNIYjeFqiiwlFKF88QxNS2goCAa61PX2UgtCITCgY6eS7NC6kIP6d6NrcYS2ZaXklbQju7BAEt/MRIKmpiYqKlZjpkzCIYO2bctkiqI52kw84VVGhMMRWTYpuBCCQyHjbNEoFeXlzFlayQdzy3l92lfk5uRKoJkUFRUiOmGlyAqHKMjNJpGIYSa8qFd+JEynNoUEVRvXTNGmpBBdscjKMgjlFlDWoQtLV62SYkY77bsXRpFDqf017dwPyXGXy4hEVG0DpUeitD5BNogSaRpRm++9Iz9fVEuQ9wzmEVv1GpbVhZy2I0mEROtjLzXxi7c0QLCdFO++M4E2ZZ3pv9uOMqX32NPPs/suvfh20XLyc4pYOH8BBx0yksWzv2O7Tm244+4Huevhp6hdNJsnn3mby665HDu5mvcmz6CssJhYc5Qundsw5d8LOPL440iumccdD77AlZddQU6OK3P0qHGOGXU9r754G7fdfjujT7sQp6aSr2d+Q15WHmvra8kpyOfNN9/i/nvv4x833sA1V53HwsVVzJo5g9LSfGIJjeLcOiZOXcQxo49g8owZdG/XnqVfz6b/iAOZPvkjOu7QkTVr1kmtkl369UEVUvSuyh13Psiuu+3MrNnzOeSQYUyf/m/atCllxjdfMvaYY1m2dLlMn+7euxOXPvgSR+2zK/Emk9zcPJYsXcR+gwfxwfhptC4rYObM+Yw5bE8ee3sh1100httvu5PjLr5URi3nfTuTofsP4qGHnmLvvfZl0cJljD52KLfcPI4rr7pcgl9Mk8o1q2SKpl3HTsybv5BWbUqJ1dUzcNiBhNQkr7/+JqcccxD33/sMe+09gIcee5IbbrmHkqLs9IfqpzNhUw19/2cBgkfFEKs+XRKyRL5MhIG8WmSxavHKqWzbY7VKFyO1dr0VrehBL8KVXi+gDU4sU90rdhefXCG/6q1IPV6yt2YXxBbRZlaE+Da10t/wkOTDkU1onHSdtreyl7lQqbmuSUERsVK3RL8EyYEV4WExRvEP4uC04xEd5N0gAVXIvv647nrjbr7lajbjasWe0jYZ5yxPn2nhnN5LrP5lfe+GWl7VioEu+itoMjTtCIZ8um7Yu+O0sEeLShzR9146YOGwVbGCF5xGVZabedf3Co8UGVIQTGQR+vYiCPLaUvFQoOsMkBAOUZxLlVEIqSEvm/D8kKXvffcE09iznTdj0ustEVEQ969rMlIgwcpPWkH99EXzVseOlH0W08YWdesSnIiuFV7/CTnVthpAELYTzX001NR8UuX/z957QElVblvbT+XUXdW5G2hompxEsgiIZBFQVEBRMYAJxYM554AB4zEjAgpmwUgQTOScc4buhs65K8dvrHdXAXr03HP++91vjP/eu8dgAB12Ve397nfNNddcc32EwXYWukaXEjDYVYugWPZqV1EbsqV92DMCRhwgaJ3aGrjSZkhY0Ef3oauYTfD411iiJyGkJ2BvRjjzJoLJwwjLXItIVKmlv5r/FS2aNqdPrz6s+OkXvvtyPmGfF28oQr1bHAF1hCJhgpEwDW43vlAIk8lEWIlXYwoYqPsYjWGz25Uqu766mvZNMrj0vM60zUoiJzMdqysDR6pL6Rt8Xi91Inr0eRRrIEZIqWkpOBx2vF6Pen79gYBiEyw2GxazBZPZpllpB3zUVVSw+2ARK47U8tHPq7GZrfgCHvVe0tNS1fyHhvp60lKSlS5BbMMtFjOWWIymmU5cNiP+hgayMlzYLToM5hgpmY3peO55FBXVc/xYGb2Gno8hLQVTLIJDt5sM/XIaG3dijHjwG234nX0w5NyNKb0fERkzrY7Qv+VooJWKRIMvXhQ7qTs+H5NrNKR3U+6ZajaBWtqJcdhxp8d/oy9eVobX48NktCoxp0kXxutuIBiOYE0yUVBQgSvFRVZ6Cu5at5p9EQiEyW6RjyksFtcNqkQkgM3t9VJ0vIic7BxS0uzU1PmwJtvZvnE1ZfUhRgy+EJNJvDVkTRgpKqikeTMnlZUVuNJyiMo68vuwJyVz7Pgx9AYjNrONzIwsSqvKaZLjJOQLKgdXk1FHQdEJkpPC2J15nDxxhNWbNqKXeTT1BoaNH052agrHTxaoTobs7Cy1J2jeFfIMuDl8+AipaY3IyJDSl47jBcdJTU8hLTUFv8ev7pXVJi6gATJSnRw/eoJQOEzz5k1Va2xVVQPVNaXk5ORiM+qo8cfISHVQVllBSmYOkaBXMVopLhOhsIHDB4/SLDefJJeRkrJaMjPTlHA3GpbOBQPVtbUUF5eRmZ2N2WpV4m+Ly4kxGqK+wUNWhhVPpZeTJSdxpmXjSM3ALoLPv8gX/0cBBC1MxHthxbedKF5/SPXSWswGlb1IUBGzFTmCQTHNlF0xketK/dGEP+TVenOVC5cGE+S8p7LJkJ+wJUUZzVj0WkBT9KUMeolJvdtAWKqaUbH01IRDiUClBSSNmhcYIIBAdaCFA6odB1OSoi9Vh7DBqAKd9D0HjKlEfBH0JqHO49lGfHKgel9R8BisOAwhiIh9bqLvXssiJJuOqq9pgSDRo2w0GlVAFIpXC2B6rFaryqQkAGjxNW7wI4p3FeDkETIpW1NloRyvYIt5iLLslc8sM4vi30u8XiI4yuvJoYRpKpvXETPEsCrhsh5fMIDVKABPYxQM0Qj+kEUJcSLRgGpROt2PLIYp2l036oOKtgwb0jEaZFqf9lSo1zjFJAjG0EDdaXiQABBaqUE2MtV6JAppo9ZmdCrAxrfxeLT9HYuRMIARYCFLIhLT7Kq16/9nbNDvTvZv/UcFfhEahnXoql4g5knG1uxqgsZ0ompYkgZrZJWJv/+p9rrfMQiJyZPa6hbwZYkZMYX2Eip8Ck4uVoAzEjPTYO+HN+UGYsmdCfol2ITU/ZPug337DnDk4GFGDL2Ame+9x4mjx9AFw1S5PQSCYVUnl2dNrqEABNEl2Bx2PD6vSphlzSXWgtwAWX8hj4eOTbO5qF9HpUHIyUjBnpqJOSmJQMCrOh48Hrcq+YhmwWo2k5mTpfQDRUVFhESHYDSpZ0i6IowmM0mOZGKhEIT91JdXse9wCZtLvby76Nf4fY6SnOzEYbcR9LlxuxtwOmy4kpNU66PapEMhrLogTTJcmATIxoI0ynZhSTaT1jgPe8ezCZZBWWEx7Xv1JGAxKAW5dB84o5VkWn6lY+ZWnJZq5d7ns7Yk2uxZ9Fkj49NPBOT+a1m/Bs81kyH1GzEzZrH4jQQwxdzoqAOErk4nSDNi0kVBgJjOqLXr/YdQJLFmf/9+VPIS917Q/Ay0Z8wQ31sUaxhX8Gulw3g5JC5+1SqVamWi14eUvqOiyk2yMw2rPOSnVBaasFoVGVW7pImorJXEkxLfZ7RnVkgYgeLSPyH6DLF41/ZZ+aoU2yRJrPc04HE3kJKSis1qwWIQp0cZKCbzZrT2R21yq7gnynMrJadEgmVUehnxMhAmSBipRORVBlDqc8U9HhJsZvy9KpCutjOVhWp/4kymtktFMBhMameVCbhiw5RInlTE+F0k10q1mneJloqqZCguRFdXV4WE+JhysYz4izX1Pw4gCIOwe/cuZn34KZ17dGD9+i08/uDDfPXlF7Rr14vzB/Ti0OH9/PT9QgaOuZhOrdsTDIQIBL24kq18+dXX2E0uzunfk6TUFKx6I3q1cKT/NKIyksrSg8yYv45nHphC2OujIerHaU+lpngfkyZPY8E3n2I16qmurcNsMWG3W9QGqE0kBI/bTSASxii+8sEwd9w5hbdee5nvl/yCJzmdawb2JxLREQjUc7SknE5ZASbe9ybvvvEedpsFgylAKBhRanEJdpKZrfxtOUVuAxPGDibq9+Bu8OFyuhTgkU3a42lQIjBRfqt8MRrl8OHDpKal4bDbFVUmDmkORzJbNm3lwIEDXDXhCkW1NtR7SHY6UfNE4gtfFnVFZS02S5L6HcVm6IIqEEjPb11tvfodi8WiKPya6hqsFqtyVfSJ+Yz0wsdiOJ1OyiuqsCVZsOph3arV9B44hKDHg99rJCXDRvHxQyxeup6JN16NXh/B0+BRQUQBmXAYry+gmCGX08z+HauYvWA/Tz12A3aTRXt+dVDvcatyQ7IzGb+Y8QizFAwps5WYwUidW4INJDktvPnG2wweOowO7dur++P1eXAkJysBWyAQxO31kGyzEYqKaQyq1i2v7/NKi1wApzNVq/nFQvj8IVUHF9r8z01R/jku+B3LcyoL0AKDbMQmQy1h9waMxo74zNkYo1YNzKrBSfGdOf7Tif+dekXRoCjNidT0zZglqET2YS54GV3ZD+raBGNJVDCSGutwguY85aWgj8i11FzilOQ1GGLz+k1kpqTxxeefY4qC02Zn/9FjSgQrACAcEqAgPesGotI7HwridrtVL70wQhqbBD6f9LOLRa2OlhlOLhvQldZZSWSmOElKz5JGdu35CQRo8LgpKT5BXV2dKiPktchTG2ZJSTEhfxCnK4XsrBzVFiamTFJuUFa53ga8NfWcKPewoyLAuwt/xqg34JLn3WLB5/MSCfoIh0KYRexoNpEkz7C8wUAAqz5I4/QUJVi0mnREQvVkZGWS3LwlsdQmVJc0EPGHyGzZgojdogFzBTLNmMINZFp2c3bjrTTPPKbmkQSNrYg1uQNLo9GEdS7C/6LiPAEQ4qFABdKwJEPhPRiK5hGtWk4oUIRen0vYORpD86vBlk1EZ9GGqv3T48/BgfYrp9lRyQFOc4PadzUcoAWxPx6JxOT0GpR9QNhccZ0U9lHYVwmUGjOimI84kFGMnhIVnQlY4jNf1XMu55GwKP8R5iSeIJxKYDQGT2McNatlDaHGA7uWH5xRbkt8Vu3JkbWqvbY8L4mf/OMn/PNEQCtFnv6elEMTzqoJMyUtoYphiCrc/7tDY0v/8DX17EopMK7bjU9jVXDmDPZWgbT/BQjajRXRyMLvv2PX3oNcM+lKkpLTqSkt5sM5H9GiTT8uHNSVFRuWs3bxMoZecxUd8luydt1mOnduzzfffEmr1q04URxg+PA+LP75R26+6TZskg1HQqzftEFtmgWH97Ot2M24QX2JhIUb93CsoIK+XRpz6/2f8d7bT1F0eA/OVBeHC47RrFk7zu7cXpltnDhewMHDh0lrnMGy31Zw9ZixPPb4wzz/9FMs/m4puswserZozcatuxnQpwMrdx7livMzGHnLuzz70IP8uHQRjz96Jxs2bKNVm44YIl6+XfKjMoIprIly9SX92bx5I/nN8ln07bdMvPk21m7YRKsWTdl74BDDLrhAqbHD4Qhr162jWV4eL02fzsTrJnDg4CGGDB3OpnW7KS8v4dLLRvDmW28wZvRYistKOf/883DYxJTEy7zPPmPAsJHs3boHW5KTfn17qbr32rVrWLFmM+PHj2PPnj0MOL8/8xcsoGuXrhw7dJguPc8hWFvHTyuXc+mlo3n//ZlMmjiRE2UltG+Rx/SX3+Dya66juriQNq26smvvRnKz0/nx5+3ccusENm/cRFq6i62bNzPmkkv4eeUKMjMbYTfrOFFRQqY9xkc/7uf5Rx8iU43zDbNoyTLsyUns3b2Lq64ez4Kvv+P6q67l2J4dHCtrwGY3oDebVZnHlWrn00++YMDAoXRs25K1q9eSlZXJ5q1bufSSS1iy+Ef69O7G0iU/cfa5fSk4fog+vXtjM1goOHkSp8vB3r2HGDxsIF/Nn8+QIRcolbsEnn/nkI1OWSbLBhz2KC2DQW9Fp5d6YnzDUpaz4j+vVy6DmtNd3GlOvViCJ4mzRmdABnUGBSKkUyGMLarD4F1B5OSr6MpWKgvhAM0p9vfluK4rvlgallgKRr2IDb1xjYYGeiRT27drD5WlZWzdvJXs9HRSkl1s2rodj1D8Vru6tgKuBCSIgY3H41XA0Wg0K5GifCRhsxTTEI1i0evIc9m5YlhvWqTbSHFY0NldBKNaxik6gUDQTyAohjIRXC4XDpdDAWbZA4yiSVEOfFphzh8I0VDvVu9D2hOjvhD1PthS6uX9hb9hczjiZlJa14JoIISdcCXJe9dhNesxC5gJh9R472Y5GbjsFsz6KDk5qZh0Rox5rdAnZRGK6KkoKcev12FNS8VitcU1tfKe9JgIkKLbR5cmv9I5rwGjutZNCGVMxpZ3NUFTphIIny5rSraZCIqJcl88ECsWUeOu1LwA3QkMhx6H8qXoon6tsqUyUiuepH7YWj9P1NZWiUX/8Yhntmd8Q8vAtdKe6oFR7JhW/pT3LW8rIj4JqgkzjDdsUlR6SILW78pZWrDV9MBxBlVKTPqoEgfLG1VvNWbELzMbonoMMmyNoAYwo2YMsQgRxfZqpkPambSgKvFQ+5d8snikj0aVlbcCBTLfQYCiKn1GVRkywRDI/Ia43EIr7ars/jSTIFm/VqbREYloJWrttbTc/fSRCOEJxuH09zTWRbuP8nmU+FkZHmkstYIdypRSRN8aQEj4M6pPKqzGKWCmlQRlb3MbTCTFZEQaRPRKzYI7FMQqHSJqUq5WKk9MqVXCYEl4jZpd9l9UHk4x8f/OnvX/4mf/0yJFyfK8nga2bd7BrA9n4fHbePG5e/jm62/p0WcUnTINzF+5ihO793DLA3fjqTjAxmNBxl44iIM7NrD70DFMllzGj+nHdTffwuPPv0YzVxLu8uPM/WIJV15zKcGqGt79fhl/u+ZK7Emp3Dn1WsKWbB69/XIefOlXPn7vMdxVpVR7Crj5b3dw2ej7uemmcZh1UepragiEorz09its2XmIV6Y9yZxZ7/L6K8+xeMlK9MlOjPUhKurCXD2iKy/M/pZ7ru7HhHvf4KMPnuGbhQvRmVsTrqtTLIc12MCMTz9n2IDzOBEJ0cnsZcXOE9x+8w1s27KJ9Vt3smnrNqY//yxRvZnU1DRllxoORfj6m6/Ja96cERcMp7riBDNnzaRP38HoIsnsO7CFzVs2Mv7KiWrE8QezP+Kiy8aSn5uFOezmWGUlGTnNueiCkfQfNZK7b78ZW9TDp598QJ2hLbdcNYyFC76kPghFJSe57577OXH0KDv2H6Rjcjqrj+1iwrjLGDlgCC+9N5O89m1wekroft3jPH33ZHasWc49dz9EJNpAeWkRv645yMDe+XwyfxUPPnAb1dXVvPHyS3TqOoA+fXtjDxbwwvtzuW7cKD5f0cAz949Tm1bYW8GEG+7hrfdmE/FWkGKp4eFnZ/L8M39n+/rFLN1RTabZjdXl5Nqrr8Drd/POjNmMHXMlhYd3U1VTy/ChQ7hu0g088MD9bFi/iVuuHcHrf/+IsweOwxGt5EDhUXJdmdhdafTtfw5vvTmT3uf14KsFX/PsU08r5uGPJkT/7GFSg3Fk7wmX46tfhLt4KYSqMBgzScq4BltWX6LRE5SXHiW9+SCiURnZrA2kUeSkYnn+MQCcqZFXg4Tk52Ki8q/F4dlG7Mgj6NxbpI6DO9KMg9UDKAp2xG+Ucco2TAaTolzF6CZBaMqGE5LA7w/hqW9g/hdf0qFDB/Xq27buUhurzeZQb6esrIxg3ChJ2DgBCBLAA+JbYJROA63NUECCLhKmcZKVGy4dQosUs8rkA0YzvmAIUdWrDFBNeI6qDhZ7aiq2ZLvSsNjMZvThKKFQiHA4SjAUVtMgVakvFsVlsxKod+MO6Fizo5C5m3arABMWO+ZIBIt83yc6hgiZ6S5NlxH0YTGZSXE4sJl0pDo0cOCwGWmUlYbVYMbnysKY3pSgyYInGCTi8VPlcZOcnExykvNMSS1EfViDJ+mZt4mz84uwi/NlNI1gxk1Ym99EyORS2bMKE7EkbbkoCv/3W7qWx4qNsYRYN8bAd4Q3/w1TJKRGZZxiwaPCVDjwNn4ba84lROIB4vfrUO5aonwp5RNZt6cDcECvw0YxG5buwZ+UxsDe3YkaZbyylKbCuEsO8vfPtnP/365Q68SgMxMVgBa3O5a1GW8YIhgMUVVdSXpWKsJnBHU2NQnUHqlm4h2P8NYbH6hprALmln7/LUFrKhcOGaLcFeUea+9SwKomapZDWF45v3JgjOmoLivF7fNxtLCIhppKKstKaNtjAP26n6V0XkpNpsqmGrMr5xGeV5UZxMNDArecLxbFFwpzxbgrmHr7VOWaeP6AQZgNoi8SSG5We6oGpDRgr90nEZ+K50iCmThd0pPFKyBBzJjkqlsIEdDL0DMB+6Liks4tYQK1Z1lKQjEB5olCQixMWdE+Zn6/m8enXgsRaU8P8sgTj9D/sisZ1r0zAQE00tqr0I02MKq2tpKFCxdxySWXkpSU/E+2of9YQ/f/AhD88TX+0wBBUOLKFcvp3K4DGZlmlixbzeKly8jMzKN3v+F0aWLkk2W/UH2wgMkP/I2je39mR3UGE0cPp+HEQX7bsAdLUhMuG9WNG66+kUdeeYe8VBsVpXt4573vufOBG0iOBHnzwy+pra8kFHNw5Zj+rNlZysDuudz9wjfMef1JXp3+Mka83HT7VL5dto1JE0ZjCPv59ecf+fizT3n46Wf5buEGBp/Xk08+foeXX3qKRYt/JWpxoW/w4HI2ZUCvxjz/wXfcf91gnpj1K888eCVLP/uWozRSffo9+/QkLeLljU8+Y8TQflRiIA8Pj89dxgVdmlNfW8WQ4aPJb96SWTNeYd3m3Tz3wsu0aZGrAMKCb76haV5TLho+Am9DOXM+mkvz/DY4k5py8Mh6fvrpF5584lUy0h28N2MWQy++lFa52RjdVTzx2iv49A6uHnExOwuPM+biC7DHfMz7ZA62xn257Lz2/LzkR3YcK2b+D98xfuzl+GrL6TNwKLkxIxurixh74TDsegsvv/YqpfU13HLJUC5+cAarF81nz/qVbNy4hrVrN/Lcs4+zamMh53dJ4b4XPmLo+V2o9Xjo0Lwp3lAS5/brgzNSwJOvz+HmCRfx5co6Hpo6HnPMj7/+GNfe+AwzP5pLssVPJHySxx57i2efeZ5ta39hybZKHp16FR9/8Rk7t26ia49elJTUcenYMRzctRGd0czFI4Yz8aabufqqqyg4foLrrr2Av0+fQddBV5FlqOWbdSuwGcwc23eEtm2bU1np4fLxY1iwYD6PPfooAQmK8aEt/8pDJeNjxXY1XPYSseKZmMK1KsDKI9sQzYLUyzBYIxgNrTA0v55IRAJwQgV/esP842slAIJsF7JpmSI6TDLpzvMboQOPYvLvUdP6amO57C65gBJvM+VgZ9GLME2YBvG2TwzWkbKApuURqjbo9VNfXcuK35aTl5fHwUOHcNd68ImbosmqbI4D/gDBYAB/UNO3qE3doNnECtBIaFYksJuNeoxBH1MnXEz7HBdWi5GwwYTHF6a2phZ3gxe71Uqy3Ybf51fZYWZWFjarTZUBRbxY21CvSkuFRSdJcSXRLK8RbVvnQ9BPsM5NlSfC3OVb+GXnMbVJSyeEiB29Pp82vdBoECsPJfaUTgGHxUKalM0MKKGePhqgUWY6xEJkZWarscZeezoGVxZ2h5SdRDgcVe9H3pdKIOO0t+hmTLokHIEjdMrZQreWR7EZa/FEXehzbsHa/FYCxhRNGxKToVgJ4fHvgZ8GF+IAQVeNofglOPqWVqSQLFIN89FWglD33qRJmNo9RMiU+RfKds1rQTWkxiRr1wRuoVA1a7fvwVexj6qTYextO9O/VUtWbVlDyAD9+/Rl7WfvMW9zDW+8cBdFxw5SWVxDatMWnN2tG3ajZMBBdu7YwYkTxaos5xKnzPatWbd2JXV+sRhOY/i5edxy3yNccdlEgv4GBg4dyptPPYDblM4j993DshXLFYjse05vVZ6U0c37D+7EE0miZa4kNifo2rEde/ccwW2M0chl4v2ZH8nEB1o2zUGf2ZoUs46mTZtwVpduaoKogIFdu3ZQUFBIVmYWvXqdR/nJvWzcuocUp4OOnbuzZt1WPvnkU3p170qt282gYYNolpFOaoqdrYdO0r9nZwqPncCRZmXbll2qhNaidWe6tm7Eot/W4vb56XdOD/bt309Dg5t27TvQomVLjT0Ra2idl7Vbj1BcXIQruykDzzmL3bv3UXiiQAHdrl36k5ziYcf2rVRVGMlt3oJmaZU8+e4yBvXuRqPMTM45+yxenfE+HboNoEd+Bpv27kFntdC/5zlEIwFWrVqvHBflc06efKu6fn/dwPbfFCDIJrPgq/lKBd2mbQvq3DGMJj1FJw4oNuGqwSP4auUisq0molYzPc5uwYKft3N2h1ZsXvULLVp1wZXZnNHDz+LGa27lkZffpkmambC3kh+WrERnimLwedhXUk6K04nelEyjjAi/rD7I5EmjuOWBt3nq3qmsX7eHTvlOovooW45FuX/q1ZhjQZb/+itrNmyg38C+zJqzgDun3MKc2TO4+aYbcJ0XMwAAIABJREFUVE93YZWPHIcFZ1JjBp3bnGdnLuC+a3sw+qZXmHLDNfz06zruuv8e1vzyK1GDkaSAm01HDjNh3Bjmffcb1wztyffL19GubT4lZRX07HGO2iyry49T7QnQpnVHevXoomrC3y9aSMvWrbl45ChKivYze85c2nXoQoorjWXLltG6TVM2bd5D/3P7cqSgkBGjLiEn3YW/rpSXZrxLftsuuIvLqYtEuOv2m7DFPMz7dCbbCo0M7tudkweP0uu8Xnz+zVd07tiZ6uJizjm3Hw53gH0NZYwcPpSfFi5RfgPrt25lwsXDuO6ZD5n31osc3buDcLCGDesPMPH6cXww72vGjhzO8rXryG2STXHpSTq3acnJ6hC9+55LSrSUZ9/8iKk3Xc60d3/msQduJTdTHAQbePq5d+jYtTO1paV0ad+aTbv20ygnk6N7dxJNbc1FQ3px4NA+IiEfR46cUDPjM3MyObf7Wfz863Iy01ysXb9RmcTs2rmHCeMG8vLLM+k74hoc0SpW7d5Gh5Zt2LVlF7m5jSgpKeOii0bx1Zdf8sCDDyiA8Gf12L8CCyZp9fP8THjvLRhjlafZB0UR6JT5USh1BJaWLxK1tJOeGrQJdPFA8A/WiNrXJbgniEtdzIo5VovBt5zo4WfQ1e0Ao43SQEt2VZxHbTCfmFGPSW/BoBOho0hqNdpS+VOobh+tkyTo9+Otb+DIwUPs37ufjh07KR3Bpg1b1TRE8eqXCCzaD6XDMOhViUs2Pnmrot8QTYH8R9Gwqk4cpbqujuuH9mBE7y4kidjPYKG2IciBQ4UcOHBUZeZ9hwymUU4josEwjbJzMFrMNPi8quPA7/NxeO8+li1ZwuDze5Ke7iC3STp15aWE3QEKa/w88PlCdF4DgXAIm8N2qrPFbNCpkoMuGsBi0JHhSsZq1Mb9Ss4obY5i5JiV6iTg92Cy2UnPaYQxLRePwYXZnqyEcZJ9CqUrAEbzfdDugWZCFUIfiWLzn6RzkwN0yd+L0+LGjxOyb8aYeyNhS1MpkMSXz5lt0ImgL+y/atbFoK/GXPomoUOvYTJoWbFCCnHTzGjEiC/tJkztHiSkl974P6lqnzH0SBezKGZCj59ffvqVo8U13HrdSN6b8RnNOnanobiAfoP7Mu2l6fTs0ZtLe7fl8c/Xc/eNF7NvyxYFKn/csIvLLx9P59b5hCM+pkyZwk033UyT3Fy++HQ27dp0Zv2uQzxw2+U8+twHPP63K3l4+lvcdvNkDm3bRiAjF2PpPmLOXDrm5zHvm/lcf+31JNls5DZuomzW9+xbx6dfb+Wq0T2Y9tpHPPLIg9x356MMGz2KFhkxfMJOBA2Ywx4O1Ou5ZtxoPps3l0vGX0ledgbuumpenP4i110/Ubk0ZqQ4ef2deTz32P0sX72YiuogAwaN5K333mHMyOGU19bTpo2TubN+o1fnHKZ/9T2zn3uSDb9tpWWnJtT75F7Al9+v5KVHJjL80knM++xTVvz4LSabiyFDhvLhxx8z6cYbSbXbVG2hvmQPtz/+FrNmvMnM2XO4cOhwVq36hSSnU2mhXnt1HnfeeSUxPOzdd4Qvvv2JZ+8cz70vfsmHM//O8mXf0bx5C9Ys34ItN5/6gi3cMHkqh48dZ+PmLRw/fIwLR4ygUU46c2bP4YEHHiQ1NfUUUP/Hvei/KUCQDyqq5mNHjqpuBZka17pVayoryykuq6Bdq3aUV5fjctg4fqKIDu06UFFRRYO7joz0FK0QpDeR4XJy6OBhGrfKx26MIha2NfX1lJZXKBc3u9OFw5ZETW0d4Ygfk9lBdlY6u/cepGluYyJBoV5lMp0ZXwhatcpHFwvg9XgpLi5BL73eMR2ZaakUFRYqVa3dYae2roHkJIfKoJzJRgpLashr1phtO/ZhE+tXp4vmTRurc1TX1mOXDdZhpVlOI/bsO0Trls2pqapWG560djVunMPJ4mIl7LLa7DRu0kRrm4lGqamtwWixKFR7TreOFJ8sxZGcitVioLCwlBYt89i5czfJDieZWdmkpaSpMad6XZCCoiJ8PqlF6rG7UsnKTsMW8/LR3DnU6hsz+JweyqCmTetm6tqeKC5Wk/KaNm5KqN5DIBbEmZLMoQMHwWhRgsPGOdnsPHiUFnn5VJWXYDEZsJqTyclKY+/BA+Rk5aA36igrr6C+vo5uXc6muroGh8tONOyluKSO5s2bqQeoWW5jnE67UkWLmO3I8SOqJnpW2/ZU1dVw4mQRxlgMR2amstAtr6xQG2rTZvnU1tZTW1tD29atKDxRjKehnnbt26tJgz6PT00WPCntTlmN1MAWyTgz0tIpPH5CKevz8/NVnbKispLc3Nw/HaX8z5gEazSCofQxosffRC879Jmt8WrwjI5Q2kRo/xxRXbpWF9ZLx0RclKUo199v/krxrCbNae2bEqRN7rVw4nF0leuImUwUeduxv6QftZE8ZIdTdW0RIspuJ6ZXyhhLgpQlzlhoVXIpMVSUlLJnx05Fz3bqdJYqH/yy7DcCgRDBYAS3p0GVPkQDEIx3sUgNNuCXMoAmWPX5/UqrIesmqCyU3bRtmsaU8RfRKEm6WCyqll5SVkdVeR0WaxKNO7Uh/6yOOLMzcaakY9SLwA0ajhdScfAwJ/fupj5URU5uhloP0ViAupJSvAFYvG4XXy7fhj05lTpPg2qHFvdEmb8QFUvoSJBY2EdKkp0Mp0MFS3n25YZYDVGy0pwYpJtDF8WVmYneZMHqaow/OQedJYmoQQCB3AtpfRajrd9rQUS7oWjyqBFLoJw2yWs5r90xUuz1BC1O/KkTseXdjdeYhtEktLdE+j8/NAG0DlvwJyLbJhDDp2rZyl9B0engN9qJNHsdY6OxyuzqH48z2pmVuZkQ3eIJ0MA7M7+gUX57xg3rxqYNe3EHYixY/C2dO52F3igi3mYMa53Kswv3Mml0b77+cgn5+amq26tjp76c3boxwbCH++6/l4cefkwBw8XffsyebYe46aHpnJ3j44UZ33P9uAHcO+UJ3vt4DvvWfc/8fR7OdvgIJjdm3KDBfL/8F9asWsN5w4YzcvAgjMYQkaiHgYPG8Mm7T/D2x99xwdjJLF+yiNYtc7FZfcT0FmKeGGZ/Hfb2fejTuS3zv/iccwYNol1eLrFwkH379rJq1SoOHtzPhMsvZMPuEFMnjmb//k0cOH6S7j0G8s7sDxg7YgiltW4u7NecGbN/g5CP5HQz4aiJmpCJ5tYwBcVu8tpm8uPKXbzwwLVcds0dLFr0A5PHX8q5F16G2WjAHwpw6RVXs/HXxXjcYbLtfmZ9vY7Bg/rirm9g1KiL2b59A9mNc+jWpRsD+w/jjdens3b9Vjp1bs6h4grObpzM5+vLef3hify4+BNs+iR27q2g3mii9uh22nTojsmkx5WdxsL5G3hzzsuEaov4+JP5XDn+KtWa+j+OQThz0Z9uo9PYNElOxN5T6oxK+CIiEb3MWZfMRctkTHpN1CStJtr0NfFnl2mBUh8Voiox9ELzk9da4rRzyOvJZqc5BeqUml/osJDQqUqlHTxlkapRfnE6WL03zXo1oXQ3qOday7xEGKOdUxOXSOaVoGN1kShRk0Hm56rNWTZh7bPq1O8bjNpgHM38R+teSChi1X6nPpfU9ELo9CaQrg0lPAurrg3ZJORzq7ZL5S8grYyJdlGLapEUujiAEYcuzMaNGwkkNeL8zq3xhyTrDGq92MobIqYyJrPcg0TfvWSTEe06Kv8Bg0l9BiXeUY6GSqGj/p+goTXaVdNtSY+69EbLBLRE66hImGRjls8QDUUwmeWc8eApVHbc5EkAgdj/Sgub2kvVyGGpG+rUfRQgJZu7EhMpybPmxpcQFYnQSSYSSodCMBDQWlaltqsTG2EJHNpa0Vqb/koO9MdtWhpI3ZhKrid2/EdNaa0ppE4dEb0Rd8oUbG2fIqpPiB/PEETFPT/O/B2tjdGIMSLGy1Ly2If34J2YqlZhiuqoiJ3FxtIB1Idz1Iho0RvImlCKb71FARWdTjJZuc5WGUF3unVT2skiEXZt30HAG1TOgzU1NdTXuKmv9yi6vaqqUhkjiVBRdY4IrWqxKAAhnQtyvcXbwGiS1kSDWue17lp17yeO6MuAs1vjMhvR2RzEdCaqSiqJesNYwzps0h6Xk02qzP4wyahrsHnr8VQUc/DQHqypNjKaZKgqsZgoeWsbOFkbYfpni2loiKjOHptDHBi95GRmUV9XRzgoEwSjJNvMOB1WHGY9NqPYOAexmPQYoiEaZ6ficlhJT3ficqZx7MQJwtZUYtktSMlopLpDImERkcYFYXGAcPq+xFQCExYXg0gMZ6yMTmlrOKf9IawRD0F7DrGsJzDkXYLHYMMY1Rwr/mHFxJeHfM8aqSNafh8c+hKdOSq5jmB61RUVSuqDudM7+HUyIvr0uU6vLo3dSHATcVcWxAht4U/rKK8PMmn0Bcz/eC6uptlMe+1DZn3xBeu/no7X2JaxvTN56evjZDnKyMppz4WDe/DeB3MZPPxyundsRTDk4/777+PhRx9Rra6/LfyGtvn5LN5SwKM3j+TJN79gysRLefKR53h7xrtsX/sjSw7U0CE5hC4pmyG9emNKTkIfqWPiI68w+803MRmC6PVBVv24lNc++Ynnp4zhitse4csli9m+Zjl6Q1iZLkU8YfS+ehytejGkV2c+/HgefYcMpU3TxhDWPARkz9yyeTNH9m9j1frDfP7p+yz+YR5FpV5GXHw1b73/NteOHcXRE6UMGtyF9YvW893Krdw8YQBjJj/IB7PmMmvao9z1zFvkmKp54o05vPDIVC69+iYWffc9qxZ/w97CMsZdPoZZcz/i2km30DQzGX3UhLfiKKOuup3587/g+eemqYFX+/bvIS3LRad2ZzFs0GAm3349tkbtGdW/O5NunMpdk6/h7W/X8eGLDzFn9ks0yzuLfdv307xLLxoKD3PuwAsoOnmQJUu/I+D1MunuJ8gx+pn76bdcP3ESKS7Nm+LPj//GDMKff2BNTiKbi1J0qvntWgDSgrIIcuIB6VSrjsbQidBDU94mDi0Ia19NPE6y7+mUxasyATtj9rioZNURt0nVwlFchxvvhZWAryxM4qIbLTBqtUfNICh+ijitm2h/U0KXeBDRsjsN6KigatAUs2ceElCVtXDcRlhr+VFjYOJmUXEApGqXolLXen8VnBF3PaP0dZ+mSpVCNhojaLCooUTyMLqNZuwREXmJilaHMRolrKYJauplra1Hm4+udRxpanj13hUs0LwINIMr7bVVG1z8Z07R0MpcJ672V5MKJdyLWClRhz/tdqjAiQI40meeuD+aAempVkItmp+izjVnRc2hMTEvQMXZU+9V+1m5v8rKN/7a8t4VcIz7PGiiwTMlgn/xTMa/HNX7SK57C/Y8eyr7O/M3IoZkfI2fwdT0OtXTrq3ShF2X3Pp/dOOTdyeCMbHj0QeOwNHboHYl+oiRqmArtlcNojTQXjFCJqP4HAiIMCi1twomqq1R/pg1i2lRfsfXpAAymbmxef1GaqpqqaurpV7YtpPlah6CtHlKx4HcKykziLNiIKhZASsTJTX+WXNXlK6EYEDYJZcyV6qvr6VJdjo3XNiPFukObNIaLJ4E4nMgzEmtTPLU0yS9EemiAzCaCIQ81HtrKa0+CRYjNpsZi82OOxyirr5eMV+LNx3guzXbsRjsyoxGcnlZX+FAQCsJGJQ1FxajHodF3PjsSrXv84nlsk59LdlhUu3MzZo2wWrUpui5DUmktDyLqMmuukTUeaNxoV9iMz7VfhfvYI/K2jUSjuhwRk/SPWs53VsewmKJ4NXnY8q7HxpfTjBsVGvtj2BTtV/GD4vcn/B2dCUz0DVsUjModMJW2pvh8wSxNHucmLMTkZg4SybWpLz+aVMtba+SNSAiPbE1l+dKx9JlP1FdVgdmIz27dubwvj1UeXwk2XwY7M24sHdn3vn0B4YPP4+VK9er+r2wQr3OOY+2LfPVhMwvvvyckRePUsnAhtUr6NezF1//vJrMZBMrtp/g6Qdu5+NPPubG669h/+7NHKoO0SHHybrNBxgxbDCfz/+SVFcSvQZfSG5GFkajXOMQ7opiZn2xjqnXXcKbny3gpltvpHD3NpUENm+aydcLviE1yUHrboNo37Qxv65fRbvOZ5ObnkYsHGHx4qWqNVv2wyuuuJTSI0Ws2LRKgb9z+g1Ra/O3VSu4aPBAPp6/gB7ndMXc4ONYlY/ze3di5vxvufGKMVgCPmbO/Z7sVAMnvCZuvvYS3pnzCbfdcgsOY4QPZ39GiBA9zu1D67btMMgoaIxYYwG2Hihg29atNGnShEEDB7J9xzZc6U5yMhvz/HPPcsedN/PTz6uor6uhZftu2CN+lq3cQE5OFpnZaVw88iIWffkFLbr0pr78KAcPHyMlLZtRoy4kFqrmzVkLSDEbieh1TJhwjRqN/tcA4d9Jav75fvZ/87v/aZHiX70ZeRjMsQAhvVN12yqTCgl2KsBJXUKyJdkMf4/RtfB5piY8QeOehgYqqEuGHQOv0YxRzebWGAbZC4QNUOdOiI3+4E6hZa46lc1rCbPmUa9EYIl5CX9qtKO192iC9MSEhESwFdHX6QlemlmQIJ2QGmgk89k1f/pE4288qMRFScrvHmkTlOCgtVFJX78CUvFs/pTdsojhJZTG1cUhvbTqCNzRXNuUJYtRrHXDKgAlQJBGv2qz0U+J1PRGQqJilzakM7CN2mLj11NjT+IA63f9yIqwVYyIMn6Kt/gkDEcSAEE+syqjxxuJTttN/6MALOH2qABL3NNfAILMXlcDfpTyOa73ijtBxv0d459Tm9muFYLVzvunS/RMGBfRx3DEtqDbfzdUbNNucPyQU/mtQ9G3e45Ycuu4S6MGVE4ff54VhKQlKnCC8PFnMJV9qO5NdSif3VXnUx7qTCTqUKIvMa8RRbjq9lJzL+LOmaLu1mv3Wfv7tNeoMFmV5ZU01NWzccMmSk4WEw1HsFhsSogofiBS5hLBngBU1akgPguhMD6fXwMm4q4YDisLZWGE5DpGwiEFGPp0bMllA3qRYjdjsRhV25qAEpnsGA6GseiNZGRkYbZZqamtxu+vV+yfyWRW+s1QVKcmSrp9EY6U1jJ3ySqKKupxiHYgLUUxQIr9k/keOh0Ou1W9/0hQPC/MNEpPxm414fd6sdvM6JRo0YjNYiYt1aWAS9BopUFnp0nbbvjlmTBqSntxi9RwrvZ3QnWfALzyHCothtqLIjijx+mQvpK+Z9Wg03mIGPIJ5z6LKXMUMcXmJRKG09m+du9FJSLgTUqitYQjZehDHmIGCzFjMvr6uVRWN8PR/BKMZKrygaZJEW+KkGJNBWwq2CCeAgogqAa6uJpeKktGgtJtEhXXzZASQkqboypIKSAUUS2Qmn257H2yTmQf0YSPwuolEh7xXqmvqmXhkmXk5bdQA6xkXoKMYFYGEbGQKinJXBidTqgQzfDsFBuomFLNUVZ8FyPikChJmlweo3hLah4L0rmiugbCoqURXUWEiHJTkkFk8ccrDoKVP4FqmZRNQttHxBhJ9jyxb1f+vLLupQwoXiqqHCbvT6eAo7yGQW8hHA1qM23kfalJpdrvam3FwhxFNJAte4n4mcSihNTzpTnUyrXR5srIHdLKU9J6nAjbsuuY1PWQLgut9CefV8B6RF0rKTnKIUmmMOLyNGj7j5Z8JlbMv8ps/t8M8//fz/VfBhDkobcEa3ngqde4depUln7/DaVVlTiSk8hITubCMVfgtDi0h+vMYBzVqHVVYhBNQ1gyHbmBWiAKR0KYjBYVBDatW8PusjquHj0a6eaVh0GWmkn17koVQFsACbMQeR1ZdHI+WejvvPMON910g6KppT1L/lalApVpx4ccxU2OEsFu4cLvGTlyZDyIayAkUeowm8WkSOsZl9eR8bWRYCV3v/A2zz38IEZZkOJUaDAopK1lcRIM5BwQCmr9zrIwhW3XZiHIc6O18YjQUQbsJJhTrQySyMITQCdCTU0t77//Pvfcd68KAnIoQBSvjYrroxxVVVX8unwlF198sdpwhfpXZQJxdBQ2RAnaNLimARXpS9ZcIFVpQIGYiPpdJXqTICZ1XlVukTKBkXAooFz1NNo+nvXH6XKhwE9ZMwttHhfMqTJPNEpBwXH8nlpyc1uy/2AxBlMEpzOJvKZNkWst70s2COW2JjI0cYOMJ2lSatFe7j8GCNo2bUDv/Q5DyXQNJMj6iVmJuS7A0OIhgqYWqm1VM2/5Vw5hiSIYy6fD0TfQxTzUhHLYWTaM8kh35ZaolxKYOMjJJhxnCbQah/Rqa26Hqmc8XqKRdrMEuFJMWyhMTWUNSxf/SH1tHekZGeQ2zmX79h3qPja4G9Q9NMj1VxshyidBdCRSUpBnQ7oc5BmTdSUsg6jd6+rqiQYDjD2vB706tcaeZMQs5UKZYigOiTYHeoMZg0meF3EglU1fM82R6x2IRGkQHYTbT70nyoc/rGBnQbGy6RWWQnQHSXYHnoYGHGLmZbMqpqy+plZdDykvZKbYSE22Ewn4sFhMWC0mBQ7EudFs0JMsGgRnDrV+VPsvFhMR8QNQbovxzTjBHCTMxk79Pw7W4/3ususnRY7Tvek6urcswBIL4bV0xNTidfQp3Qhhi1uMayc+vaI0cKP5AGjOCIk1rgoZkTJ84QoC1tZY1HAvqwZAdAaC+jCmqJRQtTAWT4PUuQ0yuCvhwBpfaiqIxgPUqdUXjXOj8f0zMWxNEg1lqBQNKs2OAgjCLkZ1yumytq5e2RLLYLNTSY1OApywmLJfJNxsNa7z9HGaKfsdT6pAhLZXqHkr8RKrVgZOsJLxsu4Z108xwGe6vMYNlhIhVFnpx9lBeQHpeJFnQvYgAZeqvBgXoZ55Y9QqVKy1JEyn70nicyisIlKjeNKSCN3/OucYP1NikNe/sh38//Rn/ssAglgnW/UN3HLHvdx25+O8+szjTH/9NVJTHCxftoRl20t55v4p6COnFedqA2toUFmPUJ/2JCcOh5Wy0jIFFmQTychw4XbHaHDXsmL1r1SQwg2XX4ZdJ1RpAG/AR4rNzuHCY7TOb0lBURlWq5nq6lpatWqhhG9Sr5VN8cmnHmPWzBlUVFargCgMQlqqiBiL1LQ5cTyUzEs0CLIYxQvg/Q9mMv2Fafg8Hrz+AH53iNzmeZSVFCvltD/gJSUlBWeSg5LiEozBMia8+BHfvPm2smWVQ4xljhYUYLeacaWkcrywGLtVT0ZqhhLsySRDMZ1Jz0ynqrwck9mqJunJcBwRC0rbjthE5zVrKk/lKRZGHO7q62uUqn/O7Fm8/uYbFJcUK+982UqMEnwMJjLSMyktK8XldFJVU6dGPMtEM5MkQyYT6ampSkQYEZtbu4P0tPRT5SB5Dakdezx+8vKbUl5eGhft6UlxuvDW1VEb8GNRLWsWTEa9GuSTm5PDkWPHlEGOaCJkfrvsa6WlZQosKUW82URVZaXKEMTsRtHb0Xq+++YXclt0o327bFKSk7FZLBScKFY19Bb5LZSdb3FVuaKnhTbObpSL3iAzMs6s8f7+Cf3dBhcTPzkHOqMHA0Xoq5dTXbactKwRxFzDCJKtRmeru/fneOMfHn/Rl5jcC4jsuRdzpBhf1MG+yis47j6LkC45ri/waD70WJVmJFEaO8UYxCkdDUTGhyzFX0mbcCn17ijr16xj+9btSngqnvviZy+iPzmfbKZGo0X5IUje4w8E8Xi9it0SLYLX41FgQU3BjK8ltzdE2Oemc9MserTPp0O7ljisJhW4LWLRbTLiSLKr+2e3WpTYV7bisJr4GKTB7aPSE6Siysfajbv5ceMeoiab2pXD0ZDSW7iSkjQfhkgMq82q6PCQP4BBHyU1yYLTZqBJZipJNrOa9SBC4gSAdaU4Sc5qRNiUhMmUREV9AHt6OqYku0os/ggQ5JJpSUJctCj/PqUzET2TJBERnJEDDG61kra55Vqpy3UF+laPEzDlq5Hd0umRMB06cxnEi2RxJiB+g5TRToSoXoJ0EqawfDYBBB5COgdBvYz0loCruWNqfKRm1iTMgtaPL86hwr4Ku6MjLMLVRAau1qKYEGn8mRYgtZKiWE3LXqnZvQtA0GyJtc+vGQWpa3KKzpSTSnIlAOG0mFLzMDzzSUlAmTOnwpwGEVpJLJFUxAFB/HXVNZLvKZ8GjSFVIlSt9qp9elX2TVgay/fiPg7KoEybCaOBAkkg5NponyXBDP3uIVR20H8e8hN86B9z+f8FCP+IYv7LAIJM5zLrKph410387c43ef2Zp3nxtVdUqyL1lVx714O8M2MWDpXta4OdRP27YvFCKmoriOmsVHk8jBoxhMefncHFg7px+GQlkyaM442ZH9OpQ1v27NhAeqcBTLp8JLZYLXt37mbr7lomXtKTi8ZO5ocfP2f05ZMYe/l4dmxcxfirrqTkZBEVFZVYzDa+/34+z0x7jC8++5YWLZpTWFjEFeMuYfz4v/Hwo1OUeKrBGyQjPZWsjDSqa2p4/6N5vP7CU2zcvJX0jGz2bT1G/+EDeGnak1w/+VY2bthN9w5t6dq9NR/P/ZQe7bJ57vvtLHjndZKVvi3G66//HWdGOrFImOE9W3PdPc9xyVU3MKRnG2Z99g1DenVl6+5djL/hRl684y7GTLyRWp+bCSNG8OQL02jdoSNmu5PRwy9QtVtFU8ZivPPuDDV8p7KyjILC41x55RWs+G093Xt25MjRIzTPzGDrkTruvO0aPvvkCzp3Pov35n7ElMk3snL5arp2bsG23YV0PasFB46eJNth56TfzyWjR5PtSiPmL2HR0lUE/FBdWUW3czqwZt122rVqSVFRIS1bNuObefM4e+BofHWlqjulY7t8du05xtgRPbhj2nuMHzmcqpJCzhs4hO3btuMJ6TFHaqj1mbh6xDDm/vC9AkJNW7XFX3WUkooyDu0roHHb86mt1YTLAAAgAElEQVStPEj/nt3UOOOyymrctZUkZzajfZ6dj79ay8WDe/DWnI+ZPfcznHatXKQNsPrzI7H16UVVJruFULV6MzZkwmAZ4VgaMb22OWt+8X9FD2pnku+Ko7wpBqbYJsL7p2Ko3qEo54MN/TlSPYCQzqkof4NeMm5pzBO6WcSqWoafAAcJ1iABDmQjlewsgVESJSDhd3du3cGB/fsVcyRCKHFNFHbKJ0A74Eev3BPVEAbFINTU1mK12wn4/bg9HtWfLYfH68Ej0xUxqXXVOb8xaVYdzRpn065Fc9KSZLqiGYtBrwCD2GgL+JY3HopFFEDweHxUVDZQUF7PzkNFLF+3m9qgXtVhFf0vZ9frFBMh4khdKKRYi1AwgLuhXpUV0p12HOao0iFkpadRV1ujXktYKQlqOc1yMSWnEYoa0JvseIXqdiRhdSZpZjjx+R4JYHD670QZMi66PQUgZdhZDF3YRyPjNoa230CTjHrCukyi2Q8SybuaWDQVnUEVueKdJWeWmRL5/5l15IQTn5GYr5Bw/W7sWUMJGWVmiV1ZNIspkeqIiYtrNTirlFpxsKAF7aNHT2C2Z9G4sdhCiymRiZjOj9HjY09RNa1bN1Xln5BimqRsI6BHlnMie9Y6cTS+XNZBYuWL34SMKZdUWmrzwsOdXu/aWjsNJqR75BTToQBQ3PcxDjgSIEDKQch54tdXMQlx8CJvI6rYivh8F1W20GMSt8hQFcv3VHFOt3aEdVGlpdJgTILS19hXofpPlp9gf2EF5/fsqUDQPx6iS/prgPBnO8K/DRD+cmf57/ON/zKAIBUpAQjX3TGJe+99l5eeeoZnX3qRNFcKek891981hbdnfoVdIVfpz5YFCgu/XsTqNb/Spm0rTp6s4oqJV/LxD4d47rb+PPHqHIb37MF7i5fx9+nTKNm3k282HWPKdeOw6yrZt2sfazfVcfPYLoy+/C4W/vwpE268gxdfeYWCfVvYuuOgcojrf14fmjZrzPNP30+zNt3YuWE3LVs1YdXqNUydOompU2axcs2HFJ/cw1vvzqNFfiv6n38e6SlpTH/nHZ67bwp/f28OBw6WcO3Y0dRh4suPZvDR/AXsXLuJk3s3sD/gp3e3C7mweyYX3/cWs196hmRTWDESTZrmUl5VRU1VJU59NcPGTOGjb3/mxLaf2V8SY/KY85j2/FOcN+4a6nbs5OuffuGKCddwQb/evPvBu2zevZe+A0cy9sLBrF35C1u37qJvv3589vnnvPLaq7g9Pqa/fC+upFwa6n2qZltdU8eYi4cz9e7HmP3RHJYsXcWEyy7hxefv57yLLsPpasKwvm3YdegQn8yegZdGCiDURhu4aMyVdOnUGM/JQuYu3MM1oy8ixwlrNiylsELH2EtHsnb1avbu2c3KHxfyyocLObx7NYXFFYwfcyELvv2Vzvlhvt0S4Z6JF7J2hajZQzz+5DQWrtxEY/0xzhn/Ij/Pe5s3P3hPqdPvfuhp6g4spaS2gYDfQPPOw1m/YgHd2jbl+RffZvaHn5GRHaNbj0uYO+MhfvjlOE/ddw29zr+Ij7/6ltxGLk04+h+U/BQxHBMBnijlY0T1XvR6F1LeDSp9SHzAmNoo/wpsnKZhQ/owtlghpuOPEi36TrU3Fno7sq3yMrwIcyBshT4u7DQSVZoDLdv6M3CgNmlVbkgMA9PoUVUKkzpnKERNZZXqqqkor1KMgTBYa1atVoyXgACP168CslwKaeuV2RxOl1O560lZQdXzg8IsePCLJ4Q1CYfFRMe8bNKtOqKhIKmuFFo1bUKzrDQcZpn9YCHJ6cBscyjmQRgK+VNX10BRWTVb9xzmYGE5JbUBavxR1Qas5o/Ix5UyouhLIhGyUlNJSXHR0FCPp6EOi1mP02YmzWHCYdGTkpSkPrtQymazUbW4NmqSS1qzFugsLrxh8EbB5kzGIOW0uAhZrptcn1O6AxWstMWgymYqs00sDrmWcq9lDVSTa1rKqK6HcCVFcOuaoWvxNKaM8criWgKpdsSD7hlrQuue+eOhwxDZyMnd02mS/zihlDbow1JqkDKCXrlUqu6qRAdOvHIt61LsvkWw+OPi39CltGTkeV3wqk4iC/ZQOf7aav7+yc/cfft1aqBV0OxUttWii1ChNV5O1TqqxKDIhtEg3VIiiJTyVQyrzk15NBm7TtxEw0RMVkJhratM2Bhh++Q88tGNRFTVXbWQSjlRysCqFKs5LEr5V4gPTTskQ+m0cq6mYZBnx4jF5EcXdROK2IlIbUpNzzVjk3KIt4CH3lzBUw9cjx8PycYUZa0vzIfJrHV0yZksYS/btq7hk9WHeGLqFOWwqa5hokwZh+tSXvmz4/cy8tM/8b8A4U9Wr1v4+v+CQ9CmhVqunzKJ++9/nRefeZ5p06eTleairugkr34wm7899hgpSr0mwrooUX8dXyz8jfP7DMJUX8DLc+ZxzeRJLPqxgIdv6MrjL89k1PkDeGvBQt566Vm2rVnBJgmo40dgjVWyc/su1mysZcr4Hlw07g6W/Dqfq2+awiuvvMDRvZtZvmoPzZo2o1u3duRkJ3Pb7fcyeOhA2jZvS5++/Th27DBGUwMjL3iMdZu/JTnJj98boaKqhrnzPmfw+efz6YL5XDywD3UBB6NHD2b5oh8oC5v4fPb7fP7tYvasWs+afatokduCyoCD64a154Lbp/P1B2+RZAwpSrddh/YcPHJUWVQHCzcz/q7pfPLDb4SL9/DGt7/y5OQrmfn31+l96QR6t26hHq3rrr2ZB6dPo10ThxK1Db/oBl6Y9jJdOzZBb7CqB3bKlKk8N+156t11PPHEQwzofz6dz+7KWZ3aU1Yhg3q87F2/hB/WFdN76EWMbt+OB157jgtHDMKkdzCwb3u27ylg07pFnDt0DC1at8RXXovJYiEl2UZD6V7mLN7NRReOoLHZz+4dK9hR6OfqK8aybv0qDh84wfIfFzF91gKO7V1NSXk14y4Zxhdff0X3Zsl8tMLDfbeO5KcfPsPhymXatOeZ8ek3tEgLMmTcQ6z+4WPV51xvDNOi1QA+++BxyhqqifigzVmD2bzmB7p2aMmaNZsYPW4cjXLNTJ7yGvdMHM3S9Yd58t7LOWfA5cz6+HPy87LiAOHMrO7PF7qBIJaoUJfHqDr6M2nNr8JnzFD+E6dNEf4ZQDgt4tTpqrGUvU2k4FWMwSC14TZsKR9KWbCF8oiIqOl+GrMRFXHTqW6FuM7jTCAQLy2cZhHiQCL+xP6ulTQiAkMZYOXl+NFj/PLLL8rjQMpuUq4S8yQBD1JiUJu92aTEiBLUZbCSlNHk3+LsaHW4SDabad0olVY5aYQ8XvwiBDYYyG/aiLzsNLLSbBjNVgxW8TqIKR8S8QMpOlnM/qMFVDcEqAtEKKxqoFaGMcVQryciRgk4Ioa0W204ZKSz2YTf71F1cTGJMkbDpCSZyUl1kZLsUHMfAn4xgAoo4aUz2UV213PRW124xcvB6VLtmgIizmQNTovrEkAhnv+eUWI41c2jupPkvYUxhU7SPmU5w7sUYLBEqQ52w9bjUwzmfKKibYkHoNMT/7Q2a01o/PtDXtGkq8JY8gXuqhOYO4gnQTJGnU8TyckMAgEDqm4va0ALag31dbz22vNUVJwgEk7iionXk56UzrTXnlYtp4/e+wi7f5rPwkP1vPnS03z4zvP4fVGqdRaeePwJVZ4x6U38+ttSPv/8K5wpOvweJ9OmPcaTTzxOaXEJbTp25t4bLmLcrU+zdOFXPDj1Di6+fhKVpaUsXriYn3/+ie1bNvPaa69x/NhxLho1mK07C6mpL2Xr+lXMnb+MfZtX8vOaNfg9HuWKeOONE7lg2CgGDOhPUrKLhx96iG3bNvPWG+/i9flZ+uN3/LTsB+Z98hVl5eV8PX8BBosLi9nDUw9fwdptybz+8rPM+/gtigpOkJnZlvsfmExtQy0Tr7uJdu3ac9c9d2HylzJv+QGaWHXs2b1HiQcnT55Mp46dTt2f/wUI//nA/l/GICiAYPDw0BMvcNMNt7Fo4WK69uhJisPG5s2b6N1vMHnNsjh8pABXVhOyXSaiAZ/KNtu0akFtyWH2FBZxwaiRbNpwjHEXd+PTLxcyeNhg1q7fRUa6i3Wrf6HPoFH07tUdi2BOt5tnXniLscP78eV3P/Dq66/z+juzmHD15VQU7mXHnkJym7WipqaMUKiOgwcKmHzLJObN+5K+ffpSWVVB+/YtefWVWTzzzP0UFBxk//6DNG/emoKiEmU3+u77Mxgz6gIOHCmlY+dWrPplNc3bdWDLxrX87Y77OLR7N/sLDzFy2DC+mv81nVrn8enXi3j6mWexCwqORNRUx227dpOcZKdd86Z8/v0SJt9+BynmKE+88RoXDRzKyYKT9BkyjMULvqB/374sWbyUa2+exOrlP9M0rzmLFv3G1Nv/D3vvAWdXXeb/v0+9fWbuzGRaMpn0hEAaIZRQpYssxdWVVUBUXHvH7loQ1v2t7rouVsACFhRURFlAWmgBE0pIIJXUSSaT6eX2cs75v57vuXfmpk9Y+IM6d2WTzJx7yvd8y+f7PJ/n83k/0bDtEywNkxVPP0t3dy97ujoVV+HKKy/nT3+8h3PPO53n12zmjFOXoHspvnr9DXzys1+kxjT51g9/wFsvuYA1q55nwYKjuOfPy7nogvN4+oUXVOhy/ap1XPJPbyVkB9GcIZ546nk8w+altc9z6qlL1b9PO/l4Nmx6iabmSTz6wH288/2fZcfmZxW/4fyzT+XPjzzB7FiBD33tV3ztG9ewc9tLLFmylKCh8/Pb7lCDPlbbQHNNgE0bN9LQFOfx5as5deliBhLDTJ02g2eeW4el5Thq1iyi0QiPLn8MwzWZOHsezbEMq9d38+aLT+ar197E5VddxZTJzb4OxAFEjPYdNjoF5axY6Pklbs7Abn0PacK+VsXIwQeOHmhSmlpywROmuV14ADZ9DjJbSGsT2dB9Lu2JuUhFgzDUVWVLKVTrG8CNVif4pMRRq+oyMCgTRCtLP30CQqnYsqSIKLu+4eEEd//pj2QSGaZPmapcQpXMsgfDiQSpTM4H5EIAdhz1M1m45QDZWSvtfTNANBDg2JmTmd4QxXA1xS1QSoxOnqpYmPraauUUKnwCFYnI5envG2BgUELzOsM5h96hBO19/Qyra5pkcznC4ZAiluZzWZUyqY/7YmCqikMRcTPEI6JBkCNqWzQ3NlBdFSOTyyjTKGVObBrULnoD0bp632LY9LU85P6l5Lisb+JHE0rL+T4chErwUBlNUKF52aV6nZw+4yHmN+/GdD3StR/FnPEhXEu4M0JaHJXY9sudS+VNZT7AyDKliCKEnG4G2m8j0nwlenBSqcpGfDZ0RT5UxF6175doVoZf3Ho7VbUtvPXik3jksVUkHXj03oc488I30L5uLYEJ83nz/ABf/t1G3n/ZiSx7YDktDR47BzSWLDmbhXMmk87282//fhMf/ch72dO1lrvueIpTTj+Ozv4h3nrReUrW/ZMf+md+8Ou7uOzCN/GDH9zEp7/0YT796f/ggx+8GlsL8sMbv8NJZ5zN0uOXMH1inp/86mnedulZpNs386PlWzhhdgOeXk2yv1eZ4l319rfy3Z/exte/dA3XX/tvXPnOy/jgx/6VP915Gz0d7eiWwcc/9xmuvvq9RL0iv3l0Nf/6pU8zgT6Kw09wzQ3tXHnhibywrZ93XHwKP/7xT5k/bybvuPozrH/hWVKdG/j3nzzKu88/hluXb6ZBTyly7vSZs1m4aJGyEffLqCXqIS9/f9A2HkEYO3B4FQGCDCHZOVQrdTRh6gupT5ilQqARRmqxmOfRJ1YwZ9HxNFVZWMqH3GY4MYgkQQNmQO2MPUIETXGR0xUDWM4hpD0hLYm9sYTnJKUhddCOI7v0DHZUNO0Nco6OqRUxnRx5UTPThfQ0rEohg4EQpjDtHUdZzgrJUNzufFa3dLKsInJ5rkUkXKWuJ7uUMgFMdO9D8nMJw4ljnZTgSUREiFK6psoHRZRIdkhSnSBMb9nFSWWBEDEl1BeLibqWo1KDErpzvSIJsbi1ZYdm4OYLqtTLDgYwTY18zlVCQqaUsol8tdLYF9KVfN9Q9ysLi5SjieS1/Ft2iJGI6Ki7FIvimoeS5pV4r0idCrtcnksmepnAlfpeoaBy2EJwDAZEtnZUVa5cJifvUO12EglsK4wdRIUETUMm0IzaqYqmVFY2RUMb+fr/3MfHPnG1IrhJHlv2TlJ2J1LGIbHV9lxy+Yz6WSQS9jOy8qyWqQR3RHZX7lt2srJgSSWAhJ3R+8CLqhyxU4ip9pf366dGRzniBxsWOhkChbWktt2J3XIJ+egJar73wcWhP4pkqPmVKxFrCF76Iuz5tQqnPjd8ATsTSyh6dX4JVSnSWinTXOYayFXkvVVGCw4KEBSu8AHLSFRbsdCkf+TZsHGDksUl53D/ffcxNJRUfUs0CYaHk0qLQvq6LK4SNRDSqaQipF96lowHj6pgkOPmTGNqXYCgLMACHsSMKS9KjaJ6KG1cChFLcrCkhaFYBprBYCpH18AwO/v6GFKCTEJkRCnN2aapUiOye5exgVNQlQkydnO5FCFDJx4JE9A8qmIRBQilj4k7q6T5AvUNxOcuJFQV90ltqky5lD4oERLLkYTKFIMCD/tUNOx1XImJXwpYMym4inNnP8ekmj5yXjO5KV/BanibUrqUYjn1XcWTl3LtypTFAeIISg+lA0NvpqiLaY+mvEtUfl2VY6siUzwtj+XkuOknd9DQMoO3XrSYpx57gmTB4Ec/u4NPXfMR1q58Cr26jUsWRLjud+t4w+LJ9A9kaKx22dlf4JgFSzluTitDyd38+Jb7ueLt/8ierg3cc8cDLD5pCeu6Enzgn87mi9d+lw9/+AP0717Nz2+9izMuuJQl8+v5/Jdv5KMffT8B0+bPD9xDddMUTjvxeFonDHPLHc9y2aXnkti+jW/c/RdOml5LvHE6VQGTu++5l4+/5yquu/U2rvvcR7n+M19UAOFTX/kffvvbW7HdAqufe5r/+e4NfPZzX8DL5Xluez9vvuRM4no/qb7H+eL3O/jnC09l3YZO3vn2M7j5Jz/m6LnTueQf38eOHVvxEtv4+g8f44ozJ3HHql6+8P4ruOeeO9mxawNTpizl/HPecACAsHeQfBwgHG5WG/39qwYQ/Okrh+tFVOmSTF6+LoCAAH9oyafgCgPBJqAVsJRIkYR6xcveUQuXOlLZc6qK2JK3uF/e4nlS5++rKkr+WNnpKoaS72ou5ZIS2pRacwkh56UcTnl1+45ivv2o311k4fb1EXyCj7CHXVcmMb/AWrQDfIVBEQYSur9fPim5S1+gpyLfVdJS8Mt8ROiolL0ulxyVHl8mIt/KVGp9g4qyJi5lwuYV86BKhUOZkMts5XIp5oFesz9P+uVMikWt8pBWibks9ynKjKWU4D6e5WVVyb3/9Cu3K5G4upeSCmK57E7aUzQKHNfCkjpssiWpX7mPIraXJlmIYkgURfPrusuUO1lQ/I21/4wqxynPXyo3VeWV8s5U7ljenSykIuvtL/4+QPPLU/28p7/Q+p+DA4SypoVeFH2fHeRTosy3CNcUR0EBRGPIvknfdG1sYxAj+RCF1VdhuXkGnSU82v0G8m4jmvjnVQQgyjLM6k2VShhfLkCo5Fio2vjyQum6PPvUSp5b+Yxa8E3TUiArkUwr8yafw4ACx1KiKmY30mdUvTpSZhjnuNlTaIqIzLGGZVrqvQhAEOElEVySoSHRK0VkK5Espc/mHY2BVI7dvQN0JRIkRHfBDKo+KIBPQEFUVQhlFUCVcSZ8OlOHcMBCF4dHA+oEHITC6t4LhQxZ4VJE40SmzWDG/EUj5D45Z/mj3nZlOeNef/dLh8ugoPydchm04kmX+qB8LeykWdC4knPmP41b9BiMvpHw0f+OFpyCU1D1Br4OyGFKW6RPB0VvRJWCJigSouiFsbRUyb1R1DJ9iquMDQGm3d19fO+73+XS88/gF7f9L2+55C187ptf4qv/ei1PPfQgXngCn7lsPld98Tauvvqd/OHOu7j6sgv55g9/x9Xvfx9nHD+TXD7FL26/E0sLkkh1MrAnw0c/+X7e+5FP8o6L3sT6jj7e/e6rKPZv5AMf+xpfve4bLJxbz6233kUgHOfhR5bzmWs+ym/vWcaF57yBaa1Z/t9//55PffBq+rfu4Fu/f4TpE2yaph/FjvVrWL3mRb58zSf5zu2/4z+//iX+9VOf5V/e/15WrVrF1q5uNqx+gf933dd57NGHyaZTrNy4g6vf+S4Wzp2J5SUZ7HmKKz71a77zzWu5/mvXcd7Zp9G+s4+LLz6Xnp0dfO/mmzhl6WLirccxtyHFz/7wJDXRCKeddiKr1jzLnKNO5szTTyoBt3I/2H/8jwOE1wlA8INm0vl9i02/Srq84Pg3qQRLlNywkLfK+onl0p3SrKqAhc/I9Q1wVLzAVz1U5BThxAo/uuy6LvndSr0bXz5ICQmNTNSiHLh3Tbtf8y9znUyevsCIL0ZSqkUvyUePKAGWqgdkdStFfJXegP9cJT/y0oQluxfli16asNQErVjrkruUxVUmG9mJ+CU/fnvIgikLbLmtRhfNA7/iioC4ymn6g8MHQZU59NFypfIyvf/5yrtn/35GvdIrFRYrC4bkXYgnn28Nq/KqpTbwi7jk2W1c3ZdzkhKn8t1KBEhC60p3X95bhXZFua2VUmIF0awMTFSPEedDRdAusazVojsy/R+wqeTXwpSW+5R69GE9gy7SyF5Atbi8q7F8BLxajlRirCC95hOEc6soOI280H8RW7LTRYxXRWpUPXb5piqMnv6vAKHyHsX7woeHoqlR4J4/3c2WjS8pd0cBTMlkgnzRf0/iYWGKoZFEz7Ii6ayp6MxwKqX0KxrjNZw4u426oKNEviS6IPwBVVvu+ZwGqSpQquYKmCjXarLZAlnHYzidV6HszoFBCkL+k4iWaZLLiQ20qyJTYu4k5WsS1RKOQTRk0dbSjK1pDPX3Uh+PUxUJj4wlGbvNM48iOmUaeiBcqvD1RW7KH6VaOlLWuDdJsVzqNwIIKsaVGpcVAEFYqqYTIswa3nT0Y8yY2E3KieBO+jqR1neSJ4Kj5p9RxdeDFbmImHfAEd3RFEZ2OYXkEIGmt1IQ7oaWUaWFMmoEGIgIkvARLNMjnxHp7CyBcIyAaWHbwwwlTX/2s0NUiWV1wSNTMLBMm1RmkGikTqVuTD2v3smW7dvZtbOTbdu3IIUs73735biFHE7ORLMNTFVrmCPnmCq1FDTzFPIaA0MpgsEY4ZAAGxGlkzjuEEMK2Pgpq4IbxrAdhoZSiksiPBBPdGA0qXRx1HwmGydxUBzM+BHF2upq3GJRcQq8YIy4lGCLbL1oWxophooSFRVTLelbISX8ZYv2BUWS6aQSjYqFq/Gk3YyQIuxK6bUQHcNhkf32qzX21tzdeySPA4SxzGz+Ma9qBGFvUFAJEPa9wTLL9WA3Xl7IlaaZmgL9Wl7/e6pESS07o7IYY9j7Vewy/euOAgS/htZfzCWM6p+tsmP5C5cvEFKe+P1ddbm0aPQORoSaKnY3ZRa6ykFLvboSWvFL0VSkQj2Lv8tTT1yq9y3v7suTYOXvykDGP0ZJ6Yx4TfjywCPTaMXfDyb8M4q8D0TP869RbpHys/rgoZwrF3a7WgBHlq0yRNznPZfqmdVErwBThbhVOVIjkZBD9OvKWmhfzvrQH9lt5zWPgJdDS68nb8bAnq6A5EjZ7eFO4kNWgm4HWse3yO/6MZZusitxPGv6TiFNk6+spl7SqM5BZTTm1QAIcjnhCzz28DK2bNxMOp1TKS+VSsgXqYnXKrCQVmkFk2QypdJK0ueV+qYHsyZOYNGUJqIBTWkfqAiCeIiUALCINCmoURJzoqiTyzvk8h6pXJ7BbJ49vUPs7OqFQFClBiORiDJkSiaTvj+Lercu+XxGLVq1VVGqg0GioaAi6UUjIWWAJvco17Hrapm9+HjMcExBTqck+FVOG6gxPKKeWFHSWJZDLwH3MQEE8XZxJf2RoDn0JJcuWktNLM2QPoPYzB/i1iyVGJnSK/AVEfcS4Nyr58iC7ysI5rAKDzOwcRmxOe8jZ89C0ltqhHiWWkhlA+Q/ltr6qPOo2UBVIviy6b5gkq/l528zSjNfZb9XwMvjoYcfUtoiEmk955xzqK2Njwha+TNo5aZMqSRUbAdKc4B6Rtm0mBR0V2KcpaNkrMgxosdQfuT9d+zlmbo0kZWuWj7eVzf0Ya1vUqb2fopgUxZCkqit79I5IjuvvGP8T7mCcwzDVR0yDhDG2lL/PwGEymDvoSb5g9/26CJW3tdVqi+qnarv5D6im/WKAAS1kyzlGkteBapDlhZHHyFXeAuUhnOp4HgkT1xevMq16+VdsZqoSoqNklLxd/viGlW6e18OrTSuDiIIUh4kIwu2r1xWJuqMRjIqgUDlIH6lAMLekROVFigZNR2uOyoSnprcfQChvBZG2tk/r0qVHOJEo5EZ32PjcB8fxona5xZ6ttxIdevbMKLHqyiU7H3G8lFTtOcSTN5LcdOnMN12+vItPN/9JrryUzC0qD97qdWjFCXxn2bk9GMBCAoQK/JiBffgACCoHEEoXZBcMkX37i7Wrd9AMBRSAlsbN22idXKbWmzWrV2ryhzlDkU8TO5KuAnivLpoxkSm1IYJWxCxDH+RlmcwSyWK5ZiUmsw1Cg5Kulc4Mulckf50lt09Q3T1DlI0bTzTJF5fr5QQhaQr/BwRaBJ+STaXUVEK23OpCtjEq6vVQibup9L/o7GoEs5qnn8M8YaJuJ6lNBdGowWj7XkggOBHDvYRShopcSz/bu8IghrXAu5k3Of3cPrkJzhx+hY83SVT93YCM64nb9f7oj/K/vlgAMFPHcgOuUiAAF0U27/BEIuw2i5H4lWSZNWUgmFF36iIMmr6F38AACAASURBVCmVxpKXi6yfivuhruc/t3o2v1Z21OdE/cIfMT648N/T2HxKynPCKEDwAYBfPlkGL57ahIgwlR8z9D97pyMPNo4qU26VkZdy2s+PsPpqrupZFYdHzQoVpxy9piIkjmFj4D/FgT9jG/UHe6K/zZ+/ahEE9VJH9vijXefwe7sDNfTot0a7x6guvT88RnXByt10LK9sNF0wmrv0o1SlK1X05L3v3VdA2/+z9wAp7/zL7VF5/Mi+u8Rg9pfFknyyPypGoheV5zn8c1UO1vLRlfd6oEG271krW/rwV9z/CP+NHCj6cMA3PJIS2TsiUwmmxtp3Kp/uYFBBvT2tgNF3G4WB7RizP07ObcBQgKysq37w55beJ+z+gNZPcecX0Np/iWYZbBq8gOf7F5H1ggSU82Np0j5gBGFURllNXIo7UdqNloCj//z+cZW/87vHPi1SXqjUbcvkKmk0Se4beHmXXTt3KSvy2vpaJQJWyPtytX/+85/pFS0FTVOKhc0TamirDVEXhJpQgLAlinVCMLQUwVj+LEcOhCRbVOQ/IfCKhXSRbM5lIJWnezBFV+8AaZEEti2CkTCtra2sXLFCkSNF1GlgeEhVdYiXSEiTunyNoG0RCod88C1ExlCI5qlttC6YD5aoa4qwkc9SH+Ub+BG/st2J//NRxcS9j5VhNZqW2JuD4O+py9eWxIDh2rSY63njnEdpaR4iQSPO5O9gtZyvdAFEGlm9owrQMdpz/F2/+BtIWaN4ANjOowz15HCbTsfQY0pyWxEVfVhc8dXROUgtnCXZovKmZCTCUAYIpT5UjoSqCN8+A6Acgz30iN5n/igRbEfnu1JkoxTFFU2F0c/hwbmanyu67r4AwZd99L0bRlUxfc2Fg32OZHEfBwhjn89fVYAw9tt4ZY/cK6T1yp66dLZSOOyA5z44QHhVbuWv4KRjiRr5Ftn7R0uODBjt3xgHmzg0wuj0U9j+HQLVR1OIvwldOBJq53ZggZW9J0GdkGej5R7E2fQ+jMxOhnNH8eSec+nIN2JrYVXB4QdPS9GDigjACGwrVyOUyx0VB6MMCEZLHvcrdTwQQCjvjUoLlr+k+JrzEr6WR3OEACrpqkKR1MAg2zZt5s4//EERPkXSWzII01pqmVQfoTZsEjMlgy6VR7oSWxKtApEKV8TQ0q62UBCGvqQ1pApFKhEcUlmPwWyB3T399A2lcC1biTBJBUsqmVLRiKOPOZpljz2KZRtK5jsoi6dYRwdDSn5ZgRBRzgsGmTFvLnWT23DETdOX2ff5SyOcgzJAGI0+qYWoFI3bVzSpMi2xP0mxFCUUUnEpnG7lhzmucTlnLNyoHDcTVf9McNoX8AItpYqGUYnnA4FlP8IpIKIU5bSkikm8PiVML2md8i58313ygQd4OfJUBgOv3TRQTg+8undwuDlkHCC8Ou3/NwkQXp2mqjzr2AHCq38vr/8rHG5w+0/w6sC6g00cylVX7LQH10GknrzRiiVudoonerhYhasUECOk0XZ8CK/jd3iEebHrTFYNLCJnBAnrQUUWk8VYnW0EAKit4MhnpFyxBBRkp15p0uR/tWwcdugoghLaUbszYVGIG55HKCT+BBqFXE6ZmAkw6OrYxdaNG1X6oWdPN70D/aTzYqoVoL46woyJNUyIBqgW22YxHZKySPFCsYQoZ6vnUvddMjZTlbZiQFTwCY9FIeQ5OoPpHN2JBF17+kkUNTKOSzKdJhaNKVfHppZmVjzzDDPmzGDatDZS/b3s3rGdeDxOIBikiM7ktjbqGiYQqoqSVwVK/q5YbTLdskpf2ahMIgivIECQgLqqjhKHSJcG70UuXbycpvoUSe0orBnfRK8/XZEwVdhdrn3AKELlGC3Z3lPA8vJKU6ToSu2+7JbLY2BsIOH1P/JfuTs82BxSjleMLW7h3894BGHs72UcIIy9rSqOHAcIR9JsYwMIR3LGsR970J2FVsRzxEBICGQZCmKko0kuuFwxc/BrKEqY7hLKPcXAqguoxSWRPZaHtr+RPUUL2wwRMMT5UappStGAEqFT7fxKaYR9owhKTlnRFcqcgwp55dJ3lDueopLpSgJZ8viyixSNDLQQCS3E4GBWLWqGqVHMe6x7SXw44rjDXSR3b2e4t1d5NeSKEqbXyHkuOzu76RscZHpLnFmtDcTDNmHLw3QdLM0vGVbgwPAdT9XuXHF/SvdoiJKhq9Ty8lIyrGsksll6B5Ls6UvRPZwg6/rEQqnoKeTyNDQ00jhpIsGqMMcuWYjuuqxZ9awCEI1NLRh2wHed1DTyTlG1ZanGpwQQXt0Igp9r98WX5M9AYZAFtU9w9uKXwAhSqL2CwMzryemBEk3QfxeH/ngqImO5/QzufASrbgFabA6e4iBIcXb5sz/Zb+y9/m/vyEMBhCMBB+MA4cj6xjhAOLL2Kh09DhCOpNlefwBBI+QOUMh34YSm4Xlh34RH+YKMkrsO9oyqDM0bJLD9s7jdP8dza9jQdSorOk/Gs6XESzHJfAqJ2mj7O25V0lpOKRwAJPjHlCIGYre91/E+Z11whh9WF35DkInNdaQ9g56MTTHr0TOUZMO6jZxw8vH0DKdwXENp6K998gGCiT00xgJ42V5RZlBseBGp6hpK0tk/oJxAA6RZfPQMmuviRCVFUswrtrwQ44SvIFEEtV9WvAOf+KeY9YaFI0JNkmIQUSXk3HmSiQy7eocVH2Eom1PnUloipkWkuo7GllYi8Rqa21oJSrTDEWnoPIZhqUiF4/g8BLEqLyhuQOkVlXQYXs0UQ5mMJ/obymHRLRJ3N3PRCY/TGh9kmKnYs36AVn88Bc9SKZwxfTSHsNNDtvNnoE1Dm3ixojFKGXAls+pAKoBjOv/f4EGv5K7/lTzX32BT7/VI4wDhZb3hcYBwJM32egMIooIXcR5m1+anqZn5L+h6rU8OUy5zhwIIvnudTNx2+kmMl96DlumiPzuD5dvPo7fQpna8hiHmNa7aRZcXeSXuVME38Enno/tFP2RfInWWhJ4kT6/IhkJwLP2fbQcIRmNs6gvx4NObmTN7EieffAI33/hL6ibUEwsHCOrQNzBIMNhIxnbo2L6BxpikDibzxGN/YnIgxaKJE7CzKWWlvGdomI6+IbLpQSJBjynitzChjpArUtMeniHPZKj/FAdBKSj6RAARppIdtjh3KuGloizk4h0l1Qx5UpksPcND9A2mGUj6Ms9q9JgicG1ghGKYkRqaJ8+krn4CkeqYUgAtOnkcN6+0AfSir0ki5XWjpERZsF/dFEOZ4ScKn4q/IToZboL59fdz7ryt6LrDUNXbiR51PQWjoVRVcPj9rFQ+BLwUJH7P4O526mf+C3m9XnFFRJRtNN02VsRxJKPxr/PYV3JRfyXP9dfZmmO/63GAMPa2qjhyHCAcSbMdLn94JOc60mP3nq59nQzTy0LXTQxlINT2EdCDvvaBEr4R9tv+HITSsqYWN9Ptx9j9DfTOmyTwzNo9J/JMxxkYdhWankfTTWVpq0xqVUmaL9xUjiCU8/cKblRSEkpaSuVog6hF6lJK5ojEeJCCESNW10R1y2SqYyEGEgm+dMOfGd7dwWUXHMsZb1zCjs4kt//sTxwzfTqnnHks2cQARUxe2tJJNpektbmRs45rQM+kePKeP7Fn80u4mSSJ4V7S2QSRiE5DvJqGWETUlvyIgW0pSXJRNg1ZYq5k+xoirkOxIO6AonAqqoye+k94ArK0pXJphjNZBgcTJFN5ktk8g+k0BU0nmXfJ5BwS6QwnnH4Bu7rS5N0ixx5/PMfMm0/RK/DS5vWkkr3UVYUw3LIoUalyQUr/fL2eUiTDF+aSlInCeGXy4hhIiuXjy1GRyqiE/E5VJ4jPgzLX8qjXV3PhMY8xpS7JAA1YM3+MVfeGUoJgLABBeoRD0NlAdqCLSM1sXCaSM3ylWK9k4HSkff1v+fiDsYIO39r7t8o4QBh7TxkHCGNvq3GA8LLa6vVDCvIz2C7B4mZ2PH8rDXMuRasSP/lyiZmvRXGgj4KEIuvt2gTzz+Fu+zB6/woSRhPLN72JncOz0U1DabuUbZvFtXGUcDiaZlCLTjl6IHwDtUPXlZSxL7TlV7gapp9WkNDzUCHKhh6Lzd05Vq1cTV/7Zr77jY8y7+SjuPnG+7npu7dS11hHOJzj81/6JF7B5jOf+jRTZjZQXzubK6+8kHAwQMjyWLO6g/seX86GZ1ZRo1ucPitMW61DzMwQMNLURPx0glJI0PIEDIOQFsQyg1jCQzAlfSI7eL/yxHXzImPppwEKvjWw+Izk3BwpJ09fnwAEl4Gcy+4sDHgWp51zIYsXnczzL2zjrnseoLcvSWIoQTBi0zZ1JosXHsP8+UfT2bGVVLKP2nhAqjXJpHM4rhgaSVC+qCIMBcf3QfFTHqUg0CsIEBRw8GsQfB+LfDcntT3G6XM7fSW/xs9RM+1D5LxIyXDp0MuWj2F8BU6xGs+Yotpo4enZEoG1lJt6meNt/GuHboFxgDD2HjIOEMbeVuMA4WW11esDIPiV6gZFXaydhyn2vUixahZmoBHPlV3+3uWp+z7qCBlP8wj1/gJv87+i0cum4eN5csPpZLU6X8zF9AmGfoneaAWCT04spRnKYXZRJrRM7EBA/ScLr9qZq/VBwzNFOtYkHItTWz8J3YwqLYSuvjT3PbaR2//wOG8+eyaXX34+K57dwx/uvJuPfvASlj2ygXvvXsk7rjyF+fOnk0pb3HXnT0n2FskWBpjaPIWJCxZAXmfXzh3UmSmOm11PY7WGl+qkMNiFnkxjeYYvgWuK3oOmLJpzYnomUYNiQUVjRFlR+BuGZqKbonoo9yz8A0dZRCcch4SjoUXiOKE6NvUUWLNtgK27MwwNFamO2ByzYC6z57TR1txAvLaZXKGodBqcfI6qaIBsNsme3R1Mbm1l9ernqJtQTXNdjORQD+nkEE4x61dvjACE0WqCsZQ5jkQQSjbQ+/IaKiMS8ne9kGVK+BkuWbyaKjvDUPXFBOd8DaypqnrkYCBz3z4lssqix1HMDWJYMQVARz77+KS8zKE3/rUDtMA4QBh7txgHCGNvq3GA8LLa6vUDECS/mzcLav6OuhlyincQAVWDfmjtA38nXyRoD2G0fwl2/JKsa/L47svZ0DFZkfSUDHGpTFEMhsouwOXUgr/zHo0QiOCQlPNFojElDCS7c4kiKPlwcfY0QrhaFdu74d5lz/HSxg5lqDR1Vg0fft8FJJIujz74PImuDj776cvZubOD5U9sJpHOc+LpC+nYtZNf/epu8oUcs6e3ccWVlxAM1LDtpS5WPLWMk0+Yz8lnLCYozqVeWeRoENPJoA0M4vanyPYNUEwO4uQHcZ00+WxCOT/KIi45c90OKElcK6ATC0REixHNiCgL5kg0jjOhHr0mRjEQJVJdT1dPgoJjUnCKeNkhdm3v5t67n2Fb+yryXoZcNoTnpFW6R1IZk6bN5tQzTuPpp1cSjUU4++wlTJ85k8xQmgfvvw+nmKAmHPCN3lzxHyiJ+LycCMJBAMK+pYumA1XuBi5cuJJptd0M29Mx5vw/rJpTcLxIhQ/AoQeMIyZyDDO4+XvEGi9Hi7X5/gVKndDvB+OfV74FxgHC2Nt0HCCMva3GAcLLaqvXB0Dw1d0lZD+E5aaUm55nhkvgwJeMPdTOT+CDoReIGOvw1lwBA1sZNGbxi8dPJm9OwjJ8dUFJLwiZT6SJFb+gTFQspRWExKgCzJpYldtEolGqqquJxmIEg0FFclSRfQEcWpBUYQK33Psc8fpacNKsXNvOQyteZP7kCDd990PE7Sj/c8PveGDZ/fzqJ//FNZ/6Ew8++BucQjvnXHQ+13/jGmqr4/znN3/Jjd/7L5y8R0PzycSqbLZveoZMYqjCRk2uXeW/MCehtA38f0jb5PDCAfSwTlAEk0wTPZMjk8lhmEHlApnL2njZlMrXeyJopLQB8mKL6Mvq513I91Df2Mw/vv1KzjznVE49eT5VQZOkBwMp32jHLMLgYEE5r0rq4vvf/xHvvOpyprbF6e5KcP7572JCdR1f+OpHOOHEKQx3p3j2yT+THJaQ/6j8sNr5HwkHYYwAQdIKYa+Xec3LOX/+S+TyQZymL2DPuIKiVzvmKIKLia0NYGy5gnzoA2jNp+MQhlI1zd4KhS9z8I1/bb8WGAcIY+8U4wBh7G01DhBeVlu9XgCChO09wumVpHcsw5j+Xly7fkSv/rAAQckAF7CTP6TwzFeUC97TAyey7MW5YImDnp+3F/NuiR4IQBAPY9+ts6RvIGWMpQiBAIRgIEAkFqMmXkOsqkr5Jch3fZKiQQAbM1ZHPlKFU3CUJoF8vyuvsbm9n9t/8mtOOv5ozjvnOP77xrvYurmdr1z7XibU13HPHx5k985OEukilgcXXngSDY31ynshGjCojVfRn7BY/cJm3EKBSCRGMZejv6+XdHoYIxjCCdtYkQCFQpHccIb23X2kM2m18AeDIdpicSKRkPJh0LUgpu2gWUJAHKJnoFdFVVojdeiFPKncIG0z2pg0ZSbbt3Vw9933sXH10wxngjRNbGZSSzO1VVVEIhb1TTVMbG0lmymyp7ebSROb6NrZxbb2Xp5+/FHe+7F/4dSlC+jc1c7aDTuUg2RD3GSo+yUK6QEF0ka4CEcCEEqlm6Mphr39G0bD/xo2WWq0Nbxj6UqqAymSgfOIHHM9xcBkimOOIoiJ/TCB5E/o3pWneuZ7cbRaXE1cacfuLfAyh+Xf7dfGAcLYX/04QBh7W+0DEA4V/hsvT6ps1tfLgDRIYw09QLrvecxpn8bVYqWgwVhEaaQ0bQhz63vxOu/F0eq5Y91JbO6ejGFHVOpAHBFtycOXygI1RToUJ0K1lx1xDy3zERRAqBKAEFcAIRAKK8KiAAoR5nXdEP3ZOn7zyPNs2dCJM5gg4OSJ1DvMOaqFy/7pIj7w/h+hF/fwzg+9g4cefYrtm7bTWG1y0hnHMW1yK1va20n2DPGXlTvR9F5yeZ3hwSx1VTotUyYyobmF+po46XyBeFWUSFWEXC5NR8duBvsHiEejtE2axOzZMxTAEA5EPldk+/adrF+/lv6BfopFCQ8UicXCHHP00Uyd1koh77Jp8w7FWZjU0sL6l7az8rlV5BM9tM48lksuPY+aqMWOrbvYtauLVC6jhJucQgbTNojGqhgcMti8/kU6Ojo4avocevqz/MPFb+Cxx59i8wtb6R1OM2t6G/MWtNLYEiUz1EeyZxu2LoRF30m0MoKg3kLJv6FSannk5/sBBDmP35NHji/9W+SRg24vb5h5N8dP6SflNBCZfwPFqqUUvHiJ0lhKdxxkjlGkWS9LyNtKquslrIbTcDUxgBIwK/oSpWu/rDlq/EsHa4HXy3z01/CGxgHCX8Nb+iu/x9fHgNQI6L0ke+6nWAwRafwHod+NeQo2NQ+bVXgrLkeng11Dk7nj6dMY8GLopq2UBi3TxjYCKpqg6yamoSmxnzJpUQkFl+yRhbAo/INwVUxJC1dVVWHJrl3IgI5DwSmQyNTxmwd30lcsYhYKFAf62drRST6dpf35R7jwiku56NI387WP3UBHdgf/+V+fINNv0L6pn5//8lbaJsKl73g75517PI1hm86BpKqSGErCi6vb+fP9D7Nh4x56uhzyRRuvmFJlmnUt9UyfPIlQ0GTdhs307WrHZgBTYv9aAM+MM2PePE48cS6WmeOFNX2sWvOS0j5wBvsw3G5VeZErVOPp/Vi6xsIT3sB5559IItnPffdtoH3TCuqnTWLGrCm0Tp5IXV094VAQO2izp7uTp55YTsAO884r/olTFjZSH6/m5t8+xY/+82YKls3HP/52zj59PgXxkLA8JjfWkU5l+e0dv2ewYyuG6aEJ2KqIIJSHkW8ZXALxSrZ5VBlyxPBJIYNKgCCLeZkV4Fc1FIo6C2N/5M1LN6rr9DddT82M95H3AiXjpkrvwwNvKHSKFN2CisAI+0BxOERDo8Lxc3y78cpOgK+P+eiVfaZX62zjAOHVatnx8460wGs5IEvBfbUjk3BuMdOOo1djWBOVBfPhPuVp3dSy2Mn/hRfeR9HTWbnrGB7eMI+M7lcaCHlQoge2YSsHRYkcSCRBtqCSFpAogh9J8KscpHpBAYRYlHhtreIh6IGAkinOZDIUCiapfBVT58ykpdbEKHrorokdgQEHBjPw3z+8nx0bXuBTX7iaD33+BkIdu/jpLdfSUheiO2tzzz0r+MMvf8DO7YOccNa5HLtoHqFgmFlzIkxuaWJSfZXiPZQFnFQcRYSO8gVlpSxcilDQZrhYYPMOWfQDVFVFsUnjFhwClkFtVQQjEsBwYevuYXbv7iIYjNLS0sCEOoMBRUkokBjoJ5vLEQlY1NXXsnpTF48/+gLbtvYyOJgjly1QKBYIBS1OXLqA45bMIBwt0NszzBMPreXJJ54mm8py8hlz+Mr1H2Coa5Dv3/ggDz20Go0gDS1R3nThUpYsnMx9d/yQaADsgL1fBEHewMEBgkRtfLPwETfISrJj6e9+n3CVKFSdt4x3n/ESVYEUPfa7mbD4a8qLQ0pAKQFQ32v2QABBzJtsTEw0r6CImVJIKdUN5fjBODg43Ag98t+/lvPRkd/ta/uNcYDw2rb/38XVX8sBKbREccwTkp3/pwVuzjfgUUS6Q398yR8TU09i7fwc7PoJOa+ah7eeyJNbJpPD8qWDhclvWMqDwVQywSa27GBLp9clmmD4ZksqomCaysY4UgYI8Ro001Tlgel0RgkLxafMpSuts3LFDga29dIYLGJFdLR4QLkztra1cc8fn8XzsvzLpy7jlhvu4qnlz9E2sY4Tz1jAovkTWTxvFgN9Dg88/CRbt3Yy2NPDtm3byLoRZk2vo6WpXhkxyfbYdTXyCYf+wSQZx1O6CZNa6qiKGDgUyRUL7OnOsH5jF/39GtGgy5xZ9UyZGidSE8EzNFxJQWRzaLkMlitAw2FLO+zo6CKVGaCQs1gwr4GZsycRrqpTJMhwJIg4QmbSGRwvR2//IBs3tpMcThMP2TQ2NaDrNieftoh4XZienjS5bJEtW3YRjVSp3beh58m5KeonVNP50tPYhSECQXuEd1rmFbxcgCC21iMh/1J0QRQkg9563nLME8yemKDfOZraY28mFz5K9ZqybPKhAIIIbYlJmJNfSyozTG18Ia4XxCkpKhyuf47//shb4LWcj478bl/bb4wDhNe2/f8urv5aDEhf98DfsftyxWnwhnEcqQ4QWVtROvQ/lZLHlS9EnUPLobtBDK8bbfNVGN2PMqRXc+eapaztaiLnmCo0bOrCP7AIWkFMXeSIBVTItXz/BPmYloGpogk6mmkoop9KMdTGqa6pUUJLkocfSGTo6U+SMSbxp2WbyaaKHDNjIrWxIL97ZAVrX9yCM5CiaWKMmXNaOGnhIh68+zb++4Z/Z/tLO7jrvhUsf2Y1Jx43m6NnTKe2JsrkqROZOWsSjfEQif4hdu7uZ0dHJ5lcTu2WyyLS4ugYCkTIZx26e/to79xDwXNoqorSNrOV5glVhO0QQzmTLZt3s+Ivz9Le3klVtJZQJIQRDmEEAoTtIvEqj6OmtjBtSguNtbVYlkZfIs+TT29h9cbtJFJFUqkMwYBFvCbO5CkNzJxVTVONTWs8TigYJFhVTdGw6e5JcvNP/sjunT18+XNvIdjQRCBksHt3Hy+u3sTmDZs4eemxnLRoOv/7u7vo2raeYNgnfKqy0QqXxZcTQSgDhMqSR+k/DW4PC6Y/xikzt5Ep2Ngzv4/T9BblS+GnDEYcHfYb6xIt0DyJ4OTQEstwulahT72SotmsnEZfjkrg38WE8n98yNdiPvo/3vJr9vVxgPCaNf3fz4UPJ7U8tonw5VG2fA8DqSZI4A0+Rv/wIPUT/5G8ZpfK9w4FEITolkd3A5jFFbD2wxiJDWwtLuS3z7ayczBMriA2vSj+QcgOKWAQMALYwkuQ0keVbtAxVOQAVd2gIghCaAwFVXljvK6OKgUQTLJ5l66+FLu606QyIc45/zSmT7YppFyGig6hjIcRN+nvN7jlvidY+eeH+eInLiVWM4O1a1bylktPIWXoODmX6758O7f84CY8hhXZzgzFmbd4AW9726WcdupC6utG2f7l3ihFFpK/LxYgYOgURSRRxHwcjz29BfJugab6EHVVhooYRJS2g19OmM0VSWUKyqhJcukSr0nlPZ5+djNbtmxlQn09S5cuoLrGVCqRlu1XuMi9FTIepuHw3Jp21q1vVymHru5ulj+1hh3tu0gnMoSro1z7jc8RKAxz7fd/xKIlJ5LJFwjXVrN6xRZ2P7+CT/3rB3nLGQu5945fYQZ8oywVNThCgKAW9pI6o/p+KYKwlyaCWFAUepnXtIY3LVyHaaTJ1n2N0IxryKvu6mtrHCyCINEpV7gHbpZgYRWDO25Dn/xB7OA0X0b6NZVBqLz42Ebo62lGU8JZB7mhcYAw9jc1DhAO2la+bv9oYHHsjfrKHVmxKMoqpGaMl7dQHvqepPBeZqSSCtzItV6ZJ/F3Usr2p1RXL8/gt6zSklPX89tb5X/l376cYMUwP7za4f53q9wQ1DUNLYHefTN9aYuaKVdQdKMj5z54BEFywi6if2Qmf4m+/qu4Xi/Ld5/Mb5+qYTAn7nu+7LBwEMKBEGE7TMASHoKUPAo3QcCBlD6K2ZGkGXydBCmJtEoAobaujpikGDAYSuZp7xwgk8tz3llnMZQyeXbjTp56djsrn11HrncnF/3DyVx60Uk0NVcTrYoyPCA78V62bE/yq7tXMH1KI1W2w6WXnEVdPEg+D8lhlw0vtHPfQ8vZsm4jydQAhaKw7nSl8Cgf8VQQ8yWvkFY+DHZtI9FIRC1W2Uy/asnUUJq+gQxp16B1YhVHz20jFPDo7xVQkyAWDGIaAYqOTj7tYJl9xOLNKp2SGEgxMNiBp4WIVEf8qIWUe9oWhbxHMT1EMCx9wCfhiAAAIABJREFUUcSWNAKxaupqJuI4UiFhMm/uHP7t+n9j1oI2bvnRf+IU0wwnMqodDTPG1s4Eq559lGm1MTo3PkehmB5ZZPcHCKqn+f+r8G8YqXIYI0DIaRmmB7bw5gVPUl89SCJ2JZFZXyFvNY4QDQ8OEKAoJlhFCOU7Gd79C4yGyzAjIpgkMOsIF2ZFbvQBcfnB/cjQoUXA9h83YiYuPb8MbyQdV55/Xpk54WBnKc9uUsmhrNelFcp+JUfQHAebJStn0H3vYZzvsf9bGQcIqk1kkfL/FFU9WdDEa055wathfngy26szbErSq1rZI0AGaaXbW/mqL7Nr+7o0vliQlle5dnlmXTKg6jqvwEfkh0vsbyFfScvqnlxHvPw8CoixkYsppDjxxNHENU/uylDfU/fiWySV9PBLE/tYbk2up2YXg4C2i/yWG8iHz8BuegOePF+5ZK3CVbHytLLDk6oCQxTver6NvuU/yHk57t50Hv+7KkjeNUQTCF3kl22bUCBMSACCEBVFD0EMjgQcyCKg4+sklP5t2haWlDlGo8qFUSIIBcejrz/J5o4essUgdS0LueX3z7JruFfpBExuaCSsu2SyCaY2NvLEA79hzoJjWHLqqdz+mz+wZPE87rhzOe1bVnD0nJlccum5eI7HcCJLQ22UOdMmMnXOFDQrRDqdxSn4NsaKRKkMGh1FvHOKjqAF32xKNwlHwniWh6V75AdT9PSl2N3Vx/BghuGBNMFggWjMoKqmnvrqakLhCHYwgh0Iogd8XQjRf5KCgsFUCqdQxE0nyaey5BwHMxohFq/FNjXCYYm8eCo1Y5o6riX9QFPt8tUv/IiahhjRkEVvx3YGewcY6EtR1VDDlDnzKHp53nXVJYTTXfzlsYcpZBO+6aSKIFQYOO2ltugvfOXIgKQf1JCQckhVaur3twOmGFwP13CJOWt56zFPMn3iMOnAKVizrqMYWTxCTDz4uibzjhAVlaITRrFbqVB6eliSD2OWbFb3q1Y+GcMyhwVLIlWge4YyDnNkA6AWeVn8R6sx/NYZ9X6Q8+iejil+Gir64iIMlIIaxweeBw8d6dh3qfYhzMGwj79JkMiK/EXMsUSxU6zJzRERrL2Gvuaq+5R+LLwcNZe/zBn7Zc6iY5mJ/mqPGQcI8urUwlUqMXJtDLWo5CnoaYXGNSXF+1p8ykNZ/hSV9yKaWijL6N5H+C/HN35k+lGThpRWyeQitrq2YlP7E80r98xSuqVgjuZgCECQSVmxtR0fILgmpmcqQFYs6QbIgPdBmvzA9mvDVXna2G6s/IxirxvRhhjedhdW/Yl40Rl+tOQwAEH2Xq7scMW9cc91sPVmUoEINz11HKu2xdXOuui5yv44aAcIB4KErBCWcA9kQpPIhSp1FO6BLHiG4ipIFEEWTcO2FEmxfkID4aoouVyRXbt72bBjNz3ZOJEJx/DGcxbQ2qARC5jU2P7ObjDvMVx02fhYF297+zXoei/O5Bk0uVm++u2Pc/TcKfz29if59he/hUcET4uimwUsM42lpzFCTVQ1SK2+Qy6bUdEbyzSIhMOEhRcRDaMZBrlcnp6hfrJOUYGbqW2TuPytF3Lp+fOpjhjKqEjaQPCVpCTWrR/m8WdW8+dlD9HX20tvXz8DO5O4xQHVp0LxCTS1TSI2oZbF8+fTMGUyg119/GXZY2zdtJFkX7/qg5oZ9IGwZ+E5eZZceA7Tjp5C68RGfvj1LxEMzeazn/gQ3X1ZQtVZ5p+xkHDQ5Hu3PsiDyx7lvz55FQO71pDcs029A3+xFx6C35/LJY77SihLmqQMEMo9Xwyo1Pd9hDECJOT36lgx1Cps4c1znmLhlE68wHScKf9GMf7GMUQfpV/7c4tapnWBBb7nhfLkOIKPjA0fIAgJNwRaRnlq6p5dEb/zIwsy3ny1Rlmo/QhbeTDI+JQxJ+OxoNlKtMny8hQlRaYqM/b/HB4glGOFcs1SNHGvOdUHImoqVgJRMublUNmkyPZAIhgyD++fcyn/xL8zYXXICPHnSrF1PxK56nGAsP+7HQcIql9Jh5TlS7qb7GtLHdXPXvtJ0tfkI90+4G8PhCwnUQ1PAILsCkpRBTX2jvz+RqYElVqQULmUWRVwvSo8NXkIgerIz7tvM0nYvDx0ZaGWBUBNBjL5q517QU1qmitkLYeiVlRtrrsFVQ8u78PfTclE508WYwUI5d2Io7uEi3LWIkXLRBR/ESfCEkI4WIpB+oVEGiLF9XjbP43W/TBD4Wn850NT6OpvwlX2xgW18AtAEA6C6CCosjVx6lPyzLpPWDTF8lkrAQSRYrYwS1LLtfX1hKIRkskMW3d0sHHnHoyqVq5412VErABrnu9mzYYtrH9prezlqK+OU11VzVEzmsCL8tSK53lu8wYuOP0sqquKTJs2Fc/RaWiqRbdcIkFbWhjPKdDX47Jx/WZ6ujsUGJNKBXQLp+iSTKbIZjzyOQgELQKmpsh23f0J2js66R5OsWfnIIldHdS3NROqCqDZGql0Erd7O9FwjEBkAkcvnM/k1kaamxqZMnmaigwkh3vp6trJ1l09tA8OsnP7TgpDg8TbJrL0mLnEq6sUPyOfz5BJp0jlCoqoOTzUz47du/iPb3+eb377F1z8xjdx8VmzyTkuu3b38Ls7HwHb5twzj6e1rZlVqzfywqOPErFEQXLY50eUAEK51PBQAEGOHXXg1CgWixQKhYMChKJlUSj0ctGkxzj1qE24ZpT8pOvRmq9S/fagfas8UNSYkC6t4xa68JwsdqgJt7Swj3Xa8ceKDwjklK5elIJJPJHL9nQVnTPkGiqtIwtumeRglS7hpyFk5y7AT9Jjsh2RsaN7Pmgo3+q+93RwgFAZ7dNUZMJPefilpKOfivShH05R11KRRM/EKOtC7LtRK6EDFWks5SHkTv0IcLG0sRg7kWMcIIwDhP1aQHYBkj/2VExL1uKiP4BkchdfdoW4/+8L5VgH+si8of4ig1tC8A6unlPDSiMs+1IMV6xhZRCU8uwjKYGxheDLiLsMhWT34e84QhQ12W3J9PB//6jIp0xMnouuFTEMWVTLOyaZvWVyCPh2vXIPmqsWM7fgK+HJDt5Vu6nybmDsAMF3WPDUJCcld1pRw7MiuJ5fwVDGPwebxP1J1CKafxJv0/vRhl9ihzGHG5dPJZ1tVouq1O5LiF4W/KARxBRXQ9dAc+UtSYjewFYyzKMAQRYgOd4K+lLLooMQjIQVo3/rjk427+5l9rzFtM1ZzI9+vor27TtpqqtlgpEnZGbZtTvLC1u72DPQSVtTgBu+9QFqJzdRdGy+dM23KXpJvv+dL9M3mKS7u589nR1kU0lcJ4vjwoy2NhomTMCybLV4uk5R7a6FGyE+C2XLaXmumtpq4vEgQQs6uoZ48cV2du7YpeSXhUtgWDaRGptZMxppbWnAtsKkEzkGBgbp7u6mp1cElnSlnyAkxXhNNbFoCC1okctkSA0Nk81k1HuyTJNwOEIsGiEcsTECGkUNBhJFlv9lAw8/9ARVRoD0cA8tM+dg2AHu/9NTvLB1gKZokbPOns/cBZOZ1dpCx/oX6eneWuKz7E0UPBBAkL4gYKL8bpTkNZDNZpUuhYhXHSiCUBBQU8hzZv2jXDDvOVzTJtdyDUbbJ3G1wBgGkJ8Vl2i+N/g42f6VxCd/kLweUsm1sX5UbEml8lRiBE2z/AiGjB/XKaUXHPWM/iLtR1VGogcljoHnWf78IhE/t6iMMYrSOK5E/kTMY/9o6sEAgqa8PHzv8kKxqPRB/FEh1660Vh8FCGUFSbmdogGmRC3UM8jT7D0jlW2zZY4QZOOXJEu6Uq5RipSMMdqowNFYG/vv6Li/6whCebcgQ8bWUhiOIG4Lz3XJuxLqDqrNu9LTf0WWy7H3rNK0oXbckj+UQSAgxnDlXh0cV3Z+eRy9DBBkJ+CT/8a6w/aPF1OhPAYFgkYecoM4ehO5MWgEjOlpPI+8+AjYECx0Y0abyWQ1im4OsSvQXHEsdPCMIk4eopYAlQxurl4o/xS0vBImKs00ZRrjmC7tTycanp7HTa0hPZigqmkpniaAZBRIHQwgCDCUlE409wC88C4o9LM2s5Bfr5lK0WlQeWlRD1T9SBMgYKmcr0QPNJmwZOdmGASU9LL4K+BPkiUzJysYJFpVRU1NDZHqKpyiVAoMs3sgxYSZC3n0Rb+C4uLTW5jTWkttWEiPkEzK7nqQ7oEkvQNDMovSNmM2T69cyx/vfITEYIH+HdvI5S3lOJnRdYKBILYdUJNzLj2kau8NL18CSspVSpEkBRxIGkdTuXhRe9QITogQieq0Taln4uQmYtEohgGZTIp0ukhPd4qhgTQ9u3pI9/eRyebIuUEyrvStRorFFKY+REjPIXcgyoeiIVUsQj7v+cRIGWdIKkPDtsQ2WsOsCTJ3djMf+8zHeP97vsy23R5DQwMcv7SV6677EG1NTcKeZFv3MD2dSQK6S9owaN+ykQlugr7uzeimn2JQO+eDpBhUqkGqPCzTLz0NhZT9tpAjE4kEw0PDKpIg80JlWkIWraJp4+WKzKt+grctWaHsvlN178SeeS2uUXPY6J7s8FXaTPcIpR5hYPMPqT3qx+TMyJGN5NKi6GkFlfYy3AAhvYDmDqv36JoxMpJC0X0ysEoP+cNDzW/iVOqrN3qYxRwFPYxBjoCVo4hFwYuAcG4cXw208nMwgCBMI92TeTRAzhNL8Kx01RIB0jdP8z8lgKAVR1KPCr6IKZaWIO0GMIyoAjqVWzW5ror2ekU1JxYV3wIfIKiN3ZimiZGDxgHC/u31dw0QpDlk0Ie0ADue/zn3/v4H9HXtImhO5cy3vJ+jT7kYIxCm4BZLg0JSEaqmq5SEkEl/hOmnSqr8Zcf3efcxr4T0VMKylA7zA9sSvpcQux+I9vGrigaURq2cS3LvfrjMVdEMo+hSLGzjmcfvYcr8C6hpmewXH8gC65VqvmVRU7fnE/TkLnxPPl/NzScBjpZ9la8fdDPoibV86yvvYtEZX+GkN12Kbo2St/x9R/l5fPwvznkKyKjzldpCrjiS2/crFGw9gOcOsHX5Lfz4xtt5z+dvYtrcGTiFBIZWQ0FFSHRCLmx44gZ+/LPv8473/ILFJy6hqOXIu4Ik5IqSk6zceRx6AlD7I3VfCRi8g/49nVTP/RBZL4rtSirJv9FDhYFNTyeQuxNWvUtq2vhL72ncub4J1436NDJZ9UtREuEdeKpxJaQr/xlqV2wrkmJJJEmWYfm3/DwUIFZVrQBCvK4Ww7DJuTp7hvI8s3E3J5x4MuctmcLazjwbXuzkieXPsW7tambPmsI/vOkEVUEQDJlols3OzgRfv/abnHbaG/jVj24hH42zeOFcFsyfxdRpE5k9eyp11SZBHdJFT7klpjNZPFVVISQvfy+ZdR0y+Rz5gT76OrtZvm4DzzzfSWrrID39KZyhXj9NJADSsrCbWqhvmUhDbTVTp1Ux/5ipTJsygeYJdTTUhonZqtqfgUSOrt4hBvqTpHM5NMMmHAoTCPhgra+/n97efnZ19/HstnY2rt1IYuVK5h+/lBNPPYmIXcNb/2kRphXkmec38ZOf/hbTCnHWuUtYMH8mK594lnjdBE4/72R+dcvPaQtZDHRvG9GgkP5ZXlwOqJKooUBULBZTqpahUFBFD/r7+pXfRD6XV3OFmjNKSEPpKRhB9GyOevMp3nnG08SCBRKRc7Dn3IBnTyrNFQfvp35kXAaxRyC/gV0vfo22Y28kR3VpuR7rKufPFZJWEIgd1iwC+fXc/7PPs2LZs7Qsuoi3f+J6CnaVSlkqnoHSatBUKN/TMnjuIGF9gKeXPUJ48tlMb9b43Q+/hmtP541XfZp4LKYAsYAEmVQE7EpTCLRQBmMqDWGoJKKACzszwPJHHqC6ZQ5TF51I0csS0AoYruXzA0ZSmKWEp2x8ShRKkfwOpIo888f/5vcPPcN//PD3ZFQuQTZJkoqUDZGL4RQIan2sf2oZbu0cWo86SYFfU9Kkri7/K82rh48CjwOEcYCwVwtIjbourPBdD/P7r7+XummLqW2eQqHvGVZv6WPpO77HouNPxXWHSHRtUQIzsYZWYhPafIETd4Dh7pfoG0owceJ09nS2Y9VMIh4w2bl9N60T6+kf6EE3IzRNaiHZt5X+/jT1k+ejR6swyWM5vXRtktxylJrJczAjtbi5bgY724nHG0j0biZTDDOhZT5Rw+OFJ27goXt+xknnvZcpJ11BTU2TyksLuAiSZnDPNgb7BzHtILVtR6HbEXJ71pIezhKvjrKnu4NgzUSqW45SdewhR55tPcmhApOah7n5qx9g9pnf4bgL3oynOz4w8mSRzzPcvY3+PbuIVk8iMnEGhuGQ3rOTnl27mTprIns6OjDDzVRNasXyMgx2bMFwTZ9DoBXQex7nT7c/wtnv+z6TZkzAyPfSvmU1Ra+auknzqY4G2fb0f3DXbTfxD1fcRnWtTraoUzd5Hp5Ea73wEQEENZmLrbLbB903UciE0KdeTVaLYDslItQhAIJMW6aQEFO/hdXvxbHg3s1ncO/mCUoESQEQ2QrLpCXhVElhSCTa0bHEylcEk6ScsWTYpHwZSroIQvqzgwG1GIlIklQyBIJhteDk9BCBWB2RWA3/++AmfnTLCnp37aJG76aquoloLEAw6LF+y05mz6zluIUzqG6oZd2mbcyc2cY/vvVsGqoC5JJF2nv62LF9J8lklmy6iJPNqnC5T20tMTokCqW72BpYmq/wWBsOUVsfprauVnlF2KEwIkyoQJGLSlU4jqfsntPpFEODCfbs6VGkx0wyTz6bp1iQXZ1PejUtsILicmmQF1Mmx8HSJLJhYto2hm0SjoVpbapjUu0EQlU2fZkiy/6ylnlz2xjsHWTX7n4eX/YkgwO7CETayGSH0SyLuQvn85cHHyMx1MU/vOVSzjp1Pk/ddzeZoS4FXhUvfi+AUGG+VKGRINGD6upq4jU1SoI6ncnQ39/HQF8/mVwWTx66DO4V5pc0i42ZL2J7z/Kes1fTEOonGzgJfe7NOMGphwUIpROqHa/tDuIOr8CqOYUcodJmY5/d+kGxhgAEf5MhyUHLzZHeeQ/Lfvx5gkaUXcMRznzf92iZfay/mLtJnL5NdHVsx7CbmTB1MnYwycYnfsqjt/+Wiadcw4WXnMyyn15HRpvHsRdeSKZ/kAkzFhIImOi53WzfsYe65llEIzq5vg56u/cQDNQQa5uL5nWx/qHv8+Adv+Lcf/wqbUvfTKwaEns2M9Q3QFXjPKJ1TThS2aPWbvl/oryZRk/30rNjMyEzQM+a+/jjI5v43A2347o5hvs2M9TTgRespaH5GKJmgp1r7uLPN9/ArHM+wdHn/jPxkENfxzYSw70EIw3UTJmjUn3lz8GgwuEhxJFFJP4Wjv67jiAYElLV86R23Mavr/0YExe/nUWnX0lDU4TNuzoJNC+gtdai4/lf8pf//RnDXf3EJx7N9DM/xsLjz6D76f/mmYduZ3fnMDOPOZZd27dQf8qVHNsa4/affIvWhikM7NpJKFrNcWedxpon7mM4lSHaeg5v/NjXsPpfYOU932HHs6vJFE0aj7mA8993HendD/HIz7+tIhI9PduxPIPaY9/DhW86nV9fdxmp5B5ShRgnvudGjjr1fDW2Im6K3nUP8Pi9v6ShZRqbNixnxtJ3c8I5V7D9wS/z7CMPYIViJHs6MSZMZfHZX2bO0nnk1v+ah393Mx39aepaa0lu3sGcC7/LseddQkGQuCxwWp7kjt9w769upru9g9p4Iy0nvYeTzzmXDff/gOceWEZtazVd23dgx+LMOvvDLF7SyGM//xZDvS59w2mmLTqLY6ZY3HPHg5z8kRuZ3Zhj2a+vZcv61YqDEGs7m4sv/wh7dtzKI7f+D9NnX8ZL6x7DCho0n/xhTrrkCjQxwTnimm4Piy6K3X/AKzRiTbyAnBZWu5AyVepgEQRDRV9yWAO3wbqPkzNtfrx8Hk93txK0LOW3oELyJbU+iR54BZ8ZHtBtgpYIJlmqzFG0BkwFDsTIya9okN2zL7UcV2ZFoUgMPRAiQ4QNmwd44OHN9KbSLFkyh7mzmplcbxGKxskaGo3RIPc/vJLf3f04T654huSWLhqPnsc/X/FGImGbjS+spr8vR1eqQPfGdnJ5R3EOqoIe1bURYpG4Un10vTyFfFotgE5RI1/QSeddEsUcAS9JXdSkOl6HFQgSCOjo0YDya3ByUg5ZJJsYJJ0ukMwWyZphqg1RYpRn07HtsCr1VO6UElkxLWxb/BEKpJIJhgZS9PelSOUd8pkkwbogzW0tTKwJEolrnHfxedTXNXHfPctZ/uCT/H/svQd4lNXW9v+bPpn0HkKA0EvoRaoo0juIoh4VQVAs2BAsYAMRFRXBhoAI0kVREKQpIAJSpddQEhIgIb1Pn/mutZ8ZxFP1u/7v53v933fO4XCAyZTn2Xvte611r/vuP3gAqdXCaNemLhUeL3v3/UpJsZMWbVtQnJ9Dm0a1+G7jbtIa1sBQlc/Fs8fwSx9dldA1ru8/TC4EAIL8vdyP8HBp+USqdS/kxNLSUkpLSrE77AGAEKjNSwXQq/X7BRQavBd5qNtBakRk4zS3xNtwAf7Qxn8MIAROEpna0SqGfsUD0g6s4CST1j68sYH4+9qCpmUiGbx8FxvlpG+fxo9rfuCuxx5n1azp1Ov/Fh0G3IFN56D04g/8sn4W6ccuEhkZS/W2w+hwaxeWT7+PCFcF6SXJTHzrQ/avmYUz8mZadGvGhnkv0nzgLNp1aUfpoU9Yuf4IA0dOILLqEBu+3UT1hDCuXbuKqc5Qutyayg/zHsWefQ27uR433fEKUfoMDm1fRlFuKaEpLWnZ/2XqpbXFJ30HqefJhE3BBQ5ueZ8LB3ZSpbMRrvNwxV6Pie+toOjiNn7ZvITkpChOXThNavP7uenWenzz0n0YqhzkUpMhz36I1XGEX3YcICbURFbmeVK7P0+brj0DVuv/yzX4M8DlfzRAMEl2o3dgMmSxd+54tm/fRYTJiDsiiQYd7qXTnU8T5Utn/vPdadH5Plr1uIVdH77I5aj+DB3Si03vjKQ0qi73PPIMJzcv5sih7SR2f4lOdQx8ueAV4uvewZB+HdmycDpXykPodd9TXDzyFUd3neSu6espP72aDasWcvv46YRxhY2fzadG33dokxbKzo8nkeOL4N7xz3Js7Ty2HXPz4seruHpsHhs/eIvBz6/ElpKGw1JNEfvCvYUcWbtQ9bmb97+DE8sncaIgngEPvkbxjsfYumk3LfuOo2n7eqyYNo6UNhPpOrA9q6fcTVhye2657ynO/vIFR3/aStrAj2jZdwhuj1OR6czOTJa92p2w6Mb0Gj2B9HXT2HWogMHPfkjZ4SXs3rSB5M530KdTS76d9QolMX0Z8eTt7Pp8AqcvWLhz3IvE12lK7v7lfL14DX1fWonz3CI2f/k1wx56DoO1gi/mrKDz0OeoHZvO9hUz8Ud34f6HJ7JnxVSOZEVyz/RVhMr01v8FzNfr3Zjdhehktt9STTrdeP1atvXvWgzSEzdRgTH/M0h/DYcxmtlbanC6oh4mRTzUBI8kk/S4pfSqU/wDYYCHmK2EWkIxy7TCDQBBfkYAhWTSwgmwhYWqKkJ4eBghoaHozFbsRLP7wGWi41K5uW8dYswG9B49hYVw/txlfj16gpzcfMw2HePHDMUWbaSg0sPbM79l1YI1+KqK8XrdRKcm07FbB+66cxhpabHEhOmJ0AuHRSoZQpoMVnmlHRWoDgBVXh/FVT7KC/ycyKgk6+pFSotysTuqKCwtVtl1dFg40WGRJCckkZgQS0yCjVo1QogwyqSGEMv+VetGG3mT/3p9fuXGWFTlo6DQx6nMEpYsW8OeDetxlOVgrpaI3lGFy65jzoq5lF67xMxp86igEr/bT7WEMKa+8zYrF3/L1o3reOqFZxn/+ECeemoKt7ZtSvG183i8QnzVDlsFEIL9r0CUDPaxpV2gzKnEHyM09DpAqKqqCphnuRVAUGtGDnKv9OMFQjo1Mp83l3tbb6dZ9Rzs5sb4Gi2CsGZ/GCBoV0VamZJIe5UT5W8kQo2RFAQI/yrAC2dGWlsi0WVyn+LA55PIcsczaOxT7P7gHq75b6PP2DeItBRxdOVkDh0/zh0vLaTk6CoWrzrKyEeeIir0JN/M+IQOD8+iftMUtr7zLEWRrek/+kH2zBxNfmxvbh81ijXTO+OJv5fho55m3ayxWOreRp87urH9s+fYdNjIWzO/4NqhWXw7by73PLUMa7KJrfPGQ1QafR8eze7Pp/NzdjyT3lyOS42ZCw+lkuJ9H/H90gX0v/1FIptHsXPuC5zJb8D4dz/n2MZPKXeF03FQL65snMaPh+3c8tgkkjnHmhcm0/7RGaS27ciOOa9iqdOJ9r16sGnSzVTUfIReI54ixGYL8FH+zBH5P/u5/6MBghrl8TsxONLxOP2YHVc4u289uRcOci49lzo9nqBLu1SWTXuEyPjuRIgIjjeLy5F16NOrGRs/nEJcr/fpO2wYxsrjzH+uNzW7vUaHBqF89vHztB/2CV261OerN0dSrOvAiFde48i3E9m5bjsjZm4k66eZHN55irhq7bD5CijxXMPTaCQDu9fi+48mk3zzy3Tp1YLM7bP55ttfeeytH6m4OJeN82bQ/vElJNS/CbNqzQspzgOFR8g6tY/Lp3+i+MJ+vPGD6P/QVPK2P8WOfZfo+dA8ajWJ55uJ7Yhq+Axdbknik9efpvGAN+k54E4Mjn0snjSSen0/pUXfAXi8QiQ0YcjdzKrX7sZlboEpsg5xlmyqKq00uP1RDJe/Z9033zPw1S00SoQ1rw+iKLw3D4y7l01zn+BU3k08/Mb7hJrKKdn5HisXrWbw5CUc2vIqGelhjH39M6zRPgyuChzuCAqOzmHDl5/Q9M6ldO5Unz1Ln2TP3ipGvf0dJpsBhI0UAAAgAElEQVSMXv7x+XCtsymFVwsmEeTRi7KeSC/J4fQbiemfVxDkxPRi9Rehz/kA3YVZ2E1JvL+lBucdtTB4NWVEYeh7PG7NAdEjYi3CADcTarURag1VqooCIuShgQoRT0KBBpPZjDXEisVqISw0THESfEYDDmJIqdcUS4ieC1dL2bj2JF9+s5myy1kkxIYSbglXB53bU07/2zsxYsRgrDFhuKp0zPlkC43SatOrb2tibeCscqnnVVRWUWR347N7KSvxUVnmxO5yqIAplQ6ZLLCES5lfiKIi6iTqkAaMZmMATGigQvgC13vxgX60kAyFcOj2+Ch1eaks9lJZUEVJuR2704vT7aK8ogKPy0l4qI2kpFgSa8YQGqXDZvApx8jwsHAFkgiz4anU8dO+i7z7zke0aV2HAYNvEWFHPv/kS27tdCs9R95McVYuRr2XiKgYYiIj2PHjaT75ZAFPPv0QdWqEc+7wAfJzTqsKgpqGUaOOv3+o8ccAiSaofyAgQaoc0lpTJES3B49MeUh7ISC9rMh1Hj1et6wvNx6vXMd8bm/0Ix3qX8OlT8aTthR/+E1/nC+shn3zKb+yCb+1ARExrfHphCfzjxWEf3ZkCftf6l1mn161iryle1g16XZq3Xw/tdu0oSz9W37YcJ6+45ZRp76O9dMegNRh9Lj3cUIMpXiwYcRBZe5nfPb6arqPXUCzNgY2Tn2Asoi+DBj9DBX75rNmy0Z6DRnAyvnv0uneL7np1s44rxzk2pUDZB4+wtUTOzjhaMw7c1dzZe9cvv7ic4Y+vpzQkHS2z5tAVNQArtnzsPmucMZQjfsffZ/4lBRN1lpXQdH2t9jy42EGjf+CBEshRzfMYMPPOUz4YCXuonNcOneAjBMH8V7Yiiu8He3HzSDJlc2SSQ/RbtSHpHVoSWnufrJOn+LyieM4zq+D+k9w64MTsIWF/S9A+JN45380QBCNUxl/y/tlFYd+2Um7ISNIrNcAv+MyW957hsqIlvQd0pcVU8fQse8kGt/Ui6qqc5T7Q4kKzWbptIlEtX2RoSNHYs/YwdI3HqRB/zdoUw/mzHyVfg9/QfOW9fh2+t/I1nXj8anjObT8SbZt3MU9s3+g8OfXObznHIMfnUWkyUpZZSUFthok6Y+xfu5H1OkzhTZdapPx43usXnOU5z74mfxT81g/91X6PLsMS4NbsHjcGH1+zL5SNr87hJKqCNr26Ejp8c2cr2hA/4ffJPunp9m9P49+j8yjZmoIX03qQnTDx7i5ezxzX5lAvR7j6T10LOT/zNI3n6D+wI9p1ncQXo9LK5EXb+LriXcT1nAgfe57HoenEGexGVNyHFd/fpd1KzczfNYBUqPsfPNqb/IiujP6ifvZ8Mmj5Dr6c++rb2P15VC592MWLljOkMkLyPhhOhmnDdw5eQG2iCL27TxAcoOOGArWsWHpXNqP+ppWzWLZu+IJdh50Mnrad1hsQa2KP7rKtQkPgQj24uNERNTCbwzDrQRvJPvTHjcChEB+q0Zb5edC/Hl4L0zFmLuEMn0KH/6YSqY7GYNXvBxkdEtj4Yv6oM4rhEiZ2zYpwSRRVrRaLGqMVhJAGXcUcqJO51fVBzXqaDKqX0pl0WTCo/fhM8SQlWdj44/HqPJCy7SmxFazERmto1HduqRGR+L3eskrrqTKaycjp5j1X++gdmo03fp0p3adauzddZCcC5e4XOIi4+QZrhZmU1Tmx1XmU1MCRqMZs9WkRgpFDEhG+ewyNit8Ab9AKjdmk5eQUJNSUxSxJ2mnyHeVsUhNPMiDx+XH6Q9R5EqXQ2SawWw0KiGm+KgIIkNNhIWHqCkPcWxURlT5peTny7RDGW5fCREhkFy7NdVrJVM3xUKHTu1p3rwp+/edoqQ8hy+XrWfcU/dTKzWZE0eP88vmo/y08ziGECsN6qRSJzWWXv3aU69uTb78eietmtZCX5lL1vnDqpKiAQSNPHy9Dx1UUwyMwgYlluW5AhKCfw4CB0XPDYwICp9BJk48Th/4XIFqVDH9Uzdwa4truN0ReJouxxvVNSDuE1xV/3rdyicz+6/iyV6M3dSM8KSeAYAQHO/99xUEIQML8U8UB62+KjI2vsDONUsw2WJUTd2Aiwqvj+TbXqDPkK58P+NB3JHd6T/yGRzOq5w9cYm0tAYYPN8y7/VVdHv4c5q39PPNlDG4Y/ox4MGpGKvW8t17z2Iwh3K2IJ6Hp60jVJ/B5k+f5HKhkR69epOxbzVbz0UyY+EasnbNYvXn87jr2bWEmjNZ8/GztOkymkadu1HlcnO1xEtK487ozZogkl9fSfFPb/P9hp3cNXEZUSFFHFzzFlsOOHjxnffYtWgCV3N0NO3aBWPmBk5nR9Fy3Duk+LNY/NIoOj/4MY2axrHytfvxRLTmpm7dSf/yeUpqP0DvUZMIj4j4X4DwR0NnMDZWVFT8XxRt/+S7/Dd9ut/gxiL55KVdfPXaCBzWWMJSaqM3FFJwtZzGA6dwc5dmbJw+gGuuCMXUvpp/jch6f2PI34ay8f0HuZCTR0r1ZniKz+IsvEZK32m0q+fgk/em0v/RhbRoWYuvpz3AJUNXnpwyicPLn2H75t3c/fZWDNnrWbdkFqHx9Qkz6DiXaWf41JXE6k+ydtab1B80nVYda5GxdSarvz3JxNnbKT8/h+3zX8IT3pLUYW+S1rI1Rr8Hq/cKK5/rSPVmw+l8++18P/kOKmv2oPfoN7i2awI79xTSZ+x8atYP5dsXOmJtMI4eQ7qx/f27yCyA6KRmVOaeQ++poNGguaT16a8yIwEI0mI48vFo9p2/SHytJpSXXCWzoiHjp7zFle1vsH7VZoa/f5DU8DLWTO1PflQfHnzsXtZ9NJZi/2DufvlNzL6rVO35iCWfrqLPS0uJqdjF0g9fJbZ6I6wGO1eueeky9E1io8+xfuls2o34hptaJ7F35RPsOujiwWlrsdj+3FLVxpx0WHX55Bx9jYQGEzFYqquxSe34/8cWw+8Agt9PiD8H74VXMOZ+RamhNnO21ybDE4/RbcbnFfEqn5LjVeRDKe7KYYoQEy2YDGbV11YtBmkrqGkG4SOAWQEDEwajxklQ3WadCNPIlEkk/pCmOE0JNGoixL0okqKMVOl1hIivQrEHj8ev3Arz7W7MIXrGj/+UH9asI6VRQ7wlVRTm5eE1RFCtUU1GDO1LhzaJWGMMWKTFIFUhIUyKq6RB2OCiIOhWs+peyZqlbS8yzB4vPo8fp0NGVUEvcVy6B/L5xUnZqGbk0IlmgMbVVE8INRsJtVoC31FcLkXKW5tll5FXu8NNhd2OQ7QUPB6uZblZsHwbP/2yh6qcq0RGmYitEcs9o+7katY1oiNSKCjMpLS4iPvH3EN8mB+7T49FxmBdfk4eL2bOHMmMLXTq3Jba1eOUimL+1QvKR0N19VUF4QYZ5b8DCNeBQEB2W/35BlChiH16jUMi48ZKQMnhUZU7r2iV+KvolfIlPdvk4/IIQFiGTwGEoFLhv+fIawDhCt4ri6mgCdHV++JRFYQ/BhCCa92NlwjXKdZM6EtJYjsG3jcFwuIIcWZwYt0M9mf6efTleVzY9jY7v9tASo2aVLiukVUYy/Cn3ycy/FdWvPwS9vD23Pfw3exZ/S6VEb0YPPp1bNaznPzqHX7+YS3VerzLwHsfwpe7ja/efwhrdEt63/0AW+ZNZl9uNK/P+ZacQ/PZvPg9LEm30bjDQIqPLSAzO4Oo6g0oyinCVm0IwyZMUfooIvONvgr7qYWsnzcbS2gdDCEGCq8cpFTXkuc++pC1UwcQWr073W4fyZYZ91Bpa0LbR2dR03qZrybciSfxNrr37cF3C1+lzcCnadaiCV9PuRdajKH3yJeJiIhSeiv/O63wxw/k/9EVBIlnwucO8RXjytzK3jWLycrMwBcRRtNbR5HWdSQhIV4qr/zKT8unk5txkeiGnelyxyvEJiWhKzzG1uXTKCwqp3f/+1nz6fNU7zGTZk0TWPzpdAaOfJ3GLeqw4r3x5Hpq8fQLEzm4fiY/bP6Zv732JamJenL3LmLrl4vxm0Np1fMRmvUcQfGV/axdtIDWfZ+mSYsUzu3+jI0bz/Lk1EVQtZ3dy2dyLj2fxre/TtsuvZV1sU3vJnPfKr5b+TEl5U7uG9KXbUdy6X/vM5ReWM3OfZn0GTGFGqmJrHqrH6Gpf6PngBHoPcf5YcEMcvNO0brVEC5dOkdi2zE0u7mnOkC1w6sKqzODPd9+xLUDO6iMrEnbUbOplZjA2S0fsf6rHxjz5lckhrlZO3ssReFtuHfkCDYsmUyFviu3j30aq6mYvF/XsH7xV/Qa9yGpNW3kn1nBumWfoPOEUb/dPXQa9ABZ577j+y8/4+Y7P6ZFsxR2rX2NfUcqGfP855hDNNGoP/oQXpxkflbfRcqPjCa0yTx0llp4RcVRHe3aa/2zCoJkZMIsD/Fl4st4DcPVbyk1NuSjnbW54gxH7xKAIFaH2qSHxShy1UZMerPSQhCzJvmzHGJSHZCraJIDJsBBUMBBqgYiu2wyqqxcZVFSXbBVo3GLjlRLSaDQ4WPR8l+Z99kKyrxgNVrwZmXi8djVGKvOV4XfW0Kr7j248667+ezTL9HpnYyfOJrW7ZqQnGQlVOfD5XBSWu7EohPhG6hweXE7pDQukwsmpZxoExKiQXQjtIqGVDnkYBcIERwK1cSv/bj8fsUhEO8GqWZYBSj5/TjckF9URmbmFfLyS6gqq8Dj82A0mQgNDSEmJorE+GgSkhKICTdBSAgmixmXwYCj1M/POzL58N03OX5wD69+OIXqNWrz2jOvkJicymcr3yUxxI+9ysem7XspKi0kKSGa7l1a4/LZSM8qJyrWyP5tm/CUXMPrKNN6+kqoS5vbkIciLKpRZa0DoHQSgn8O/NuNFQW1igIiSjKtItdAAILHpY0+CmCQKkzP5GX0vkkDCO60Zfijb/nDAEG1oPxF+Ap3UelLJDK+1Z8CCFoFQbgWVegurGXlrNep1/NFugwYhd0kSpqlXNwxl6+/3MA9j06jfs0oTm36kIO7N2OOiqFZt2eo37knBnsBe5Y8z5mzpdz50GS2bVuI3dqIwfdOwKe7ytUjm1n/5XIGj/uIOnXqgb6ca4e/ZtGHH2OzpajYt/VEAQ+Nn0ZidAVblk0lN6eUtj2m0bKxme+WvkRFjpOo2jfRZfgkQmOTcIt+iOKJOLE4c8k5vIata+YTGVmH2KRYjp0tY9yr07lyeh9rls+hpMjBHbf3ZtexdHre8wYp1ULYsXwqGemZ9LjjETz2cyxfvJq4iBC6dO3I3vQKet3/MgmJ1QKCbH90dPSPRpr//z7vfzRAUN09xW7Wq1aDiuIi2mIw4tWLmI9mWGLye7D4HUr0wy3ZiN6AyVPGnm9n43N7iK/bAmf+UbZvWErb4Yto1/U2dRj4JMOSgCriIngx6ANa70Js8+oweD1KUtgr2Y2o2kl26XbhE7EmvWQ94nDjQocLnd+MwWjC7S1VaoR6kccVoyPJhkXkxOfDZDbg88jz5WQ04vOIUIlO82KSSCmMchHxMdpVBur2iDFOUFtAJI/dGAwWlWnJCJsooWn8YgmQJeh8Fkz+EFVSNZhFjETIVAbcLoPyr/Dr3Rg9DhxmTTDIjwuvNwS9wYQBuypzik6ixy2ZtujNuzX9Bm2CGr/PqUyORB4YrIpgJrPTBr2MN4rU8p9zpgu6wFl8l6g4MgFb2nv4LdXxKg0EbWr87wGC9hciiKPpzdnIwn12EqaCDZTrGvH+rlrkO8LQuUWFUPrbeswGPRaLFYMSSlLyMJpinNJBkO+uvZbJGJhiEP6BRbv2olaoytqKOCiTFR5MEdUIievCzM9+IPtKDlZbGDUjDcTUiiGxVg1CzD7KiwtxOd1QXokjP49yt567xtyPx1NO9ZqJSjXx8K9nKLiSR35eEadPn+d8xjkK8kvwEYqecDWC6fPZ8Rjk+7qUoYIpJJTEuBgSo+MICw3HLATJYPwLxFU5XEVBUgyfikuE5V+Ox+3C5RZvApMaWwwNC1c6BTLiKldZWis+rxe3T/wfnNhLS5VQU9O0ptSvX53ajatRo3YMrVo259zFq3z0zgImvjCK4wePk1tip061CCLMfuqERuKorOT91T+QmJpE0dUi9KYwuvfsyc4Dv/DsCw9TeSWLC4d/oTA/J/DZNX0SbSI+4Kdwg3lTUDRLKypo/3592uG6poemJaI9dGpMU4EjyUh9Xtwe6Jm0hP4di3B5wnE3XYI/+taAj8tvXgP/6iiRtSpTDGalVqi9plfpqvwxDsKNt0jvd2v6LLJnxARNDy6DSbVbTF4/ZpPECRmGFIVEjcPkESEjqQbJtxNkLbFH9ra/SjNOw4TP51LKmdKvkb3vdbvRiwKaVDn0mjy7IlYqAzOZ7pA/e7WY4tFswUXKxO2sQmc24VMgWuJYELzJtInohzjReRxKFExJtSs2rYxyB6sx4kluUutJhLBEdVUM2ZSQs9GPzyNiTvIxZeZYI6hKTJX2mAByLY780WqkGmYOeFdIVemv8uX5a0DIfxuAIAv5P+qW/xdcI80cRMKCOIcpCSOVYqiOn/Qa1eEo9B9RtdMESpVDn7eCrP2L+HX1J1SUVOE3W0jpeD/NBz9FeGQMeq8Hj6jPBKWT1EbVQq28hoiLmP1GjHJYCWHOILoemuiSCB0ZlCG8Jq4kn0FmhaV3LT+prFCNJrx+rzbGpW1rNZOvRrXF2UwFBG2DyuYWfwD82iYWh0J5ESl/ajIH6h1U7djrF+VGt5KbVlLBgRKpqC1K314pBSqGulsFEJ3ejNujzdMbdE61uUWXUa6ggAYpv8uom1xTr2Svchj6QpRyI4h8tJRuNQEqVaJX76dlqWI/LK8vPXBN+lnb2n/mIQHWTC6UrEcfPhCvMUYBBC3Y/GuAoInJSIvhEq4zL2IpFoDQgPd31qLAHoneb1NHn2gcGBShz4RRbIqVAIzWblB8cr1Bld4VQBBBIqkiyGSIWRuTlBFA1d+Xcr+6dW70YTEkp3Qh63wJFcW51GmYQpM2DTGFWCj3eHHbq7CY9STHheL1g93pJ78Cquzl/LLnJJs3/sCFo1lkXy1W179aUjhtWzagTdPmxMVF4o+yKo8FMe3x+PzKc8Eo3IJKDy6njpISh5JKrqyqxOmQKslvrRhNithMREQ4tggbERFWRaYUMyqDxYA51Kj9Li0WkzbpodoramzQo9oLXreLigoXjhInx09lsXPnr1y5Uo7XYKReXQtp7dMoK9Vjv3qYUcPvIPfUHuKiQ4gPiyclOZk8VxXhaa2pXieRvCuV6D1V+ExWlq/fzunzF5n0yD0c3bmZq9kZWgUsMPqn7ndgkiEIALTqQXCfBnwbbvAguXHqIdCxUoe+7C2l7CdKgQos+OieuIhBnUtxucNxNxOA0O1PAARNddDo0VQlpY0j+/zPAgQFgwRYSAxRH9iLwSvKlZL0CIDVyLfa95K9KXvep37p9WbF1VA03mCrRUlMBwXdtAacgCJpqakDWIs8mvqCLH2JIQIwgqquypFRdnOl+k6qHqW5jGvusSrm/CY8p2KbFvTUz4mrp/aeWtVHni9xUD6nrCvFL1EXSiPTam8rXCB5rnjLBB04AiOuAV27vx93/fcxJSjkFBgy/YNE6X92nv259/0zke6/5rl/CUDQbqo2ViS/B39JT/bPXMAbQYW85p/52d8up6wodRRqxibqBBfNci3bMArrSqmNab7xUsoTYprSWa8qxGaUIWg55I3ojFGKrKU5DkrJVfpqQQ1xLZPStprGoJcDVK+ah/K6XuUZ4A54QyllO2VYIs/1aAYqinKtaSKq/6gAEBi7ko0g1QCvKXDwayU7v3x+yWp1gvQFLriUupiSbZbgoSScxV1RMl0DHp0Xl/g+SBCRI06ATcAGW0EVtV8lILgxyHdXEUmAiU9lKjoBASpAaHbNqjqg3GRdeHVaBUHvi9SsnJX/g3wTucaapatBVBcVONAyKb/eHjB4knsjEejPIXhhglvJw54ho1bD8ZvjlNKbVC6uO8j9vd1zwMhGwoLVn4HzzItYi7+nUleHmTtqU+iKxyhZuE5zORQ4IEIsAmTEi0HQkkg0yyEp90vsoBUIEOKjgEshJwaY8lJBUJUEVTGSK+xGZ7DStEE7rBUOKjPO4/G5qJKDuWYd5qzdxjert+LThZPWvDVJqQk0aV2fmvExCv8t+Xw5h3ZupX3vQdw1vD83tUkjKc5GdKRZ3WtVmxEwGhj7kzslYFXWdkCAkzAh6d8gSaXAn2Ybdj2HVmdoII7LKlArXjh77oBoqFHz3HC5PGoMVFajgCCbUluSe6t0pVSwd3h8ZF1zsG3HOeZ9NI9Lx46hs4Rx/6ghdIyBVtXNREWFUVLiZ8/ZLD7b+hPp+TaMoRGqihJti2TGG2MY0K0R6blV/LDuaxrVSOTMicMaL0IbVdD63NdbCkGg+U8cGpUYlPbvN8aUYMAXYH0jQFBTHF4f3eIXMqRLGU5PGJ5mS/8cQBC5d6rwlqTjcFkJjU8NkBSD9u7q5PsD/XPZdBIvZOTRoiTaxbFFVQ4MmtKVMnNSUwPCeRFwqMctfgkSPuQ++VyYVItNaxtJYqCgRkApVk1zBBKfoHWztjtFcEvaT0HXRolNYj0tb2pHp7OIeLd2aAsQVjdHDME0C2gtLdDAgkQnuQNKT1bJM2s4VUtONG8X9e+quiDKigIcNO8GiWc+Q0A2SoEKLU4qpdrAOfHnzopAZcMgwETJUCngLWfEjeeO7GFpPcnv/8qN8+/dQv9rjvX/7171/zlACN5kCawul0uBBAEGQZAgGy+IDP/jTZRNIKXLwOiVhjX/xUNl31puqvqpegEjWqaruO5qwwTwQaB0rC1UWRByyBtx+GWBu2V5KPdDJaGuFrmmW4/OqvTKg1WDoC+CgArt8ZungFaskP+RzaxtlKCJisiNyoZVSFv9Lq+tbRwNsQdmpgMVBmXhKq+jvOU1kKVdQ2lpyGuoPF1LBIPfUQuZN4T8wHOuv4fmya7Oejm8lZ28bFvtBfw6kcuVTyyvKy0JyUDkPbXsSv5ekIgSyQlAI+0yyDYVh0oBWdKikCAi1QkJMCIXLVm4plMggU6A02/XM2hP+8c2gLqsfgNW/yXKDo0jvOks/JYG2hRDAJSo6/lvAUIm7vQXMReup8Jfh5k/1aHQmYhZF4HR4McsDGzVHpArIyBAC24KCOgCaovX+9d+td4FIChyoiItSttBY/hp7ntQLakJYYZYMo8cJc5YqYy5omJjiY2MpsQLx/Jd7Dyayan0HHQ2K/nZRWQXVuF1FtK0XROmTn2amslJVFVWkpufq5QOHcWVOCqcqh0gbQG7w6FGM5Vgk1k8CEQkKFzJH4vCo9JvMEl1J4ABfeByagqIMtZZVVmBw2GnsqqKkpIKisrsnD93nrzcEhzSSvCKCZRfGVoJeAqa88iEg81moWnzerRs3oAatRKJqRZHfLU46qYmk59TyI5tx6hZPZpL+zZwS73aOO0V5JUUcq3MQa4/DGdYdSKi4vD6jJw9m0lRUQklOfnEJ0dy/8ihNG1Sk8N7d3L+9GHNhzqwY4IHvkZY/L2a4o3/pmHuG1oN6p4GMlZZ44qkqFUQBBgLmBA+RvfELxjYsRiXVyoIS/FH/YkWgzp2ruLOWUC5J5X4GncqvY5/RlIMRpPAVv67zaBqd1qSIHhaIpjfpyoTwYNLKgROpZmgEV9NUnYUboVeM1FSegxq8sOr+YmIhLgkcup0DlRbgoH8BhAVjE5yTX7T2AjED4l+0uJUEvASn4ItGzm4tdabeF9orpQBQCdy0LKHvFqF4npb4Pp+laRCey+vXgS4NDtrdWgHjJu0d9fQxW+skz9HU5TPazTaFO9HJ/4WonKpgou0SH8Dktevb2BE9p9Fqd+1r/5YGPtLn/X/HCAE7pUm96mHfXv3kHkpm5KSEjp16kSTJk1UQFE3XTl4yZrU/MB//5DD0EdeYSHZuTm0bNIUi6BllXFrQix/v4EEARv8DvCU89qbcxg4cAiXLl4gNj6RW27uJCtYgxB+bYNot174CWVs3vIT9ZrcRFx0BKWFhaTUqBaEswpEaA9F7Q44yAU1z4IeDFq5UL1qYIdrvX3NlyH4blIW3PzjVtq276Jm47XDK9ij094lEK4COZ72maXfr6CO2MQGkI6g+eBmDFYalKpcYFMrVK7sXTXsHlQEDF7nYJapYXXRINC027UKhiugv67dFzUnfn0La2U9cd9r1bqdyv4EKGi+7n7cTicH9h6iddebyc6+RGxcNBGhwjPQsnENyQizWXsvDSsFAse/N5//h82kw4JZl07Z4bGENXkPrM1xidGV3xmoTPxrgKBaDFzCkz4ZU+F3VHrrMvOn+hTYkzD6pYevAQQ56NWaVS0bbe1K6VZNLEi41tJYafVqFQejjAxKa0IDCEoGVlk4iPOkAWtkGteK/MSGG6gbZeLA7t34yktpmhxLfESIeo0qv48Sv4Fqnbrh9IRw8NRpiisqiI6OV9/rl5+OkpOdydWCQq4WFlOcm4ff7QyMIFgwWK2YLCHqHqoM2O3EZ3cq177rSDm4g1RtONALV/rTBkwhZqKsFiJDQ4mJjCLMFqrARVhYGNbQMExhkUrKW/rhiusgmv1uUUx0UlCQR/blDC5l51KaX05oTDL1GtSmQbKZtHaNuKVZDSpOHyAxxILUk0qddvwWC9VSUhB6qaNCeDhGQmMS8Bls2OITKfSEkX65kF+OnCQ+1kTd6lEc2rMd3NqY443Jxu9JiUGQrN0jOeyvjzgGdA+CIFIBcGkJSaVNSIoCEuQ5CiTo6ZW8mD7tC3D5whRJkahuGrhXicF/OpQMmP2XcV9eTKkvlfjUYbiv/6x2YP57JcXflr6Waug5fvw4P279kYceeZhws3iHaK0BnVQH9W42b9tHqzadMehKcDo8JCbK2gm0HHtDA90AACAASURBVFWckHgiO14AggYdpAqjWmYqiw8c2TcckorzEJja0RKFQLhTXg0aYNGqSVok03a2ngULFjB69Ojr2b5q8+o8nDx+hojwJJJrVAtwQAI9WM1ZBr3PowDikq/XMnDoMKonJGitjEBLNpi+STb3WwL5W0vpt0/xd6dLQH1TM7vxc/TIOWJjI6hRMw6QWCXVb+FnaPHvypXLSnWzdu06FBTkU7NmLbVW1OtrmYq2rdSa+kvP/D/15n8BQNA2q5CjMjMvsWjhVzw5biwur5sVy5cyYsRILCFhxMVGUVFUhFsyK3s5pU49Oo+d+IR4jh0/SWJidWpVi+Prdd9xtbCUMSPuwm93cf7SVWrVb0BEuHglGJWXud9XztETJzFEJNOwZjxn9v7IU+8vYeSQQRw5coyBA/txc+fOHD91kriEJKpVS1ZysFnZl1QGWj3OyqSXptL51kEM6tubyxcziEuMJTQ6DJ3LTZmjQqmvpadfwmS0Ur9B3cBGkhXhpai4mAsXLlK7Xn1CzX5cOithVhMFxWXERcdgr6rkzNnT1KmVittZwsuvTuf5F6dSt05t0tPPKmZ5rVrVcDrtlJRKBlhCozrNOX76EImJtaiZkozHU8HZ9LPYrFHUqFlDHdhXrl6horyMtLQmarHa7RWcOX0Ba2go9evVQ69zcvbCRYxeEzXr1CbUoKewopzMrEtExcSqrNVtt5N1KYvEGgmqOlBSWELd2qmYdG5yruWRl1dIw4YNNMtsj4esK5dISEjEajHzyCPjuPvuMfTo0YWs7EyKi4pJbdgAf1E+b814l7ufm0i4wUJcTCwhRh+nzpwnSYx/4iIpunoZh9+Eq6qS1NRUBSw04tUfEUqS6CDlQAMmvRGL9zjlJx/GmDKGkIjuOIxx+L2SnWmz4/+qgiDALUSXjff8qxjzv6HKW4eZ2xuRX5WMERsGvUcRQ03CPzDJFIN24EvgU+ZMqqWgtRa0wBk0atLIi9JeUJyEgE68tLgcOhPhNZrQqG0bLmWW8MvGQ2xeu4WczP3Em/IZ0asrrZvVo17NWgqWFhj0hKTWJ7Vhc7x6PSfO5zB25AucPX4Mc0gktRvWoVnrNNq3b0O9WslEhNkUQJHP7fXrEVxmlLKwx4/XJQFdAvPvI5isPxXsdCLyJz1jHRarHBx6JRQl2vxykISZ9FiEdKnX49DpFSDS1Au1zFOugcstuhEeyitc2O0u8q9W8uvBC6z65ntO7v+Jjm3q8tx9PfHkpVO7Tl2SExKxREQoroSryo7X7sBeUSL0V0JskVjN4ZTrwREaTbk5iriG9cnJyqDgajYXTx7CUyUtqt9aBepokAM9SFYMZqs3tBR+4yVoHIPgQ5FJ1f0MAgRpn/jV9RDp7j4py+nRLg+nPwpP2hKIvOU/AgRVXZR1anBhdmfgyPiYcl8SsalP4jFacUtlLbCmgjD5P0V41RDww+IlS3n//ff4cu0WGqTGKrvzc+cycHntNKydxLjJ79G1dz/ubNeUYr+X6NhIzpw+g8lkoW6dVEXCFc2KwvxS6tdrgNEmRFMXTnsZTreJ6JhInBUFePwm5dVx4Vw6obYwaqWkKNVNr0lHlC2Ky1dziYwy47a7uXjxMvUa1iE0JER9jcrKSrKysnn66WfYtGkTFZVlnD9/juTEFOLjo5k7dx6RUbUY+bdhFBYVc+lqNvXqpRIWHqV4Wj5HJTPeeZdrDgPjxz1OlauMgtISGqWmYvZDldvDlbxCaiYnEBUejsPtJi/nGkXFhdSum8qVK1eJiYomqVo1XC4n586fVxLbjRs3weNxcO3aNUrKirl4vojmafWoVj2C3JwqUlNrcS7zDKG2CBIS4lmxfJkiA48ZdZ96T4vZgtli5sL5czSo15CwMCsFxSVczsogMa4aIVERhNtC/6Pb53+61//V//7XAATJsMhl8dLv0MW05u4+7RUq9Xjt+IozmPTxt0ybPIHvli4mPDGBi0f3csqewLsT7+fZ8S8y++MPeWfGu3Tr1kWNW+VcLaJ+7VjmfrGad6e9ysqv1zB02HASIiPxe8qZNmMaw+65g7IiL47iHBpVi+WVrw7x4gODOHz0MD1uTWP2nHX87d57WTBnNk9OGM+hQwfVYs3NzqJRwzqknzpN61sHUz0mihULZ+KxpTB+/KMc37WXX89lUFZUwC233Exefg6htih69OimDoisrIvM+nQ+zzz+ND//9CM+VwnF5lQeH96bGbM/ptvNXfh0zie8PHUqp48e4+ZOqcz6+CvGjZvI/HnzqF27Fk6ng+g4Gyl16jP/o7kM69udWcs38NbL4/l1xz463NKZhYs+pXv3nhw9eoIBA/pQWeFi8ZIlvPbqy0RGhaqMZ+rUKTw4aixF5VU43OUc3r+P2g0bEOINocxhp3enTtw9dhQvTJrM6BEj+GHfXkYMH870157nmaefZ+Df7qd6ZCTJdeuSViOZz5evZPjw4Sz6/HMeHzuWt9+czujHx/DlkuX06N2HZYuXMvGl99A7CjmXcZ7kakk8O+ld1i14j4++mMfop59i6ZIvadmiI6+9/Bwrv1rMsmVf0qNHL9Z+PofoBs1wl5dTq25dBg/qr5GU/qEuJMEwSCKSYKupFqqqhq4Um/1buLgaXdleHDoLbl9dTKl3YY0filsfpUaslNVxsKqjQL9o2mu5RwiF6AtmQ/oHuHR1mL2jOZeLkzDrrRiNXlVBMMqkgvAIJEsKzMtrVYHfrHHlcDEqER6pIOhUa0xrL2g+DfIQgqjbZOSm7vfxzQ/nWLr4BwxON11uSmNwj7bc2jGJw3sPcPnXbaSIFXK9urgNDn45W8A7C3fiMFgodZRisUXz1NOP0vXm1hiMHpwujyJQSq/W53fjEBa59KF9Qh6Uwz+Y32p93Bsfqm4TuDjqd+0HNTdS1ecWp1GdykAryvzk5VdQUlJOSXmpam1IG1HahyG2EKWUmJKSSEpKNJYQaSMZsdpsRISFUumGi0cyKNqzkmiDC6vZT0REmJoocjmFYW9WBFyH00OV006liFP5TJhNkXhMDrIrfXyz5ReKPVbmzH0bk6ecX7ZvxllVcb3mpdpbwfscNGcIpJVSrZR/1JIXLcP8baBWqzKo+xWoRsgUgOwpRQj0ClfnGsObbOGmBtdwGWrhTVuIL7ztvwUI8qoCHi2U4SxagD97A/7Kk4TodFSYOmKufheW6nfiUDxk7cb8pzqEPEt0N/zlhUyc8g5jH7qTz1fuZeqL9/LdN6vQRaaSHBfNTxu+IbtEz9inn0KfncWZ/GwuZp6nZo06CtyXlBRzy61NGf/oW0yb8gKvzpzPksWfKiKys7KEjl0H8+v+Hcyc8Tp9B9/Fsq+/ofutt3L0wE5at+mO3lNIVmkpw/oOoHv3kXyx+CXmfrKICRMmExEXRojFTH5eHhMmTOSxRx/lkUce4/TpU2zcuIXoGAsz35vD2EfGcvbMGWrXbUW35rGs3Lif5s2a8tqbb7By2VeEGFzovPnMm/85oUmt0FWVUGEyUadGEvt372N0nw60uXMcW3/YRM3EKKwWEz9t287q1Rt4etxIhtw3SgGQRfPnM3PmTNLPnqasooK8wiJOHTtB47o1OXv+HE89+Tjbdh7CYPQz/7NFzJ/zLtt+3E1y7drs+WU3jRo3VolSTGgsrepZWbD2EB06pPHtunU8cO897N25h0cff4DHnnyJCU+P4fmJk3h5+gw6tWmt9sZ/58dfBhDM5LNsxVrc0a24s0d7DFTi9PrRXzvAjG9O8fwTY1mz9DMi45MovpaNL6kNd99Sjx+37cLp1bP1x230HzaI+Kg4LmdncurADmo27UC12DBOnMmma/e+tKhfjaIrJ/h42VbatWqEo6qKoisXuKNfb1766hDP39ufQ4cP0jwtnqeef58nHhuD3+1mz+FjVE9KoF2HtjRt2Iiy4hxWrvySNl0HEmuz8NPGjZQ7nPTu35O1326ib7+bmTnrI0aNfJjMzMsI8XfEA0NUaXXB/Hk0btWW9q3a4bYXsmvnVs7Ya/BQv1Z8MGceg/v25bvv1xMeGUmTBg3p3L4mb7+/lLFjn6Zf314cOHiQy5ev8P3mr2nWqjenDv7CnYO7cPeEWXz92Ww2L11IUsNaPPbYeN5++12qKu0KpHTq1IXdu/bwyCOjcXsqFClv2/ZNXDifTfXqNWnctCbTXv+A+x54AH9lGRevFmKsqiCqdnWGDhhE/1u7sXD9Wt59403efH0cD98zjhfe+QJ/5UXO5eTjLC7mfFYWrVu1YumyZTw/4VkO/3qIQYN7K5vgrXt28+ue/Ux9Yy5VRZf49cQRykvLmP/Zcr5f+hnz163ihceeYM7SxeTmOWnXujVduzVj5YKF1Gh6K/u+X8Xfnn4Snb2KBZ8v5rXXXgr4D/6TzuvfAQQhdlp9BkxlKyi/MB5bVaEyilaJlR4qdIn4arxHSPU+uKQtpNoDgV7idfvdAEDwO9EXf4L/zBQ8hmTmH+hEenYsFmMopgBAUOJI142btLFFVR24IRMPCu1oo40CEIL8gxsBAuht8Vji27LvRDa3dGxIWoIVZ26mGqUMCQuj1FnFge93UJl1ki43NSA+KRy33sCBc2ZW78rErvfQpVsbWrdvzoWLF7l47hxFBYVUVOkoL3dRWuEiLz9fSS/7Az10ATMiL2yxhGiTFdIO8HhxeT0q2/d63IH2gPAWnGqk0esWd8NKvO4KNWqL1wFGi9amM0XIF9F4GYI+JNPzuvC77OAsUKNtxtBqpNSvR4OG1amdEktUZCQ1LQXEeXKJlxE4t0eVsOU6hoaEERYWqTQWvAYTprAwDLZI0IdQWeElND6SpCaNyfOaOX36HLt3HeSW9k1JP7abyrLiwI0PNsC0Fp8qjmv8Xo0cGgAIN5KmhRMSVFZU/eWgh4WsxCBAEEaS36PMmka22UnzmkW4zPXxNv4MX1ir/wAQxIHVia5oMa7MGZhduZqzoThlymiiPxlv7ZmYqg24Dgz+yHFi0Ps4smULK7fvoedt7Xhj+ly+WrqIXbs2kdr2VprUSsJbfpW3P1rNmIcfpuzyRdJzM/jm600sXryQnNws1q5dya0392PLup958tGODH30E1Z8MRej34FR72LuO58SUa8xbqebDq0b8sBTT7Nt00Z0RVd5esYi7u3RipyKMgb07sgt3V5g1aIp7Ni2l5GPPYBTXDB9LpYvX64qj3cPv4t77/0bK1asYM3a73C5Sqmq1HEt7xo1U1Jo2KgNtZN0bN76sxoBnjhxIhkXL2ByOzCZL7NsyXrCImqx99Ah7n98PLVCfXy7bhut4xxM/OYCKz94GZPYP3tdHD58nJPpVxk9/BYSG7bl3KVMHhk5kg8//IjjRw6TfTlbTQZNfXs6b0yehFAsb7+jP4uXLOa9D79gyhuz6dA8jg8+Xkpa69bERkfx1erVdO5yCzEhOhpXD2Hemou0bVkdS1w0HZo25utlS2nVvjE/7s7nuXG38/5773Fr/3tonVb3Oij97woS/jKAoPcXcvzYBTZvO8uzT9yPV5fH7JlfMOCW5qzcfp7Jzz3FivmziK2RSsHlbPQ12tC1lo4vlq+lz6BhHD58mJr1alM3uhqHs05x+fxpYms0oXnNBA4cPkO723rRpl4NHIW5fLh0E61apVLhNJJz8Th3D7iZN5bt4JmRwzj062Fll3v3gy/wxtRXyLt0mhKnB4vVTJO0RrRIa8l7b04iLDyCm24bQkSIiZ82bGJozw5MfGsO0Y278PoTQxk4YDAzZszixIljyhFuyNBBqiqy8ft1+IwW+vTsyeH9uzl/5hBXDXV5eOitvD/7Y0bcM5waqans+uUXFn72GXM+eo33P/iChx56mu49unL40BH27d/P4RN76NhxOMcO7GDo4Pbc/+xHrJg3k81LPqF2iyYMu2MUq75cw6lTxzGZdbRq1Za9e/czatQIVSqTQC2EtP0HDnLkwE+qD7/9p/08MeE5Sq6mk1/sok61RM7nX2bE8Hvo06M7y9evY8b0N5kx9Qnuv2MUb3y0Bl9pBulXLxNlC+OnPbu5rdttvPzKKyxc8Blbf/yB24cOIDf7Kpt37uDM8eO8/eanbN2yhswrWYwZPZr+A+5gzeLPWLLma8Y98RSfLfkcvy4Cv6OckaPuY/6nH1GnZQ/2rV/F6BfG4ysv48MPP+XtGdMDHcx/spWCvARFRDXi0fkIdV/Dd+YhDBXbMAZ5VZKIBUaZiw29CWv+IW5TNZWlapMnWp9Q8fmDFQQZmSqZC2eew2uI48vTffk1PRSLPhSTyacqCNJa0KoIAg40YqZ2oPy+VK+qCEocSQDEPwIEmVbxm2pgS2hIq1Z1CREZ8NOnqMrKIDzEiCXcSqXbTf61ErLPX8LsLKNFk3iiY6NxeQ3keMzEpXXgcpmb5597g8tZl5X1t8dtwCyGUJEie1yDkJA4TGYrttAIlZkr7rhP5tPd2misT8Y3DWAykpCUiM1sJCY6jHCbgBsPJgOEh4dgsxkIDTMQEabHZDGgMwrRTYo4BlxqtFDsr0XxENwOGc+Ug9RJcbGH8xmV/LhjJ9mXjlGWe0l5MrwxrictUmLB6cBeVUViQryymraE2DBabUp4yu3yUVVRBWYLRmsYTreO0PBYTImJrNp9CIc1lF7dbuL0oSOcO34Qt6MiwC24oQN9XQNBG59T1RvRP1FkW9E0CFQH1Ay/dm9l7wQBgiLwBZ7jVXbWVZhcJ3mk6xHqxhXjtTXD3fBTvKFi1vRvOAhK0vocupMPoS8+pNQoVd9IdalEv8RPjnEYMa0+xK+PvM7x+bctbKlSVRbS7uaefLRgIbHhZo7/upu8azqiogzUv6krdVLi2LBmBSdO5TPh+Qlcyb5AZvYF5nz8BV99tYbT6XvYu+dn+vS8i2/XbeG5h29i8EMfsmrZYvDaMcj00aV0Wt37Mo+MHcPdg9rTc9Bwftq2jbwTx/h40w4GtGvKtbIc+nbvym39JvP156+zc8c+7n34Ho0Y7rOza+tWTmVcYvSoBxl+550sW7GYJ554hpcmP8fRo6fIvnxVWdSnpbWnsLKQ7VvWMPaxp+jbdzCnTxzH5HFiMFWxfMkSLKGp7Ni6lTHjnyMp0qiqyD2aJPDsF3tZ8elbWBB+jYcTJ89wNjOHv/XuQGKTdpzJusQjI0Yw+/1ZvDL5Rfr160erNm3pd/tgJj41jkirlSGD+7Piq++pKrnMnoMnefvt6SxasJLURrVJSKjOsqWL6dS5HZG2cJrXiuWTr/bTvnkqITXiual+A5YtXMAtPbsw9c2vWfHFNJ4d/wxjnppCswYpCnz/RzL+X4ge/gKAoHFTZEZcr3OzZs1afty6DafDy2OPjSWtaQsWzv+ES/kF5GamM/COuyjKyia8aSfual+TN2bMxukzKQR5z9/upVfnm3lwwjNMfmI87304W/XWU+rV4fY7hqJ3+ZBJvOVfLuBMxiUMlmTuu7MfkaYq5n69nRF3DGDHzz9zx+3DOHv6OMtWriIvv4BFi5Zw8uRxli5bwpXzObz3xQd8v2wp5wuquG/47RzYtosH77mDvveMZsKU1+jYvB55Obm8/PJLtGzZmrvuupu42DjVz3V7HEx7600sFht1qtdl2KDujJk8hdTYaIqKS1X5aua77xATF0/d1JqMGHkXn8xZQM0a9ejatYviZPTr358hQ3tRWujn2PGj9OzZmoeen83yebNYs2ohaWmNSEqoxfMvTKF5iyaMHjNKVR1++WUPI0bcf13MZcqUKRhNBqKt4QwYdocK8i++PI20hvXp1bsPLVs04/FxjysRkw2bNrJ3/34+eH82Lz07hjseGMubb3yCvqKQsxnn6HHbbbw7830cLje9evWkaZMmbNmymQED+5FzOYdtO3YQG2fmhx9+5cEH7mP99+sxm8xczMxl+msTmDdnLilt2oOrnE4dOzBv9mzikmpRt24d+g3sxevPvcSLb71JZWERC7/4gilTX1Pjcv/soeQmAuOUcsx79W7CPPtx7b8Pmyf/N7ZqkOsFFBoSMNf5GGNMd7x6IS1KT12bIvgNIECIT4++aikcfQy/0caGC4P4+XS0+DViNPowmQR4iaeC5broUbDNECzXB1X7BDxIRiyCSYrYGND9D7YYfJgJCQmjf79BlBWUUHDhIjkn0gnxuUiMj8ASZcOaEK14NaISiLcCe0kZ3gq7UjskxEilJZJrhgTue2w67W7uyF3330VsbLgaeY1PjCY+TkZMQ3C6NJdDq/SCFVFRiGva5Izb60QXsGkW0CNIV9EtAzxFpf+lxh6lxQBldq3HL8WDKofGGDeZhTOinXXy9w4HVDmlRWHEYkH1gisq7VSVOjm5/wDZe76he7PaWKXkHpiqkP5wYV4hVrORsIhwPIZwKhwmMnLK8egdhNmsxMTFEGsLxRIbwwVnAhNnfMHdd3XmsQeG8d1Xi6msKA5M9GjjxaqKdKPOgWopaFwDNZXg9eJyudWkhnJHVFNWAWVJ1UaSy2HEKyZOIrestD4qqe49wuMDzxNhKcAT3hVfww/wWGoHxnL/FUnRiYWN6A4+oszKrj9UFUGxh8n3phHe6VP8hraKhxOcCZLn/q6Wptj/GuH2/KmjLFi2nmlvTMHqd+Bx5zBw6MO8Pv111m38Eb/XQ7/e/ThwYC8ZGZe55567yb12hY4d2/Hoo4/Rpcst9Oh+GzabjTXf7+KJBzrRc9A4Nm35Eb8IGBm9WHRO3p72AS37DKBL++bkZF7h9alTqFajJs899Rp5xb+wbMV3VAtP5NMV21gy71UOHDjJyNEPKqKqUe/G4vUzeuJ45Vmy8+ft7Nv/C2vXfsf36zdw++23s+a77+nTqxu7d53k1VfGM+mlSSQnV2f1d9+yacMPJEZIm8/HiqWLMDTsRK+0ejzzxATi4mLUQd+4ZjiPvLWcLz55D4vOroSVhL+Wcfkq9/TuRs0O3VUF+YXx43nnrekcOXBAVTHE1GnX9h1MfvkF5dR5+5BhLPlqEy0aVWPnD9so8Pnp36ULq9ev4/SZCyxZspiCvItMevl9Rg3twaFL+TSulQIJEXRqlMbyRYu4+/772L5jCyeOnGDT1l2sWb+Zk8cOYq+ooE+fPn8hBPj3b/3XAIQbPpMab5OZVZ+MtOiVZGmwFKy0CHwizuPBYbAR4q9UQ4qiIqjcv/xgFga2iLEoUaPgeJJUjfW4vF6laKjkjgwGPF55LRdGnUeVlnU+n3qeLBxRshNhJCV7q3rdmmudZFh2bxVWg16R5oySHXoFePjwGa04ZYTQY1eHnwqyij2rcf01VrRXEyExmALB0oPDY1CvIwFAsk+dEjQKVkLlvS1KLVE0DLQxRQngLkxGEcaRmV8XYlUtPydjggaDGXuVA4vVpmkIeESjQCNSaeNGGvFM/r+MmbmdHi2D1emVnKscsC63h4KCXM6cTSepejW+XP01kydNllozZimz661i3wM+h3ptYTWr/rReTHhEgVG+k8wBO9XncXtdmsSwfL/gGKoamTCiM2jyvA6vMPsl2/Sq0VEZg5KHx+clRGegUjIsYY6Loptbpib+Pipq1ywIEGQkU+PDebC5D+A6fB8hzmu/8RqD/EY/lPqTsTWdhz28s1pPIn4TlDr+jYPgxyzDl461cORhpea2M7c/Ww7F4ddFYzB4lNKgGB+JeFBQFEh9JuW58NsIlFwvxYCX6x4gK/49QJAR2fjoJBrVqE/O+UyuXbrE6SNHuZKVgcWip0ZyIrUa1aZ6cgLxsWGE2QzovV4qS0txVlTi9TjUDLpD5yOXJNr0HEyF3syhM+fJyc0jIjxSCWhVVlZQVl6mPrPYG8v6kjl+OSAFrMgvKe8rAp6MNbp9uJzi0yDPE20DbRLF5aykqkJ+2XE5ndjtVZSWlVBSVkRFlV05IQpxQPQ5hD9gsZhp1bI18QkJGM16qtVMxOL1YCq9RF1TMQlh4dhMWoVFPqO0QYT8GWo1ozeayK00sO3kFc4VSqXFiM5dhqfSj9Nuo/mt9RnY/zZSmzdj2RdrSYkPJzv9MCVFxSq+BDiW2p7Uxniuz/Irbn3gtJU4JBUEWdOiOiCju2ptGwLeGUpZTJwctWqLrF0pl9c07mXcgHSsuirsMUMw1p+B15gYAAjXufS/i8Z+KrD6duI/OAaTp1Sj+/9W6FD/v0jXgNC2K/EZG+PXC3dE7ZTfDShryCAAEDSKCH7hyOi9/4e99wCzqr7W/z+nl+kdmEKXqhSxYe/Yu2Lv2CPRaGKLxphoLDGxd7FhF7CBoEgRRLr03gamMn1Ob/9nre8+w1gw6r2/e3P/T87zIDhzyj57f/f6vmutd72vTm1JCwRHlq5vuQ4up9xPplTh8bj03pK4u2sE0RDJhZApOhY+p42kXVRcZWxXVBpjrFu9gnc/mMpvf3crbq/ouewSTUom3ThdQUMSFt6I3YMzFdKkUCcqRQgxIVNXCY2hohorKo/iByLrU+ed5H7R8Ue5VB6wiaaLOUEyQiunyS3kWWlX2G0EZJolGdOxTIltSRlvTQYI2DLxSAlR3lvik6xHuwNPKklQhOqcTm0ry5hvKBzqcPFUcSgRiBTNELnGkhAkRfk2QVj8TOIpUh6Z7pBKmUyHiNqEUyXHQyq5bpemOa64WMY7CIZCzPzyC3r368MLL77B/Q89SOXWzbqOuld0/w9A+DlnoDM/3YzYGVKaGQN0kNCZeEMo+/5eYaRzrQzBgteqemjpfMkiTDcdNWOQhSIbuZDEzNS+qhukO5WSOGmQlMxIbkcVsjGfKq/QvqtlcqOv7GB3pd8tPT4ns9JWjVvKhppVqaAwSWcMW9KFTX+vSMAADO2Yy0igaDBYx5TWRFCilREvkhK2Pt/uJCESynozmdEj0R6wqubYVJBIVrvq/Fkyw+abpB8y9SBbvlQNPD4fPXv2JCsnG5ecIwFKKRkhldfKMe3Sc+gQOZExRp1JNsckrPM0dEg62gAAIABJREFUUU+lXuTgRLOeuIqzSDwzugryjtLtFXKVAQgK0ORLyGbVeR5dZ1d/WGCVfViuvYpZCTEw4cCXrMK24VpsDZ/vyrSs4CvXIOo+E+ee9xN2FesMuCXF0pGlGYlWUXJz4YtPNwAhXMO6yIm89UWeSjanUhHcHtk40gBhF0HSAASFuuaaqLCKbDamiqBTDh0kRWs1J+yUZBVhawzTVL2TNRvXqQ6EWDF77eLDINm8kA4DdC3MZtCA3mT5vYTbA0SCQZ1G8HqlSh1iZ9xB1J3P+voID78+i81bGrDZstR1MizpvMurapy6hkRLKyl8AZPh6z0mgNKyp9bbyVr75gLZFBDLj0RpN6cwg+wsNxnScvB78HlcOKXdYskEC2D0eDOpqalj4fyFBEMRUqIImahnRJ8czjx6OPv26kaO16/+BkKQy8zKJCc3F3dGBolomEgshTuvCFd+GY7cLqS82eQUZtPeHuKrRWtZV1XLwtkryM6G6264gA2rVzB31gyiwaCCYreOohrNjjQZ0awks7Fq28e6JrL+pOUQi0fMRmwRT4WZLq0X2QvjAiCSScLCrUgmGJw/h8sPW6nywO0ll+Lq/idwZFstBrMOvv+QO9Wb2Ip95QXYW5f+MKjZIeS7HNfg24k5StQO2Zby7wYgmBij/5VxbpExjsuaE/lu+ZncJFYJqONArDE8lRbXG/I7hyjXPB0Rjd6J6HUYMbQlS76la7eedCvJJymqqqK/IiOiNtEJkDhmTKZ0sNsaFVQ9Gct6W2JFxJbAJboxu9Cbfr4CAdno5b60gJski7pR6+UTcTGpmaV/KRoJJhFJj2rLc1XHodPrJd4Lt8bEfSGXmo1CvrtOYXW6Rvo5klhKEidAJGHUYOXtJOGTxEY1XlSjIT16mcSZshGVdSRARsZJFSDIZpJkyVJpI8Wp6DGIjKws/Z0cr2iO7O7xv91++F+vIHQ+Md8HCOntPr24tfzbaQ1/l662CyCYXrK1yaiUrxHPSC8+0ZFXdS6ng6QEaRUDsRTlLLlOc9mN1rpsrqI6pr4GnQp7OgNtlSu/Oypn2Ozph9m0pYRrPAdkKUolJOkI4xCAoLP/crzpUmT6xlQVe6v3/uOdR91a7DK7LkqQEu6MrY65yeQmkVtHblpvhwCVfEpcRvAEJQu4VjVF8xoVMLRUGyMyt2/pLugmnBZJ+U6ASV8lOWYxLpKs04QVJahZZ8wEZzkLMR3Hk01cdCk8STNLHteROfNeccni7OCzdNQ1jCvbd3cAwUDBhFgv22O44z61vLXHviG46WrcDZU6cmfubhtt7t74lUQ2hLg9Lbuc1ndIExUsvXa7k8zEfFh9EzQsJuE5jMc+LaeZUhzOpB6ztBeE5CeZZjpoGadEk6mmgWYaIIg8c7p6oM/TrFSSnBT9K/qyYsEyvpk1jz579GHUYfsTbqylIDcTp9dGxNKT9zqSJKMB4oF2LXer1YZjlxiOwK5QIsbOYJTNjTHmrmsmkjmIwvJSKnqXEk7EiNsTuD0evHZRchQ5bkwlhyQep0PHtHx+rwIdpxO8PhntlGAmI4wOvYcUJHhNVUQCpmST8rdkilKRMzHXhtdlY2dzlKodtQRaWtm+cT21i6czqCSDHoWFlOTn0t7ealoWLa20xZPEvT7NbFdsXM+m7RF69u1DSdcKKnr2JSMnmyUbt/DNys0Udy/h0vNPxuF28/JLM2lr3sB5Zx7Hi88/SSwYIEOqO2qaZUBC+hqpmFhaKk3Bm1xL871VFS+ZIBgMarYtG5JkoMa/AgUyAraCiRjEIxzR51vO3HeJXu9QxXXYS+8AMjr0C35sAxAvFRk1zoh8iW3xlaSoN2smqhpjNDkHkDHoYWy+A/XeU9EwUUf8sUke6wM00oj4kUQtBeTWSKcqI8q0hY2wjGrqpE76qIzy665Rnl2R2EBXE4/iIrWuWhBxAza0JWXFSJvxcBFPDwWays3QoGF9iBy1SDgbvou0b3RDFyOt7wbyTtFlVwIjMVwmcAS0xEVxVfUcrCOzxNQMiDUP/dYa44w/hJFnNsmLkmeNxnyHZowkZz+I2Zagk8YxawzW7CHmPksDYPOJcjJNApv+7LTehnxPpxJ2zbNUwVKq12nl3t3Cg3Tc+4kn/D/+1b8lQJDSeE19Pfl5eVr6MTC28yqyNqCOvC+dFaefY3Jo2VQka8nOysLj9WqJU3uLkhHLAnMZwx5fIkl9IIw/M6fDL0E2bDXPsdCsBndRG7NuKrkZ0gDh++BA8eP3AILOgevPZNFLWQyc8Rg7GpopLCoRDUGjAqYQXcyZzKa3q+bYGZrsWhVaHo4l2LG9ih69uuqYX5Kgsrt93ixqmhrpUlCg41RylgKhoOk9q7mQVQWRGyiZor2tjbjHid/twZN06CYtMcBoLHYOJul/d67jJIiE4tjsIiOcLtlaGYoWA9LCKklcySQ7m5txZ+fjt0bshDksM/UyFheNx7B5PfjSskx6uY0G/O4qCHKeZIo/aY/iTHjwSgaSaoXIFyS3vUQsWKV1CpurH87Si6HgCJ3fNiJTu8CX2c/MzqdtKwf4EhtwbL4b2/ZJhF19eGvhSDbv7KrZs9lUOrcYrGuvp8ZkNMqMt7IbqSAoQFD9A0tYyer9C1t/cO+BTJs4hazMXPbdezi161YRCzXhy3SRmeHF7ffjz/TjRlo/UdobG7RMKaRaqXpJz1QrZNLaiovZVZz2eJLWZIqMioEU9DsYpzuLHbU7sXu8ZBbkkhLDGwskKhCMpwhHZAOMEReDsoS8r2w1oh5oGY7pqKOQ9WwKbFQoy4Zm+uGYbBrGOlonBOIR7XF7/W5y83KINNbSsmkD5Yl6euRIBmfTvr/PKwI0NrbVN7G+KUDZnsPILx1Ae9TF1tpGFnyzhOrKDeTkd2fkoUfRZ1AeAweWU9uc4vHHnmfk/nsx+txRTHp3LoU5mbz8wkN47Un8AuBcLh21FKDQodmvl8iIlMl1kT9+v4/c3Gx9biyRoLGxUQGLluMFBKo8oU3PubQhpB3hSFVzwqCVHDt0A6mkn1jPe0h2uZxkymMpA/44uDf1TfA5AthaJhOtfpFk2xYc8QwSWXtgq7iQVKZoKWQCoueQNhn76V1BqnUuC1wLYTfNgVHgHw+xbmdEdQGcunla1cvO4LuT14Aqz6ZitAedek5C4YAFoOTITUVAAJRcv8xMAUQWKLDE6tKVuXSiYDZYUUiVf8h9kU7xrRjf8Tqr6pgGPsI/irbTHHOSkZmLy/K5UWaJFdu+WwAxAGFXApdO5ozaa3pTl4Qq/VARKSsWfEf/oqP/m9LJisLCQqKRKB6vNfXTARBMjNWalPXZ4UhYky/h/GT4/QowDQr8eY+0aNfPe/Z//7P+LQGCCPN8MfsrDj/kIMrLu2vZ0y7SKJaynnSGnXYZg7LhSsa1pCMLUQKNIlxFw3GaGtt4+eXXGHXc0ZR06UpeXo4GTiWLiSSwXUpQEfzhGHc88gS/+8OdeBTpGTNgkeNVG1hVJzSVBCmdGp8Fy09EUKNqm5tVpBlKR8nbGLAozjU1c+LS07ZFSNq9uBJNnHnBtTz78stku2VOXV0a9Fki6Sy+BQb/S4VDAnQaGJmeqqgZyrEE23dw9nn38dHEV3EJJ4EG7n/kJa64dAz3P/Yif77r97jdErgjNO2sUw5CaUmJ9hWd9jAOh0/LkhPelTnpLEYdeQz+hAiJCpCCmC5o6d2ZNoJDMwCj6yZAKyq9PCIsmL8IT1YpgweWYLN7FL3bkkZZUgFCQtQLPeqMecudt3HDrX+iS5bXmAap45+dObNmY3P5GXHACDyyAUnGoJ8jH2gykO8/0hUPPXNSEpQSoPQ/xXkyKf4PVbipwpaqI5nqS8LXW/vphmuSRv8Wuv8OQHDq+zlSdWTseAi2PEXUmcHUjWexeF0xDq9lUuQwWgiGc7ELIKTFP38KIOhalOoKkOnLJNebQ6o9TklOPnXbtqoo1prtW2loaSbT58bvcZDtd9CrWyGl+Vm4ElHtt8qMt/STpYJj8JS0IiLa6lEzHntK1ReDtlzsnhzWb62lJeqgNe5g284mGttCRKMOEjHjK9LY3K6yzMrrEHjoCJIgoPeBcAtEiyAe8xIPuoUrSTwWUl5Jhzaz1m+N8Zl4dmTlOImHGyktyaI8L8GgsgL27VFCjksaTKY0qKOfTg9N4QS14SRVQQcrajNpaHeTmedlxL69OXrUweR6Mnn/ky9YvHAdrbEIxx26N3sO6c+X077BlZnN6LOO4NNJU5jwzjjlDvndbp028Wf4MDbbZvzSjDoK/yiFS7Jql0NNqIqKClQRMhqP64bQ1NSkYk/SVpH+vUxTSAVBAEIqJr4F6zn/gI3s07sSm62UeN9HieSMAq22pJ0qfhi8tceuy1kqfAHsiXUiHYTTVkDCVkJYrpVd4oKWvvR8/pwxR4mWbuGL2GxEdcM1JEzNZEO1nHjt33jjxSfJcKarclIRUEUrS7FWZMJTaguuJm2BNt6esIzRo4+ktr6GwqJC3FoRjJO0OzWxaG5qpnuPChODLXlnjaFi1KUyytJqMO1Z4VYpv8xqSUqlRqaPxGxOXSYVTEtsdqungi2ewOlKsXrx10xZVsNFZ51Grs9nVSzSnRkZiZXFGiEp3jK6JWgjl6jGbuO8agoBlg+LcDMsjxoByPKdxBhSPWwVLEjsl/ju0Fa0xNxLLr6Yxx9/jJ0NjSqu5HX4iAnXQ92jjCy8XDN16CXG1M++UNGpSDxOaY9e5Hml0iJqv1b7Ra+L4YOorHYH2VQDUYeq53//1v/z3vHfDiA0N7dwx+23E8LNKUeN5Mt5S/H7Mrnu6gt44ZU32L5uA3c9+Ahrv53PNwu+JdhQSb/h+7Fx/XoKi0q5+urrcBKiLbCd39/yAJFoirPOOoOynr1YsmAGs2bO4oorrmHe3HnUt7YyfMhA+pX14NTzz+efTz3HcUcdYTmIyc0Toa29lb8//Bybt6znmquu5YCR+zDxg0l8/OmnXHjFGA7dZyiLFy1lwkcf6gZ6222/58NJH7Fs1SoycvO59uqr+OdDD5Obm8eaFas445LLGbXvQB58bjy1G79m/NufsnRLHbl2AQBScoyasbxkM6+9MZF1a9fQY+CeXHTCcdxw15/o1acH9TtauPP2G4nHa3jm+fHUbd/IvI0pvp7yvppLNW5bwOBDz+T+++5lzrLt9CotpLmlgWNPPYkSR5Rvq1rwtLXw0bQZnHHcfrgzu/DRJx8Tj4QYceThnHPa2fhTdtWN+Nt991AXEJJigj8/cD+OWJwnH31UhX7ySwoYfcYpXDr2zwzqWcDO2lq2Br3cc8vlrNuwndOP258rLr+NcS+/gs0Rx+mK8MZrE1kyfxoz5i7g3U/m4o3W89obL7Nlew3Xjr2WiePfYeqMxUyf/jFzZs/m408+JUYGf/nLPepJ8GMAQWJgGvsbl0bLsEZuRQEz2PHSTHznRAKR7vgrDleRHQPZdoVcg/87VxBcxNUBr4GM5qexrfszyUScr6pPZc7K7uDKUD6BbDiiHyCVBAWI6UKWBWb+FUBIV5t0XDLppEd+GYHaBmpr6vhKxlaLCzj62GMozM6krbGGlg1rSDTUUVaST7bfQ4bfjcdltPeNx4PJzmIiUiQTD1rFEL8AydzEwTFOKGojkHDSGEpR2xSktrmdqvpWmloDylEQrQLxxRCAEZN6t82Fx+8nNy+f3Px8cvLycOXmkpmZhdfjUz8Vt8uJW0AKMrUQJhRqJRpoI9rcQry5ibbqTeS7ghT5EmT77PhsYhxlI+URsG5aE3L+lLCmNuUumqMeNjT5+HTudtYF2igq7cZRBw/jumtGk4glGD9tJfff/RyH7FfBPXddycxZmygodrNo7lRmTp2Gz+3WPy6PC594TFitIKObb7JgAbLSXvH6vZpElJQUa9UxEotSW1+vm5/0rtW6W6s/4kwZ1axZZusL3asZc/gKeha1EfEcgWPA/UR8e1ry1P8KIEj1RkrntYR2fIw7/1Bc2YOV7Guzh3ViIpnYBTREmMlwCXb/ENARC0b53S230J6w6z3s8oV56ZV3idRs5r1Fa/n91WPJz/Jy9OF78fkXX5GbU8y6DZtYsuxbSsv7cc0V53DXH+6mpHcpoepGZi1u5b67z1WAsM8BI7n1t7fSpWs+Bx16KPvtdxDTpk6kpLiYKdPmkuXxsf+Rh3DkyH14cfzrrFm0lJ4DhnHoqGPYs7tRaDRcpQTRWID33p/AwoUrOezIw9l3xAgmvj+BLZuW0doW48F/PkFWJM45V15CjyIPsbID+OONl5Pvz2Rb1RYmTvqM6spKzerHXDMGDzu55OKbGTh0P86/aDRF7hR3PvQIQ/r3pmv3Xnwx/SuKCotV8TCRaOXmW++lb5+eXH79WJq2fsubH8/Dk4yQmZvP9dddwnvvvMXmTTW4vOVcfPEozj7jDD6Y8Arz5q7G7raz4OslNMVayHH6uPXWsTqtNferBRx86LGMOnZ/jjr6NK67+FxWbqvihjtvY/6nk1m6fBk2t5vf3ngjb7z2Bn43LFuxipEHHsFJJ50AmrhanhKWTsfP287/+5/1bwcQhNw1ZcpkHDkl7Fw7l5C/O5edeRwvvT6OPfc5gMG5eVxw1184ZMgAevXtwylH78XxZ/yWt8c9xclnnM3bU2aT5whhc7awZlUrM2fOZo++FWTk5rF6+UL69O1N3979eOzBB7nw1jvJ93soczRz8KmXM2nyVHwOQbDpjDnCW2+9STScxQknHElOtpcNG9bw0ENPcfdf/sg5o89j/FP/YPHStRx+/DHU1dXy5ZezKCgq1NGVOfPmsWrVKr7+ag6PPPywVgUWLF5PvyIXn62sZezFR3D40aOZNP1rchwR5SLEieBM2Jgz82N2htwcOrwf7332JUMqyjj/ptuZ9/U8nvjLnzj9rJOYO/crRgwfwV579eWQM29izsfv4bBHcScaOfK0y3nllZe4YuzdvPzUP1nw+dvsaE+xV0Ues9c1k6zewoGjTmJQqZc/3PMwTzz7DONff5VwRgajTzxNkX6sPcCbr73Iaedfii0V5Q933sVhBx7IoJ7d6d67JzPmzmFQry7c+8xnvPnCvUx4/z3yygdTkePisede4E+3/44LrriXd8e/gMcVobZ2Nb+9fzzj/n4jv7vx99x25xN8u+gzCoqK6VFezNh7H+XoEXtSWD6UA/ftzYMPPKzKYxeM+QuPP/8sFV3ECfJn5FBCppIMBNFKF3fFTJz2Ouxt49hZYyOr79WkUhnG1rbT4/sAwfQLvdhTAfzxySRX3oqjrZJ1gQP49NshBBMFOFxi9ZyelbfkkztU78yx7g4g7BqHNBUEgSsZ7ky6ZhSxaslq1uyo4tQrL6J7RRda1q3F1VCP2y4wUloIEbW0FQKsXZj+PqdWYnTjU7JqjGg4oNUFw7KWc2J6vjEVP4qYykLSrvLHkVhc/0i52Iz7iReGsROXjVssu9PW3jFxAnV6CPjchsPg9Sr/Qr6PkveicZUPj4ZksiJCMhDCGU/gJkGWBzLF8Ezth4VYmiKu3ByL3m4BNB0vlGxdrMBtThoTPr7a5mXSN5tYW9lCr+Iu3HXXZYw6ZghrtoU5/5L7Gdy3C//4xw28Nm4Cq5bOZeWyxbiUVGeAh9fn0c8VMGOmeEy1UZwLxYrb73dToAChRFUfpYJQv7ORltZWPS8iqS1W3VIslFaYVhASXvrnzuCKI9aQ748Szr0Cx8C7iNpL0qSXn9A/TNsoR7CnNtG46Qmyul6OK2M/U7VRi3UzGWWyU8sU7icAgvKLom2cd/51PPbPv1NZuZlvVu+gbw8H9U1xzjlqXw4afT2vPvh31lZu4eRDBnH8WZfz22suY0NNmFNPPJIvp07Fl+Xk3r+9xGfTPyc71MKTb03iuouPZeI7k6lpamaPAfsyfFh3MjJt7Ki18eG7T7PHHv0o7DGco/Yq4ejRl3P2yScS9WVx4SmjeHHcGww++EgOGNQfW0qmDSRZTrB67VIWL13GYUecxP4H7M/0L6fy+eSvuOT8I1j77QqqW+D5559n/IQPWbXoI96fV8ctl19Agd/B6g1r+GDSdG6/6VK++GKRtpNuvfNmnnzxHWyRMF98PY8rjx7Mzc9O5NG7bmfvgw9hxvRZOhpZ7ImzzzFn89mXU2nY9DV/fvoTxozam+kra/jD9Rdz7Ikn88IrL7Lm2yX0H7wfy5dvIZao5cnHnuCtN5/ls48WMuq4I/EV5TBh/Hs4s3Po16OMb76ZzfHHHc99f3mZ55+4hcee/YhjDtqL39x0F3c980+WTf6EK68aw5JVK5g2dRo1O6q5Zex1Op326ZTZXHb5JbhEu81ypxRC5v8mUfHfDiBIGWjyp5+S9GfRtnkhtvI9uejI/fnDA49w4WVXMzAng2FHn85ZF57N4L49OHr/bpx+4UO8+8o/OOX0s3n0rWn0zZMSVRMrlrUwZ84s+vQtJSs3n03r19K7d0+GDxnK26+8TL30kbIKGHPmEZx41hjenfQJPmdUMwSTh0aJxaM8+/Tr2B0pBvbvTUZGDu+88wGHHX0wq1auYr89y9hU2cTZ516Ey23n4ymzqKmp4cpLL2D2zBksX7OO2bNm89TjjxGI7WTa5wvpke9kY7CAa84axlmjb+S5V94j1y0bmrisxXHFbXy7aBZz1u4kXrkEf7de7NO/D79/6l3eH/8Cz9x9O0eccBzvvfMx19x4GaVdsjj6tLFMnfQmqVQQvwCE06/mlddf5k//eJUH7ryJb6a9RGW1nSF9CvlqbQuFXhsD9x1JmaeJO+59jBdfepkNy5YzZdlihvUawI66Wgb17c2cWVM58ewLcSVt/OamsVx15Rgatm9mx45tuHOKOWyfnjw3aT1/u3M0H06cSF7pEA4a1JVJUyazeFUNx516DiMG9sZhb2PtmrmM+6iSB28+nZdfepYjjjuX5cu+YdmabRw6pJwH35nPafv2orD7QEbt158HnxpP33If/3z2VR5/8zP6l2Xg1tGMzg/TdtFepwA7YVRr10AyWWlpCPtYSu8NOEJfsHPHerJ6XYXNlvMDqtd3AYLlIKduckl8qTWw8QYcDfPYGenLpOWHU9tWjMsjPAQZzTMtBqOgaEoIaXPeXQBBniu6+1ICNdK9SnaybHSllVReUk6BK4eNG6so2XMARUV+oquWE6rcTnFePq4sH3htON2m7KzcDRVqEoa5aA8IWdWU7KU5oxUScVbs4MxIydRyNk2mdA47HgpaY37GpVA4IDExdkoIuIgYkCCEN22lSTk4qf8WrkJMOAlCxJQxyURc/5jxGenpSxXCMN8lB5bJDdHhcFkkMTFzkmNVACPlZWEExaXs28mW16Z0XhJ2F4mkn8aon5lrq5m/wsX6uhoOOfEgrr3seFK+bP5029Occu4ZlGZEee35p6nbWa3HnrZmFlCQttbWqo+WkaUykCLD7SIjw0NBvmjrF5ORmaH8gqamFlpa2ojFEkpU1DFoof1GI1qhicWDHNVjBuccXIvLHiNQ/ADOPtcQ7zDH/qkKglVssgUhtp7WyjfJ7XYleAdYdS0piUv5WbWWv8NH2l2uqB2FeB1/uOdZevUsJxlaR0vWcPJdIfrutR/HDMhj4Mjz+XLGBF4d9xoHDRzI8u31JBrW0+jtxl7di9mxcSWD9xzGtX9/m6kTx+HZuYMn3/6QGy85hrff+ZKTTj2dZ558htLSPLJzs+gz+DBmTXiZAXvtRUb3gRy+h5NjRt/IwfsewN7HnsrRQ3vw6aeT8PccwQED+qoPj0urpEkqt2/ig0mT1Ijrxt/cxrSZn7J83kbOOW0ImxYtZnWDnQlTvuTZF5+mbvNcJi1o4MJjj6EgI8rydWtYtWYnZx0/lAkfztUK6Ng/3MSTL4wnN7KT1VVNnHvUXtz51tc8cvv1NDU0cv9f7qZvv0GccPS+HHH8VazcMJ9E3QLGPvQlVxzRn2mrarnjmrO4auyVXHntX9iwfB7LNmyjb/d+2J0RXh73Eu+99QyTP1jMqONGMnvpYqp3tHDpFeexfdNWrYYM7NONZ1/7immfPMY//vEmRx44iBt/ezu3PvE4cye+x5233U51TQ3vfziJDWvXc8+dt2jF7dMpczjnnDPwZ5pRTzOi/h+A0LHWjaiKnamfTaU1FiNet4ZotyFcMWo/Xps0FZvdS7ktxYRFyynpVkS/HqWMOqgXZ1xwP+++/AinnD2aB1//hP5FXhyEWb60kllfzaBnz27k5Oazft1aBg4cQM/u3fly6hSOP+Yo7vvnS9x2zQVc+psbePTJZ8jLzSHTm2mVH2OsWrWSLVt26M25ft0azjzjHN5+ezwnnXwS7783iSuuOIl33v+IEfscoi5eMVUonMFdt97EJx9/RGHXbjz/3PM89fjjxG0B3pk4hQtPPZb7HhvP1aNHcu75v2HWwvVkOCRQSb8/iiNm49VxT2ErHsxRA0u4/b4Hue7yixjzx4eYPWMGz/zxLg446UjijQFqgg3k+hL85pbHWfPtfJKE8cdrOP7CO7jr7tt4+MnXePXph5j50YtsrIwwpH8pX29oJicVYshBhzG4xM5fH36Oc869gHFPPk3/Iw7lojNHmw0uFuTWm6/m9PMuZ8PqjZrJNDU1cND+wzWQPvfS21x+3vE8+dY3PHLfNXz15Rdsq41wydlHM+2Lz/n769N4+42XEXUGUs1EI7Vcd+uT3Hb1Bfzx7rt55LGXGPfCw4w89mSidev420vTuf6842kIJjj5sBHcev9z3HPLZVx65RXc8+Tb7D+wAtePAgTDDFYORwdASE9/GBKi3RbGlthOonUNtrxDIJX9o1zwDpCgmaz62Wni5qUNW+UN2CvfI5wqYeraw1lT0wu7zugbkCCCOmk3x86ObUrss4477b8gG1W6pK54xgzn07/XHnjIoa6+jZTbiSewk6z2naY8ntmVVGbHWS8UAAAgAElEQVQW8VS7yovLPVCaKS59CTRVlhJ9JwKkTFhIlcEa/NdKhqhqCg/HcGWStLe1Y49KC8nUMkXvQLkLMhsfF3EZqahJtiecDfM9DAnS8vhU/QRLhdLSLZYJCmMKKZ9vSvnSklLejGVmqj1xYdtr2T5t4GbeO23frn9ra1x+nr4ybtUCWNuSwbQ1DXy8qp7ysu7cdtOZlJSX89g/3+KKM4/i3TdfIRJpo0WsrUNBIpGIpQtiOCICEIR3QMpShvS7KMzLoKAwl4KCQrxeJ/FEjNbWAK3tIWJRWUNSQXCrroNop0TDUaKh5Zw3fCmHDm4lmczENmg84fzDdQzawMS0XfkPt/T0hIC0MhOxLcRbV5KZexhxZ74ZU+4YS9QSwvdqXbsvJ6cijfTecyTTZ3zBp++PY30kl3OPGsrXK7ZyxrA+HHL6dSxcNJ15X83mob/+jQ8/+oTazd/y7IezueuWscyfO5P+5aWccMUtzJrzBb6mGq67634euPNyxr0zg4NHHkS0tYnc3BymfvElhxx9KrMnjmfg8KHkde/L4QPcHH32WH4/9rd8vbKSc487kHfHv87+p19E35J8/NnZ+HXKLM7MmTOZO38+xxx3FEceeQJTZ01h6Zw1XHLhYSyfM4819XE2bqpi5KH7E6layacrm/nzzTdRlBlh9Ya1PP/yx9w8ZjRvTZzM0ANGMv3TSew9fB8qenSluTXMkAo/dzz9IQ/e9wcmjB/HCccdzbg3JnHgwfsxdfLX9OjXg0JfHVvay9m7q4MpS7bxx2vP5tTRZ3HO+WNpqV3PGRdeySN//RsVPUt5/4P3eHXcP3n/9ZkUF/mY+fUCbrj59xTmu1i0cAmLF63h1JOO4eobbmPWzPd54cV3GdijkHv+9DD3vzKOaeNf47RTT2Xxt0vJzMtj6uTPuPv236lOwrvvT+HKMZeRJWW2/wCEHy5wBQg2O9V1tTjcXlW/anMWUOyLEks5qd68XQN2lx4VBNqCOFxJumY5WVMZpFfXLDaKM1d5P7ypKG6bk9aWRhV5EYZ3JBJVxJ+bl4vP42FH9XaaGnaSX1ROzy55VNUsJ+7KYMr0uRx3+AmUFBVpWS8WT6jPvQS27uXlZGX5VaWwsbGFLl1KKSrKJRBsZeOOWhwOLwN6lhEIBFm7cTPZOXl0Ly9VK9AuIg6TSLC9pYF+XfLYWrWV5mAbbm8pXbqWsXTBQoqLCujXu4yYZJbxEGu2NUFrM7kFhRQUZbKjIURpWQ+CdVVEPVDo8rG5phJ7KkzM3ZXeXYrAHiPDHWRrTYpAMIA7I4tuBXkk2tsVdNmSAeL4VBrX6/aT50lR27iTqqoGVXt0SIDMz8cnzPRYmMef+BsHHXYMBfkl9CwrJxqOsL1umwrZlOR0pSA7k6qgne7dCohEm6ms2kGP0nJmz5hOdRhOPfl0vFoSD+B2RNheW0f9ziBefyF9SisIt22hqjFEpsj1JgrIyrazuaqJiu4F7GhuI9nSgM2VT3bXIkqyPEpi+slH59EqmQbRfFfY8VES9jgZyShhmY/Quf8fzld9ByB0Ila7kxFcrS8SW/577DYf31bty8wtIwnbfLjcMu4oPATJ5A1DWZjLaYWmDm0KFd6yG56AjAlape+O47BFycrMoVvXwcSDLqivIyvehC8nhw11bTz+xpssXr2OEXsN4PhjjyMcbKVfXiblxX4ycjLJys7BpeZRMlUhbQHDUDdmkSKcJZ4KUeIJqSwI/hERJPFkiKsMLfK7qLQXjGiNZPMyCaEVBwE5AgYsIGOIuJbuhpJH7bqRp6meZqTMnM1dYMlieQsIMApg2p6RVoICDmtSxYyHmc+UFwuJTUYKzSYpFSGpDXlojTtV3fTNhRHa3S4ee+g66rfvpGr7VuprtpIUWeq6BnXkE9dACcJphSEj7CXXIKnEXpEk7lqSQ2FRHtlZ2Uqiiyeiei8HAiEiESHpunF7M3F5pSJlJxaK4GubwyWHLae8KECr61gy9nqciLvcmkBSXc/dLlej8SKbgRR/2nEKeTmVreRpab18d3Lrp5d959+KE21tXQ2NjQ3YfBmk/IUM7pLJxk2VWnr35pSS1zVb+RM7tm2ntMcAMm2ttLbEWVFTS2leEV3z7FRVt1BYWkEOITbWNeFwhkg588nweKnatlm1WIpKSsDhJdHWjDvDB24vXbwB1tXHqOiSz6pNO2mt3kBzUxs99uyPJxlj8w448qABRhE0HmX91kpSNhcJR5j8gkxsYR+lJXnU1NWrz0ihL4NVW9aSaXPiKCqnODuXTEeIVau+Zf6yrYzYc38Ku3rIKSrAHo2xdvVGEh4Pe3TvSipWQ1O4kLJu+VTv2ERVbT0eRyG99qjQeCTPTWX66NWtFMJBahNZ9MhKsWVrHdlFGQRbG6luiFIouhx5mdTU19GzohvhNtETaScYtdHa1qzXuW/fnurF4/Hm4XO2061rT6pbWom3NeJxFJBTWoytvYGNa9biLSmkrHsPdtbUk5vpxOv1UV3XTmFRrt67mp/8p4Lw3UXfSehOWfJSdNcb1ZbEk7LjSonynygdxlRoSFmxiThhewq3zMArbVyUAU1vUbkEOjss2Y81tmvSNWv0xyguqSaCkKNS8O6Edzj15DOtmenvHp/hnBmFLzk6M+Eg2lkxEjojLJuEiIYIy9+hRCs5DvVQl3+L2pYERQmGWlo2gkbCqN+8sZL8/EKKcr0kRLRDEbY81+gbiBSIVo5FuUt1DBJ4JMY6XcRS0qt0qje6Li05DikuW+xl+aGcsShx02+VnFNjdUwVv+RY5RhECVGDs2ohSAAM8eFH73LUsSeqF4VbA5mTaCqm265HslUJ1qpsafVJ7QkaGhp4adxrnHDy6ezRtycOUXwUwSlLUVJzepnKUFMa4S+LQp+wkF1G0dIqj0sWlhAlTdykHE2kRAlThXx+5kMMWnQn8+gMeVI0EiLWdXP5f9QZ8vsAIf1JUpHy8DWphZdibw+wIzScD1ePoElmsh0ZeJThbloMnQFCun9oKqqSuRsQ0RkgmNfIxY3i9GVSXDKYQm8h1FcSaA7z8LjprKuv5/Bj9+SCS06noryUShEGmreaD95+ler1yzm4Xy9OOPJQ+vbtS25uLg5ReHQ7cHudel3Tmb8QFYXDoJt/NK59+GQ8SjTcgj0iUwoCEKTSEFP+gnAR1L1RM/nvbvhpvQ0jUyziQsb+2MyJp0lWhl1hRHzSjCuj0KjyzFr2F5GbTlWItP+iLColV0r7wqwXbSMlRU0vSSAODcEkW9pzmbo+ytCDhjHmiuP5aMIH2BIRVXisrq6juqqa9vY2rSAI/0D5EnJOtDIRxe2Ike930rU4j+KSQnJysvU7RKMh5R80NbcSjYpzp5+s3Dx8Mjbt9hANhOga+JQzD/kWpz1EY+6dZPcbS8yeqe0SM3OQ/v4/VkGQk6psH2kuyiAlKeWKSJvMjD3/0och2aZwyiihwkN5PwEiFndXzp1ESTEx1beXMVYPToJ4UxFCZBt9EoIkbWJVpNBSmxwy1ST3vxkNNdwOVUjQEpPEHLm3RNxMWl8pvp0/mwlTZ6naa37XMq6/7GImT5zE3iNHUVacadj7Eue1LWbaKWrALveU6h1YsV9imV1inuinCG9GFFYTbN26mXUbd3DAIcfidYlgVUDBu0QUbbel4sRtYVwp0YARHQdR9RQFXYvzokJKKRIyfZQw4hMylSETCXJsEmPtDhmzF+6TatQaTQWJyzrxIcRyjwWADTFa/TxSDuUK2W0eojYzCedK2GT2TttlIYdUiuX40GkrWypsqSh4TcVP3yct+uT4juNjOu3Y/ar6pSvmp5//b8dBSB+uquLphmRuMiNKp1I8luSudfPI5m8pDu4SUjLqiNa9susMyIYswa6jXGfKpLqN62ZqSEOismXpJX3ntcbxL90TkttMsgMxu5Etz7i9GSLRrpJgOoiavrQZidQFrIQxWQxG3jaZkIxWSp5hPQbzJWUR6rcwymL6ehEEMn13i69PTG13DfvePMuuWgOy8ahwipDZ5HX6PiK/ao5YhUeUyS1bv5SDd31d+RZuBRIyZGiko3VSoCOxMWNT+o0FDFlGR3q0at0tf4ugiYAoFWW2xjjlQFWxQEl1CSnbKtCS66gDneapJj/V8y3Zvii07Zqp/nk3gfFVMAJOTh1DimFrX0IyGISiQ6T7bABfZ82K3YZ0G15bNY5V50DDEtpTA/hw8UHsSGaStGXg1qzd9Lj1mutGacry6YcED5mjl1l8Da5pa2hrsQmzO+F20b37UEpyezDhrS/4cv4y+g7tzomnHMV++/Zh/rwtTJjwJbO/WouLAPv3y6U0O0VOqp3KzZvIy8+j34D+7DV0EJk5OXj9Gfh8QiIUEBZT4p36K8jmGI+SjEVIiWxyKEAq2gIyrqhSt0kS2mYwnAWzx5sWQzrTN9WB9P/v2vQFZKS/n7ysQ6isY8Z913M7uBgqoJNWJLXuUGs0Tzdyq3oh94mZyIBAOEVbIE5DLM78ndnEsrsx9rfn8OX0KSRiEdra2thZ16g8AvnuUqnweLzaCpLrIkTDSDikc/5+R5zigmxKuhSSl1+ga1imFIR/0NTUTDSewOv1k5efT2ZuNi63h0Swlr2YyNDei4jYMkn1eQ5HwTHErI01rdK4u9VqxCkTuG2NRKsX4MgfQdJVuOvp/2JaYffva8CJvr3GNEkw0hqqAsBVJtAamjbxRe5f2eBFDlmH7mQM0fJANZUiEys1Tlh3onJn0iJwMoFlRUK92xXNJbA7PZrsyTJyCECW8XCZmrVikZxoSZr0b0ssLq24KJ8mQEPjqj5PkjlTSVJZPJV7F7grfBKR6o+QtLmIJaXKFDVaTgo4jCaC6g8I/0XTG9kMDAdFder0y4l2iondhj8krzOAPy1dZ/YUowAr50SLXJ3aP+lQYp4vJFyJcU48yTjehFSGICaiT9bv0/FJYoaMteuYso6ApuPGLoAg50mARaYAeI2RHeNSPy8g/opn2dra2v6nwMi/PLwfDu/8kLFuCR93Wt1ms/wh2O4MEH58LGgXSjPZnTzScr/fP1h9rvVDCWoSBE0ASGux7SKnff+1KtdsAQQppeqGpIveeqYQUaxyrdnGrewrLURnkoJON3SnGGJJE1swotOSMTedxnWr7pE+m3LziozzLonoH54fE1zSn5MmSKXfy/x810/N/3e+WilLDOSHsgW7L7nuboGYK2z++0seRvlRvocdTyqCLenBHp5EvG45yYqbSNil9dBZJvu736/zZ0lQdafacVffgW3zOOKpQr7efDDzqrqTcGdrNUUIbJINpzNqCUYdCpAaEFP6HBm1MyxlGe3rTGq0EbTF6dpzb+p2ZjFnxnJOOXU/9tmvCytXbOXhRyexbk2AnIIUp4/sRb/cKLnxZhLhJuPDEBVhnyZaW1tpaGtj8NDhjDjgQDU0EqEwaW/IPHo8LhUsCd8RkvEIsUiYZEi4CSFcYt8cNz3/ZFwyQrHmNb4kmsXLRqGcCsszRbkIu7RAzPc1KyF9f5llKJME1qKxfifvJ99fxtfT8sdpwGa6E6biYFoXxmMgmZTvINmgjWA4SSCQpCmeYIujjKArl3337Ult3XblHAQDARobGghHYmRk+HV8UXQQ5CETCKFQiEB7OzEBR6FWcrL8FBYVkJObh8Pt0c9ta28n0B7Q7NPt9pAt5e0cHy6nG194GQfkv0yOp5EW5yCy9nqZuGcP3QR+zlJVdVWR0rZ9TdWKjyjsezMxd3EHmP4la/07z+2keKpMCCs47q46Zt0knYJK58rFd0V90qlP52pv+q7Un1mgQSpEWs912lVsS5MJ4fSoHLPJIjoD87QEs7VwfvDV02DfcoAxWbxWZ0Xy24ykC0gwUhw5KukuCVDHNqoE3l3VRxWpspKqdIzs/K1lwscowVqxTfVzTE1IM3/rfk7DJsMZ+L4AktwnRtxKvChsLodW7oxAXSfFW+szpCJugLW4ixofHX2eBRaMHok4ooouT9jSHPl1laafu7b+zwEEM+f+w8duq3FpdcJ/cUZMdtcpgn3v+UZUZ1ftwUQAKxB2VBB+vCTYEShViW53AMGSAbXeU0GIias/uH87H5oiz7Tc866nm9dYC1yPVObK0++lN6kABLPod7kZ7Xpny2fI+sG/BgjfDz67Bwg/XXb9uQv35z3PZAASTFypIIjoTGghgc3v4u55JzZPtnWedl233QVRBSj2CJnxGaSWXostWEdV6EDe/HZvwvZsvKL37xYPAnNDx2XzU4BgNk+txGLD5Xbj9XjwZ2R0iPaoBHU8QSQWoT4YIObohddXwqijBtAUjPDi+G+YMHEm7kgjI/Ys5eyR3XE1rCUvjrLBpWcd1YxPTGpSBIOtBGNhaht2UtvQRG5BEUOHDqW8rFwzxNbmAJt2bCfhTJGVn6sCTdleD36nCPcElQiq1TTNDqXVZQEEyZgkexGOgkRizfp3sfTTct3m57tAQqedx/KnSBMPzb2g4FnK0p1GWE07w1rQ6QKG2gQL18FGOG4nEEoRColPpQ/67s+mxgYyMwPK8RCypcgkNzc361RScXEh3bt312kPaZ8Ia1z4Ba0tLYTaWmhvqMHrcpJfUKjOkW6PVy9bIGRMqARsSuVH1AKzsrLIdrnoYp/FiMIXtD0XLTofd++/ERP/hTRBo1Nm+WPrVeuOtgieuj9R3WCnuN/NROz5iot+PJL8vFVvJlgsNVPZoKyYo2qZpl7aKZIZgSRdnypHbMTgzakXSWAjcqbKopJ0W2RbPT6VEDbvJptbIBiiemcD/qxMHXftIo62FjBQKW6Lj7KzrlZYvRQUFppqofqUCPgz/i2moGAlN3rtTcNGPzItHZeUNoSsQfFyiBFPtrNjaws9SnsjXQGZrtHqp7Wxq6eC1C10raXjmTGxk0ea4WIE8uw0NDcTDLXTpaiLrgPhrzW3tFBYVKQjsdpy6KT9bxRwDejX72HFb6nHbNlaia9LDwrcSbXwTp/PdCKR5uqkRdPEmK++vl51VQoLikx8l3a6+FZEallbF6NHRTFCVUj7A/2/GoX8NwcIJlx3zhut7tcP7pSfyi07b+s/dYv91E2pFWqrfG7eY1dFIZ2hd9rPv/MxadRtAoe52IoW08+yCF/ffV+zoXd+zo8f+3fPzw+/g3kfs4AM6NBWid4YFljZzcnb9V7fBQidj6OjCPK9g7Ny9x8JdL+sCvAzQ+JunrYrIAqtTc1Xki001y4gN3cf4l6x5DY3tlr7akk33bj5/heS58XxJSqx1f6e1NZPiKS68sna41nfUKJSvg6n6PkbNUXdOK0KQvrmlaqBaAbIBlRYWKRiPFJRkGxLstnmtlYq6+uJxLM46NAj2LIzziNPvkfD1kaG9y9m1J65ZLXX4I814xL5KJeXVCKlQUeINCm7KXtK9iEARXpGwu2QVsJOyaTDYeLxFA1NzWyvqScYTdIqtsWxKH6vi4ruvSjvXsaAshIqKsrwut1KVpQzIqZdklWJyZkABMM3MOBA+Q1S8+8gJhr9T+s26Wi5SAtsV+A3MszmP9ZrO8iL6cBnjIdMxc5ag0n5t51gVBzyUjSE47gLe+Mo7c3KzWvIyBDXSI/yKNrb22lpadHMv1u3LvTu3UfbQOFwhGAwoC0IkVEOtrXQUl+jRXiZdvJnZqnbpDj/BYIRwhGROU7qtcrJydQqQqG3jb1y3qe3fzERRz6p3veQKjiHlOVIavXJOkH2H96ZhpcUxL79H8Qc++LsciAxRJ7518MDc3/LIGaChQsXkLJnMXjInvidDrbv2MqqLZUcesiBRFqa2VJZScqTS5+SQtZt3ER+Tle6VuSov8e2yipqY1FG7DmE9p1bqK1tIRBKsPeIva3jM5yiqspt1O2sp3ffAYQiIV77eCqjB+3PG9/O4LrLLyUj4STmiNNQX8WmDZs48ID9WLRoAcuWrGHoyGF0q+hPcXYW9VVb2FJTjd+fR/++vdm8cb0S99pCMcrKu5LpTLF+62baW9sp7jaIipIM2tu2s2FbO7G4nX0GZnPzHU9x2x234iPE+k3VdOlepoRrNR5TMGZjwZJl+L1+9ujdm1g8TOW2rbQH26noO0SJqtU7ttLS0k7VuqWsb8jiyotPUQnz8ePfYNXG9dx5xx0kIzE1Xuo/YAj5ORls37GNkpJSggEzLdOlSwGrV68hGEgwbK8+/One2xly7CUMzHNRXF6m/i21tdU0NgQp79adLt1kpDbAhk0iB+9mr/69qNmxE6crSc2OVorLu1DT2EK/igKWzxjPg6+t59Vn/8r6yjW6C3WV0ei8nJ8RKn957LW1trb+8lf9jEP5NU/58drAv+rk/ZpP+q+95vul9d1lnf+1T/mfeHX60v/6gPQ/cZT/pc/Q8qOQN00GIXVqYXm7bC4CdiNJKzR/kUsVFcMfq6aYz5csS3wkIrgCT5Na8yj2WIC1LSczbUVvws5MNc2SfrtayEq/3qp2STYtWZJsMNnZOar6VlZWRk52thLmZIOVzUwy/tVbNtHa5qR84GG8P3kJ/mAT/XLsFCUbKUy1k+kyxkxCPJTpBCGEad9SwIECBGMdbnVZjX2zHr/hIKgmgF28D2RCQXT0EwoY2oLtbKuqpaGlhQxHipzcHAYPGkSfPr3JycnF5TSKkVo9l41cbKDFUtdyFzXiStZ0ghyTujlandu0I6c2vk0Oq0doERrNBIOQzww5S/+k+1WWK6CWWhUcyDSFjWDCRjgEdXEo3udYGtsb2bptIxmZPh2pFO8IGeFsaWlWgFBeUUbvXr20vSNgrF3spNvatYLQ1tJMS32dinD5M7LwZ2dhdxmuQzgUJxxt1+MTXYfcXD+ZWR765azlgC6fkONsJipmSgP+Tszdy+Td39/gOzthdlrMCo1ETVIcHVMZRO25Sl424OLX3pMptVK+654/c8ppp7Ftex3ZXbvSLzeTCTNmM2zYUN5/9w2OP3YUldu3c8xRB/DJ5EX036MHlWu30GvoIFKRdgKxOEW5XfC5Q6yt2k634grC7SHlZ/Tv3x+3M8ayRYuYv2QVhxy0Pw/9/R/c+9c/894X8ziv+zBeWvUl11x8HhnJELWVNbz+8WccefBInnjsUS668FzmLVjNmacezAOPv8U9t17PxzO+5oj992Pdxi3k5+bw9NNPctV1v2HtihXsMXgQvTNDPPLmp1xw2lk888rH/P2vN/DZxI/p1rOcufO3M2JYN76at4jrLjuDR559ndFnnsu27ds47LDDcNhTuCKN/PHeBzjwjEtp27aRoq7dKMn08PZ773Liacfx6tszufOmi/hy+hz696tg2dwpBLIO5PJzj1HC4aRJH7Ji2yauPv98HnjqVU496TA+nzydsWPH8u57b3HiSSexce16VixbTo+ePYmEwxSWOJj1xRLCoTrKRpzKwHwHKzduYOiQIfz1gb9y+2238fWsJVx43ml8PGUCXSr2YMm3Kxncpw/ZPhFYifPUq69xzujR1G/dRv/Bw8kJrufe55cy5trDqQq4GdStgFg4xl6D91SS9E9v5r+ivdvS0vIfgPALd6D//wCEX/jF/08+XcowZiMTa22xwRXTyFisnbiQ1pIe1ayPSG9PGcXpDfX7X1YqAjIml4M/NofEhrE4dq4gEO/PJ8sOZ3uiTJSAsNlCHZu+zrFrqdH0Xl1uF/l5+XQtK6W8vFz1/tObSTgSoaq6mqVrVrK1sp2YpydeVy7+HcvJCzXo6G6mB7IzPDicJhuSzEazIyG6Wn1n06M1YCbNcdAmkk7NGF6KTA7IZp6uT0WjluxtXCTKQ+r/IKO8a9duwOvz0a9/f4YPH65juCKlLJu7aAjIR5pWgtFUkCqCggTrs42UcbpUbD4j3Zw35VXTilB+gwIES1+hw+LbsPyVcicE5STEpGIiBEUp64dStLuzKBw+lCVLlugm7vW4sSlAM06MAhA8Hh8V3cu1xeD3+bV60B4IGIDQ2kJrUyOtDY1qQe3z+8nKy8Euro0JMa0S/YR27QU77B6ysn1k+GPslz+bvcsW4iJCPG8Mid73kHQZR8MfNAh2BxBs8q4xImTjlp6ysOTT4OJXEhRl1XoS7QTw8/WcOUx4+3nK9z6F/n27qGTzcYcMVyA295vVuBx+jhrqYJ9Tf8eMqe/SvmkWf3trA4cM68XsWTO58977iEfCPPfiP0kmPIz9zW+tyROxkm5ScuuKLUFmTXqJ92cs4NlxzzD96285r+cIXlg+nRsuPY+sVAsLF61hTVWUU0btB/FW5i9aS33QxbmHd2PYYRcza/pknR74x0MP0h6JMHTvYTz19EtMnDyFxVMmEbJ7OaC7m9fnV3H16CMZud/xvPjSY7z+5gfccP0Y4u0N3Pf3Z6no2Y9brruYk0dfwFlnXsR5556pxlJejxNHrJ1o0sG81dt44v77OOS0kzhuj35MnTOb8y45iQuueITbrjuGeQuruPGqk9m+eRWfr3Jz3qkHY49HWLjgGypra9ijXznTFrdxw/kHcvMN1/Gb2+9n8uSPOP2MM9i2di3z5syltKxCtTn23b8Xtpid++69k+Ovvps+nhTvfTKJQQMHM2P2V9x66++44w+3c8mFV/K7u27n7bdeJhWOct11N3PFRaPBFeOqm+9i3jeLWP/NF2wIejllz67ccN8E7v7DKE686A4eve92DtpvGG6nTFOYe2r3j1/e3rX9ByD88l3vPwDhl5+z/51XmEzVPIQMJx7wAWy0kWhYgdtfgs0/QNUrDWdC+Ao/UccSxbuUBzf12LffhH3zp+IFytzK0/imthcOvKTsUc3m5RHX8dldmurCni/IL6BbeZkChOxsGadL6fidZLU1dXWsWL+WjZsbsLu70L9nL9i6ntCOSlyJBBluyPbZdERNerpSOVCCn7aKLOZ62tlOWa2mstCR0Sr3xNIn0IkR6a6YCRwxo1HNgbjoDiSJJZM0N7dRW9GUkOgAACAASURBVFdHXX298inE7rmouJhikSLOziLTn4lTxztdVh/bEDGFAW7acbsaUMIv6OyUZ9oSCS3jd4yCpisKltJjempCDahTTnWVjCekxwvtkTitkQSu/CJs2Vlsq9quss+qZClTCskk4VCI1tY2bTlIxaa0rFRdTAU4yB8ZfRQhpZamBlrqG9RsSgFCfq6CPXFsDIXbVXDJZvPhdPjJznVT4W/lkJ6f0KegklDSi2uPJ7HlnEjc6TYTAt9/fA8gKIDCiYt27M1LiGaM0PeO2y0VUHn9fwEgeONNFPXei6/mzaNy5Tcs2haib/ccIiEPpx13EN8sWEg8JURLF4cNyOaQc2/gw4nvU718Oi9Mq+aP11+g1tuPvvgijbUBHr7vVmLxCI89+Rx9+/bjzDPOwOmM8flHE1mxqZnrLz2DQ064nOfHP8+s+fM4t+dwxi39nOsvvZiMRIjJ8+ezbVMDF513Mt98Mw+H00dzS4yTDy9myMGXcs+dt7N53Q4uGnMcn302FZsjh6de+YA3336bFZ+9TbMtg4PLB/De0s8Zc+Gp7DvsIN5843XeeO8Dzrv4KlpaWyhxhHn1/Zmcf9kFZNpDxBJOrr72Wt55913cQg5s38nwAw7no2lfUL1lKxsaahlZ3oOps6ZzyRVnMmyfC3jn5dv5Zn4VY8aczMYV85ldmcnok0RULcbKr+awpn4bQ/fox2sfLuIvf7iM31x/LXf8+WE+njSRUSeeyMqli1i2dBmFJd0YOLA/B40cyqrlS3hz/GucdPVd9HbBOx+/T8/uPZj6+Zf89f4HuP33t3LppVfxp3vv56XnH6euYQf3/fkhLhl9LglHnBt/dzvz5i/m28VzmbelkTGHlnPNvZN48oGbtXq4as0aJk76gN/8ZixFRcX/Qpb5VwCE5ubm/1QQfuHu9R+A8AtP2P/W0zVYp8tqMv8so1hiRNSKs2ECLTsjZO9xMSGRSk6ame80T+NHD1krEXFcqTjuprdgyz2kwkHWt4zgszX7E0kUqSmVCmuoDLI1qWCxk4XEmJeXrxtVaVkZWdnZCiAk8xYRn/q6elavX8+6zTsIRZycdNQomtetY/uq1ThjMbJ9LrI8KZzSYlBjJouMZhFmBTDI++kstd2Ahs4Zu7r1fWcoy5oSMAw1rXxIeV7nz1XXALWpDYfC2osPyp9wmKhWH1L4/Fnk5ORQVFJMnrQhhIehLQ0DEIyUsXmYIJPWOjBTQ1JtEGnn9ESXmVIwY5VCzJJPkSFbGWOTkVRRcIinpPRvpz0SpTkapbBbVwUzEWlPiI6H6IwIr0N+FonolIK0WaRyI+BGuCKGgxCkrb2N9tZWmhsbaK7fSSIaVRCUlWcssEUnIhQKEI2GSaU8en7yc1IMLlrL8YMXke1spt05DNeQcThdXYkJSfRH+QPG4dVaXobvknTgii6lZeMkMvc4n6SjR8fUkZ6vX9tisKXwxIPc/pe/0a9fH8JNLTSTx6WnH8q7H04mGY1gc3gYPmJ/rUDtPbwvr781AZIO3KkY/Yfth8sBK1Yut6aTRQypK0IsrNqxnZEjRzJs2HA8tigLF8zn869XMqBXGW9/+CXX3jiGtRs3cGzvgUxZs4DzzjoDbyJOY1M9702arPbhMlp6yMFHEmyLcvhBPTj70tu49abrmDx5FoMHlrF523qKuvTj42lf89hTj7Jo2geEXRnsV9Gfz76dzpmnnsJF51zAK6+8yNQZX9HUFqShtpojR+7N1JnLueSK81m6cAHBQDtLlixTxVapLLnDtTz45Gtkl/eGtibibidH7n8AC7+Zy9mjT+O4ky/nndcfZ/rns4nHA2S5nTR6yjjnpCPx2OysXbqcZz76gD9cdRVvfvChWmVLS+rqyy/iy5mz2FZTr3wduSP3GjqMxYvmU1hSQDIapGrbNg4ffTXdHTYmfv4xFeVlPProY5x73nk0Nuzk/PPOZfKUz0nExWAtyR79exFtqyfl9PHoE88z7o232LH2axZubeXcw8v4/R/Hcc2YK1mzaoXer9FYlCOOOlrblz/9+A9A+B/bijqDhP+7HIT/sdP1v/RBqhFskeAc2JJuixWQwJv6iIaVn5PT7zoint7YUx4Skv2L0dNPPWxB5TJ44jXY15+FrXE1gVQpU9cdzPL6CjKcmeCUrFhlZYzPgjUy5fG4DUAoL6O0tFQ3V8l4pZQtTPn6+gY2bNrEtupqqqobOXTvg8iy+Vi1aBGO9jayPW4yvDZc9oQqK4vpTBoEGBJW3BAllXdpvrcpeZsJmbTQUecJnPS4ZZoMqFm/VhWEsS4jhWYjj8aE+R+htT1MeyCkjO6QkABEc8PlUoGhstIydS11OFJqf51WltQpBWWPG6ggQEABSDyuACGZFMKjjHaJPkJMOQ7KSxBGuPBD8Ks1ecLuFXimDhOhuIhKeRScyJkW5oWqD8on2OxGNTIeV5AgngoOu5OMjEzlIMjPo9GIthkCYlXc2EBTXT3xSASv309mrlQQxPo6STQSJRKVqQ1RwAyTkxfi9KGz2bdou9rQxyvuJ9b1PCW4qtZAp9G4jmXUUUGQ8yCtLKeKpdH6GqHGrbj7XEWMIlPR6eBn/FoOAqqJIhMx4oyb7c8klEySn5NDW2uLtlXKyisIiYKmOhmLIJaNYFtI2y+ZWX6CIQFPAT1PeQUFhMMxIiE5BxEKCguUiOu222htb6CtPYXX5yaaiOiEjsPmwe+wE0jGcPrcolmKJxGlMRymuaWVstJSwiERJfKQ5Q9TVR+kS3EJ9bV1OpDgy/SYiloE8opKCLY06hoWQm97W4NugvV1OykpzCIgLaRAhHg0TJfCLjQFg1qVi8XsBNvatB2W4c/Q13sdYlGepK6xmZysHCXcZmVnkgiG8Xid7KitpbxbOW2trWo05vb6SDldZEvZDhuRZJL2xhYKC4sJRoV0WUN+XhG5riThWJzG9hB+v1fXns+fQUNDrVbSCnJziAbj2DOy8URDtCUibFi3lo8+mcyYMVeTmeHB7/eoNLnIegt/SbhJ0VBU+SnNLW0UdSnClowRCMUpdDtpaGvGn5VBU1OrrjcB6tIK/Nfk1l8BEJqamv5TQfgV29d/AMKvOGn/4y/R7rupIki5XeTYVO7Jgce+mLYdM3DkHITDP9zihcnGLgDhR8rE6fTPFtXfewjjbBxPcu1tKhO7rnV/Ji3YF7s7S019ErZmRDtNNzlLFc3t9VJQkK/gQP5IBUECgmzAUg5vaWmluvr/Y+88wKQqr///ufdOn+27LGyhLkhVpAgqoMbeTez8rMEES+wxxpioMZaoiUajKZrEErBjRCwBpKoISJHe2y7be5mdPvf+n/PeGXZRETTGkPx3nmcfYJm55Z33vuf7nvM932819U2NRMJxMtyZ9Mrvw6olnxCtryPd6SDNLYFXjINMW0pZSgVKIEtcCVVcUz+2NogKm0k5AelFT+7lVdeM6G3YfgjKZEoZRiX71JMAQVbsVF1TdTAo2WPpYpDygE1WFJ/7aMx2fky1b6an+xXnQdrBnE5Rh7Nb5OTVAQgEHNjHEic76YqIJiziMbkJHxFLo80SwycHGbJYi4aD5lDCWjHJEnjcSjZdvCeipqjVJSWZBQmJS6QiTFrE4jFFGBMyphxLQJotTJZQASbQ2kZrk2QQGoiGQ2pxT8vKxJJ2VaUomSASjqq2Ns3ZTt9uZVw69hNyjRBB1xD8w58n6i3BikZtATMFED4T3Du31Uk3hOXCZYUINj2HZuSjZU0kroeSQkN2icsWrfx6IMFWOhQ7c5GHtltWU/qvquVRh5gVVyZf8r1KRkZApbA9EvKdJ6XRFFlUfXFJJUbFZbG1PaLxKE6HhsfwEE3IMcXYS+aSS2lMSOkrIsc0BS/bxNhkA1eyZVLUDcWOXJQ6hc8i7YpxErp0zSQwdCfRmNMWcktKhouCRUyApKnhNkRDQ1MCVkJClOdWZrsAcmVVrsSeBHTaHBelephIKHltzRAjN11OixW11WdNI4GhhOpExEy0ceNKXM1WirTvxSXnVs+zjkuUHSWCSxunEEuFNJwCuoofJE3H0r5sd48pBQXJ7jkMGurrqK1vZNCgwbaUeWq9Ud+5Te4VoScl8yQGYVIW1J04YyZawkHCGVbXJ6qWyf6MZNfQ/ubLvta1fS/MWhdA+PKo9VlBkNQzq7xtvvWA13XCf3UEUsDOIqQWDU0Xt0afLW+qyHYSKPeFtGVrbpcPZIlxmeWY274LjTsIWkN4f/1ottUVgZGJaYg+u72jVAutrqkWR+lgKCgqoGdxkdoNSXBW9fJwiEBbu+rNlzSsLA5uw4vf8LDmk0+pLSsnzdDxGm4choXLkE4GISfG1I7dUEBBwIH9p907bWcRbAXOJDiwGQfJ/0vK5aa855ODm9qJqLGSgKACn0PV9m3lTVuVT84paCQm5E4JBKqDVyNm6CogC69i164y3C6X8iKREotu2OqcSrhWsgjqHDp1DS00hVzkdC+iuGQIpieDpnAbsWiQLI+kHCJEVa+xrbSpnCWTAk571ByT12+bStkaDWLTHImEicYEjCQUac3r8ahgJRmQQFsbLY02ByEaCuH2evBnZar7EqOqSDiijuGImfjdNVxy9HqGFe4moeegF9+KWTAJy3DZrpFflD1QbYdKJkpdnZIq1hKKKBuNb8M0fOj0IyHW5EoWXqR9U+qV+1vwv2Rh36MbcCCrVGeuzpc9YR3gRxFOJXbb6gaf+9D+j5hsuU6SOve8f68PprRgbKGlDsKrAM6UWETy3AcAppS0d0pfxtaAtb8bJffcWRjOxmafF3mzb7PjSpImcannZo8ejd0qbcsqpe4z+VnVsvvF47Wvb9vOUKd0bGzV2c4w9KuH/QNfRbXGxsYDmUEHfsR/4Z0HY5vjFwEEtXB2AYR/4Zv+z310D0BQgc6pvOlVrtUWZU0uAF8AENTClcxICLBAx0MYvfl5rG33Ki3Zish4/vHJcAKJDKU/L6BjT9rP0JWaoQCEwqICehUXk5EpbY52S6TsckPBsAp6EoTl916XF0fcYPuGraxeuQorFCbN6cHndOIyZJciJQYbINitjikVQ1tOW/TiRexIsg1KC0MRGe2OBjt+JBdZJVRjL08p+WclrS0Ey6RXh4hMiYGa+qjS8ZDALpLHkl4WeVuNSNykLRanJRChubVVcQEqKiowdV11EIg8sZACRfp4x7btyObKle4nt1s+GZm5vDDlzyqr4s8ooPjQE8jNNzju6OFYwSZIhJUEsNoJJ/sDlfNj0tBJdUOkdJWSJEf5f7vMECUaSxCORvB6pQvBr8ofsZiYMQVoqq9XACESDOIUEavMDEVSFAOrSMS2vrbCEYYXbuWyEzaT7mgnnjYOo+9TxNJKsOIRFbCEK2GDsr1fag1J7gwNy0mCdpWDUq2pKkC5iCdCqrtEdrC2vfO/c9n/us9f5xB20ISNr3sz9nxPflo92t/ILaVE6b94k7Gvb3VfsU8u70vymXsAy780CF/y4S6AsJ+R7cog/Lum3n/2uJYuJi4GsdblxMjH4T/EbhdUi/y++oVlBZEShP3/Lk3SfmuxSm+EuuWE43nM3Xkyn5YXozu8aCLvnAyyEnDcPq/qYigqKqC4sJCsbKnX26BEAIJkDqRbQJkXyefQ8Go+GuuaWL5kGbUVtaQ7PfidLlxiMCMARLIIUm5QZQaRk5bUo+0GKLslSUI6k10OKhMq7xOmv0rFSsbEBgmS4ZCXAg/JpKiAA4e8V6TpDK/iAUi7oSITJqLEdQehSIL6+nbKmtupCcYwxKfA6yUYCKqjOByyWzeJxaPKXVCcTTeu2UR1VQ1oftBF0jhGt74l9Ozdky1bdxGJtzLqqBGs/+hTzj93LGMPGwRmRKWQO9Luut2BocgVHQp/9m4r2T4pRMeEqVLe4soqBEufdCmkpSmOhHAgBCA01tcpkmIkGFJqid6MNNUqKXWUSET4CiHStTouGrOOIwc2q4yJVXgHRs/vEzX96vqVCqGUbZLj13l225td+SaE4yKtmC00V+zElzMQzZGnyhhRXVL+khqX+WW35Xa9/jtHwH5yvxhtfJMA4dsYHa2hoeEbwU3fxMX+t2QQ1AJ60IzaNzHy/z8ew4NDi6K3TaOmeiN5A64mbubtUYnb94jYOQhVnsDAZzVD3TOw8wm0eIgtwdH8c/VwWqKZyZ26rTsgtUe316vkZYsKu1NcWKRcFyVYi4GTpOMlkNnaBXZHgXAZRG1PLJh3bdnNlvXblMWwCKIo5cYk/0Boe04zoRz8DEsofGKEJTr/tlSyXKvKJKg9blx1QKTIiSJDrMSUpANAdueiBGkLLNj1XBxEE1LndxBDo7G5mbrmZtoiIXZU1LB8vVjothIUHoBpaxXYcge2e6OljHPkFxF0PUp6hpORo09g1BFjCUUsSivFlrieaCzCuGPEjfIQPB6NUSMH89Gij6nevZUsjwsrHlacABlLW87W1l1QXRmdbLNVDiXl3ZDUZkgBBPm9z5+G329nEISnEGhrpbGujuZ6GyAIK9ybLkRTaXkVR0cTKxZhdPdPOW/sVjL9YSK+w3ENeIpo2nDikVDSYEfl2/fqEUnNIXE8FflqJYetBfGE36dywzoKh/2AmKNAkS5F9cpOo3/ZnvH/x+f0v++eO/PTPnv1XQDhX/g+uwDCvzB4XR/9SiMgu2tpN3PFt9K0+VEcPa7Al3WEKjXsq5bccQJpp7P3qi5Jk0fWYu2+Fa16JSFvHvM2jmZ5aV/QvElhIl3tSKXHPq9bHoUFUmIoUmqFEqglWEk9XDknptL8SeAgYERY+IlIgsbKBlpa2tWOXxwZpZ4vcrdiTSvOdrK1T8TkvVHMSJBQcwtmLKwc5YToZGhSerBJXQJK1Oc1GyCgOxSgEdNeMdcRfkAkGqapNURVW4iapiABIeuJzbHDIGyA25dNbm4RaWnZeP1+pVevfA4iMdVmKCTEtkCY5oYGgoF6LFFeNA2lRpjXrYicbtl4M/z4M/y4PE4lPx2Lmbzx8lQOHTmKXr27U1W6FT0awaEsxjsbSyYJlZ12aqnSh63QmOxosGyiYjxmlyCkzCMCVdJ5IeWHtrYWGuvqaamvJxwMKhKeKCkKSUDGNRxO4DPX8v2jSzmsTxNRy4Pe8xdoxZcStbIwzYDqHhHnUoFgX2gaZzkVMLMzNLtp2f5HvK4BeIouJCraGSprYPM6On6+0nTuevNBNAL/UwChvr7+oNkLdwGEg2iW/49fiuyX48Lgt6K4Wl+kobEPOUXjiKsOhP2Rw1KEIdu/QZZ4LfwXQivuxOOEmuhgXlo8mNZgkWJv604dw+XEK0JD3bpRWGiTFCWDIEFNSgopgNCZC5CSHVaMfNkNxxI4hTUuAU9JLAujOq4MdURdUPdl4vbnsa20jkXLNrN19RZCdVU4wrWkuS18aW78TlFBlI4Dj5JOlsAulsdS4lBZA1GDdAgAMnC7PGR374W/R088Gdk43T7cXgdZmem4DQ/uNC/RqI4Qsct2lSsDsJz8PJxZGYonYAofob6FXdu2UFm5jQVz57Fl3VYS8Xo03a3OrzvScPnS8PgylPztxf93GWVlZSxc+DEnnTiGvOwELuFTqABrM+FTrw5fBxsQKB5C0vSnQ/9B6CHSphlXGQNpxUtPEzMmlzIUEj+Gpvo6WuobCLcLQNDxZgqHRMBXgnBbDUf0/pjLjw7gIEIo/Ry8g+8n6i5QIMo294mqTItc5ReYj2BaLlUxcEtLYXgFLaUL6NbvPNr0njg6ezd8M0Xw//En9+C/vS6A8G/6jroAwr9pYLsO+/kRUOl3VXzHsFqUCiKGR4md2Ea1B/rSMKRtTa+Amruwtr+BZflZVnk0C9YU0265MUVt0ONSqe38/HwKCrorZb/s7CwMlR7XCIvlsuTnkxmEFDhI2ZCndsW2A3LSjjnlbadUCnVK29w8OuVDtu0OYbgzyfLomC3V6NF6nI4YxAP06pFPv15FtLe3UVhYyN9feI4JE46hf98+eD0+fLnpOKUVUPjpphNTc+Bxe0nze7ESEUrLK/h0+Tq2by6lqjJEXWMViWgLHrfoMojXQ5hI1CSOD5/Hi8eAaKKVrBwvQw4fzfDDR+D3ZlC+u4rNmzar3vyWliihtiCxaCtRy0uvwcO57kcTKejuYcfGtejxAIa6x2TvWuqr6QQWlLBScgOuxmePXLO0TsaJxISoGFW+DD6/D5fTpTILIqijSIr1dheD9LF70nyKUOmIRclzfcJ1J1eT7q6lVSvBM/QREmnH2toWySYzeyYJZ/2LNDRsR0SnIa2k0v7Xgt4eI+7PpD3uwLWPzocDnX1d7/vfGIGvQ1L8Nu5cq6ur68ogfMlI74uk2MVB+Dam57d1DqnUR7DE6ljzo+Heo794oFcgTQuexMdYW+/AbNpOTO/F7NWHs2ynj4QrB6ffhc/vTQKEAtXJkJOdrbQCZLcrBEXbH6GTb0Ly5AospDQKUjvlZABMqJY+G1iUNnmZ9sFmenfrzuAh3ejdowAtFqOxvoG6hjqlsyAN9pJeF70FCZK7SssZPGgQoWCQ0rJyIqF2wpZJS1uElqYI1RWVBFoaCQdbiQXrwcogq9tA+vbvS59exWTnOsjJT6NvUQ5paT5C4SCV1fWUllbQ0hwAM0x2TibDDx9KXrfuKvCq1lLhNwjJUEoRikQYU9fQ0Bpmy45ydL2d8WNHsnvHdvzOCF7poVTuh6nsjq2tYIM8aZ0UvYdk2WGPORSqbCNjKx0Mcg6325MECE5Vugm1t+9RUoyGwnYZIs2vMj5pWjmnDVvM+N4tipAZL5qEu/AOIrrkjOxls3Ou6Yut6KXdw6VAKNLzL4JKmg9LNABMJ44kOfRA51nX+/43R+CgBQi1tbVdAOFrAAS1rB80I/e/+dB8G3eV6l50mU20NryG2zMOT9pQWzZ3T014P1eiepuduGjH2fpHzG2/wYiaVAWHM31FP3Y35eHMSMOX5lUlhoICAQg9yMnJwe10qCApRDqpiadMlYSX8NkUegokKPGXFEAQQmKSlBfGj+HJITcrTXUlrFpfxcIFS/l05VpqS0uJhpoVYdAyxfI4oFrqorGQsi8OhkwCoVZikRCa04svI1Pt9EcdcSQFPbrRLTeH3DwvGZku/Bk+CrpnkZmVTkaaF59kKuIW1TVtNLcG8Gdk4c1wE4qZhNtNpk15mQUzXycYbFHaBCJkI90N0gbpTcsnOy+PrLwcBg4ayLDhI+jZs5BIe5siB5aX76SuZjdOPaTKOUrQSQCR8s7oCNECkmzeQcol0n44lZyzqEBGRRFRMggC1HxKm8H2wAjS2tREY3WtKrXISzIILleMowpXcdqhW0lzRwl4D8dxyK8xfCOko9Xu+ki14ievJJnj+NxkMYXzYZZhNqwjouXj6HYYRlz4CsZXylV9G89D1zn+MyPQBRAOYNy7SgwHMEhdb/nGRyCqO0mzqtDr3yEcNPH1vISIlUVcE96+TS7b70s0BiwHXmsDsdJf42ieSXvQwZaqIby3poSIUYI/00O3/G4U9SxSQTc3Nxe306kUCVMAQUCB4RDnwKQmQ6eMQeoaVK09CU5VBkFkDSUYan6iWjeWbWpg+jvL2bR1q9qlt9SVEasvRYu1qRS6aCzkFPaivbWJEWNHsXOLdEeEuPjKcznu2ONIz4KsdA9et98WZXJJS6e9O2+NmrQ0x2hsaeXjxcuZ9/5Stq7dSUNrM7HmSlsxUQkrSaD1Y4ab6DNwFBdcdBqZaW6CwRgtLWE2rK+guqaeqsptRBNBpQGRCMYxrTD5fXoz4djxfO/0Exk7+hBq6puYP/sdHA7pXrC7FlQHQ4qImNzNp0BTZ/6BylAkEgocRKIRnE671CMGTjJuomApds8N1TVEpc1RWlfdUfrk7eD743aSl9ZC3OUlWvQwesF3wfIoQqgI63TAE/vv+wIIlhHHry+ndv1UsnreDN6BSilRyKP7aofb73zresP/1Ah0AYQD+DoPRoDQobyX5BenFoau7MEBfKP/HW+Ja27cQiJLLKO29EV8PSbjTO9DQlr0viJxzDTC+NtmYu5+AKO1jIRVwAdrB7Bg5yG4swrI65FDQWEBBQU2QPC6XEpmWIKY7HQ7AwT5u1ggp4JhZ4tkCW4SHxOS51CsfYjEHbz3YR2bG6LkZGXgSLTSI9tPbpow9514fC6VFZFjlvTrh8Ol4XJ5lO6DpOK9Pi+xaIT6+iYaGxppbmkn0Bog1Gb/WVVZQ1lZJZs27aSpJYQ3uxuFuQUU5vvw+C1cWWnk54lpk4NQSyu52bmMGDGMkpIitERU7dqFA4DhIKY5CEd1YmaI9nCAQHMzFfVNNNUGaGhqoiEUobquiVyPg+NHDaVyxwbCwWYSZqzDurrT9OrctfDZvwugkvKCZF6EnCjgQHQQ5BWNhJVhU1NtLWY4gsgfdM+u4opjqumftxtNdxDNn4yj103EnPnq/CKhm+o36Lxm7QsgOKghXPsyhHXcPX+IJbRWpZtgdAGE/44l4t9+lQctQKipqTloQt1/A0D4jD3dv33idJ3g2xgBIeVJG2AzibalmGYBzswBWJaHhARPWcoPQMpVrjSuW/isEI7IPzA3PIwebiAcK+atdRPY0tid7IIe9OiRR2FhD6WqKP4FItgjqXBR9pNUuWL3JzXvlelQTMyMTNU6aBsc2e9XAKGTB7xpJWgJZ5Pbq4SevXLRHAZtEdi5u4XyHbsJVNUTbm+jvrFWgRJpcxQfiUS4nYzcXJrrW6mv2k5tbYj6FotgNEI40EI8FkK3ong8Or379qPkkIH0L+lLQXEOgwb2pqR/dxxeJ7pm4RFFxSg0NoeYMXMRqxatpLWpgvZ2cDhtuWnd4VCtnXJ+wy3AxWRIbz99+meSpruJWzm0WR5aQzour4c0LcYnSxbQ2litWjmT8vg2L2PP6rX3MmaTOVO/s8sOoqEgAEF5T0ibp2j5i2NjLsBW8wAAIABJREFUWyuBpgYsK0qWu5KJxzVz/LAWhGpJ2sk4D/k5Ea0ESzf2dLikNAv25iB0/EupOiq5XgMnTTTWzSA9bQyWrz+acCmE1PiNqfd9G89I1zn+nSPQBRAOYHS/TIv6AD7e9ZauEfiaI9CxUhumtNVFCGseHLqLuBkjqosIkSgXHsjhpV9fwIYHd/M9sPlpBT4aw4N4a+UImulFVo98RVCUDIIo+6ngL6ZAsYgi00lng5xMyg7hsHQFRBUwULvguBgbiRVzEjQk7OAnCowWYQaNOI4ho0azaVUt0+d8wMJPV1NfVk+6J1cF05aWeuKRdqyEaCeAFW5Hc3vRnG7ibe24ctMZOnQwI0ceSklJH3oV59Ij36uMeSSgS3ZAWvNEJkpMbRrqati6ayellbWsXLmRDR9+QKQthOnMIohfWTSfcNIEjj/xOMoqalgwc65SMY601FCx/RO6dc/kjH55DMkWBYZm2iwLI7cXjuw+NEQNGi0f8Vg7H34wT5lTqdZOU3Qc7JKHLcjUQQiScUh9UfJeednqkKL5IFbQTiWG5HQ4FUlTNCCCLQEi0Ub0WAvnjKvk+yeHEQ+/iPsIPAPuJ+o5FF3MiMQlMtmpsL+pIBkCZ8IWmjL1EJZ0hKgoICUr25Cnw8Ngf0c7kHnX9Z7/5hE4WGOfdjBlEA7WQfpvnnhd1/7VRkDWcEMa++OVWKYLzV1ITIn/J7eE+z1cSuxXw5dYB5UPES1fqPoiSpvHsHDrQJpdfcjMzsHn8yptBAn4UjIQa+L2UFDZHov8roCDYDCoiHQCFlKZBsky2NbItheB/Xlp84uS1nM00fSBlG1tJGIFCGtBHBVNZPm9eDN95PfrSWFxgZJ8LizMU4FWiH+5WR7C4ShFhX68biU4jRVLEAyGCLQGCYZiSjgpEAjT2lrGsiVlzJu/hOryesIhC4/HSVa2k7TsNNweF0U9e3LMCScx4chBtIeb+HjpSsaOGED/Hrm8+/7HPPPEH7l+3AD6+erRWhsJhqKEYg6a4xHiWd3IGzKOwsFH8OSLb1FVU8nWLeuVQ6ASuDLFX+Izq0UKKOxJ8dldDtItkSJ+yifEFlfKCwIQBCy4JFsT19ASrfTPKefWiQ306ZEgruUQ6nkTztxLsHQfooZoKhAmr/3LIJuaiTssXQtVJBxZWI7ML5w5B036dr/zuusN/84ROFhjn1ZdXX3QzNEvw9EHzUX+O2dJ17H/8yOg6Tj0VrTGd4m2RXAVXIglngFakITmPgBGQscslv2mO7yAROkvMVq3Ysaz2N40mvkVI4lq6Wo3LoTBRCyxh0jXHgwlDYJihEJi4GQ7PCo1xbgAAunxt2WGpeQgu+iEspkVkOAgu6AvV11/K5l53XD63Mpi1pMQYUDb+lk4CO2BNhqb2pQDYX63NKWW2B4Ok+Z1E4la7N5ZQdWOchrrw9TWRahraqItJEG8nbbGegJ1pWhODyWHjKaoVxHde/Wg3yG9OfTQ/vTK8ePRWwi3NdJaX0esvo6y7RvZtW09o4cfQmG6zoxPynhx/kou6+vjOwPSCEeiBCNiyewiZCZo9mZTrxWyq0WnKR6mT0kJq1YsZ3dlpbIqVjwNTbo8ksZRnfFbspPBloq2Ta9EddIQlUiH2D0L/8CB2+VVfzfEsjjeSv/0rVx2WpD+Be3ETQO98ApCfX6EoeWjCd9D83RyE9yXV0fH9LW0GJ7YZhoq5+LLOxuHv98Xuvh1rWv/+Uf+YLiCgzX2/VcAhK6H6GCYwv9/XIN4H4SNGOnRJbTvmo+r+5kkvGPQ9SCWUr37KulgDSftOMJzYfuNWK1hLD2bNU0n8GnTQNriGWhxk5hSMoyqQCl/hsLhpGxxXIn7hENiV2xzD1KKgeJtn7I0Vn8X6pxl4EvL5Jqrr2fG3EXk5xfj8qSzu6qK8ooyIu1BEpYbK9pOY0AkmHX8mWkEI3FioTC6W0iMTgJV1UQad2Alojh8/cnOzSSnwMehI4fQIy+Dnn6NPGeURGMNmfmZZBXkoesJ9FA7sZoaCLcRDrbT3NqCMxwkTQ/iFZEg08KMNLI+kMazK9sxK7dz+/mHkuGK49acuKXUYTiJam7Cmp8QLuKuBKY7k7pGjX8sWk9TKEBc7jaZTVCGU8kK0WdtdAVACCgQQCCmUx6vR4EC4SK4Pen4XR6cRoxDMtfw3ZEbKcqRFlAHVv55aH1vI+oqRhEFkrLaqSdAtVnuBypqZhPOxsdpjnQnvcclmEZXBuH/jxXk693lQZtBqKqqOmji78E6SF/vK+/61H/jCDjMGG26E6cRRq99i5amNvIPmURUnPaSQkZf7b40xWlwRP6Cue2P6MFGImSwK3EhG1sOpzWI8k+IxaTEIGAgolQV7bZHsSuOqd8rYmJc2gDtunsqk6D+KYFXJIMMHYfTS0nfEbzy/g6ibe00lJaR8Glo/gx0zYlhavhdJpFIsyJIapYbvz9N8QtEvtmbmc3goYMZP3Y4/ft0w0qEcSZCBNsq8bkSuNPd5EQjNK5eTqG/DUs3aQ22Yjh00kVjwBATbdtJUhaWhPgvyLglpIsgRjTYTsDK4M/LWvnbe0v5/aVDOL5/hrqnSChi1+hNi2jcRBN7aadGRHMSpZB5FW5WlFYQVoJJQlC0d/L2AtZpGUsKR8lvHU4jWU5wkJ7uVyUd8cXweDLIcEI391ZOLPmIouzdJIQnkHEGjpJfEHD1xCFdLMq+WX46ERAPACB4Iltp2PhrcofdScxRsu8WyK82mbre/T86Agdr7NO6AML/4oyzt1SdJ92Bo0B5p63u9597JWWQbfX95GV8lZ37179yYa6LzHBUWO5aPR5xEaQQS5f+96jIEiVjxVcZIwPDaMJZ/xxa6Z/R4s0EzSIqrXOoNI8hGHep9kJR/LNLBcIxEDKiXVKwCYp254KtgWB7D6idbLK7Qv6QkRKvgQnjTyTd8rFkxVK2rFtNVXUtbS0tyiypqG9vHD0G8PGypRx7xFAG9+9Lv6LuuPQE8XA74UiEHkXdCYpcctxBc/l6Ys3b8cYDOKMt9MnOUjEz3NpKWpqBaUaJR6OkZeWqHbpILYvmcUtLs3KdFEKjoWvKrdIQUSjLgSPuYHaVg5umruHyfrXcfMYw3EaEWFTaPHVVbpFyiuZwEXVkEtV9hM0c5rc62dwUJRGOqJJBBznR3uWnZojtTWEqECGaEnIdTqehBJJ8PuFYeMhy+uju3sqQwiX0TluHLn4NWROwet+M6RuBqcfRzfQ9hEd7RiWhSCcA0nmm2bPWdsV00ogerCbu66NEtDqEnfaem9/EU/a/2gzx9davr/vs/2dH8aAFCJWVld/EHP2638penzsY2xy/kRtLHqTz/VlJDTUJgLZi34G97Aapzu1UsjjaQUPtqtRhxDpW1jbVbLWfA9vLmjgbynENKwSWXwXC/X3ys4tjByv7y05pH3XPtamWr71fci1xW2sHh9LglxGy0/up99pUwNRr738d2Eh+/l17giwxLEsjJoR4M47bNJQPgQMfCYeDqBbDYUpNWsCEbdyk9rJqjelorev4vi1FcHObVRiNz0H5XyEcJmAUU+M6j0juOSTi6SqAa7rI9CWpcAmxG47aBMWEAISUaqINDuyUurTribqgpa5DN0z69j2EXMugfMVi2qp3YAXbcJpxXMQIaC5eWh1g8eqN/Oi4YkYP7KGMnAw9oer6QgCU+6rS/Gxx5pBZtpmBniDZbnGBjBNoD2A4nLhFMCAWJaEZNAejZOV2IyMzUwGYuJmgtaURvy9DWVbLK9jWitvtwnB5CUc1yuJeLv7TSkb6a/nxWYdTlONVIEjAgVPaD9EJJwxao052t1rUhp2sDbtU26PbimCZYlTV4drYeW7IzJChSTaD2BbaGjjcAhDc+D0mJWkVjClcSrfMctxmmKBzNM7+txFNPwJNdynyJsk599mZ0iHI1Pl/TCWeJK6TEUvErnwYyUyPQIZ9wcnO8Hffz1vn9cGGzF/l2Tzw5+E/GyTt69zXWvjV73jPqqA+2jnD1OlYskZadpdLx/kPfD0+8LH98nfuO/bt63++mTVvf9evdQGE/Q3RN/f/HV+1jm5GlTtcRCRfE2IYlJKOPZDziRWtgW7FcGghTN2gXbzuSSjGdUIIVYkQumr5+rIOW1m4BApIUJJNjgs9bir7WmnnSoGYA7kie7ruj90tD6GIw7RjKEAi5kjiHNj5DBJynYqRrwCPJrvSGG69DU2Cop6uVOg+/3js79wHchepBrQoluUiqrnQrQie2HKayj8kq+j/iHkKcZoODKtdjV1cyeYYSYa7AIHUYpQavc5XKj3xdehNDxHb9hIuXaM97iWUPQlnr6uVeiNmXLkiqqU6YUswCw9BUvVK+0B5MqgQqEoLqgav3i1OhiLV7CAruwdZrQEqViwiWL2VeKABj27h1eK0u3P4y/JWFn26iTtP6s6YPqKWGEHXTZxSgpCygGWyI+6lrnAQYzMcWJuXgRUBQ+aKidOfSSgax5B2R4eXpmCE/KJ+xJUpkYA6F1rCVDt30WmQbIR4JfjcGsFYlNYI1IThd/PL2bx8KUceUkBuuoP2QIDmQJDqxna21NQTU+u0Q7kh5g88gpL+vSnOz0QKDpoVRbgXdr5L2gbtV4dXw95R1JTuB2cmuc4AfTK2cfLAjRRklkHcJOAYhmvIXcS9Y5SIkeg5yHjsHYblDB0TNZXJ2QNRhe8gmYLIOzTVB8kpPB0Tr4K20m4pIOHLZqh99M5BKnXkFN/hs1DCfq5VfPvqsXPPwyBAuGPcUgDh2wk+n38i93Wv8s6vYqC295HVs/Jl5jkKIKR+Ot/7tzcOe8+ujuv/Yn+PjjXmwFa1r/8uraKi4tuHS/u43v8/Mgh2BiBcNo8dG9eTPug7FPUZqnaNstinZHP3DJHsfvZsTG3xd9lhG6ZPsa/rdi1ie1k9Rxx7CrU7lrO5MsBhY79LepphBxuJpqmtlDqoveuya8QJ5XmvJcJUlVeQ270XOi2sWrmE7sWjKe7TTzHlRRTGXng79W4rwZpO1ybXvtdCJdNKIlnqs/ZSLkcItm1k3YrVDB10LFndCtVOXfrqpT4u65UEKT1eQ3lVLWl5A/B7TXZvWUBV+S7yio+k/6CRNpM/GR5sfQL7XKllNrXLsjMraglUC7Qs1HYyWn5S+7qki+Ke7Ix95DgC3Jx4rK1Eq1/DjBXi6nM20UQ6cWHGi4OgHpW4qQCeHQaSpDl1ttQC03lx13EZu9DqnsXa9Qp6OIBIPYe7X4az1xWYzgEKAJiSMYjHVaujCCgJFyFVflDf4p7+/9QCL4HdYNu2OtUF0dfvoW3nFpyhBsV78DvBY0QJGS6mrgrw4Yr13H5yTwYV+XDoUaVz4FDiQRLhndQmsil151OSbqJXbyBqxtHdDnC5qa2pI9DWTp+SoeDJYdbCJazeUUNDcxtNLU00BnXao212VksZMGq4HdI9oNEWEXKkeFeIBXYOmdmFBMNB0OLK9loIhXFTJyJkQUNKMzJHE2hOF1lZOfQrLqB/r+74nQl7fss5Up4InxOqSAU80UCQ4+gckr6CY/puojC3BjNqEc8Ygd7vWsyM44gnPCqLYpMSJSfUOWB3zgfZvA870dPx3fpiH9Gwezau/GNw+CaA5klKT9tPzr4AgiqWKD8NsdsWvQ1p5ZQMUUIRRZWuhq4RN+NJBUj1hCjBpQ6Asndm4YuyDJ1nYepzkiFTPBZdso62rTiaCEnZ9/tFn/ls+E1Cs71+vffnPpuZ2FcORMYgbj818YTkxrAcziQH1X5W7TznV3+lspuWZFtNeZZiGIZLbaCkBCR6FZ9/2SZpny3Xfn5UBKwn0JLy6Hu+kz0l0i+64r3BYGp2qScmYc9r5HjqmF/0+eT6+tWH4it9ogsgfKXh+vpvtkOSrtjXhhVg8dOXs339BvyHXsJZk39BNGHiFosgQ1z9RNzFCbqfqBVDN8MYirbtIREL4XC4SER9OLVm1r/7KLPnruD6J6dSv24+2yoDDD/6Etw+2du2qsU5FvOCw4eGfSzdYYrkHwnZixkREpULeevvr3LWVbfh9zlZs2Q5Wb0G0mfAkcTj7TiMKIbmx4xrRHUT+bjDCmO5HGAG0c1M4rLjTukFqOXLgVOY/w4HWjgsN43kOPREmNbSOUx56glOvOpe+g4ehUuPghkCPYeY5cEZKyW6aynTpr/HyZNup5u7lhcfuw134WiOOP4H9Ow3HLQqLEc60YjHDipWHKcKJpacihhhdMuNLossMTAyiUfA5WxXColxzat2tfarY6cgAV5MgeQOEnqEhOwozTCu2KeEd7+HN/804mmHY8riopZ9IQ4KztdwqBqFvaOXHYu9ZH/2QRYgJKZD1WgNz6KVTUGLthBypBFJPw1/3xuJufsoomI0GCUYCtkZhKQwUmemvg0S7MVDSIaBdj/vzt7Fmq2bCUXbcIUDpEXb8cUa8bsMfB47EGypNymrb+So3i4Ksx1Kf0FaAeU+wkKOlFJCTKPJNDj+uJMoyElj+84yahqrKS2vZPPGrYRDMXp0y8HhdlFRF6AlZIGUE6T0IGBP1JAk7inCoq4CpQQ5AQFipx0XEKRq+bIICqiyyZfyIaUiKW2M6omxrawlM6I5HWRlZDCwpC/DB3fH55LxVukU2x3yMwDBoY5vl88cepB+3jJGdJ9FtqMWLZ4glD0ao881WJljschUHQxyrg6A0Pl5twE1SKurKGtKKc6lvmfpqtDjrUTLn0R39sFTcA5xsuzSho1Nk8HtM+uHeDFYNmhu2vguq5ZtZtSpV5HTI08BwnjDWuZPf4Uew49DD7Sxo7SWsy+7BF3PsgOXJuJN8jeb92AhgU6u0S43iY+I/J+uJMN1EmpOxmw/CZWbiVG74VXWb6hg2IRzcLfsZsaM+Zx4+TXkdy9QoFv8IuRUkqWxAbVkL+3vyVLjnQTXat7bTR9q1yv3bsk3Ld+RnF98TeznIhV07ZCfBLiq1GhhiiBVuIqlr/8dCocx5viz1IYBy1CCZbLEuEwHkhGyNwOyUegA5TYMk7MmM0AKRNkZJvldzIjTtGUhH324kAlnT8aX1xtJFjnV5dvOoPKdiI6FOG6qO1bPtV0qEyDbAQDUbCHSvoWtW3czYOg45VYq4NfOWMjd2WVIhymfT6jxUfBIZX7ke5PsrTs5unK+dio3z2XNp7sZceJEsvLyPjevO9asbyZr+mVRTSsvL+/KIHz9uH/An1R5A8vAZYRINK9l2iM/ZsAhA1iyZgfn3/w86cU5OGIb+Nvdt1Mw6BhKd20mM72Qk668lR7dnMx97nEqGttxuBM0VVRz5sQHKBzWm7KZDzFr1mquffIVNs9+gY+X7+LS6+4Bcwezpz3DhpVr6Df8CE64+A5yMxKsWzid2e+8gtPUOez4iYw78UwWPnsT5Ru3U04ul026imXzP6bbiPGMP/Y46nes5r03/s7uHRWMO/VKRp14DhlGMwunPEoTWdTWbaetoYKTLryfwWOO3MP3dpkm6xc+xjtv/ZOhw49i05qlDB13Bqef80Payubx4h8f4tQfPkBhcTcWvf0yyz5ejD8tl2PO+xG9ctqY9tAvML0QKxqFUbMDZ2A7te5BnHnN/QwryWD+G79lySfbKC4Zyvcu+SVpmU6WvfMQG9eXEUiY5Bcfgs8MEo+00JpIEKqpZtS4M9m2ezsNO9cw8px7OWzs0fYzn8pAyOJmOTBU7iCuFtSolDiQ1Hsb/vgmrJhB3D1EfZem7kzGNlOhfvE0kAVZLRupVWCvTII9XWzn4hi6FcBoew1r22/QpIQg7X3e4zFKbqFN7044IBbIMaLRCHG1q9h7QUgttepchs6WXRYzZm2jrrWFpuZGIu3NRMShMRq0EyzquhI2L8AMYwkoM2M4HcKxEAJkgogQBJWJkIlD00nzuiBSRzTqIuF2EVWZDFnlLGIR6TqwcLjcuERTQCkXyjKfvP9Odd+UYJHiTiR304k9K0/nVK7wBexgL0eyf2RxdaAZGpmZGeTldWPoIXmMPqwEQ7M1IcTjQSknCihJaSEgCpgevFotWa4FDPF/TLrWTMyyiKd/B2ffO0j4B8idJgmfdiC1EUeH1oHKJmkGRiKKV2tAi5QRj9bhMDIwfT0JaD3wiVpi2yYc7oFEtCxMvWOHb8+vL1hmNRNpq5X51bZ5Ku/87UnGnvMwQ486SmX1Ns36De+9s4jv/vgB0oK7KS1tYdjpl6nSlGG1gfBVTD9hI424buIxY2iJiMpuicW0y2ohhk/ZSxuWiYtmxamJW+nENCcuPUzFR/fwz3eXcepVD9PD0ciGJSsoOuEKuuWnqxZcS4+hmeJs6icqDpxSfIyFbVite4jrvuS8TBmGyTyVrFsbGhE0UcLErcqYTmVoFiQs2aSErU4qx4gJ/8WKYSQioDmhbQOv/vpqAr3O4tIb71ZgTgBC3LDwxGIYVpyIkaOCrzPRrKy4E4Ybp9mGLhqYaqgF3PuJyqZKj+FOxHAmgpiGQeknf+Xdl6Zzyg1/ovvAofjiAYyEA8thENdkLmgYeptyZNU0twIFcVVulAAeA2m/1ZzEdB2P1cCWj/7MkuXlnHXV70jLzEI3G9CTz4ip+wjK+3QNV6TNvj8p1+lSdkvHlOMaAuICaHEBE02ULn6CWbN2ccJVf6BH3577UHD9ljIIXQDhgGP8v/hGDd1y4LIqWPXer9m0tp0zLzmfd/78M/IPv5kJF52HM7qAF2+9Gq3kFM4697ssfONBtplHcv2Pb+ST529lydpdXHzVfVRtm8vHi6u44Ce/oWXZc8x6bwWTn3iW2sV/ZskntZwz+Q4Wv3w74UgmJ557AW88+0uc/S7j5GNHMuulRxl/1ncx69cx5cX3+PFDMwmWvc2cV1/k5Em/x5XWwOyXn6ZgxEQGD8vlvT/dQe9Dz2bUhME889jvGXL0lUw4ZgTz/3gtFZHunHHplexc8Ds2lvfilOsexp+Rae8WrSBlc3/C0n/Op/fxk+mZ72XBlD8w6rInKM5s5uW/PM4Zlz6M21fJrtXrOey48eyc9wLLy71878of4ayYw5tvLODUa39OjqeNNx+7k77H3MjwY49k8Qs/ZWutg3Mu/z5rZj9EZeBIzvnBdWx++3pWrQwz7uzJDBjYl1mv3Ud1VYxTL/kBG99/iq07yjlq4o8J75zFwpVw2Z3Pkp6RkdzR2CUBtQvTZAGUQCYLowA7QfgJoppFwojiSoRwR5pwxnZAvAaTLCzfECxHvh1sFC/gs7S0TkFQNHdFjMeQuB5Cj75EYv2jGGLHrEPANYpE3vm0OEYSjvswRTVRiSF1eA+oXZgiJtqCQFKSmLUiwIcfb6G1tY1AS5sCB5FoQMkq65Kq1mTRjBOTlL3aFdpBWIKUTQQVl8Lkzkd2UXt207arpWX5FD/FsmSR1IlG7LKYx+O2syWSxk/u9vZFo9tjySx8mX0Q0jpnAuw9q+whHSrIuD0e+vXtR062k+OPHkxxQa4CP6nkgdKGUNwECaIm2eZuCo3Z5DuX4baCmE4/Zs4pGEXXEvYeTjQhmTZTZTxSbZM2auycVRKAYJKWWEp027M4AishVo9leoi6D0MvuQHTdwRO4ceoVLWMtb2ztwHoF+/BUnAq6HDjbVjM8tcepLxlAOfe8gDOaAUL/jyZDa3FTLrzdyx/63cs/mQ7N9zzB2KBTSyc/nfWbtpCn/yeHHHqlfQ8bBShypW8+MITnH7xT+l1yEC2zXqWJWsruejaWyC4g/nTnmfNqu2k5fsYf85tDDt0JNWLf8H7s5Yz4ftP4qtfzdQXp3DujQ9QuXYGpR8uIu6IEhKpcIbwk4eewmrawtI3/8LGHRtI73kkx5/5A7oVlyTLi5JZCUKslHmv/p2Na9bjSIcjj7uaEceeRNWaubz6zK8ZfdIpbF+9DKLpjLvoJoqHDcMRKmXN9KdZv2YbgwYNYPfGOQT6ns/FN9yDJhk0nDjNFrbNfYVXX36F634/nTRCvPf0L9jRpnHLPT9l3kuP07KzhUGDBrF05fvklhzDyZffA0aQxPYPmfn3JzD1DHr2tNiwuZLjrv0DfYr7ULbyJT6Z8S4xbwaHnngJA0afita4iem/vZXc4r7sLG/liDPPJscTZdZbbxJtDdN35BiOOf+HOAObeP3RqzFMD7vMI7nzwUfYsvZNFr49m7ZgHUOGn8iY868l0xvg7ceuJyu9BIsAW3ZtoGTE5Rx/xqU4fQF2rJrJ0vfeoJs3ncKCEKs2wbjv/4G8Pj1VFvjzr/1rcfyLAcueu7t37+7KIHwTI7nfY8iCZeFoX81bD12KnjGc4sMOp3rJVCr1sZx3833kOJbzxh3XkHva7xl/0niqFvyGV99ZwaSfP8Wa6T9jXUtfrrzh13jqZvLsEw9x5JWP4C57n9mzJYPwd6o+fJIlK+s4+5LLeOm+yQw6/S5GHXc2ztgWWknDbzooWzuP8upS9JrNLFmxlusemYfZ8AFvvDCFU695nFxPLXNe/C3dh19M74IQM6e8xPhLH6P3ID+r3nycTRUJzvy/K1gz9U7q/Udx2sTvE1z1MjPe+5Bxk5+ioKinvXk2Y5S9fzMz31rCeXe/TGG+i/d+cyHB/Is4cVwfXv3rnzj9ip/Rrbg721cuo6WtivCOd6hKHMrZ378No/I93nhrNSdfczc9/Lt56dd3MfCEGxg9uhcv3Xke+ac9zPhTTkDb8Sov/GU6J173W9qX/IqPVuhcfMfzZKW38N5fb6WuJY+LbryTsnn3sWhRBZfc9Tuqlv2Bd9/eysS7puFJ9ybTpJ2rpnbqO5WmlQAqQciUdr14gIz26cQqZ+AKbcAU4R5nGvGso3DnXYqeO5aE5bH5HcnEZscDlqyhWlIT19UOPa5KISEcbTOxKqegNa9WgTZsFBL2n07MfxpBZzFR0QewJJi57HR7crcs007SrRFTZ+pbm/jkk820tYg8c4BQezNmIoyH8B9sAAAgAElEQVRlCbiIqhSn6plR9e7OJZAk6THZBZMqXNhpUlsHQGq0dvo6mTYXcKK8BsTfQESaOhPB9lUl/mzdPjUyn12COj5vNzOm+B325/O751Nc3J0xh/dn5GFFOIS7Iu2hCqTI3JPdcoBcaxX5+gdka7swCBM1fJB3MUb+pcTdvUhIJkU4B525Ip1Zf6nALtWT2HacNQ8Tr5iNS0gnyTK6lCVCxiicA+7GSh+rviMZYylrqJZYGed9mHjYI2kSMpx4YlVsnfEQHyxYysW3vQHRFcx59pfkH3kdE844i/WvP8jyxdVcefcjrF74e8o2beXEy26idtMydlRojD33Kqymj3n96Yc59YonKRzYh9J/PsSKdfWc9aO7qFk/n50btzL2pAkseP5Wqr3Hc94V99Oy+h7mzFrJd664n/TmVfz1mWc5//YpWG3raNzyKdG27Wzfshaj6HtcNPkGVsx4jMqqGvJLBtBes4JwvB/HXnIvvoxsNW8dVoCa1e+wcukKvnPOmax+9zFWb3dw4e2Po+9+h2lPPYq39zD69upG+fpF1PjHc+Wt97HtnYdY9cEieo89lniwiqpNi7EOuYKJN/xSZUVieHCbNeya+zQzpr3GJY/OIV1rZ94frmVnez+u/eVNfPLc7WxcXUvvQUdiUMrW9dsZfsETDB6oM//5hwAvPfoMoHrHUnbVhDjz5j/jalvJh/+YSp/BR2OGdrN1Wz0jr3iAgRlRpj9wMUbBCIyMQYwc04ePZjzN4WPOpe+IIXw0ZxFFQ05lwIBMPvjrrTTVGGi9T+L0y87nw+nPcejwo+nWvZFX//Bnhp75CCNGd2fmb86jtcVH/sCx+MNbWFsKx13xS/rk1vD8I78iq/dwinLTqdo4n5gxmFFXPKKsz5U3y+de307Y7gII+w3s39wbnASoXv4is6Y8RW6P7kQicfJ9QbY2ZTL2/NsZPjjKKz+/lpzv/I4Tz5lA2fsP8Po767ju3idY8dqdrG4cxg9uvhej9jX++sSfOf7yP2KUv8XsOZ/wg8f+Su3Hf2P58kpOv+JqXrz3SgafcQtjTjgdAnUEIhHati/m/b//gZEX/QSvuZvZb7zBlffNxWx8nxlTXuGMqx8i3d3MnKmPU3zYhfQpaOXNl15h/GWP0a/Ey5o3/si66gRnXz6Z5c/eTGP68Zx5yfeJrnmZ1994l2N+9DRFvfraWvlmmB2zb2bGrI+44icvkZ/n5o3fTiSaP5HTjy3htb8+xbmTfkJN6XI2rN7AqJNPJ1E6jyVbHZw96SY8FXN57c1lnHz9I+R7djDlwdsZesptjBpdzMt3X0Dedx7mmFMmkNj2MlP+NpeTr3uA8Cf3MWulm8vufJ5sTz3/fOan1IWyuPDGuymbdS/zl7Zx1S8epGLp48yYsY1L7noVX6Ztd/yFKeDkV6+WcU06EGI4tXISGyejtW5QyoDS2yaBNOE0CGrjcQ27D8vdL1lCsDMJnRPoqd2pvYMXueCoSjsaZhwjtgKz7mXCFTPwiL6A7qfVfSxW3vlo6YMwLXFM9CnikqgB2hkEqYG7aI64eOiRV5UVczgswksRIpEApiXtkVI3lWAloMX+0/5JLjKKuCXB9fM1TRUHO7XLdqLFKa6MXINoDdhk0M8vZHurG37ZotYZoHU8c7oqF3TwCyT9Kx4KAwYcwqABRUw4sicZTrdqe7SEXGcF8WkV5Bkr6WEswkelqp+HPUNwFF6AmXkuUSNbvVfaNiWMa3uza79wMXa1vYC2/VGMSLOdHOnEMYvFvUQLb8Hd63o1T5Sg9R6i45evH3KYhHQ5aGHaPn2OhdP+Rs/RN5Gbt525by5h4l2v4c2OsemV+1m5uI5L73uMDQsf5tOF88juPoKMdCfZw05iwNhTiZfP4bU/PcJpVz1Nj37FlM7+NYvX1XLejQ+QaKuivXwzOzetomL5dFqKTuTsy35FaN29zJy1hpO+fz/pjct5/tmpnHTbNIYO6IEe2sDMZ++mvs3PuPPupLhnnHcf+CGtif5E03rgaFtFS8TPd2/6C4W9ettEUytMom4TzXXlbNixlpaVM6iPeTnttj/jK5vPtKenMHLiXQwf2ZMFz93GhkqDSbfcz9Kpd1DvOpEzr74RR9siXn/8FiLdzmXijXejW5L1Ekv2OnbNe5o3X36Fyx5fRJbRwrynrmJbewmT77qe5VN/zrpt+Vx6228wG2Yw67k/kT/uLgb3rmTm1Bc5atLj9C7pyc4Fv2XB9Lmcf/3TNO6cxtzps/D2HIE7UkXVjp0M/7+bOOrIw5l2z+WMuuA+Bh55Ku11S5kz5ReEI078Ob1JzyxkyLhL6NEnkx3v3ceHSy3Ovfn3+DPaad6xnPKKTZRtW0r95q0MPftRRo/uwYxHLsBdeBbjJ96Eq/ZFnnvqVSZMeoCMpjks/Oc6xlz2IP36+SmddT/LPg1wxJW/Jb9nT7t09h96aWVlZd8OFDmAG/xf7mJQC21kN6teuYfV5RGuvvMphFGrJ+qZeucFZI+6kFNOPZxp9/6ISLdjOOvCs1k64y/UO4/gsmuu4qMXbmXFep1TLryK1oqZfLy8gR/+9BGqFj/L++8v54ePP0vVgqdYuqqeMy6/hw1zfsGOnS2ceeVkXnz0TvT8cYw71OSjt2dw+tWPUbdtAfNmzufyB97C0bKKuVN/z8kX/gxXZhrvv/w8vYadxsAj+vPGU9fSa/A5HH3yYfz1vvsYevx1jD1mLB8+cz2B3FM59cLLCCx/lmlvzuF4tVD0UZ0PslBXzL2dOfPfZtChV9GvTx7/mPoM37nyd/ROb2DaX/7I9674IWU7F7JjdStnXH8lsx77OcHcIzh90g04qxfy9gv/YMIVD9IjO8hLT/6YISfew8jxA/lk2r2s3qQxcdIVzHrpbtodx3LB9Tex481rWLAuk4t/8gzZ3hree/pnNEZyuOD6OymdeS8fLDe58uf3UbnkCd6csYkr730Vd7qQDTuIR/ucpsK612K4m58itukxnMKW+kw8jTl0Avl34O/1A1XLlLZMu7PhM/AjGYhVd4gqYci214XmCKNTjdH2HubmJzBirUQMnTAD8RZ8Dz3zHKLOAmKaqRwRJSAndEl/e/j7yx/y+j/m0x4IqexCKBgiERfhJdunweZHKHpgJ7Oh5A0kdTT2ZUK0rxS5GEbJzR04QPjqpCqb95pK1SeT8hbk5fVg6ND+nHLcIeSm+dCsmPrx65vI1xZQoK/Bo4eIWDoJ32h8PW/FyhlHyJQW2rASWrKVPjR0lVH5kpfYWDc+jrXtd4oAuxepPDkNgt2+j6v33Zi6Z0/m4EBMnWwipoUk0f2RLbzzm6twufqRVRijPHQIZ0x+SBFaN776ICsXVXP+/X8i3VtH/cY3mfXKFOJNTTT6+nP+T54lI7KOl37/EGf+8PcUlPRk18wnWLS+kYtuu5e1r/+Mj5Yu5dChw8iJlvNp5HDOueyXBNf/klmz13LyFfeT1ricF154kfG3/INR/WDO7y+mrMFk7Dn3MGTseMz2T5h+//WMOekWeh11DOhuTEvDNIoVyNUEINDGJ6/dzNJFa+g1eBi9XRGWby3jnJ9OwbFzAa88P43xk3/D0EFpfPjsrazZleAHN9/GvBfuoT3zci6+bhI0fciUB34EvS/igh/dqZ67WMKJy2pk17w/Mv3lN7jiD/PJ1EqZ88QNbG4bzDV338TSl37O5l3DmHz3rwiWvsrbzzxBwYR7KOldwZvPTeWiH79Beo5B1eInmDtjHmdfdx8NG2dQua2WYy+9HqffTUJLw3L4ibZs5dX7fsxRlz9CryFH4jFaMNt3s27mk6xcsli1IGccdgnnXzWJXXMfYsHiIOff8FvM0Apef+pXmFqUE8ePY/mCj+l92q8ZM7aYt387EWfJJI48bxLuur8z5XcvcMykB3HufotVSys5atKDFBZoNC3+E7Pn7GLspEfJK+6Z5PYcQAD9N7ylCyD8Gwb1iw9porVX8Ok7U6HnMA4fd4Yy0nESpnTek2xvcjF+Qi/effAWeoy8lrrGNnJynIw542b8mTEWPj+ZqpZCMrJ701BdxfETryG/OJfSlQv5ZNk6zv7BTVSvn8uGnbWMP30SvkQpq+e+y+L5azh8/ABGHnc16Wlxlrz/JzZtrGZA/z7U1LUwZPzpDOxTxKoPpzNn1grOmfh/VO8qpahkDCXD+xCoWsfH789h9foyTvnuKQwZcz66VccnM/9GzD+Co485hsCORSxYsIjR595Cbn4PxU63rDCVs+9gxox3Oerka9m9dRODx53JsKNOoqViDR/88x3Gn3QuznSLZe+8y8bynZxwzDg27mpmwqnnkZMeZ/bUP9EUz+e7F5zAvHen0P+wi+k7bAhOq4Zl77/HiiVrGHx4f8aceAPeNNj6wRNs2OnltIk34XEEWDJzKq1hF8d/byK7V0xn9bpmzpz4f9Rue5+lS3ZwzIW34csQgNA5QOwDratYGMFfew2J7XMxUl1RqYCR5OW1ZZ6Ht//9RPR0Raayq/ufPabs1lOwQYhbwk+RNLoQH4Ug2Y4jtABz9/PojSsVsSxi+YmkH4Wrx/mKda85s6XmQViLU9/q4L5HXmLDxu2EgkE1/YRAKJkDmxQoW32bY2ADhFTpoCODoCgNewiVe8/gLwMIknmQLpK9GtA63e7eGYSvCxCSjPUkc12uzuvMoVdJMUcenc/oAcVkCsVWX0u2Yzk5Rhl63CJu5BDPOw130VVYnn5KfEkSJSIKJb4VQr6zx2X/AMHb9BfY/JAKgnYWKDlGcUgYDqLdr0XreQum7v5MyWr/C0yq08ETq2PDW/ewYclc2rQihp5zByPGnwxWExtfu4/FSyu56K5fUbrqQ8Jhg5FHf4f6tS8x/d0POG3y78h17WT6H+9h8Jjvkt+3iDXTn6XN35/vXX87/7z9XLoddT6jTjiWhX+5mWbPWE669D7i63/D7NlrOWbSvWTULeP1KVM56oY/o22bxqZ/TiN39AT6jj0P03CQ3yODpS89QHMoj5Enn0ugbjPVLdmMOuFi0tL9KmvmjG7ljYe/hzfnBI694CrWv/MgazfV8N2fTkUvncu0qa9y5A8eY/AgHx/87TbW7Na4/o7fsOQf97Bx1S5OOn8S4YZ1rF04j2i/iznvml/g1APETScus52KJVN55/U/MPT48+mRqbP+/bco08fwo3uuZfmUu1m7oxeTf/V7Ajte4Z9/fZJux97NiGE68/5+F66MoxgyYSxVC19l1ZYazrr5UeJ1i/jo7bcZf8rliuOyfUcdg0+4kG7+Sl6/7+eMvfIJCg8bS7xiEWvnv0vJuFPIzdBY8dYTbG7pxZU33sjODx9lydw1DDttMt19m5n7+vscd8m9uN2beeuZv3D46Q8x8qg+vPeorA1XccQ5V+FpmMbzv53CuMt/SUlWBVOefICeo05j4IBids6ZTlW4B2OvfJjuvSSD8PU1IPY/+/aDjUtLS7syCP/qKB7A59XuzRIrHEHcos8ST/YxS1iISeM7zuinPHvzFQz53h8ZffLxikQWT6TjNiqZ/czVbG4ZwOSbf4nhdpEw3YqBbjg1oqZFTOqumjDQdWKagV9R7GL24me4MU2XCtwOZ8ImvEnPszCJHcIQF21/0UyIoxsuNE3eqyv5WYcQ2kSpT9NJKA18A1N2YKpdzUM8EcGwIqo+nbC8oNvBQljEO2b+lNde+ZhbHnuV9KwCHA5hPNsyuKq9yTAwRatf2NgyPppjT4unEvST+rw6XnuylS09OWYieWz3b8vOOx6XTrkYmhFCI0MEh1V7nBxMZY8VI95ud9JltyzjLQFET1eLmt26lHwIVVvU50GC8EeEaexseYD4lpdxpJ7Z1FsVsV+jKftK0vr/TKX97dzBF2QQVIDpyCuk+vgFKNggQf4M4Yytw6p5ERrnQKhZ8CQxs5hE1kmQdSq4+xPWMli5s4n7n5hKTWVt0t0xofrIhXRn62rYZQX7amxOQUfdXRFGkjP4iwLl5/Ife2a7bLwlO6EAwh4Fyb3Fiv5lgNDp2bJbEG1nRsvIoKBbJkP6x5l8uosCbSk5etn/Y+88wKMus7b/mz6TnpBCCgRCL9KUKkWkCoIKqKjY+9pXrIuLFRv2LjZQLFiwYaGIAtJF6ZBQQkhI78n08l3neWaSWHBtu+++7/XNtXspOPOvz3POfc65z32wmFx4pc3M0RFj8nmY0kbjNacRCEjrmnRwyAuT9S7rXl5amFj5qxkEAw7XFxh23wWBIv3NcBed4C23NQ1D9j8IJU9SQ7N+rVx1tNPIcrLiwlmwmncevoXo9J4MOft+ktvlYDKWs3vhE2zclseMm+coB7p71UeEGmPwmmvwp/VlyPgLsJHPnuULyF27Ek90Aq1bx1Bfn834a27m8FdPs293LokpWTiig+Tl1TNo8jUYa5awatlWBp5xCwn1+3j9tflMvPx2ytfMp2LnD7jNPmq9IRpDCZz69+eJtezj+68WULDtIHGpbThm0t9pLTV/SWkRxBqs5sjGF1n7zUZS0tqQGOVm7bYCxl78EImNe1j00sucePmzdOqcyPL5s9hfUMfFtz2Pp/p7ti97kfztB2jVPouK/fWY+p7OpHP/hjnUGFZ5BX9VLhs/f4SdW7eRlZGOu9JLhb0XV9x6EeveepjtR5K44KYHCBz+hHefeYn2Y2/h+KHdKNm1gE2fLaK+0UannAy2Hqxi0sXPkBDfwMG1r7FtzTrcRgfdhl9Aj1GTMNXu5J0HHuK4C+6iS7d+GLyHOfjd2+T/kAfmGHymIJ2PP5dOvXqpVtHNHy8ktzyF8y+ZRN7KD/EFYklMj+XA3q0kdDqPwRNH8M1zl+LNmsjw0y7GVLmEdx58neNm3Em3Pq3YtfQV9m1aQWPAStdug9mxs5ahl/+D1lmZv8G7/Pu+YvjPAwS9QX/p81eVGI5+hn/Hg9REo6OxtpvOqMhPOopTukXaA6qPpIgtIT82bwFle3/A0Ho4MWnRmPzS2hWFJVhOzcGdVAajyenYC59R1OWkdqrZ236jOMIgloBFlS0CxgBW6RFURCkBCRYJNgkExZGK8p9MrdNtScLR0rNnNBu+qbNebLEY/3AaWcn5NrVraWcrjHf1UxEtEvDRJGMiNdUQ/sMrqKiElO5DsFhFh0H/TkvkyvnC9yE90ioFLscSJy68cs1yV3XtsBiO/L38d2mLUhx7lamQS5f+afl3DWAU712NTNDvpllQSffjy4lEldCgpjMGws46/DKOChDMWANuDMHP8O+8EbNXuAMtXrv8u9+Gs/P9hFqdpkhx0icv7HtNB/yFNf8jkNDUEa5BhWgrGL1Y/XUYnOsJlL5IsGqXkp7GYMNrSMMdMwZnzHjeW9PIvDe+we3W4kTS0SBAqFntL5JBkL6ECAho4fj/lwAEraoopZ4QDa5qhnRycu1pRoa0P4LZ4FTgyEUU5tanY259Njg6Ewo5CEr7nLwFQVgmKbnIGpQ1Jotcd3T8q4/VUI658EEo+iDM34jgBBuupNOxt70OnzVFkRO1Fsbv/ch69mINGWiorVCg3hSTgDlkUyQ1T10xXlNQTeu0hIyqO8XtdCtAb3fEqQFUHqMbs8+D3+khZLGoTInPa4PERByeUrwuaT1MJCrWRJ3Lj8UchcVYhcdtwuxIwOJtoMrlJTo2kYCrSmVYRPRagXHisMWm4jc1YPJWE3ALKjdgiUlXtkdrjWtFWGugmhpPPUa/mWibnXpvPZboDCwGDw3OWizWFMxCiHVX4As4sMekYDSbCAaKaWxwY3c48LkDYI3BYLNgE45GSNtJqyhoestweQxYrQb8LjchUwqOuBh8DeX4MGOKTcboqcHl9GC2O4iySleVD7fbhzfow24J4W4MYIzPUqU6e6AKtwiWSVYpOg6r0YYNP9V1jTiiUrAY7VhEEyXYgKuhGp/coy0KizWeUKgGQ0ACNDf+QBRx0TEEnDW4/S7MtmhCXg8+sw2rI5pAYzU+o4OQ1U6sOUBDVRXmuEwcoufhrsLtqiFksGCPstPgChCMS1ZhRgt5md+7qP709w35+fm/YXv8gfOojSKCFtLvrZW/tN6/2ONfjkqOtq2OHsO0vC49kyDyMCMc7T9w5b/tJyrqDIePSkTjX19lJKJUnPGWE+HE8WFWRt3k9+I3ST0viCWocwDC4jWbxPHbMXuteMSZmpSaEkLiUlLJSl3RqoVKjH7MQUd44p2WLFaVThEGUq1ounaoesyl4075DBlOJAp3YcdslH8Xxy8G1YDRZG4SO22Ki8MkOVXdFtKdEqzRz0RSuJaAWymWea1WzGHHr+rmYeKZMPl1z3ogPEdC68YqoKJEgMIqiBIRhgUhNaNdL1nVmif3pGRxtZKg/FZ0BnR6waRttRJEam4508tPZJEVCvoxYD0KQJC7MolmgLGaYPmLBAq/wOIvVpkfeYgGiwN/KJtAzmUE4ydoboESQtFSzEdL3/9SJkHuRUkvhazqHgVsmINV0PApvsNvYG0oBLMXr8FIdaAn763LYfm31eRVWWj0WggaJIOiRYQERGmOhYjqyJ/124u4t+bsQbMZiOgP6LJDWNymhZpmZIPIoQRoSTbpp5/mddDSvPzrPaIFG0TNUL1RJVojZE7JEHn9jSTaKomxmbl6fIAT+3tJtNao9ysS48aEYzG0upZA0jG4icUXasAWtGGRNlARqFPvulmfQOPifw0QZB3aA6UEq94gVLldvQ9PyIkp5CAQNQpHm1MImFPwRQRyjrKG/pVhkSycgGAxLaIiKRV9PUxS9A58BMwBHGZxRhIQxCjFQ3nHhoBPaXdIEKCyUdL7H5YQkvJWwOBW0tfyXM1iq6zCdbFhVDLnEXExWaVGGiVDE96XFgWmw3ssPHDKG/RgMRkwy3X4ReXRjNkg2Uh5twKGTUpozGcOYZXzCRAQoBJEaWhYZGBXUDq69PsNBASki8aAlGqCKnumsnwBj/q7kEmEz+T7BvxKfEkCCB1ghIxiH6S10owvYFDXHQhIU6ZFjS0XyQGjoVErUIbsmIwm3CJxL1033hDq1CEzUSKQZfDhkZyrwY9NjiUZJ7NkN40qmNOdKVZCCqxIcCagSPqUJWtrliZodX6jQeswBISqGpS2dq+6B58Qi+V5BYXUK9enxdUU0VjKXkqoTFqOwRICZ1hgSUup/899/lKAEGEyS7SpIlzVE+zEJ/3TISHigFV0zo9S8/vl5O6/fjjaBIVZ2AFhpYuWvo4+j9Zi1Gzkws7mKK1IR69Oqvy2UjMTsZJA0Kv7VeV/TS81YhzDzjgkO19KAAIGRIBEHKMYYG1g1X5UhDX9OxUhhxvLlASuGkIgCzIiG6y71yOSx7qWqSN9SVdLeUBMhyIPifFSF6eEW8O3H35yyokEMRgtSnRGKzOHo2+ZJigLN8KaD4nQj5mgSe5J8bU1kAhq+WZ1CeFMQ6S6q6N5UcOLpPF1PC3sXNH91zcZ/m3YXf9anknrooU3rXqGOr2pZxhY1VjjoN9N0CTthgITZOU1A4sfI+Lmd/QvV5rqopONXYOxbjXG2pXgLQVDPIa4voSiUqmpaSQ6dSoha6xWAZQ0vzjZFupqv3aeSMUisqYjstAmBXKqMHl2YylbArXfEPIUK4U3P3EUVKWy8Gs7G/cnsuuQF1coBqvdgVk0HZRugRh6uZ4WGQS94JrWmxr21ETdi6i96bWmlbUNP6qHRqZOynv9V/vs5/d8NLAgf69LImptBywYvD4c5jL6dTIytFs9pw+zEWuvUNoMIlgTsvfAmDgRS+oE/KYMBfwEDOnj6MFl6mzhhxsR622yG7/4QuSGm1eK1bmThqrNRCePBKsjnCuTtRtLIGQlIN0lat/8BsLrURZAeD6l1t5Q+z4MxaUkJ88+YiTCJSK1rpST0bZC/8igJH9lYFbYKrZI2OqhVVoVsXndR7KGTcFbi8yWFj7XR9IyYNqO6HHbOnOodDTU847IAof3pzhWZRL1nxU8i0zh1BYufBnh96TeTzNgb57kGlYzjGyOnzw/DfjDtlARfwVgBsKdJPpeVXuv3HtEVropgxtWAwk/OylLSigUuT91RcqPa3+iZyOEM4IhGWCmxdt/OYPcQulUjnOUMlzL2/kd1uhfmqu/4guGgwcP/the/smjSur60ccep212B6ZMOxVjfRkvLFpKv2O60BByMLJ/T6U+FzEPLd+5flX6der6sl4iqnFIRYc/vVR5Wbo324iHqpoaNmwooG+/9krHPj29dfhuWprdyMs0snPndkpKShg5cuRPiCDNEZZeED81ZuEo2RDk0IFtbN2WT98+x6rFktUmKywfGgYe4Y2o9eD8lBYe5uudJYw4rpOacNe2TZYathSRZdVQIrwElWMWxBreKsq2N7uOusJS8qpK6dO7d5NjlrS9Wszi2OuLmffuMs6/8CJiJMoOb/zIIlcQQKLfkAeXp4prr72Tl158Uf1WbXjp6Q6GVLZBAEKDs5GSsipclTWUeKqwhQwkpqbSpUsXxWfQUbM2CPJ7Rc4TxB+WvBUug/ZJQaqqqnnrrbe45uqrw5K7kYWnN3oEIET+qbdl2CCqpaHBzr68XN774GNmzJhO69bJ1Ne7eeedd7nw3Om8NP89Zlx4EQ6bEAGDKlUbqYlHshS/b7nL/di0OJGkc2nAEqhVFiRojFERhkRYIoltVWI5UYoPoaJ3AVXyHn+asWhxAS0B8s9pkxJByc7wYgtWY3Vuw1D1HqGq75XSoTwdbyiZQ1VJrN0bz/r8JJZ/68JgjcZs8RCQdkc5vziOpkyPgMLmM+lyTnPfhXoTqowkUx41hmtJmNIAQUoh4dLN73qYP93L+u1K06YyyqKc56+gbVQjYwelclxOOcd28NAqqgFzyIPXZMZv74gldQymhMn4LFlK/lrxaNQzFyOjV43u4DiaLNNRLlruW2lRyUwAkRdXShSq9VQ7ZQ2kZcaDAsdGAf0Rh/e7HiQo8mkAACAASURBVITeuy1czNHcTfNR9TvTQKJ5BoN+fjpgiKhwRCxGBBSplx+ZXRE5YHg2i/6jPLOWIKc5ghVLq/aQArx+df/qWpvsUstMX+SummGYsktNhDu548ixNRBqkm1WJlf2rH4S6jyqDffXnqtutdXZWf09vdfCT6DJd8h60O9JHy4iFyaZDqPi7kjGSapRsr7DWwK/jB+Xv2yajaCzrUeJK3//Avgv/cVfChBkI3l8Tm644RZOGD2BkaNPIC5YxqyHXuekMcOpCyUx+YRjOJR/iKraWrp1746zrg5TVDTRBgPlVWVkpCVTUFpHVutMDCE3JeVVxKVkER1soLiqhpRW0ZSUVFJVVU+77A7ExJooKCzG01jG9q1b2Ztv5bxzRxHtsJOcksLhgkNUV9fSrkNHNU3u8OFCqipr6datJ99v3cKhQ/mccfrpKv0kanmHCgopraxWcq5t0tMoKimjobEeq9VKdnY2jc56qiprqKyopusx3ag6spENm/cx8oSJ+IxRtIqP4sD+ffh9Prp27U4g4GXvnt1qUmKnnDYs++gD1hX4mXnZmar3PTHBwb7CI9TX1JPTvh1RMVaOHK7A6WpQqnFtc3JorK7k4MHDJLVKITMzU9VgQ34/yxYu4iAuzj/jTJweOFCwl5x2XYhLiNFpsMZDzHnuM0aNm0CswUnHTp1w2IMUF1dSWFJDp07ZRMckYcKF21XEqaffxDNPPQ5eN+1ysnE7a2h0B0mJd3CgrI6M5HhqnD6qDhzk+8I9VB0uUUIek0+epLCHyeCnqrKOgoJC0tPTyGydrPTjZRBQfYOTTp07YlWKdUHWrV/PQw8+xMsvz8NkMnPgwAGik9Lp2CaVivJSnB6fGi3cqWN3mR2kBzgRora+jrw9eSSmZZKSEM0jD8+hd79hnDRxLDa7ifXrNvPSy6/y4D2zeOTZNxk9cSLZGUlkZCSqaYUH9h9QWzEnJ0elxn9MovsNu1SFo5LGj6Q+9XAZNS1QlRKcWIx+/NWb8XgCxKUOIWhyqKmB8p3m0tfPc1NHAwj6qiRVLODPCEa3cgtWQxU29w5CRQvwl61VQ5cMJnERAk9S2V/dljeWxbB20zYOV4vaYxZGkVeWspHKGOk5CJLdEw6INtIiBSuAVUonwrMQRykAIQz+WmTl1GjngAAv41GHhqrUs7LJkayXRHERUSUdLepR3pJ+tWAOOPH7ysnOCjF+RIDzj7ORbCvH5POo6ctSw/VasrGkjMWWPhm/tT3uoFlJAKtUvPrYNDhQDkKXAhVZVTmOX/MyYZlovFgMPvwevfdjY3LUCGiRMxbApJUndVii3I9oQUjWVAHQX/Viv7rAJMdVWlJCfcBLdlYWapaEGiYkDk2ekV+l6/VdaCDtaxRw7yMhPh6DUUp9MndEjmTFLPMcjCElL6xq+MrhqRFITWVeuWZjGOQpABDOOEpJwq8InUJSEs6PZCVkofuprqklLjERi2QVJROqSMC6rVfmm4iYV8RzytwWn1EI2WHwIcRkGXImmQdJycv7Fw0LBfrDWY9wZsuoygmRaD3M0VHOXSae6nJDE3JVz0mDwJDUDsyydEVLRAIsnV0OqRqMfqayGCKlb1WCVNLHem/LbavOH78obGpQ7PUHtCSyyURjoxOL2aHGjvxO2PkbDMx/11cMBw4c+EsyCEpe1xjksUcfZvjwMfywI5euvXpxbAcjs+e+y9gTh9NgTqcVZRwuOsKAQYN54OGHOGn8ycTGR+MIBPnwy8+59Pyz+fSbbVx78flYDdU8/+ICjhkwkcxYJ99u+o64hFhqq91079GDb9du5oorpnPNtbdw0w1/w1lbyaa9IeKi6rCb/GS2yWLbjlz69O7J/sJS+nTPoSC/gOS01tz495u57bZbKSoqYtq0acrpVpYWs23nbrKz2/PlV19zwsihnHfODF54fh779u2nXU4aVnMCX331NdOmncbDT77MDZeO5/utO0lPTWFLuZf0qGgyWsUTG5dERVmhmg7XsVMH9uftZO2mzQzt05fc6ihysiwU5G6nS8cebNyxj5PHDmLl6i1cePZgps64g7lz7uKJhx9l5j2PsO7bZcq5F+UfYtjwE4mJcSjd9e1rN5LrqSEnqRXzPljNVeeN5+NPl3HhZZeRFGPFWH+QS2Y+wbU334G7bAf1DQZi403s3F9Ev2P68PmXn3HDjbdhw4nZXcwJp85kzoN3Ule6h7i4LGLsIb7aUcyVU/sx9JL7WDDndnbuzqONPYbcmkNCByM+I4NB/QcrkuX+AztY8c0OTjn5RL74YgUnHteR0y+8kVdfeYWvv1rGcSMmMrB3R2VwysrKuPmWW3hgjvRhf8VJEyeyav1GEpOSefW5J7n0ssuwWh0UFVZyyqnjsJpM1JSW8uAzT3PbLTexYsUakpOTyc3dQr/jTqRHt44YjX5KSyt5+KGHeOCefzL1gqt48rl5LH3/TUaOG8G61WuJjoqhfft27Nq1mxkzZvyB3ajyLqreGnE2OpEYSWH6scpALNNh6g++gsXQA1PGJEL2FK321yLN+NOTRwDCT/NVzd/T31BARHVjSKXVgyVUgcmzE3/FhwSrd2H2lSiHGjKa8RnjqHKn8/2BZD5ZWU5Fg5myOgslNeJSXaqui0UIrTJAScpEesKndG3IvAmTUYx9i4R0i5BJDOovcRBaAh1VblRlKs2rkEkXMgTHiwz5MmL0GXBYjGTFO0m0ltG5jYFTRyXRvXUJNkMDBrM4E6ltO/BFd8aUPBxTq1MJGFvhl16dgEWNPZdygxae0gNwmtUgdYaxGY4dvaaryy/iEF3YAt9TX/gxZpFQTpqAxSRDeETUSJ562Gk3FQLE8ers0B91GHKFrvp6brv9Durw8+TcuSRarRSWy9hrI5htJCfEKa6BzNlobGgkI6Mt27dsYt+BIoYPP56MzEz8QSeV9fVYfOB1enAZ/Njj4mkTH0dhZQX19S7atemISer3ipfiUZLZ5ZXVxMbGkRAdR3V1FSkJUdT7/TT6glj8fmqdbtX73zo5hWuvv45b/zGL7KxsqutKqHO6aNM6h5CnjjpXDQE32KzReEWW2x0gKTMNo99NeWUNwu1Nap2mSlkV1RVqzkLrtHQs0hZkDFFbV05FqZP0zCwsZj/OxkacLhla5qFduwwsIS8lJVVqQJbDnkBSXAylZcX4Q0Zi4uNJdETj9LopLa8m2mbBZ4smLdZKZVUFDW4fSSlpmANy3AYIeDE7HArkutw+0jMzlF5oYfFhfEEvacmZqiTuqq+hxuUmJjpGEShvvvlWrrziOrp2zfkxwfkPWJP/9p8Y9u/f/5cABEFXMs/9zOkzmHH2meTvzyc6NYNLzzyeex5dyOiRw6k1pFKet4ZjBw2ha9duXHH55Vx0xaVYa6rZ/N33dO59HFt37GHcuDH06tENu9FPRXU9118zkxtvuITK2hpWfrWarOyuiLJnfn4FV15xHg89/CR33jqTA/t2s2Gvh/joAHZDLbl79jJq4jQ65WRR5zdRkJfL0i+WMHjIEK684kpeeHEeBQUFTJ06TdXTDx/cx5Ivl5GRlKakQ2Myknj0/gf58P3FbN78Hbv2rKN71xFK6374iK6MnTid5+6/k115e0lNiWVzvocoq4kxI4eSmZKBx1nEipUbKSor49huSSxZ/gMnjTyR3eUhsjNCFOXuZOO6Pcya8zjJjmoeef4dbr18NOdc9zSvPT+XF598hr7jZmD0lLF/3162fv891/99FvFJ0ThCfvLWbWGXt4zC7bvoMepcTugcw+2z7+HyG2+nbXIUNOTzyCuruOyqK/FUbGPLd0fYnfs9jX4LnTMSWbV1N/c/MJcYgxOT6wgnX/wo7779BI2lBXzyyWoG9W3Hl9vLuWraACZe/wDPzrqJHbn7STdFkVe9nzirjcTMtvTrcxymgJsPP3qH1KwhDD0ulffeX0abBBNX3HQ3W7ds4o3XnsHRYQynjThGGfTyqmpuvf1W/nbJORwqrGbipAlU52/ly13VrFm2ktdeeJRDh3P5asU6pkw5lRibnW9XrKDBHseQoX3Z8PkX1AaiaWgopnfvofTsng0hbxggPMz9997JzHvnMmf23bz02IMMmzye226YyUUXXqgyFrt27WLWrFl/oHYe2dLh9LX6YzgSVlUPHZlI9GcK7cB15Gs8tj5Epw9T0wLFeWnhokg027z9fj2D0NKU6PSsSjGr4/gxGxqVip3RtZdQ4y6MdRsI1G4j5KvUSVSDGa83mjpPCgcrLOw67GPv4QB7iy3sL7NSXRtSnAWTUSJQyQhIdCjM8uZ6tZpA26InW+rPEpWqOmwk36zS1T+O06X8JM/IbPCp4zUGyslKiaZXppV2KTV0TYfumSYy4muJckh0FlTtr15jPER3xJx4HKGYLEKOPgQs7fEj0wilU0WetUSUYRVFVXcOTzNselyRFLfOIvy8YyGcWgh3ywjws5nrqd7/OtGOeKytRhMyJilOjyIAK9XtcGQdKQyEeRxab+KPmVOzIciSjz8Be4wqqRrNFsYOHcD5V/2dK666jh3bf2D0mNH43A3s35dHRkamCiiG9O1ESWElhWXFjJ1wEkF3LcUVVXRo2wGfp5HPl61g2AmjiI3y8PWGPXTr2IENG7Zx+eWXqaxNdKiC5978ir49u/HV8qVcdMnFfPjuh1x43mms2/w9dT6zcu5xael46upom9aa+x64nxtvvQVj0MPW7Xvp2asL777zCadMGMe6Dd9w8vjxLFy4iCGjx7Bv706GnXgSFQVbqXNa6NiuE5+tWMr4UWN488N3mXHmWbRp3RqzxUhDYy2vL/yEE4b05uOlX3HlJRew9IuldOjSkdzcKrp3TeLQvr1ktO+Av7GRzdv2c/aUScx/7WWmnHEWq7ds48yJI1mw6F2O7dufb1YsJa1rP3q0dnDwSA2dunTnk08+ZewJI1j51VecNnkUb73/MSeMHElRcSU5XTpRXXAAe2IKDjvkHShiUO9+PD73Aa6eeT1bf9jJ4MH9ufzy63hk7mPkdMj6v19i+CsAgqR2xHC8vWgRaent6dm9I/YQXPq3K1jw8hPc99jLjBw+iHpza4z1+UQnJTN4wEBGDh/Ksq+W8e7Lr1NVkc/YyafyxLwPuP2Wa2mf0QohZsneu+nvN5OVncN555/B11+vxWKLYfgJQ3jnnQ+ZfuYpzLl/LvfefQeH9u1hzfZyohxgN1RjJ4qALYoThh3PcwvexF1fTd/evRg0YBADBvRn3ryXOXKkmKlTp6r03JtvvE5iUitGDR/J4g8/JqtzO26+/gY2btzM4sWLSWplIyE+m61bdzBt6jAmnn0dr9x/A9vy9pEUF8e+ohBRcSa6d+1Cp6wsnnjodqJSOzFu4mRahfbz0PNLmDBhDAeKA7TPslOYuxeL0UZqu04M6dOFx55/lVnXncbZVz3May8+znNPPUn7gZMY2j1dxUD79hexfOV6rr/2cjU06NCG7zngr8FfUUVpbRIXnTOIf86+h0uuu53s5Cj8DfuZNec9Zt9zF7nbvqCoUProKylyGrnopJHc/9xr3HDTTBLMXnAfYfS0OXy4+Bl2bPyG8jIPPTols/SHUi4+uS+T/n4nz866k937cmlti2VPdS6t7NGktOnIMT2PwRj0s2nTavYequf8qaP5eMkK2iRYuODqW9m1bQOvvPACgbbDOG/8sQoglFXXcNvtt3LvLTewat0OTpo0lgO5O8ktrObD9xax6O03+WHrFrZu3cUZp0/BbDRyJH8/n6/+gQvPO5Nvln2O35RMRWUevXsNp2f3toRCHo4cKeWRuY9y/713c/Och3jwrnt4/sH7OP7UyTz32OPcPHMmUVFRvPbaa/zj9n+o1PfvLjP8BtgvDlPSqxZDCSG/MJcT8BmFNCmDlzQjW4Z3SeQbmRyoR//qz9HJsT8FCuIcxS3JcYSMasOiyIi1GH2b8Nd9jbdyOYaGChzqoDqNLhP3PMRR57VR6smguCaVTbuqWblmL2W1RvX3/oAPo8mBQa5TptrZbJilczNCnQ1rWkhwICl9Q9CLT0op0lWoquDCdK9ToCkuxk9mKxg/qCuD+1pIjikh1VJHtKFCjRPXJDctS+izxRKMORZLxiiw9SdkaqMmXar0fdBGgAbFFjeEy1W6IygCln755UTG7KrrVCUHfT6VxVBtslJK0R1BDplm6SzGYEvHhx5EpWCEdEK0IDv+LAP0x7CBJlJ6PDz2+FyOFWeOn8Ur13DHFecz6m8388lrC1j0/OMcO2o03bt0ZM/uHWzavInFn67ljpkXUV3upOdxvXjmuWcY3LcPbdvm0K//APbuWM/6nYc5e9pEPnznDZKzO9K/dz9OPmU6iz74hIR4A3EN+Zw3+y2elsxhRREha4Cn5j7PXbNvYOnyVXhDMew9uINWqdlMmzxBTZKcOXMmDz36IFs2bMJkTeD4Pm2Zcu7lTJ46nQS7iWmTBvHQQ49z+vnXsWXrBhwJbagt+I7Utv3p1bU9T817hn7d+lBvCHLapEnY5bUGvKxe9TWbdx7mkrOmct4lF/PAffezY2cu48aMIHf3HhWg+UKxnHTKeGio4qMvvmf6qWNx1zWycuUnLFm7h6fvvpzH3t7A7ddewOa1a1mxYz89Us0E49oyqHdP5r/yCq2z25MSH8Pkkd14bfFaRhw/gDqXi6078wlVF9J32AnE2+Dz5WsZeMyxbFy7kvOvPZ+3X/+CUaOHcvMt/+DJJ58mOTnuZxNWf4Np+F/1FcO+ffv+8LJueacyU37B629w5lkziIkWkpaRl998i+y4aI40OunSMZNyr42+HTP5eMlSomNiGDRoEDlZibz1xmLatU0iKyuLbzYdZMqUCcRZ/QT9fsV0Lyos4vU33+e2W2/EHzDx1ltvqxT1sOEn0LdvT1548WWuvPQCJf5z/yPP075LR5LiTIwbPo633v8AX9DP8NFjwO1i9derVEpp9+6dnHXWOdTV1TF06DBVa6qurmTp8hW0Tm5NZWUl3Y/pzgP3P8TAgf1p0yaLAQN7U1xUx6efLqFN2xgGnjiFuGAF3+/OIzM1jep6G1ltY9jy3Q8YgzZGDjuOnbl7qap2UV+8G0NiO8aOH86rr3zIgGO7Y/C6FEh6/uVXyMpsQ7fuPejSPob7n/6AG6++lOefeYb+J56Gv/Ig5VVV1DkDTJo0hfg4G56gm7pDRSxa+QVnT5nCpx+txOWqJKdzT4aMHIHd4MPbUMKTz7xBm7adiXGEGDLkRBKTonnzo88py93NqMlT6NKjB3aDm4Crkrvve4HsDm1JS03j+CEjsZqcvPLGu/Rum8bb67cw+2/Xsnf/XlpFx1Luq8bg8bHv0BHOOutsTKrVyceXS7/B11iL1R7D5HHH87cb7+bZJx7im2XLqYrK4tThfdVo5Aa3i6uu/hsP3DmbvEOFNDTUEAiGGDtmHHfeOZtWrVrRs2dvunTtRvv2bUBGvhLkhXmvkJPTDrPJxqAhw/ly+ft07TKAzh3bKgfpbHSzcMFCJowfwyerVnPZjAtZsuhtugwbRJIjijfmLyCnQw4jRpyoRgf/vI2omUX9R3dycxla19rFQVppJOTMJegJYonthNeQqgSiJN2uP7r9rplM1nz2o5ccWnxHIYsIY1ucmU11sVgpxxAoxeDZhqFuL1RtA28xoWCDErMSAqVibCOtWna8wShqPVHUexIxGVtRUxfgQGEVRRVOjtQEOHSoUk+VbBEpq2doMKq6fWaKnazUKNIz0sjKaEVcdD3xtjpiTBVEW9xKwsqghK8km6BJn0arg4DJjiE6G2P8YIjqS8jRhaCMKg5FKYEjzUAXApoeqK2Azm8RMIgALkWa1d0NZmnvE+qhQXp8LFgCjZgDBXgayzHEdiJoTsCEo0njo+U6aKbc/dFcwc9Xlclk4PCBPNau20mf/v2ICjay/NstjBjUl/MefopP57/Ckifmkj14KJXlxTjrazlpwgROm3Yhc+fcTP7Bck4eM4hr/j6TIaNOYfjQAbRJsLLg/U8ZPPJEunfM5P2FH5CUlkVWVjpHSqroddwAosw+HHWHuPCu13n24XuorihUZacXnn+df95+LYvfWkx0VidOGNyT+loXjz3+NBMmn8w777zDo489zNpVa7DY4xkxsDunTD+Pk06bRlZSHKeO68mjjz/PGWddz+Zt3xG0pxMs2U5sehfaZ6dTVVtNyBukoK6S8SNPxK6arwKs/nYNew4WMG7oKAqOFNEhuz1r1q9nwuhR7Nn9PXv2bKXB62DKtFPw1Rfz+cqNtEt3sHdnPdPOGMP895Zy2dRhzH1nNbOuv4ita77jy1176ZcRhT8qhd5dO1FZWUFZTTWmgI/Rx+ew8OOtjBjcj8b6Wr7ZuIcobw1d+x9Hq9hYvF4DNpOVr1cs4by/nc0D9z7LOefMYPbs2TzxxOPEx8f+f4DwW4xk06AW1T+rIwxFmjcJn1jY1WJ0vWpmt0wGVyp9ovgnEUpIRuvaMJo0815mh+t+7Yjh1ASnUMCkony/L4RF2CGC5hV7ONI6J5VZ6Tm141YiOpFrEENgUGldo/SgSupU9QprIxMQxTnVfqPZ2Ip6pPppA7g9bs4++xw+/vgj/CLXZ/CybWsu1VV1DB85QEWCNoMPd1BaCo1gsmM0yAx0gyIl+kMBzAERELLiVKfTJCJdiRUNeLdqgxPBHundlSgwEHRhNMYptrnSFTBZMQU9+IwyeU5rGeiOAT+2oAGfMPjEeJplFrwNj+rfdWNR9y8Rqsw2N4fVE0UB0UIgKM/PrK5PiJnyXNU/w0Q7EQKRe7PiwyovMoSaqy59vPJilWCR2UDQ68Mo5C0Zr2uQSYMGzEZFFyMUCKl6YdAiQjWahuYymjGHpFasNRa0CLEZoyJXSaeK7qu/7rprmTfvJXw+UbyT9jxNolMRt+p9lnUmNXO3ZqiHhHglz0YApdTNhWgXVO2gJtFwCMrEPNGTCOq1I2eWZyj3+7MhQ38eILR07cqVyqCnoA+DeweukjUEDXai0k7Bb4vDYBInLdfr+BGT/adO6fegeA0oIq2z4lQtKm1tNsrc+0oFEIKNuRh8B8F9AKNzHyFvpdLbMPjDLHApM5ik60GuX3gIwsjSfe6SV21ZbddkPSktyB7W46AV2TsoipUyI0ESDOHMhTDAjA4MljYEYroRcmRjtLQFWzomWzoYU2QqAQFRBRXwopIezZmV32SPfiHRL9fgV6ZC1P4iHUYCGZz4G77DXboce9QxGFNPwmeNxazSMrInf/7RHIe/8GPw8d3G9VRUmpgwbiSWYCPvvvcJcTExPPbBB7w+/1WWz3uBNn164XK7yNuzhw6dOvPssy9yy41XU1BYyrSJI1jy5dds2nWQ22ZeypuvzKOkzkCvvr1IT4ojMS6er1ZtUl1RZZUVXHXdDVhDbmz+Rp5b+DHJifFUVhQz9PhBbNn4vaLYVFU00KlHL1KjoaK6krxDZQwYOIA1a76lY4eOdO/Smc+XLiMzM5ny8hqyMjOw2fxMGNuXuU+8xFlTruCHXTvxWZJoF+tn47Y9pKRlUlFWxnF9j6Wg8gijRozAqNQsAzg9Ht54axFxjliKKsq4cPo5rNm4irHDx7Bnby75BTuw20xUVvuJtpopqXRyTPckduyooH2H1iz/ah1333QVL324lNaJDmqP1BDVtSsD2iSz/rttpKW3Jm//fnod0w23y8XIoT1579PvGD6gD76GOjbszCcnM4l9BQWKa+AwOejYuROrvl3JueefwZNzn+P0M6fz2ZIldOiYw/Dhw5WK6P/ljyEvL+8vXOvhWqT2hUoMQ6fyNBNVcLv+U8saZfNg3EhHqVIj+9lH3I84K818DcOQMJtXwIFEFEpWKNxzHk47NtUHxbjp86q6ZTgG0pwxxUNv0k2IEKvEOeXnH6JTp47KcRmNAZxOEfcIEBUtIjYitqNZvpFeawVA1Ef+qxlTUIRDxDh5lPSFJqnpDmYl36sahcPiIIqxq8cMK9WTcBOncLR96vq0kKtEcKag9ODq4wXFIRp9iqUbFKa7YtiL8ZO0r4itiLCStCVJq53WUVDCSOpatBiIbo2SW/HqPmKjODU5nmYMy30EJeIMk7Tkeave42BYhEmxg+UaRZJZ6u8SEZsIiASyov6Ig/FocSIVLWumsGrTCrdxyv3JpUjZJzMzW4G3SAlAAwrNltYReqR1TfdkRwSjxFlpANGyg7tlR3XzwvrlVkf9fv7M58frO1zDV6IxjeDPo6H4W+qM6bRKH4tJ+vjVq9akQLVufgJafksG4WfXG95DulVMDm9XIEsR8ZReRFje2teIKVAKwSoM7gLw5YG/BF9jCT53Bf6AUxlwS9CvIKwARHlPAgCbvGS4ZcygBJPMWgJGGQDp6rATNKdhimkHUTlgzSJgTsdviQNLGoZQNKGQtIMalcCXNAML0Aj3ObdoVfttb+Rob04yKhJ+aG5ICI8BbLKmnLuoqVqNLT4bU9RQghYbRqIVwJYb/PkcDa3N+dflD/R+djsbMJrtxDiiFFCrrmlQdqy6sZb22e2pqyrHFh2lJM+LiouIj0+gvLyC7MxMGnw+UmJ8rNucR4PfwujBvcgvLFKzOCRIS3BEk5SUSFl1g8qMtsvpgFnEy4RMa5QOIxflFWXExsaQEJegnGVRRTkZ6e1xe2WwVZDa2nq8vgDtO+QogmRldQ3ZGekUl5Xika6nzGy8jfVqv8fH2SmucNIqLkl1IgWMZhJjDBwurFJ7PTWlNWaDgXpvIwkJCYpNEwH3ldV1lBaXkNGuHXE2C5X1NSRGxeH1eJU64Q+bvyMxJZHK4iPkHmzgiktOJ//QIWwOEwG/iYzUBF575yMG9O/D/Hmvcvms22mfoJ+VxxcgKaUVxmAArz9IfKyFutoAsVEyDdSPyxsiNsbB4aJCDGYTrZPS1Zqp9dTTKj6WqrIaYmJjCQY91NU6SU5JRbI/We9qWAAAIABJREFU/5c/fzlAaOn6Nf1HG3Y9ty7S4f7jbdwkYPKrUKWpT6mpTquTjXJscTS6j1aDAO1o1XwAgxdzKIRfqRVKpKl1BcQYiyPVjifiFMKCLy0svJbujQhlSHSkW+OUemH47sISRD9eJ+Fap9g6o7TFGX1ajTQMSOSaxYlGREtEPUyRwsLtZlp9T1+PHEM/OZ0J0VMApTVHG2kFUsLQSxk0ce5NapV6GFAT4z7MSNcs7/CzC+tNKNVEyXioTEoLQRD5psJbYYet0r0aOWsFac3gF4KYXLP8pVa01O+syQHK81LqmhaV/lZwUekshK9GIlB1Txb1nJW8e7h1SqXeIzrJ4fRy830dXZxG9xxEFDaaX5G0T/1yR8GfBwjNZ5H3IhG3J6zSY8MUcmMxiKSqiUAgFpPJh9Pvx2aLUd1WarhS2Kk3qRH+EXcUdrIt3rx6rs2wKYwblM6BBsd6V4pMs1dljkQx0OARnYc6BSBCzgpCQeEU1GAwNajyQKR/UJQMQzIJj3j8xgQsMp/AmgKWGNWWphe+mYAhWtX1BQCIsqEGiAGVcVRBxI+yBb//XRwdIKgcCibpUAg1qnJKyGTDEKqHoCgCJuhMjsEnE7z1qgkP0PqpA/irAULk+BoA6/cQKTbpNRAJbcKhjNifiDCS7B2jiW1bt+N1NjJg8ECdeQyDTh0faREL1ecfVirVdkSyaOFhZbJ3lSqoiJdpqxRRLGzmd2iJO/WeJHJWY8TD9lZ6IKUNUN5nIIRJ1AqFjBtpPWxSNtH3IMqIyv6GQynNQQlrO6jhZdq6CkdWjVVXkioGaqqr2bBhI1ajiSHDh+GwRloqtSqs8GEKDhWzafNmunTpTI8ePdSzkgmzkRZjCdgU4Va05wISnMk9B1THWfNHvi97VwuJqRH20u7o82KxSFBixefTWhB/JVj8bwMbhtzc3L80g/DrfcaR24/0K//ZxxFhkreUDBGf4+dQQTFpqZnYo3RpwW/SQqD1Ti/+oJGk6BiKjhSrF5yWmqqQtLbLul0pUrrQNeoIStSkSQ0QfhxFNONIScsKn6EKu1WIXmBzxFFbeZjomASiY6VupWu4EuVLSr60qoraeidZGRnYLFKUkfYjA1UVVbgNNmwBN1ZHDLGxotoWqcNqox6JpPWTFLNixOfzUl9fT6tWyb/Y9f2jF94kJqLvq7q6Wh1Xfp+enq60AmTTV1cJ+g/i8UNqfDQHSiton5GCyxsgJlaXRDQYVCaiKUvUhBPCD8jrdFHpMZKWEB12HFoXQdd99M49uK+I9h0yKCyspk2bNHUsr8dDRU01rVu3buoAUHtX/bLlemo2ppFnEqnN/7a1+fud0tFXcVj8RUCfzGUQ0GhwqyyQKRSlNBM8zh9w1uwgPuYYjLFd8Rvk78Mp8Ihs9Z80QZG12QyEI+AtDB8E7DXh70hPuoDAMCtfgJtkkgTUKU6FzkCEQlad/Qlnj2SHGSQjooCstBxq9Qr9bjVUU7yByAKMtEyqTdX8tn4ck/0+W9EMEJoDCjmyUv+UeY6BQvy139PgsRHbdjTuoB1LUAp8MuvREl5Jcn96hsYvff5dAKHluaRlswk4tGgtVTslbAMiHAyVMZMSqgIA2g1KdjHyiWSkmtQAm7poxIFLWVQLcInolVoRqlX0x0O3lBtUhwyXk4zS4aJVTNWTVrwUNZ5BvUuxG6pbp0U2rtnu/JhrowXw9P+1jkQzw0XfRdiiRLI6gQAWAQZhoNSk3CplWSGuquyrgJlwVjj8XPT5JaLSNlTKA36/znrKtSpdh1/6hAXWxC76/D414E7OKZnkyHX/WU/23/p7w969e/8HAMJflaLTzlunTo3hiWLg8zfw8isLmXzKdFqnimiQAb85hDno4YsV35Ccnk2Pjm149ql5nHvuuSQmJGC12/CptKlcm55zoMGhAYvJgl+lfbXJEFUtzdIWOVjZFAJF/WrAioSBMkGvrsGF3Rjgux/y6NDjGHZ+u5TkNtn063scHr8YIHESfiWGdOus2Zx34aWqj9luNGE1yHT4ABu+WU6xN0ppHrRu24Ge3Toqwrs54CFklcFMRvwBP2aT9KPrvSvDUo4UFbF7Xx4nnjBccxBMRgLiwKUeL7BZdNlNBiXHKgNdhEcgCDkYdON0enC6Glny6RIuuOBC9X2p3dc21ONxOlm1fgsnDOxNnT9IRdFBXCErw4YM0ZmDgE8ppQX8grZ1FkFKIxJNCKdBYriiQ4fZkFvKyaMHqZ5uJXYSHqSjJZv9PPXEPC6+ZArPPfcJN95wsTJ8ogHx7YYNnH726ZrIp2riAdVHHTBLuUQrRaqZEErhzqxJcGHQIbVXXXoWQ2omGOae/LzM8FcChLCRbqGeqIRgQ0oQWpVsQoESgs5VBKoO4YkagSNpAEaZvqlCv2baYUvjqtI5ypDqotxv7b3/kbtrqSwXLm1EBldFgISUyFTGLCzwFHEPEoGprJZyLBHRI/2+I9k07ab0vAut3Nn8ieQqmnBC2G5HYMuPv/1TWxEWzgk7Dn1P8p2IlFYYIghpVuESnemyCNjx7qOhdCGmgBlz8mkQK0RIoU3KdWq9hIiSpHRuHO2jZHv/WhZCMxRRN6RFgCIQJyJhrqBw+L/rzGEgvBRUTB4uTSlmlbZJ4ZBB3VY4KFHLKpyVkAwCpihCqnzqUzZC1qZSzgyTa/UANz0zQMXgAgiU7LPwtGSSpz5vBCDoTEBQkYilJKEyo+pCwqC3KWJofssRBx+GkKpc6FeZTgPWUAifyaKHdAnnTHGl5L+pK9BBSciEV9k+KY/KcRXDS81qUKtDCTmFS94EtCqikGotFmWrlIiXlG1bKK3+9N1HAJN6RmHlW2VTW87U+W/18n/iuv5igPAnruQP/lQkbOvrynn5pdfIy9tNbV0Dzz79CAsXLWb6mWdTWV7O/BdfZMe+PTz1xGMseH0hP+w/zJRxQ3nh+fnMueMuSmorWPT+e/Tq1Zfrr7+GxW8u4N0vl3L2tLNY9fU3yqn1HjSAspJSqisq+ec/Z9O5W3vs+Fi9bBnExmE3GHh70VrumnMDH32ygIApg9ZRLl5f+BHdBgynS7KV979cSlV5Hfc/8jTdOrdT45kLNq9iwiU3c/llVyip2OuvvZTvv11Cbl4Z2SkO9rmiiDZCZofu9OuRiSlo4cB363ny5Veocrl5eO6zPP7oXZw4dgLSALZ+0yZ27MjFG/Dy1GOPMOeBB2mVEE/7Dh2UINS0adM5ZfzJrN34LbNm36GGmzz84FMqW/jkUw+ya/d2XC4XX365gu+2bGZA/8Fcd81F5B0opqG6kiM1TkYO6sNFl17JjOln8MKCD3j8oVvYvKWcay85g3MvvYDHXl1AvDAwAl627d7H7XfeSoecHtx8yzXcdv0NONJ78M9Z19E6Lg6fz8e8l+ax/0A+NTWVPPPMEzz+2Atc9bfTufueT7j/visxmaFwby5fLVvJmVdcyN133asUMM8+fTp9e+fw7PurmT3zAq676loefWQeS5a8yzvvLGLAgBHcdOM1LHh9AYs/eI8zZ0xlz95D7NiylXPOPodJp576C6vurwQILb1iOEpSUsaS6haCpVj5aAxGD57ALry+KuJijiXgTwzzRbwq9e4LuNSIcKNZt/oFjW7dntcEEv7g5okY7qbpg39BrBCR3/0LDnW0u9J5D8lkyD+1mp8qdyiXoQcISQnEaLAT8DuUzLTDUIkpuE0pekZFDcRgSiJg9OhsR7i8Eim66cAgUv77eRbh35VBkDMpABCepaKnh2iOjcwzEVXAsDBluMwoEb+MBxfZIAHMYZVHgwtjKFqXBIUTJMFLiyhYg+IAfq+TSaedxZeffY5BukoE8AmnSJVjZRqkjIX3qWyQUnNUH03ulQyBkJPNRjtB5ZjD8u5K2fowN97yDPfd/zhWqyhtCs9C+GHadUeeb/NsjPBQNiWxre9XFaUMZkzeWi675kaefOEVrDIYDF94ZLtZd7XgpvjwQb74Pp/zTj1JE8TVvB9d6pRZHUJ4Fd6JKi0ooOLlgw8+JRAwcMYZpzdlZDTRObLqmnNRLZeyIjUr3qyAij+ue/Endux/9Kf/6wGCpDVra8v57NOvmDBxKJWV5Wxcs5laj4cZZ5zB2vXriYtvpZTBnnz+RY4dPIS2XXsyondXbrltFrdf93feWPIRl116OYvfeJOc7l0p3LaemI5dGdqrP/+481GeePAWXnzjLQYOHkF8tIOPP/6Yy666GFvIy/6dO/l2dx6HftjN3kNHuPiqS/DWlVDrCtAlO4Oi0nJ6DxjG7g1LsSa0p3/vdtx652s8eN+N2E1g9VUy8ZwbeGPBPF5/53POP/d0dn33JXvzymjbys5BXxwxhgAZHXswuFtb6usOs+iD5Zw4YixVJZtZvrqQ664/j8uvvIrevQYw4ZRxuBsgLz8XV00lMQlJSnPimzWryW6bxXXXXMea9StZ/PZ7dM3uyjuLP2LiqVNom51Gcko6mzavwuV0s2nDdm6+9XK+/mqtGvkaFZuKt6GG/Op6TurTnSk3PsDsa86mIRDH+GE53Hn3S1xy+QwWL1/BVZddiUOyCb5SzrvkdmbfewPvvPEuJ447k+R4Ayu3FTJj6iisAR+5e3I5mJ9PekYmhUWFxMXbWL/2B66/6mxm3fkBD9x/jZI0PbwnV7WgmhOi6du7v2L/b/puG5NPOoH7H3yda649j0+XLuW0iRN57JGnuf7vV7J48Yf069OP3Lw8hgw5jpQYDy++uZrJp4wjo3UGsdFx4eimpRP4q7JbR9/HQpJV+gdK7lXLAhuMjUqcKGCwYw5V4KrZjtkYizmmO27JKIjhFuMnA7Uk6xMSbo3wFSLjlf6jduN/9GQ6ttYSyhI9ipM0IFP8NB9HaR4EhYeTj9NVgMnSBbMQJRXnSOabSFdPRKwqXC5sqkhE1oIuljXPC2i+5b8aIIjD9fv8qnXbG/BT42rkmJwuVJWV4/TLoK0QrROi2ZtfREx8K+ITbJSXVhIfZaU+YCYnK53DRYdVUd0cNNAmM5at2w6RkpaMEEfTUlO0FHQIKirKlVSyTGNMjLVw5jlX8+pLL6tRw8lZ2SRaQxwsLFHtnyFzkJTUVhwpLFUZAVEj7NGjGwfzDxAXE0ujs4GE2DRSW8WzY8dW4hMSMTpiaJfWwHlXzmXOAw9QXVGOzWrGZoslNSVeF06CIQqLjqgUfUNDA126dmL/gQPExcbidvqIjk8mJdHOD7sPkGhpYPbjr/LUM8+Lqg1mNXjNS27eQSzmGOLjogh4trNml5kxg/pTXFqEyeQnKT5NdTwUVjlpl5XMkYICWrVtQ31VNW5nLR9+sJmMLAsjR55Afb0QQkO0yWqL1WJtGlQXeeNqXf1o0JIu5ioeyJ8kNP+PbqTfcHLDnj17/o1Y/zdcwZ/+ionaugq+XvEto0cPpaqqko8/+AiTI54Lp53ChyuWERUdR/9OOdz39DP0P34Y7Tr3YEifHtx+2y1cceHFfL1uAxdedBHrly/DEBtHwe419Dr2RDq268jdj77J/bdPY95bH9F/4Eg1l+D9DxZz+RWXYcNDRUURX369hYJduxg4oh/LNxxg6vjRFB85THpGNEXFtfQdMJzdG1Zga5XOgJ45XHTtg7zywkPYzUas/jImnnUjr7/6DK8v+pLLLzqL79YtYfe+MtqnRJHviVWDllI7dWdg13Y0lOzjky9/oFe/rgS9FRwu8TJuzECeevQxvJZ4Lrv0HA4dLObAoXyqK0pJS8uka7culJaWkpaSwrnnnscPm5fz6ZKl2KPS6NezG+s2fk9RSTk9evfF6SzD2VjLgX3FXHHFuWzfuoeK0nxiEtIVu/lgVQ3j+3ViynWP889rT6XKl8QZJw1h9aqVfLRyNRNPPZ3h/fpgkvY2n5PZcx5j0pRxfPbhR4yddAaJsSbW7iph+imjseMnd08e23fsUA4woVUSJqOX7zbv4tq/ncEdd77PA3OuVRoVhbl5fLZ0KdHJCXTv1ofq+nLy8qs467SxHNi5lU+/2siQUccrhcg33vyYU06dRHFxOQlxceTl7WXAgD5kZ6awe99hKovLWfntWiX1bGkyCD8yB396Vf7aAVTUq/gaEtnoqpakhCWSFSlfa7ASX/W3+Gvy8BvtGFLGYY3qrJpjXTJvAbCHe3nUjAHV2dKi+v4rqdJ/6439hw6uK+SS8NZlJhldLDwIGWZlNPhxBMrw1mwn6NyOK2DHmjxWaSz4glZdiDBKSdKmSIgiNazVF1U6Rf8jnAb/zwAEXQKsqqhg587dxCYlsOijxUw9cTx5efsZMHwYxaUlJJnqmfP0QmZefxONzgLWb8vn4qkT+PDz5bTNzmHJp+9z0WVX4aqrp2f3NkydcgFPv/AMHq+X9u3aY7VIWc3HwrffpWuXHvj9DcTaffzj7pe4/967lJx7u16DGZiTyKrvdhNnMfDyux8xe9ZtLP3iS4YeP0y1940aPZJXXn2ZSy++hMaGSooK6+nSNZvPvlzB9Omn89kX33DVOX24+JZXGDNmFNUlDUw4eTCNDUE6dGiP1QgN9fVs2LiZtNZpamDbuPHjmD//NWbeOJPykgPUukwYPVUU1JgY3rMVdz69iFdfew2bdNKEvOw7sJO1G3bQp09f6qvL6NjWyrfbqzB4vKRntYVgBQWHG+jVrROLV23kmgums3DBfMafO4PXnnyKadMm8t6iDXTpFo3VFIPJbCOjTSYdcjqSEBunB0W16KRTQ7t+tLZVYTm8UP5cx9N/aMv84dMYdu/e/b8cIBioqSnn9flvMWjgIPbs3UtmaiJbdh7gqnOmMvfll5k67XSWLHyNfSUVnHr6dBrdISafPIpZt93Kfffcy+VXXMnNN93Cqq9XMHzMGNasfpfBx55Ep5zO3Pvwa9x361SeXfgRAwePJj05hvnzFzBz5o1YRHzF08DzL7xG26wMuvXqytOvvMe9d9zE8i9X0aZ9Gnn7D9D1mIGU5m1XEp79e7Rj+mU38+5b85WwjC1Qy+Szr+GtNxcw94kXmTLpJDZ+sxiXIYaubVM47LITbTaS0qELA7vnYHY2MG/+mwwZ1JtGp0vNGa8sr6OsrIqUtDgVGfXu1Zv5r7/BWWdM55NPP1HywqtXr2bo0KFMnjyJLeuW897i9wnFplJ2YA8jRoxn5cqNHDtgII2NVVTXFvLWG+9zxx2zFWO4c6c2mAw26ivLKff6GNe/I1MuuIMnHv8H63cUc/a0cRTv3MAzr3/G7bNmk9kqAWOoEV9jNX2HTeHTLz/m+Scep8+gIXTrEMdnq/O44sJLiDH62LBpI3v27mH8+AnccuttXHDB2Xzz9bfceMMZ3Dvnfe6992ZsZjOH9u3n808/pKrBxaCh4/Eayljy8Rru/ucsGmoOcv9Tb3PlzX+no8POky88w0kTTuL551/ggTlz+OTTTxkyeAh2h40vPvucIUOO55bbbmfhm29itUpquuXn31RiaDqFni6o4lNVsxegIJwUSftKLVX+XhxZI1bvAbz1WwmYumEVzQCjRHVCIbFikbHCAT8+cYpmsxYv+smI85ag4Q9biP/CH2quvB+fUQjHJqwhkYgWbQ6hIdZj9x3BW7ERuzkZQ3RffPZW+KX9V6hFegA6BgUWhCUvfJ/mrEHkdlUaOTIN8mcr5K/kIMi9BKksP8A77y3FbjHQ/diB7NuyHbPJzJRLL1Lyyeb6/Vx9z/s8+8gdfLboBfwZxzF9cG+Wf/MFB+vsDO3bgQfvu48RI09k2tTJ7N25lwXvLGLk6NGMPnGUCka89cW8sPAjzr3wKqKlrNVwhHGTL+bbNSt5681XCSXkMK53Krc/PI8pY0bz+NuLeeb+u9m2ZROjRp/Ils2bqampZtmyZTz88EMcKdzLpk07aSwvYF2RhW6pQbZu3cvLT1zNNXe+wz9n3crrr86n3lnFgAHDOWn8aOwChirLVZC1Y+cupp91FgfzD/HZZ0t466032b7la3buy+PT977g1kdepWdCGVff8wZz7p2N1S8Awc8L8+bSZ8QMunVOA1cN9cX5bNhRyIH8Us676AKsgf2sWldAZlIm7/6wnn9cMIPFi9+m35gJzH/yGe677zbWrFrP4eJDHH/s8cx/4y0lGXbdtdfROjFRDf1q2WqviLg/8pL/HyD8F5qFo19SfX0Nny/5kt69+5CakkpaShxV9V4SrXbqg04qKmuJtVuUM3DY7dQ1+HDEWtRULukndjmd1NbWEhsTQ2xiEs76KqJsWhO9pj5EYlyQSqcfqy0WuxmczgbVUSALSXCkq9GNzWbB7LBSXtlAcqxdqSdaoqU31091vY+UOIeqqcXbzRyqqCIlKUkRg+x4KakNkpAQj9sXoLK8hDgbWKJiMfndeK2JOsS0OoizGFU/eoOzjpqaGjBGk5Qci8vlwWoVASQ/Ho+XqCgHbreP6Kgo3G43FRWVpKWlYrPZqK6uIb1VHA0eJ55gCLvJQGlZNWZTDKmtU9X0OoPRpZTk6uoa1W8SYu00eFzYTWZcQQMJjiiK6mppFWWkuNJLfLyZoty9/LDnMNNOPY0oi+geuJXuQVm1gXpXPdFRDhwOB2aTi+pGM/GxccRYwefzqGvy+QNYbTbsdivBgJ/4WDs1dRAbK7GyXw2KkX5rEX2qqKknaPTisMaREBtN7r4drFy3m9OmnkpWnIN6l/R1l5OUlITNYlXiMvLe5f1XVFSoLo/Y2ASl5il11P8sQBDPE0mPSx21SRdQOYqgDDKS2jkW1aduFb3moE21wJpDeXgL1mJO6okvui2WkOSwrGH2uB7JHWmRjDDd/1dt5N94sSqDIBobUpgPBbF7nbg93+D0JpKQdjxBnwdTUGrqMUhzsRJ6lOekBHnCJL5wg52S6/opzeA/lkHQ6jBCFtz5w7es2VrIeaeNZdma7fg8Xpx1pZw57XSKC3Opry3g0bc388KT97H580XsbHBw/oRhrF7zFXWeOEafMAiTu4o33v+Efv2Oo3OXToi67SOPP8bfr7+R1ilJGFxV3PnkK1x81XV4SwopLdnLTbc/wterlvHBorfwOlrTLsbJwUYLp/frzPhbH+XpO25i354djB07mk0b16u9unz5MubOfYjCglw2b9pOh8zWHHbZGDGoKytWbObMk7py6cz/V961xUZ1XdF179zxa/wIgQB2cKCEFmJDQEmwoUpRPyq1UpMGQaKiNupPhVIpVaUq/PSn/Ws/aBVVfFRITaNWJFWTVgpqGtq0Ma0UWqc1jg3YYIPBhRaDbZJ4jB/zulOtvc+ZuTYztmewTQ2DhF/n3nvueeyzzz5rrX0IPzl4EH5qBEOfXMext9uxd++XULvifrS3n0RHRwf27NmL9s4OjI6O4ejRt/D666+h85/HJd/L+e5e7Pry89i2Lonv/OCXOHToZZRTj4Pg7RN/Rv9IBXbtehStfz+OrWvr0XaW+WrOY8/XngLGhtDa1o+mzY040tKKbz//RRx54w3s+8Z+fP/AS3j5pwfxpz+8i7gTx1ee3gNnbAJ9107h1Vf/iB//6Icmg2QgoGSyTWaHp818KrG7OY7apVnsLoggALHYOE53dqOhoQGRSCXgJk3aTgZx4wZgw0WLhkXRypYiFBSl0bSl/KgYk1C5NBBsOLQMDgs2W6k4gvQNydkwFzGFFJMeRVQ0+f5Jw+cVWSETlKJ6I8OaygmSL0TVG6AvwcdE5vOMlXeV+4j6o48w0+4SoUy0v6DD9XqhoCEOP1kON0TaDi2ccp4lcGpQzLqjdIVayXagsBQR/ymi2NNE/dq8BHE4okVgVAwlGQ/P/2hMaWj53jTAdJDCiCVuoq3tNB6qX4+1D9aZeBw51eQwsCXJv7fcboXmi7E29DZBVfMZApDSSUcHI50m1JH3UUeMfG62rTBKTD/F4zfR2taOurr1WL9urcDU7IZQNSSCWHnBImvmPaN+cWseBgMmXND5rIwLCWVKmlzPRBL4fq6AqlS7QRHbSTqIaRelzgBSH70P/5M+wKuGs/KrCEVWiyCOIYpn0i7zfDQ7ti38zsbPcwk653vhKVwDUyjX77SHrR7HbM2X3ZCZPjFX25S9bB+VniZdUttKZLUMXZJtFg4NIn7jfXij/YJAKLl/F7yqLZIQymXuCGoapBOiJCnqn/afieAonc5wZQWpH6y1xSDkAynO9oZz+bvOR6LnoyND+PBUn6Re7+q9jOYdO/HR0FUsL+NBnIu6NRG8eawVL77wApKTI3in5R9YV/cQblz/D3bu2I6jb7+DjQ/XI5EANm3aiJ8dPoynnnkG1wYH0by9GTVVFTJne/49gLPnerGiphoP1lbjN787jgPf/RbaT36ACS+CDasq8bcPurGlfgXe+msrvr5vH24MX8fmxkZcunhBnI6uri48++xuDA0O49zZc/jcZ5tw+Be/QtOOJ5FKl2BX0yq88loLnnisGYMDAwiXcV5XYfsTm1HqOoiORtHR2Sk5UYgPopx6Z8eH2P/N/ei/1CXp6LdufRg/f+XXePyxLXiv9TwOvPQivCQtMdkoSbx57BhW1q5CZU0lNjywEqcvDuHT6x7AiZMnUF1ag89sfBR1yytw5Le/R+PGevRcvoLdu59Df28Prvy3Hz3nL+LJnTvkiHHk4xGRrq9fuxEb6teITZR00pnju+l9GYwgLPEA/CzD1Onu7l76byjKbuxQUnDYuWpQ7cKobaC9rfnc80tbSCnJOS7EPRXrcKxzkWVGq2ExC7C0YMBoChiKK71RWJSKqD6AmmouAEbNxFxr+cO6tGuZDGnMZJrL4KimkaysCdONjyklds+8czb5rbk730wRuCxO5LBeKtqQauSF+hYw4xS1kXJUMlQpa6FCGbkl0pCE/mR2XxkqmKTA5SJ4q6Gdao71abrD44fOGY26pegbQSsrrmLvR2eJdaC4U6AfrMjQtNigeaSmG8ydeXmRpoPhfisTIduDKvBlBcV0XGk5OeaLAAAF0UlEQVSfKKqe8txu/DISE1fhlm0DKlYilLqK9OR5hErXIuHeBzjMX0A1DS4tdFjjQn8VoilVFI0aKfvKZiiU/heUd3aUZYWorEOTravQ8KQvgsbSIN1FG0E1IBSMqagBmZcZxUh+ZxgIDPsLrVDHFJ1iHt85SY5HCvnwPUihvQn4Y3Ku7pWtgZcawsT4JXhuBG5pPRCqVjS/PiXDURfKW0b4ywLLrEaFvHROM2lmxS1/mzeKoza4AUPaPjf1MbpglJ9X9VFqaegc05+V2izy1mxJgzthu9Oxp7x4WpQs9SNXmKRW8uZylEUxazoo2mIqgU+qMcWDlBpJOjHVV3l/S6/V5Hwa2BQbQ6qNTwomNx5A2PUlRTVFryTTpoii6YJrZOcy6qnB2UZ1RZ81ooy6yKYz9BNC0uf8Jj3YjCTSIDnuJMU2NS7oRDsKQqU8OPeHJLCSwWHsqLAPKEufpDw8NRpY3ujaiOw86c+kSysFXQRuTdvdaieyVmkubuBSLuN0dXUtkkVcqGayA9eqCc7Pc6wpLH4/mTW0M9ZIVAmzJYKLZLEdY0128LnZ97DtVOzdZ29fqw6pupb85BEgyXMrK001NfhfmGDO7LW8wyUCwyMr95XfcVUHTv7PREHIwwZKUOGfwvXu7yHmV2P56qcRWf55JLzVSLBoKCzGm9LcniD3RaJLDCxlcfXD1YDG0ahjMuomUTj+rAu3Oo3qIGp/cmnQ/CRJIybGRZ7AP1mQSCuTBZ9B/rCRXJc0j6IsKg6gLEKqCMEMHgmHLg2Bg2UI04gnyMiPIRyKIpG4gPDAe4iOXkDIaUL5I88BzPBIMKwTZoYFWUxUmSTf2J7jnFzMoTFt/s/26JwB7Rz3MO6PLnQzTHWRClH/IM/HqAkayfpgOQvTy30p7zpV0UL6PhBnmn6d1tkq204P6OgGwCou5nbup76C2VdlfykOi9XMsL+2FteGWu9+ZsJsYyz497vAQchsfQp57zmVXSxzcus0mlP18hYKDPlMmQDGfSZrcHsPLvjqoEplYB7nrOHC0w8Lrv6duMAIyHB3zx05l8QwJiRDYnKyF9HoDZRWNsMpr4XrjwGTA4IzQXg5km5EkqExP4ocjwlYT7JkIOSXyP14bGRFaelGiGqo4cVnE0DxyEdVMyVtmNlqUdKcu1n+zMMwanakXKZO4zEcc5fYoxNztCaUNX64wFMXgk5KHF5yHKnkCHwyOEqodx/FjeEWRCbHUVb5CBD5FGLuMnkPkQuWwy/LsJ9PAOHidHAh8z/fiXch97D+wNy2CLdjBXM7CTO3qjoIc6tbMf0zW52MM1zMrZfYNTa+bFRFctbeOXPmzML1xWI12O2M4cWq4wzPKXRyF1Pl/08oTe7IQv7uvHcm74x9LLs+c4wm4VA9TiM/nAcLcCLwUzGUpHoQG2qRDI2x9CqEax5H6X0N8J1JxP0JwZ54DpOJlSEkRxExoVmmuDNPxeW8GJSiDbkiREwsDJ0Ciil7DCnL8Q4dAh4jMAkSw8iarIl0Q9Fo8JKA7yHsl4kSHsdhimmuxcEYh8fv/XJ5dphiQMPvIhHtgxNOwa/aBHfZF0Q6N+TQgaDCJB0cCoFqKF3R5ia/ijmQWWoGrZD5P18OAkfLwtuE3BuA2RyEmeNoxVi/KXvinJGNbIl7YSNiEx7y2IpRRM37w0/wsE1ilXeFg3C7Y+YOX1+IgSi2qgtvDIqpWWFHD5lQdzGPuieusdNbz7U9auX71wGHmf2YtbMWoZI1cDCMsSv/QsiPwquqACINSJdskuMAx7kJ16+RZDQCCBUMAUP/nmQbpFw3Iw6upGOeRJo5lA3uhNhXC45kbhNmZqQEJMGwiTSBucxLGka5fxnpiT6kEtfwcXQCXmQbqpc1oiQVQjr2F/hOBRynDunyWkxSQlLSnjMKoefinsmYmivZVvZYa+l0eCHzf74chOKPTgtp16XmINwrGxCVqQaoyDpu8G7qVmcV2DXK9z++N9rr9hJ0iAAAAABJRU5ErkJggg==;" parent="1" vertex="1">
          <mxGeometry x="-180" y="331" width="520" height="189" as="geometry" />
        </mxCell>
        <mxCell id="XUonrum9IGVkX8E4vPcN-1" value="Application Platform" style="shape=rect;rounded=1;whiteSpace=wrap;html=1;shadow=0;strokeColor=none;fillColor=#64BBE2;arcSize=30;fontSize=14;spacingLeft=42;fontStyle=1;fontColor=#FFFFFF;align=left;" vertex="1" parent="1">
          <mxGeometry x="430" y="90" width="220" height="40" as="geometry" />
        </mxCell>
        <mxCell id="XUonrum9IGVkX8E4vPcN-2" value="1" style="shape=ellipse;perimeter=ellipsePerimeter;fontSize=22;fontStyle=1;shadow=0;strokeColor=#ffffff;fillColor=#10739E;strokeWidth=4;fontColor=#ffffff;align=center;" vertex="1" parent="1">
          <mxGeometry x="400" y="80" width="60" height="60" as="geometry" />
        </mxCell>
        <mxCell id="XUonrum9IGVkX8E4vPcN-3" value="Cleanse &amp;amp; Enrich" style="shape=rect;rounded=1;whiteSpace=wrap;html=1;shadow=0;strokeColor=none;fillColor=#F8C382;arcSize=30;fontSize=14;spacingLeft=42;fontStyle=1;fontColor=#FFFFFF;align=left;" vertex="1" parent="1">
          <mxGeometry x="430" y="155" width="220" height="40" as="geometry" />
        </mxCell>
        <mxCell id="XUonrum9IGVkX8E4vPcN-4" value="2" style="shape=ellipse;perimeter=ellipsePerimeter;fontSize=22;fontStyle=1;shadow=0;strokeColor=#ffffff;fillColor=#F2931E;strokeWidth=4;fontColor=#ffffff;align=center;" vertex="1" parent="1">
          <mxGeometry x="400" y="145" width="60" height="60" as="geometry" />
        </mxCell>
        <mxCell id="XUonrum9IGVkX8E4vPcN-5" value="Unify and Identify" style="shape=rect;rounded=1;whiteSpace=wrap;html=1;shadow=0;strokeColor=none;fillColor=#F08E81;arcSize=30;fontSize=14;spacingLeft=42;fontStyle=1;fontColor=#FFFFFF;align=left;" vertex="1" parent="1">
          <mxGeometry x="430" y="220" width="220" height="40" as="geometry" />
        </mxCell>
        <mxCell id="XUonrum9IGVkX8E4vPcN-6" value="3" style="shape=ellipse;perimeter=ellipsePerimeter;fontSize=22;fontStyle=1;shadow=0;strokeColor=#ffffff;fillColor=#AE4132;strokeWidth=4;fontColor=#ffffff;align=center;" vertex="1" parent="1">
          <mxGeometry x="400" y="210" width="60" height="60" as="geometry" />
        </mxCell>
        <mxCell id="XUonrum9IGVkX8E4vPcN-7" value="Preferences &amp;amp; Consent" style="shape=rect;rounded=1;whiteSpace=wrap;html=1;shadow=0;strokeColor=none;fillColor=#5D7F99;arcSize=30;fontSize=14;spacingLeft=42;fontStyle=1;fontColor=#FFFFFF;align=left;" vertex="1" parent="1">
          <mxGeometry x="430" y="285" width="220" height="40" as="geometry" />
        </mxCell>
        <mxCell id="XUonrum9IGVkX8E4vPcN-8" value="4" style="shape=ellipse;perimeter=ellipsePerimeter;fontSize=22;fontStyle=1;shadow=0;strokeColor=#ffffff;fillColor=#23445D;strokeWidth=4;fontColor=#ffffff;align=center;" vertex="1" parent="1">
          <mxGeometry x="400" y="275" width="60" height="60" as="geometry" />
        </mxCell>
        <mxCell id="XUonrum9IGVkX8E4vPcN-9" value="Activate Data Multi Channel" style="shape=rect;rounded=1;whiteSpace=wrap;html=1;shadow=0;strokeColor=none;fillColor=#61C6CE;arcSize=30;fontSize=14;spacingLeft=42;fontStyle=1;fontColor=#FFFFFF;align=left;" vertex="1" parent="1">
          <mxGeometry x="430" y="350" width="220" height="40" as="geometry" />
        </mxCell>
        <mxCell id="XUonrum9IGVkX8E4vPcN-10" value="5" style="shape=ellipse;perimeter=ellipsePerimeter;fontSize=22;fontStyle=1;shadow=0;strokeColor=#ffffff;fillColor=#12AAB5;strokeWidth=4;fontColor=#ffffff;align=center;" vertex="1" parent="1">
          <mxGeometry x="400" y="340" width="60" height="60" as="geometry" />
        </mxCell>
      </root>
    </mxGraphModel>
  </diagram>
</mxfile>
